M48
INCH,TZ
T1C0.0276
T2C0.0295
T3C0.0315
T4C0.0354
T5C0.0354
T6C0.1260
%
G90
G05
T1
X68620Y-37764
X65620Y-40480
X65620Y-41386
X68620Y-41386
X65620Y-38669
X68620Y-38669
X65620Y-39575
X68620Y-39575
X65620Y-37764
X68620Y-40480
T2
X65811Y-36226
X66311Y-35726
X66311Y-36726
X67919Y-35726
X67919Y-36726
X68419Y-36226
T3
X54863Y-38000
X54863Y-39000
X54863Y-40000
X54863Y-41000
X54863Y-42000
X54863Y-43000
X54863Y-44000
X54863Y-45000
X54863Y-46000
X61608Y-43800
X61608Y-44804
X61608Y-45788
X72633Y-36035
X72633Y-37035
X72633Y-38035
X72633Y-39035
X72633Y-40035
X72633Y-41035
X72633Y-42035
X72633Y-43035
X72633Y-44035
X72633Y-45035
X72633Y-46035
X61625Y-41386
X64625Y-41386
X61630Y-39220
X64630Y-39220
X61630Y-40303
X64630Y-40303
X61630Y-35972
X64630Y-35972
X61630Y-38138
X64630Y-38138
X61630Y-37055
X64630Y-37055
T4
X56163Y-39245
X56163Y-40336
X56163Y-41426
X56163Y-42517
X57163Y-38700
X57163Y-39790
X57163Y-40881
X57163Y-41972
X57163Y-43062
X70033Y-38699
X70033Y-39789
X70033Y-40880
X70033Y-41971
X70033Y-43061
X71033Y-39244
X71033Y-40335
X71033Y-41425
X71033Y-42516
T5
X62940Y-43800
X62940Y-44784
X62940Y-45769
X64239Y-43800
X64239Y-44784
X64239Y-45769
X66040Y-43800
X66040Y-44784
X66040Y-45769
X67339Y-43800
X67339Y-44784
X67339Y-45769
X58740Y-43800
X58740Y-44784
X58740Y-45769
X60039Y-43800
X60039Y-44784
X60039Y-45769
T6
X56663Y-45800
X70533Y-35961
X70533Y-45799
T0
M30
