G04 #@! TF.GenerationSoftware,KiCad,Pcbnew,5.0.2-bee76a0~70~ubuntu16.04.1*
G04 #@! TF.CreationDate,2019-02-24T19:25:28+01:00*
G04 #@! TF.ProjectId,OpenC64MegaDrivePadAdapter,4f70656e-4336-4344-9d65-676144726976,5*
G04 #@! TF.SameCoordinates,Original*
G04 #@! TF.FileFunction,Copper,L1,Top*
G04 #@! TF.FilePolarity,Positive*
%FSLAX46Y46*%
G04 Gerber Fmt 4.6, Leading zero omitted, Abs format (unit mm)*
G04 Created by KiCad (PCBNEW 5.0.2-bee76a0~70~ubuntu16.04.1) date dom 24 feb 2019 19:25:28 CET*
%MOMM*%
%LPD*%
G01*
G04 APERTURE LIST*
G04 #@! TA.AperFunction,ComponentPad*
%ADD10R,1.000000X1.000000*%
G04 #@! TD*
G04 #@! TA.AperFunction,ComponentPad*
%ADD11C,1.000000*%
G04 #@! TD*
G04 #@! TA.AperFunction,ComponentPad*
%ADD12R,1.600000X1.600000*%
G04 #@! TD*
G04 #@! TA.AperFunction,ComponentPad*
%ADD13O,1.600000X1.600000*%
G04 #@! TD*
G04 #@! TA.AperFunction,ComponentPad*
%ADD14O,1.400000X1.400000*%
G04 #@! TD*
G04 #@! TA.AperFunction,ComponentPad*
%ADD15C,1.400000*%
G04 #@! TD*
G04 #@! TA.AperFunction,ComponentPad*
%ADD16R,1.400000X1.400000*%
G04 #@! TD*
G04 #@! TA.AperFunction,ComponentPad*
%ADD17C,5.001260*%
G04 #@! TD*
G04 #@! TA.AperFunction,ComponentPad*
%ADD18O,1.998980X1.501140*%
G04 #@! TD*
G04 #@! TA.AperFunction,ViaPad*
%ADD19C,1.000000*%
G04 #@! TD*
G04 #@! TA.AperFunction,Conductor*
%ADD20C,0.500000*%
G04 #@! TD*
G04 #@! TA.AperFunction,Conductor*
%ADD21C,0.250000*%
G04 #@! TD*
G04 #@! TA.AperFunction,Conductor*
%ADD22C,0.100000*%
G04 #@! TD*
G04 #@! TA.AperFunction,Conductor*
%ADD23C,0.025400*%
G04 #@! TD*
G04 APERTURE END LIST*
D10*
G04 #@! TO.P,Q2,1*
G04 #@! TO.N,Net-(Q2-Pad1)*
X168428696Y-93783609D03*
D11*
G04 #@! TO.P,Q2,3*
G04 #@! TO.N,GND*
X168428696Y-91243609D03*
G04 #@! TO.P,Q2,2*
G04 #@! TO.N,Net-(Q2-Pad2)*
X167158696Y-92513609D03*
G04 #@! TD*
D12*
G04 #@! TO.P,D4,1*
G04 #@! TO.N,Net-(D4-Pad1)*
X164159200Y-99619600D03*
D13*
G04 #@! TO.P,D4,2*
G04 #@! TO.N,/fire*
X156539200Y-99619600D03*
G04 #@! TD*
D14*
G04 #@! TO.P,R4,2*
G04 #@! TO.N,Net-(Q2-Pad1)*
X166674000Y-96869600D03*
D15*
G04 #@! TO.P,R4,1*
G04 #@! TO.N,+5V*
X174294000Y-96869600D03*
G04 #@! TD*
G04 #@! TO.P,S1,6*
G04 #@! TO.N,Net-(D4-Pad1)*
X159868000Y-116252000D03*
G04 #@! TO.P,S1,5*
G04 #@! TO.N,/md_c/~st*
X159868000Y-113752000D03*
G04 #@! TO.P,S1,4*
G04 #@! TO.N,Net-(S1-Pad3)*
X159868000Y-111252000D03*
G04 #@! TO.P,S1,3*
X163168000Y-116252000D03*
G04 #@! TO.P,S1,2*
G04 #@! TO.N,/md_b/~a*
X163168000Y-113752000D03*
D16*
G04 #@! TO.P,S1,1*
G04 #@! TO.N,Net-(D4-Pad1)*
X163168000Y-111252000D03*
G04 #@! TD*
D17*
G04 #@! TO.P,J20,*
G04 #@! TO.N,GND*
X179154000Y-116330560D03*
D18*
G04 #@! TO.P,J20,9*
G04 #@! TO.N,/md_c/~st*
X180672920Y-99680860D03*
G04 #@! TO.P,J20,8*
G04 #@! TO.N,GND*
X180672920Y-102452000D03*
G04 #@! TO.P,J20,7*
G04 #@! TO.N,+5V*
X180672920Y-105220600D03*
G04 #@! TO.P,J20,6*
G04 #@! TO.N,/md_b/~a*
X180672920Y-107991740D03*
G04 #@! TO.P,J20,1*
G04 #@! TO.N,/md_up*
X177635080Y-109376040D03*
G04 #@! TO.P,J20,2*
G04 #@! TO.N,/md_down*
X177635080Y-106607440D03*
G04 #@! TO.P,J20,5*
G04 #@! TO.N,+5V*
X177635080Y-98296560D03*
G04 #@! TO.P,J20,4*
G04 #@! TO.N,/md_right*
X177635080Y-101065160D03*
G04 #@! TO.P,J20,3*
G04 #@! TO.N,/md_left*
X177635080Y-103836300D03*
D17*
G04 #@! TO.P,J20,*
G04 #@! TO.N,GND*
X179154000Y-91342040D03*
G04 #@! TD*
D10*
G04 #@! TO.P,Q1,1*
G04 #@! TO.N,Net-(Q1-Pad1)*
X172514407Y-91243609D03*
D11*
G04 #@! TO.P,Q1,3*
G04 #@! TO.N,GND*
X172514407Y-93783609D03*
G04 #@! TO.P,Q1,2*
G04 #@! TO.N,Net-(Q1-Pad2)*
X173784407Y-92513609D03*
G04 #@! TD*
D14*
G04 #@! TO.P,R1,2*
G04 #@! TO.N,Net-(Q1-Pad2)*
X174294000Y-105119600D03*
D15*
G04 #@! TO.P,R1,1*
G04 #@! TO.N,Net-(R1-Pad1)*
X166674000Y-105119600D03*
G04 #@! TD*
G04 #@! TO.P,S2,6*
G04 #@! TO.N,Net-(R1-Pad1)*
X167742000Y-116252000D03*
G04 #@! TO.P,S2,5*
G04 #@! TO.N,Net-(S1-Pad3)*
X167742000Y-113752000D03*
G04 #@! TO.P,S2,4*
G04 #@! TO.N,Net-(D5-Pad1)*
X167742000Y-111252000D03*
G04 #@! TO.P,S2,3*
G04 #@! TO.N,Net-(S2-Pad3)*
X171042000Y-116252000D03*
G04 #@! TO.P,S2,2*
G04 #@! TO.N,Net-(S2-Pad2)*
X171042000Y-113752000D03*
D16*
G04 #@! TO.P,S2,1*
G04 #@! TO.N,Net-(S2-Pad1)*
X171042000Y-111252000D03*
G04 #@! TD*
D15*
G04 #@! TO.P,S3,6*
G04 #@! TO.N,Net-(Q2-Pad1)*
X149200000Y-116252000D03*
G04 #@! TO.P,S3,5*
G04 #@! TO.N,/pot_x*
X149200000Y-113752000D03*
G04 #@! TO.P,S3,4*
G04 #@! TO.N,Net-(Q1-Pad1)*
X149200000Y-111252000D03*
G04 #@! TO.P,S3,3*
X152500000Y-116252000D03*
G04 #@! TO.P,S3,2*
G04 #@! TO.N,Net-(Q2-Pad2)*
X152500000Y-113752000D03*
D16*
G04 #@! TO.P,S3,1*
G04 #@! TO.N,GND*
X152500000Y-111252000D03*
G04 #@! TD*
D13*
G04 #@! TO.P,D6,2*
G04 #@! TO.N,/up*
X156527200Y-105119600D03*
D12*
G04 #@! TO.P,D6,1*
G04 #@! TO.N,/md_up*
X164147200Y-105119600D03*
G04 #@! TD*
D15*
G04 #@! TO.P,R3,1*
G04 #@! TO.N,+5V*
X174294000Y-99619600D03*
D14*
G04 #@! TO.P,R3,2*
G04 #@! TO.N,Net-(Q1-Pad1)*
X166674000Y-99619600D03*
G04 #@! TD*
D12*
G04 #@! TO.P,D1,1*
G04 #@! TO.N,/md_right*
X164159200Y-91369600D03*
D13*
G04 #@! TO.P,D1,2*
G04 #@! TO.N,/right*
X156539200Y-91369600D03*
G04 #@! TD*
D12*
G04 #@! TO.P,D2,1*
G04 #@! TO.N,/md_left*
X164159200Y-94119600D03*
D13*
G04 #@! TO.P,D2,2*
G04 #@! TO.N,/left*
X156539200Y-94119600D03*
G04 #@! TD*
D12*
G04 #@! TO.P,D3,1*
G04 #@! TO.N,/md_down*
X164159200Y-96869600D03*
D13*
G04 #@! TO.P,D3,2*
G04 #@! TO.N,/down*
X156539200Y-96869600D03*
G04 #@! TD*
D12*
G04 #@! TO.P,D5,1*
G04 #@! TO.N,Net-(D5-Pad1)*
X164159200Y-102369600D03*
D13*
G04 #@! TO.P,D5,2*
G04 #@! TO.N,/up*
X156539200Y-102369600D03*
G04 #@! TD*
D15*
G04 #@! TO.P,R2,1*
G04 #@! TO.N,+5V*
X174294000Y-102369600D03*
D14*
G04 #@! TO.P,R2,2*
G04 #@! TO.N,Net-(R1-Pad1)*
X166674000Y-102369600D03*
G04 #@! TD*
D17*
G04 #@! TO.P,J10,*
G04 #@! TO.N,GND*
X143924000Y-116332000D03*
D18*
G04 #@! TO.P,J10,3*
G04 #@! TO.N,/left*
X145442920Y-103837740D03*
G04 #@! TO.P,J10,2*
G04 #@! TO.N,/down*
X145442920Y-106608880D03*
G04 #@! TO.P,J10,1*
G04 #@! TO.N,/up*
X145442920Y-109377480D03*
G04 #@! TO.P,J10,4*
G04 #@! TO.N,/right*
X145442920Y-101066600D03*
G04 #@! TO.P,J10,5*
G04 #@! TO.N,/pot_y*
X145442920Y-98298000D03*
G04 #@! TO.P,J10,9*
G04 #@! TO.N,/pot_x*
X142405080Y-99682300D03*
G04 #@! TO.P,J10,8*
G04 #@! TO.N,GND*
X142405080Y-102453440D03*
G04 #@! TO.P,J10,7*
G04 #@! TO.N,+5V*
X142405080Y-105222040D03*
G04 #@! TO.P,J10,6*
G04 #@! TO.N,/fire*
X142405080Y-107993180D03*
G04 #@! TD*
D19*
G04 #@! TO.N,GND*
X139352000Y-104140000D03*
X139352000Y-106680000D03*
X139352000Y-109220000D03*
X139352000Y-111760000D03*
X139352000Y-114300000D03*
X139352000Y-116840000D03*
X156483974Y-111251668D03*
X156483974Y-113801668D03*
X184488000Y-116930000D03*
X184488000Y-114390000D03*
X184488000Y-111850000D03*
X184488000Y-109310000D03*
X184488000Y-106770000D03*
X184488000Y-104230000D03*
X184488000Y-101690000D03*
X184488000Y-99150000D03*
X184488000Y-96610000D03*
X184488000Y-94070000D03*
X184488000Y-91530000D03*
X139352000Y-96520000D03*
X139352000Y-99060000D03*
X139352000Y-101600000D03*
X156483974Y-116301668D03*
G04 #@! TD*
D20*
G04 #@! TO.N,+5V*
X176465400Y-105220600D02*
X180424000Y-105220600D01*
X142654000Y-105222040D02*
X152822040Y-105222040D01*
X152822040Y-105222040D02*
X154788000Y-107188000D01*
X154788000Y-107188000D02*
X174498000Y-107188000D01*
X174498000Y-107188000D02*
X176465400Y-105220600D01*
X174294000Y-102369600D02*
X174294000Y-99619600D01*
X174294000Y-99619600D02*
X174294000Y-96869600D01*
X175720960Y-98296560D02*
X174294000Y-96869600D01*
X177884000Y-98296560D02*
X175720960Y-98296560D01*
X182041800Y-105220600D02*
X180424000Y-105220600D01*
X177884000Y-98296560D02*
X181964160Y-98296560D01*
X181964160Y-98296560D02*
X182956200Y-99288600D01*
X182956200Y-99288600D02*
X182956200Y-104306200D01*
X182956200Y-104306200D02*
X182041800Y-105220600D01*
D21*
G04 #@! TO.N,Net-(Q1-Pad2)*
X173784407Y-92513609D02*
X173784407Y-94947593D01*
X173784407Y-94947593D02*
X172720000Y-96012000D01*
X172720000Y-96012000D02*
X172720000Y-103545600D01*
X172720000Y-103545600D02*
X174294000Y-105119600D01*
G04 #@! TO.N,/md_b/~a*
X174498000Y-108966000D02*
X167854000Y-108966000D01*
X167854000Y-108966000D02*
X163068000Y-113752000D01*
X175472260Y-107991740D02*
X174498000Y-108966000D01*
X180424000Y-107991740D02*
X175472260Y-107991740D01*
D20*
G04 #@! TO.N,GND*
X139352000Y-106680000D02*
X139352000Y-109220000D01*
X139352000Y-111760000D02*
X139352000Y-114300000D01*
X142654000Y-102453440D02*
X140205440Y-102453440D01*
X140205440Y-102453440D02*
X139352000Y-101600000D01*
X184488000Y-111850000D02*
X184488000Y-114390000D01*
X184488000Y-106770000D02*
X184488000Y-109310000D01*
X184488000Y-101690000D02*
X184488000Y-104230000D01*
X184488000Y-96610000D02*
X184488000Y-99150000D01*
X184488000Y-91530000D02*
X184488000Y-94070000D01*
X139352000Y-96520000D02*
X139352000Y-99060000D01*
X139352000Y-101600000D02*
X139352000Y-104140000D01*
D22*
X156483974Y-113801668D02*
X156483974Y-111251668D01*
D21*
G04 #@! TO.N,Net-(Q1-Pad1)*
X170505120Y-95788480D02*
X166674000Y-99619600D01*
X170505120Y-93146880D02*
X170505120Y-95788480D01*
X172408391Y-91243609D02*
X170505120Y-93146880D01*
X150926800Y-113078800D02*
X149100000Y-111252000D01*
X150926800Y-114808000D02*
X150926800Y-113078800D01*
X152370800Y-116252000D02*
X150926800Y-114808000D01*
X152400000Y-116252000D02*
X152370800Y-116252000D01*
G04 #@! TO.N,Net-(S1-Pad3)*
X165568000Y-113752000D02*
X167642000Y-113752000D01*
X163068000Y-116252000D02*
X165568000Y-113752000D01*
X159768000Y-111252000D02*
X159791400Y-111252000D01*
X159791400Y-111252000D02*
X161518600Y-112979200D01*
X161518600Y-112979200D02*
X161518600Y-114702600D01*
X161518600Y-114702600D02*
X163068000Y-116252000D01*
G04 #@! TO.N,Net-(Q2-Pad1)*
X168428696Y-95114904D02*
X166674000Y-96869600D01*
X168428696Y-93783609D02*
X168428696Y-95114904D01*
G04 #@! TO.N,Net-(R1-Pad1)*
X166674000Y-102369600D02*
X166674000Y-105119600D01*
G04 #@! TD*
D23*
G04 #@! TO.N,GND*
G36*
X177696829Y-88925892D02*
X177384124Y-89230915D01*
X179154000Y-91000790D01*
X180923876Y-89230915D01*
X180611171Y-88925892D01*
X180073079Y-88731700D01*
X187628300Y-88731700D01*
X187628301Y-119038300D01*
X179907202Y-119038300D01*
X180611171Y-118746708D01*
X180923876Y-118441685D01*
X179154000Y-116671810D01*
X177384124Y-118441685D01*
X177696829Y-118746708D01*
X178504809Y-119038300D01*
X144680679Y-119038300D01*
X145381171Y-118748148D01*
X145693876Y-118443125D01*
X143924000Y-116673250D01*
X142154124Y-118443125D01*
X142466829Y-118748148D01*
X143270819Y-119038300D01*
X135381700Y-119038300D01*
X135381700Y-115910369D01*
X141134136Y-115910369D01*
X141185151Y-117010098D01*
X141507852Y-117789171D01*
X141812875Y-118101876D01*
X143582750Y-116332000D01*
X144265250Y-116332000D01*
X146035125Y-118101876D01*
X146340148Y-117789171D01*
X146713864Y-116753631D01*
X146681674Y-116059711D01*
X148233300Y-116059711D01*
X148233300Y-116444289D01*
X148380471Y-116799592D01*
X148652408Y-117071529D01*
X149007711Y-117218700D01*
X149392289Y-117218700D01*
X149747592Y-117071529D01*
X150019529Y-116799592D01*
X150166700Y-116444289D01*
X150166700Y-116059711D01*
X150019529Y-115704408D01*
X149747592Y-115432471D01*
X149392289Y-115285300D01*
X149007711Y-115285300D01*
X148652408Y-115432471D01*
X148380471Y-115704408D01*
X148233300Y-116059711D01*
X146681674Y-116059711D01*
X146662849Y-115653902D01*
X146340148Y-114874829D01*
X146035125Y-114562124D01*
X144265250Y-116332000D01*
X143582750Y-116332000D01*
X141812875Y-114562124D01*
X141507852Y-114874829D01*
X141134136Y-115910369D01*
X135381700Y-115910369D01*
X135381700Y-114220875D01*
X142154124Y-114220875D01*
X143924000Y-115990750D01*
X145693876Y-114220875D01*
X145381171Y-113915852D01*
X144394331Y-113559711D01*
X148233300Y-113559711D01*
X148233300Y-113944289D01*
X148380471Y-114299592D01*
X148652408Y-114571529D01*
X149007711Y-114718700D01*
X149392289Y-114718700D01*
X149747592Y-114571529D01*
X150019529Y-114299592D01*
X150166700Y-113944289D01*
X150166700Y-113559711D01*
X150019529Y-113204408D01*
X149747592Y-112932471D01*
X149392289Y-112785300D01*
X149007711Y-112785300D01*
X148652408Y-112932471D01*
X148380471Y-113204408D01*
X148233300Y-113559711D01*
X144394331Y-113559711D01*
X144345631Y-113542136D01*
X143245902Y-113593151D01*
X142466829Y-113915852D01*
X142154124Y-114220875D01*
X135381700Y-114220875D01*
X135381700Y-111059711D01*
X148233300Y-111059711D01*
X148233300Y-111444289D01*
X148380471Y-111799592D01*
X148652408Y-112071529D01*
X149007711Y-112218700D01*
X149392289Y-112218700D01*
X149477470Y-112183417D01*
X150535101Y-113241049D01*
X150535100Y-114769429D01*
X150527428Y-114808000D01*
X150535100Y-114846570D01*
X150535100Y-114846574D01*
X150557827Y-114960832D01*
X150644401Y-115090399D01*
X150677103Y-115112250D01*
X151560030Y-115995178D01*
X151533300Y-116059711D01*
X151533300Y-116444289D01*
X151680471Y-116799592D01*
X151952408Y-117071529D01*
X152307711Y-117218700D01*
X152692289Y-117218700D01*
X153047592Y-117071529D01*
X153319529Y-116799592D01*
X153466700Y-116444289D01*
X153466700Y-116059711D01*
X158901300Y-116059711D01*
X158901300Y-116444289D01*
X159048471Y-116799592D01*
X159320408Y-117071529D01*
X159675711Y-117218700D01*
X160060289Y-117218700D01*
X160415592Y-117071529D01*
X160687529Y-116799592D01*
X160834700Y-116444289D01*
X160834700Y-116059711D01*
X160687529Y-115704408D01*
X160415592Y-115432471D01*
X160060289Y-115285300D01*
X159675711Y-115285300D01*
X159320408Y-115432471D01*
X159048471Y-115704408D01*
X158901300Y-116059711D01*
X153466700Y-116059711D01*
X153319529Y-115704408D01*
X153047592Y-115432471D01*
X152692289Y-115285300D01*
X152307711Y-115285300D01*
X152060461Y-115387714D01*
X151318500Y-114645753D01*
X151318500Y-113559711D01*
X151533300Y-113559711D01*
X151533300Y-113944289D01*
X151680471Y-114299592D01*
X151952408Y-114571529D01*
X152307711Y-114718700D01*
X152692289Y-114718700D01*
X153047592Y-114571529D01*
X153319529Y-114299592D01*
X153466700Y-113944289D01*
X153466700Y-113559711D01*
X158901300Y-113559711D01*
X158901300Y-113944289D01*
X159048471Y-114299592D01*
X159320408Y-114571529D01*
X159675711Y-114718700D01*
X160060289Y-114718700D01*
X160415592Y-114571529D01*
X160687529Y-114299592D01*
X160834700Y-113944289D01*
X160834700Y-113559711D01*
X160687529Y-113204408D01*
X160415592Y-112932471D01*
X160060289Y-112785300D01*
X159675711Y-112785300D01*
X159320408Y-112932471D01*
X159048471Y-113204408D01*
X158901300Y-113559711D01*
X153466700Y-113559711D01*
X153319529Y-113204408D01*
X153047592Y-112932471D01*
X152692289Y-112785300D01*
X152307711Y-112785300D01*
X151952408Y-112932471D01*
X151680471Y-113204408D01*
X151533300Y-113559711D01*
X151318500Y-113559711D01*
X151318500Y-113117369D01*
X151326172Y-113078799D01*
X151318500Y-113040229D01*
X151318500Y-113040225D01*
X151295773Y-112925967D01*
X151295772Y-112925965D01*
X151231050Y-112829102D01*
X151231048Y-112829100D01*
X151209199Y-112796401D01*
X151176500Y-112774552D01*
X150072839Y-111670891D01*
X150118781Y-111559975D01*
X151533300Y-111559975D01*
X151533300Y-112005050D01*
X151573903Y-112103073D01*
X151648927Y-112178097D01*
X151746950Y-112218700D01*
X152192025Y-112218700D01*
X152258700Y-112152025D01*
X152258700Y-111493300D01*
X152741300Y-111493300D01*
X152741300Y-112152025D01*
X152807975Y-112218700D01*
X153253050Y-112218700D01*
X153351073Y-112178097D01*
X153426097Y-112103073D01*
X153466700Y-112005050D01*
X153466700Y-111559975D01*
X153400025Y-111493300D01*
X152741300Y-111493300D01*
X152258700Y-111493300D01*
X151599975Y-111493300D01*
X151533300Y-111559975D01*
X150118781Y-111559975D01*
X150166700Y-111444289D01*
X150166700Y-111059711D01*
X158901300Y-111059711D01*
X158901300Y-111444289D01*
X159048471Y-111799592D01*
X159320408Y-112071529D01*
X159675711Y-112218700D01*
X160060289Y-112218700D01*
X160162016Y-112176563D01*
X161126900Y-113141447D01*
X161126901Y-114664025D01*
X161119228Y-114702600D01*
X161149628Y-114855434D01*
X161214350Y-114952297D01*
X161214353Y-114952300D01*
X161236202Y-114984999D01*
X161268901Y-115006848D01*
X162236583Y-115974530D01*
X162201300Y-116059711D01*
X162201300Y-116444289D01*
X162348471Y-116799592D01*
X162620408Y-117071529D01*
X162975711Y-117218700D01*
X163360289Y-117218700D01*
X163715592Y-117071529D01*
X163987529Y-116799592D01*
X164134700Y-116444289D01*
X164134700Y-116059711D01*
X166775300Y-116059711D01*
X166775300Y-116444289D01*
X166922471Y-116799592D01*
X167194408Y-117071529D01*
X167549711Y-117218700D01*
X167934289Y-117218700D01*
X168289592Y-117071529D01*
X168561529Y-116799592D01*
X168708700Y-116444289D01*
X168708700Y-116059711D01*
X170075300Y-116059711D01*
X170075300Y-116444289D01*
X170222471Y-116799592D01*
X170494408Y-117071529D01*
X170849711Y-117218700D01*
X171234289Y-117218700D01*
X171589592Y-117071529D01*
X171861529Y-116799592D01*
X172008700Y-116444289D01*
X172008700Y-116059711D01*
X171946245Y-115908929D01*
X176364136Y-115908929D01*
X176415151Y-117008658D01*
X176737852Y-117787731D01*
X177042875Y-118100436D01*
X178812750Y-116330560D01*
X179495250Y-116330560D01*
X181265125Y-118100436D01*
X181570148Y-117787731D01*
X181943864Y-116752191D01*
X181892849Y-115652462D01*
X181570148Y-114873389D01*
X181265125Y-114560684D01*
X179495250Y-116330560D01*
X178812750Y-116330560D01*
X177042875Y-114560684D01*
X176737852Y-114873389D01*
X176364136Y-115908929D01*
X171946245Y-115908929D01*
X171861529Y-115704408D01*
X171589592Y-115432471D01*
X171234289Y-115285300D01*
X170849711Y-115285300D01*
X170494408Y-115432471D01*
X170222471Y-115704408D01*
X170075300Y-116059711D01*
X168708700Y-116059711D01*
X168561529Y-115704408D01*
X168289592Y-115432471D01*
X167934289Y-115285300D01*
X167549711Y-115285300D01*
X167194408Y-115432471D01*
X166922471Y-115704408D01*
X166775300Y-116059711D01*
X164134700Y-116059711D01*
X164040838Y-115833109D01*
X165730248Y-114143700D01*
X166857899Y-114143700D01*
X166922471Y-114299592D01*
X167194408Y-114571529D01*
X167549711Y-114718700D01*
X167934289Y-114718700D01*
X168289592Y-114571529D01*
X168561529Y-114299592D01*
X168708700Y-113944289D01*
X168708700Y-113559711D01*
X170075300Y-113559711D01*
X170075300Y-113944289D01*
X170222471Y-114299592D01*
X170494408Y-114571529D01*
X170849711Y-114718700D01*
X171234289Y-114718700D01*
X171589592Y-114571529D01*
X171861529Y-114299592D01*
X171894731Y-114219435D01*
X177384124Y-114219435D01*
X179154000Y-115989310D01*
X180923876Y-114219435D01*
X180611171Y-113914412D01*
X179575631Y-113540696D01*
X178475902Y-113591711D01*
X177696829Y-113914412D01*
X177384124Y-114219435D01*
X171894731Y-114219435D01*
X172008700Y-113944289D01*
X172008700Y-113559711D01*
X171861529Y-113204408D01*
X171589592Y-112932471D01*
X171234289Y-112785300D01*
X170849711Y-112785300D01*
X170494408Y-112932471D01*
X170222471Y-113204408D01*
X170075300Y-113559711D01*
X168708700Y-113559711D01*
X168561529Y-113204408D01*
X168289592Y-112932471D01*
X167934289Y-112785300D01*
X167549711Y-112785300D01*
X167194408Y-112932471D01*
X166922471Y-113204408D01*
X166857899Y-113360300D01*
X165606570Y-113360300D01*
X165568000Y-113352628D01*
X165529430Y-113360300D01*
X165529425Y-113360300D01*
X165415167Y-113383027D01*
X165415165Y-113383028D01*
X165415166Y-113383028D01*
X165318302Y-113447750D01*
X165318300Y-113447752D01*
X165285601Y-113469601D01*
X165263752Y-113502300D01*
X163445470Y-115320583D01*
X163360289Y-115285300D01*
X162975711Y-115285300D01*
X162749109Y-115379161D01*
X161910300Y-114540353D01*
X161910300Y-113017770D01*
X161917972Y-112979200D01*
X161910300Y-112940630D01*
X161910300Y-112940625D01*
X161887573Y-112826367D01*
X161800999Y-112696801D01*
X161768298Y-112674951D01*
X160747692Y-111654345D01*
X160834700Y-111444289D01*
X160834700Y-111059711D01*
X160687529Y-110704408D01*
X160535121Y-110552000D01*
X162196076Y-110552000D01*
X162196076Y-111952000D01*
X162216775Y-112056061D01*
X162275721Y-112144279D01*
X162363939Y-112203225D01*
X162468000Y-112223924D01*
X163868000Y-112223924D01*
X163972061Y-112203225D01*
X164060279Y-112144279D01*
X164119225Y-112056061D01*
X164139924Y-111952000D01*
X164139924Y-110552000D01*
X164119225Y-110447939D01*
X164060279Y-110359721D01*
X163972061Y-110300775D01*
X163868000Y-110280076D01*
X162468000Y-110280076D01*
X162363939Y-110300775D01*
X162275721Y-110359721D01*
X162216775Y-110447939D01*
X162196076Y-110552000D01*
X160535121Y-110552000D01*
X160415592Y-110432471D01*
X160060289Y-110285300D01*
X159675711Y-110285300D01*
X159320408Y-110432471D01*
X159048471Y-110704408D01*
X158901300Y-111059711D01*
X150166700Y-111059711D01*
X150019529Y-110704408D01*
X149814071Y-110498950D01*
X151533300Y-110498950D01*
X151533300Y-110944025D01*
X151599975Y-111010700D01*
X152258700Y-111010700D01*
X152258700Y-110351975D01*
X152741300Y-110351975D01*
X152741300Y-111010700D01*
X153400025Y-111010700D01*
X153466700Y-110944025D01*
X153466700Y-110498950D01*
X153426097Y-110400927D01*
X153351073Y-110325903D01*
X153253050Y-110285300D01*
X152807975Y-110285300D01*
X152741300Y-110351975D01*
X152258700Y-110351975D01*
X152192025Y-110285300D01*
X151746950Y-110285300D01*
X151648927Y-110325903D01*
X151573903Y-110400927D01*
X151533300Y-110498950D01*
X149814071Y-110498950D01*
X149747592Y-110432471D01*
X149392289Y-110285300D01*
X149007711Y-110285300D01*
X148652408Y-110432471D01*
X148380471Y-110704408D01*
X148233300Y-111059711D01*
X135381700Y-111059711D01*
X135381700Y-109377480D01*
X144156801Y-109377480D01*
X144235753Y-109774399D01*
X144460590Y-110110890D01*
X144797081Y-110335727D01*
X145093810Y-110394750D01*
X145792030Y-110394750D01*
X146088759Y-110335727D01*
X146425250Y-110110890D01*
X146650087Y-109774399D01*
X146729039Y-109377480D01*
X146650087Y-108980561D01*
X146425250Y-108644070D01*
X146088759Y-108419233D01*
X145792030Y-108360210D01*
X145093810Y-108360210D01*
X144797081Y-108419233D01*
X144460590Y-108644070D01*
X144235753Y-108980561D01*
X144156801Y-109377480D01*
X135381700Y-109377480D01*
X135381700Y-107993180D01*
X141118961Y-107993180D01*
X141197913Y-108390099D01*
X141422750Y-108726590D01*
X141759241Y-108951427D01*
X142055970Y-109010450D01*
X142754190Y-109010450D01*
X143050919Y-108951427D01*
X143387410Y-108726590D01*
X143612247Y-108390099D01*
X143691199Y-107993180D01*
X143612247Y-107596261D01*
X143387410Y-107259770D01*
X143050919Y-107034933D01*
X142754190Y-106975910D01*
X142055970Y-106975910D01*
X141759241Y-107034933D01*
X141422750Y-107259770D01*
X141197913Y-107596261D01*
X141118961Y-107993180D01*
X135381700Y-107993180D01*
X135381700Y-105222040D01*
X141118961Y-105222040D01*
X141197913Y-105618959D01*
X141422750Y-105955450D01*
X141759241Y-106180287D01*
X142055970Y-106239310D01*
X142754190Y-106239310D01*
X143050919Y-106180287D01*
X143387410Y-105955450D01*
X143532212Y-105738740D01*
X144665220Y-105738740D01*
X144460590Y-105875470D01*
X144235753Y-106211961D01*
X144156801Y-106608880D01*
X144235753Y-107005799D01*
X144460590Y-107342290D01*
X144797081Y-107567127D01*
X145093810Y-107626150D01*
X145792030Y-107626150D01*
X146088759Y-107567127D01*
X146425250Y-107342290D01*
X146650087Y-107005799D01*
X146729039Y-106608880D01*
X146650087Y-106211961D01*
X146425250Y-105875470D01*
X146220620Y-105738740D01*
X152608017Y-105738740D01*
X154386657Y-107517381D01*
X154415481Y-107560519D01*
X154586394Y-107674720D01*
X154737113Y-107704700D01*
X154737117Y-107704700D01*
X154787999Y-107714821D01*
X154838881Y-107704700D01*
X174447118Y-107704700D01*
X174498000Y-107714821D01*
X174548882Y-107704700D01*
X174548887Y-107704700D01*
X174699606Y-107674720D01*
X174870519Y-107560519D01*
X174899345Y-107517378D01*
X176679424Y-105737300D01*
X176857380Y-105737300D01*
X176652750Y-105874030D01*
X176427913Y-106210521D01*
X176348961Y-106607440D01*
X176427913Y-107004359D01*
X176652750Y-107340850D01*
X176989241Y-107565687D01*
X177161945Y-107600040D01*
X175510830Y-107600040D01*
X175472260Y-107592368D01*
X175433690Y-107600040D01*
X175433685Y-107600040D01*
X175319427Y-107622767D01*
X175189861Y-107709341D01*
X175168010Y-107742043D01*
X174335753Y-108574300D01*
X167892569Y-108574300D01*
X167853999Y-108566628D01*
X167815429Y-108574300D01*
X167815425Y-108574300D01*
X167701167Y-108597027D01*
X167701166Y-108597028D01*
X167701165Y-108597028D01*
X167604302Y-108661750D01*
X167604300Y-108661752D01*
X167571601Y-108683601D01*
X167549752Y-108716300D01*
X163445470Y-112820583D01*
X163360289Y-112785300D01*
X162975711Y-112785300D01*
X162620408Y-112932471D01*
X162348471Y-113204408D01*
X162201300Y-113559711D01*
X162201300Y-113944289D01*
X162348471Y-114299592D01*
X162620408Y-114571529D01*
X162975711Y-114718700D01*
X163360289Y-114718700D01*
X163715592Y-114571529D01*
X163987529Y-114299592D01*
X164134700Y-113944289D01*
X164134700Y-113559711D01*
X164040838Y-113333109D01*
X166314236Y-111059711D01*
X166775300Y-111059711D01*
X166775300Y-111444289D01*
X166922471Y-111799592D01*
X167194408Y-112071529D01*
X167549711Y-112218700D01*
X167934289Y-112218700D01*
X168289592Y-112071529D01*
X168561529Y-111799592D01*
X168708700Y-111444289D01*
X168708700Y-111059711D01*
X168561529Y-110704408D01*
X168409121Y-110552000D01*
X170070076Y-110552000D01*
X170070076Y-111952000D01*
X170090775Y-112056061D01*
X170149721Y-112144279D01*
X170237939Y-112203225D01*
X170342000Y-112223924D01*
X171742000Y-112223924D01*
X171846061Y-112203225D01*
X171934279Y-112144279D01*
X171993225Y-112056061D01*
X172013924Y-111952000D01*
X172013924Y-110552000D01*
X171993225Y-110447939D01*
X171934279Y-110359721D01*
X171846061Y-110300775D01*
X171742000Y-110280076D01*
X170342000Y-110280076D01*
X170237939Y-110300775D01*
X170149721Y-110359721D01*
X170090775Y-110447939D01*
X170070076Y-110552000D01*
X168409121Y-110552000D01*
X168289592Y-110432471D01*
X167934289Y-110285300D01*
X167549711Y-110285300D01*
X167194408Y-110432471D01*
X166922471Y-110704408D01*
X166775300Y-111059711D01*
X166314236Y-111059711D01*
X168016248Y-109357700D01*
X174459430Y-109357700D01*
X174498000Y-109365372D01*
X174536570Y-109357700D01*
X174536575Y-109357700D01*
X174650833Y-109334973D01*
X174780399Y-109248399D01*
X174802250Y-109215697D01*
X175634507Y-108383440D01*
X177161945Y-108383440D01*
X176989241Y-108417793D01*
X176652750Y-108642630D01*
X176427913Y-108979121D01*
X176348961Y-109376040D01*
X176427913Y-109772959D01*
X176652750Y-110109450D01*
X176989241Y-110334287D01*
X177285970Y-110393310D01*
X177984190Y-110393310D01*
X178280919Y-110334287D01*
X178617410Y-110109450D01*
X178842247Y-109772959D01*
X178921199Y-109376040D01*
X178842247Y-108979121D01*
X178617410Y-108642630D01*
X178280919Y-108417793D01*
X178108215Y-108383440D01*
X179464715Y-108383440D01*
X179465753Y-108388659D01*
X179690590Y-108725150D01*
X180027081Y-108949987D01*
X180323810Y-109009010D01*
X181022030Y-109009010D01*
X181318759Y-108949987D01*
X181655250Y-108725150D01*
X181880087Y-108388659D01*
X181959039Y-107991740D01*
X181880087Y-107594821D01*
X181655250Y-107258330D01*
X181318759Y-107033493D01*
X181022030Y-106974470D01*
X180323810Y-106974470D01*
X180027081Y-107033493D01*
X179690590Y-107258330D01*
X179465753Y-107594821D01*
X179464715Y-107600040D01*
X178108215Y-107600040D01*
X178280919Y-107565687D01*
X178617410Y-107340850D01*
X178842247Y-107004359D01*
X178921199Y-106607440D01*
X178842247Y-106210521D01*
X178617410Y-105874030D01*
X178412780Y-105737300D01*
X179545788Y-105737300D01*
X179690590Y-105954010D01*
X180027081Y-106178847D01*
X180323810Y-106237870D01*
X181022030Y-106237870D01*
X181318759Y-106178847D01*
X181655250Y-105954010D01*
X181800052Y-105737300D01*
X181990918Y-105737300D01*
X182041800Y-105747421D01*
X182092682Y-105737300D01*
X182092687Y-105737300D01*
X182243406Y-105707320D01*
X182414319Y-105593119D01*
X182443145Y-105549978D01*
X183285581Y-104707543D01*
X183328719Y-104678719D01*
X183400022Y-104572008D01*
X183442920Y-104507806D01*
X183447021Y-104487190D01*
X183472900Y-104357087D01*
X183472900Y-104357083D01*
X183483021Y-104306200D01*
X183472900Y-104255317D01*
X183472900Y-99339481D01*
X183483021Y-99288599D01*
X183472900Y-99237717D01*
X183472900Y-99237713D01*
X183442920Y-99086994D01*
X183328719Y-98916081D01*
X183285581Y-98887257D01*
X182365505Y-97967182D01*
X182336679Y-97924041D01*
X182165766Y-97809840D01*
X182015047Y-97779860D01*
X182015042Y-97779860D01*
X181964160Y-97769739D01*
X181913278Y-97779860D01*
X178762212Y-97779860D01*
X178617410Y-97563150D01*
X178280919Y-97338313D01*
X177984190Y-97279290D01*
X177285970Y-97279290D01*
X176989241Y-97338313D01*
X176652750Y-97563150D01*
X176507948Y-97779860D01*
X175934984Y-97779860D01*
X175247904Y-97092781D01*
X175260700Y-97061889D01*
X175260700Y-96677311D01*
X175113529Y-96322008D01*
X174841592Y-96050071D01*
X174486289Y-95902900D01*
X174101711Y-95902900D01*
X173746408Y-96050071D01*
X173474471Y-96322008D01*
X173327300Y-96677311D01*
X173327300Y-97061889D01*
X173474471Y-97417192D01*
X173746408Y-97689129D01*
X173777301Y-97701925D01*
X173777300Y-98787275D01*
X173746408Y-98800071D01*
X173474471Y-99072008D01*
X173327300Y-99427311D01*
X173327300Y-99811889D01*
X173474471Y-100167192D01*
X173746408Y-100439129D01*
X173777301Y-100451925D01*
X173777300Y-101537275D01*
X173746408Y-101550071D01*
X173474471Y-101822008D01*
X173327300Y-102177311D01*
X173327300Y-102561889D01*
X173474471Y-102917192D01*
X173746408Y-103189129D01*
X174101711Y-103336300D01*
X174486289Y-103336300D01*
X174841592Y-103189129D01*
X175113529Y-102917192D01*
X175260700Y-102561889D01*
X175260700Y-102177311D01*
X175113529Y-101822008D01*
X174841592Y-101550071D01*
X174810700Y-101537275D01*
X174810700Y-101065160D01*
X176348961Y-101065160D01*
X176427913Y-101462079D01*
X176652750Y-101798570D01*
X176989241Y-102023407D01*
X177285970Y-102082430D01*
X177984190Y-102082430D01*
X178101598Y-102059076D01*
X179485677Y-102059076D01*
X179504541Y-102210700D01*
X180431620Y-102210700D01*
X180431620Y-101500502D01*
X180914220Y-101500502D01*
X180914220Y-102210700D01*
X181841299Y-102210700D01*
X181860163Y-102059076D01*
X181741081Y-101847368D01*
X181447337Y-101579883D01*
X181073591Y-101445170D01*
X180914220Y-101500502D01*
X180431620Y-101500502D01*
X180272249Y-101445170D01*
X179898503Y-101579883D01*
X179604759Y-101847368D01*
X179485677Y-102059076D01*
X178101598Y-102059076D01*
X178280919Y-102023407D01*
X178617410Y-101798570D01*
X178842247Y-101462079D01*
X178921199Y-101065160D01*
X178842247Y-100668241D01*
X178617410Y-100331750D01*
X178280919Y-100106913D01*
X177984190Y-100047890D01*
X177285970Y-100047890D01*
X176989241Y-100106913D01*
X176652750Y-100331750D01*
X176427913Y-100668241D01*
X176348961Y-101065160D01*
X174810700Y-101065160D01*
X174810700Y-100451925D01*
X174841592Y-100439129D01*
X175113529Y-100167192D01*
X175260700Y-99811889D01*
X175260700Y-99427311D01*
X175113529Y-99072008D01*
X174841592Y-98800071D01*
X174810700Y-98787275D01*
X174810700Y-98117024D01*
X175319617Y-98625941D01*
X175348441Y-98669079D01*
X175519354Y-98783280D01*
X175670073Y-98813260D01*
X175670077Y-98813260D01*
X175720959Y-98823381D01*
X175771841Y-98813260D01*
X176507948Y-98813260D01*
X176652750Y-99029970D01*
X176989241Y-99254807D01*
X177285970Y-99313830D01*
X177984190Y-99313830D01*
X178280919Y-99254807D01*
X178617410Y-99029970D01*
X178762212Y-98813260D01*
X179891419Y-98813260D01*
X179690590Y-98947450D01*
X179465753Y-99283941D01*
X179386801Y-99680860D01*
X179465753Y-100077779D01*
X179690590Y-100414270D01*
X180027081Y-100639107D01*
X180323810Y-100698130D01*
X181022030Y-100698130D01*
X181318759Y-100639107D01*
X181655250Y-100414270D01*
X181880087Y-100077779D01*
X181959039Y-99680860D01*
X181880087Y-99283941D01*
X181655250Y-98947450D01*
X181454421Y-98813260D01*
X181750137Y-98813260D01*
X182439500Y-99502624D01*
X182439501Y-104092175D01*
X181827777Y-104703900D01*
X181800052Y-104703900D01*
X181655250Y-104487190D01*
X181318759Y-104262353D01*
X181022030Y-104203330D01*
X180323810Y-104203330D01*
X180027081Y-104262353D01*
X179690590Y-104487190D01*
X179545788Y-104703900D01*
X178416581Y-104703900D01*
X178617410Y-104569710D01*
X178842247Y-104233219D01*
X178921199Y-103836300D01*
X178842247Y-103439381D01*
X178617410Y-103102890D01*
X178280919Y-102878053D01*
X178114369Y-102844924D01*
X179485677Y-102844924D01*
X179604759Y-103056632D01*
X179898503Y-103324117D01*
X180272249Y-103458830D01*
X180431620Y-103403498D01*
X180431620Y-102693300D01*
X180914220Y-102693300D01*
X180914220Y-103403498D01*
X181073591Y-103458830D01*
X181447337Y-103324117D01*
X181741081Y-103056632D01*
X181860163Y-102844924D01*
X181841299Y-102693300D01*
X180914220Y-102693300D01*
X180431620Y-102693300D01*
X179504541Y-102693300D01*
X179485677Y-102844924D01*
X178114369Y-102844924D01*
X177984190Y-102819030D01*
X177285970Y-102819030D01*
X176989241Y-102878053D01*
X176652750Y-103102890D01*
X176427913Y-103439381D01*
X176348961Y-103836300D01*
X176427913Y-104233219D01*
X176652750Y-104569710D01*
X176853579Y-104703900D01*
X176516283Y-104703900D01*
X176465400Y-104693779D01*
X176414517Y-104703900D01*
X176414513Y-104703900D01*
X176263794Y-104733880D01*
X176170845Y-104795987D01*
X176092881Y-104848081D01*
X176064057Y-104891219D01*
X174283977Y-106671300D01*
X155002024Y-106671300D01*
X153450324Y-105119600D01*
X155439603Y-105119600D01*
X155522391Y-105535805D01*
X155758153Y-105888647D01*
X156110995Y-106124409D01*
X156422143Y-106186300D01*
X156632257Y-106186300D01*
X156943405Y-106124409D01*
X157296247Y-105888647D01*
X157532009Y-105535805D01*
X157614797Y-105119600D01*
X157532009Y-104703395D01*
X157296247Y-104350553D01*
X157249923Y-104319600D01*
X163075276Y-104319600D01*
X163075276Y-105919600D01*
X163095975Y-106023661D01*
X163154921Y-106111879D01*
X163243139Y-106170825D01*
X163347200Y-106191524D01*
X164947200Y-106191524D01*
X165051261Y-106170825D01*
X165139479Y-106111879D01*
X165198425Y-106023661D01*
X165219124Y-105919600D01*
X165219124Y-104319600D01*
X165198425Y-104215539D01*
X165139479Y-104127321D01*
X165051261Y-104068375D01*
X164947200Y-104047676D01*
X163347200Y-104047676D01*
X163243139Y-104068375D01*
X163154921Y-104127321D01*
X163095975Y-104215539D01*
X163075276Y-104319600D01*
X157249923Y-104319600D01*
X156943405Y-104114791D01*
X156632257Y-104052900D01*
X156422143Y-104052900D01*
X156110995Y-104114791D01*
X155758153Y-104350553D01*
X155522391Y-104703395D01*
X155439603Y-105119600D01*
X153450324Y-105119600D01*
X153223385Y-104892662D01*
X153194559Y-104849521D01*
X153023646Y-104735320D01*
X152872927Y-104705340D01*
X152872922Y-104705340D01*
X152822040Y-104695219D01*
X152771158Y-104705340D01*
X146224421Y-104705340D01*
X146425250Y-104571150D01*
X146650087Y-104234659D01*
X146729039Y-103837740D01*
X146650087Y-103440821D01*
X146425250Y-103104330D01*
X146088759Y-102879493D01*
X145792030Y-102820470D01*
X145093810Y-102820470D01*
X144797081Y-102879493D01*
X144460590Y-103104330D01*
X144235753Y-103440821D01*
X144156801Y-103837740D01*
X144235753Y-104234659D01*
X144460590Y-104571150D01*
X144661419Y-104705340D01*
X143532212Y-104705340D01*
X143387410Y-104488630D01*
X143050919Y-104263793D01*
X142754190Y-104204770D01*
X142055970Y-104204770D01*
X141759241Y-104263793D01*
X141422750Y-104488630D01*
X141197913Y-104825121D01*
X141118961Y-105222040D01*
X135381700Y-105222040D01*
X135381700Y-102846364D01*
X141217837Y-102846364D01*
X141336919Y-103058072D01*
X141630663Y-103325557D01*
X142004409Y-103460270D01*
X142163780Y-103404938D01*
X142163780Y-102694740D01*
X142646380Y-102694740D01*
X142646380Y-103404938D01*
X142805751Y-103460270D01*
X143179497Y-103325557D01*
X143473241Y-103058072D01*
X143592323Y-102846364D01*
X143573459Y-102694740D01*
X142646380Y-102694740D01*
X142163780Y-102694740D01*
X141236701Y-102694740D01*
X141217837Y-102846364D01*
X135381700Y-102846364D01*
X135381700Y-102369600D01*
X155451603Y-102369600D01*
X155534391Y-102785805D01*
X155770153Y-103138647D01*
X156122995Y-103374409D01*
X156434143Y-103436300D01*
X156644257Y-103436300D01*
X156955405Y-103374409D01*
X157308247Y-103138647D01*
X157544009Y-102785805D01*
X157626797Y-102369600D01*
X157544009Y-101953395D01*
X157308247Y-101600553D01*
X157261923Y-101569600D01*
X163087276Y-101569600D01*
X163087276Y-103169600D01*
X163107975Y-103273661D01*
X163166921Y-103361879D01*
X163255139Y-103420825D01*
X163359200Y-103441524D01*
X164959200Y-103441524D01*
X165063261Y-103420825D01*
X165151479Y-103361879D01*
X165210425Y-103273661D01*
X165231124Y-103169600D01*
X165231124Y-102369600D01*
X165688362Y-102369600D01*
X165763389Y-102746787D01*
X165977049Y-103066551D01*
X166282300Y-103270514D01*
X166282301Y-104235498D01*
X166126408Y-104300071D01*
X165854471Y-104572008D01*
X165707300Y-104927311D01*
X165707300Y-105311889D01*
X165854471Y-105667192D01*
X166126408Y-105939129D01*
X166481711Y-106086300D01*
X166866289Y-106086300D01*
X167221592Y-105939129D01*
X167493529Y-105667192D01*
X167640700Y-105311889D01*
X167640700Y-104927311D01*
X167493529Y-104572008D01*
X167221592Y-104300071D01*
X167065700Y-104235499D01*
X167065700Y-103270514D01*
X167370951Y-103066551D01*
X167584611Y-102746787D01*
X167659638Y-102369600D01*
X167584611Y-101992413D01*
X167370951Y-101672649D01*
X167051187Y-101458989D01*
X166769208Y-101402900D01*
X166578792Y-101402900D01*
X166296813Y-101458989D01*
X165977049Y-101672649D01*
X165763389Y-101992413D01*
X165688362Y-102369600D01*
X165231124Y-102369600D01*
X165231124Y-101569600D01*
X165210425Y-101465539D01*
X165151479Y-101377321D01*
X165063261Y-101318375D01*
X164959200Y-101297676D01*
X163359200Y-101297676D01*
X163255139Y-101318375D01*
X163166921Y-101377321D01*
X163107975Y-101465539D01*
X163087276Y-101569600D01*
X157261923Y-101569600D01*
X156955405Y-101364791D01*
X156644257Y-101302900D01*
X156434143Y-101302900D01*
X156122995Y-101364791D01*
X155770153Y-101600553D01*
X155534391Y-101953395D01*
X155451603Y-102369600D01*
X135381700Y-102369600D01*
X135381700Y-102060516D01*
X141217837Y-102060516D01*
X141236701Y-102212140D01*
X142163780Y-102212140D01*
X142163780Y-101501942D01*
X142646380Y-101501942D01*
X142646380Y-102212140D01*
X143573459Y-102212140D01*
X143592323Y-102060516D01*
X143473241Y-101848808D01*
X143179497Y-101581323D01*
X142805751Y-101446610D01*
X142646380Y-101501942D01*
X142163780Y-101501942D01*
X142004409Y-101446610D01*
X141630663Y-101581323D01*
X141336919Y-101848808D01*
X141217837Y-102060516D01*
X135381700Y-102060516D01*
X135381700Y-101066600D01*
X144156801Y-101066600D01*
X144235753Y-101463519D01*
X144460590Y-101800010D01*
X144797081Y-102024847D01*
X145093810Y-102083870D01*
X145792030Y-102083870D01*
X146088759Y-102024847D01*
X146425250Y-101800010D01*
X146650087Y-101463519D01*
X146729039Y-101066600D01*
X146650087Y-100669681D01*
X146425250Y-100333190D01*
X146088759Y-100108353D01*
X145792030Y-100049330D01*
X145093810Y-100049330D01*
X144797081Y-100108353D01*
X144460590Y-100333190D01*
X144235753Y-100669681D01*
X144156801Y-101066600D01*
X135381700Y-101066600D01*
X135381700Y-99682300D01*
X141118961Y-99682300D01*
X141197913Y-100079219D01*
X141422750Y-100415710D01*
X141759241Y-100640547D01*
X142055970Y-100699570D01*
X142754190Y-100699570D01*
X143050919Y-100640547D01*
X143387410Y-100415710D01*
X143612247Y-100079219D01*
X143691199Y-99682300D01*
X143678728Y-99619600D01*
X155451603Y-99619600D01*
X155534391Y-100035805D01*
X155770153Y-100388647D01*
X156122995Y-100624409D01*
X156434143Y-100686300D01*
X156644257Y-100686300D01*
X156955405Y-100624409D01*
X157308247Y-100388647D01*
X157544009Y-100035805D01*
X157626797Y-99619600D01*
X157544009Y-99203395D01*
X157308247Y-98850553D01*
X157261923Y-98819600D01*
X163087276Y-98819600D01*
X163087276Y-100419600D01*
X163107975Y-100523661D01*
X163166921Y-100611879D01*
X163255139Y-100670825D01*
X163359200Y-100691524D01*
X164959200Y-100691524D01*
X165063261Y-100670825D01*
X165151479Y-100611879D01*
X165210425Y-100523661D01*
X165231124Y-100419600D01*
X165231124Y-99619600D01*
X165688362Y-99619600D01*
X165763389Y-99996787D01*
X165977049Y-100316551D01*
X166296813Y-100530211D01*
X166578792Y-100586300D01*
X166769208Y-100586300D01*
X167051187Y-100530211D01*
X167370951Y-100316551D01*
X167584611Y-99996787D01*
X167659638Y-99619600D01*
X167588016Y-99259531D01*
X170754817Y-96092730D01*
X170787519Y-96070879D01*
X170826861Y-96012000D01*
X172320628Y-96012000D01*
X172328300Y-96050571D01*
X172328301Y-103507025D01*
X172320628Y-103545600D01*
X172351028Y-103698434D01*
X172415750Y-103795297D01*
X172415753Y-103795300D01*
X172437602Y-103827999D01*
X172470301Y-103849848D01*
X173379984Y-104759532D01*
X173308362Y-105119600D01*
X173383389Y-105496787D01*
X173597049Y-105816551D01*
X173916813Y-106030211D01*
X174198792Y-106086300D01*
X174389208Y-106086300D01*
X174671187Y-106030211D01*
X174990951Y-105816551D01*
X175204611Y-105496787D01*
X175279638Y-105119600D01*
X175204611Y-104742413D01*
X174990951Y-104422649D01*
X174671187Y-104208989D01*
X174389208Y-104152900D01*
X174198792Y-104152900D01*
X173933932Y-104205584D01*
X173111700Y-103383353D01*
X173111700Y-96174247D01*
X174034104Y-95251843D01*
X174066806Y-95229992D01*
X174153380Y-95100426D01*
X174176107Y-94986168D01*
X174176107Y-94986163D01*
X174183779Y-94947593D01*
X174176107Y-94909023D01*
X174176107Y-93453165D01*
X177384124Y-93453165D01*
X177696829Y-93758188D01*
X178732369Y-94131904D01*
X179832098Y-94080889D01*
X180611171Y-93758188D01*
X180923876Y-93453165D01*
X179154000Y-91683290D01*
X177384124Y-93453165D01*
X174176107Y-93453165D01*
X174176107Y-93181232D01*
X174218708Y-93163586D01*
X174434384Y-92947910D01*
X174551107Y-92666115D01*
X174551107Y-92361103D01*
X174434384Y-92079308D01*
X174218708Y-91863632D01*
X173936913Y-91746909D01*
X173631901Y-91746909D01*
X173350106Y-91863632D01*
X173134430Y-92079308D01*
X173017707Y-92361103D01*
X173017707Y-92666115D01*
X173134430Y-92947910D01*
X173350106Y-93163586D01*
X173392707Y-93181232D01*
X173392708Y-94785345D01*
X172470303Y-95707750D01*
X172437601Y-95729601D01*
X172415751Y-95762302D01*
X172415750Y-95762303D01*
X172392115Y-95797676D01*
X172351027Y-95859168D01*
X172328300Y-95973426D01*
X172328300Y-95973430D01*
X172320628Y-96012000D01*
X170826861Y-96012000D01*
X170874093Y-95941313D01*
X170896820Y-95827055D01*
X170896820Y-95827050D01*
X170904492Y-95788480D01*
X170896820Y-95749910D01*
X170896820Y-94430188D01*
X172209078Y-94430188D01*
X172272577Y-94526984D01*
X172575463Y-94562942D01*
X172756237Y-94526984D01*
X172819736Y-94430188D01*
X172514407Y-94124859D01*
X172209078Y-94430188D01*
X170896820Y-94430188D01*
X170896820Y-93844665D01*
X171735074Y-93844665D01*
X171771032Y-94025439D01*
X171867828Y-94088938D01*
X172173157Y-93783609D01*
X172855657Y-93783609D01*
X173160986Y-94088938D01*
X173257782Y-94025439D01*
X173293740Y-93722553D01*
X173257782Y-93541779D01*
X173160986Y-93478280D01*
X172855657Y-93783609D01*
X172173157Y-93783609D01*
X171867828Y-93478280D01*
X171771032Y-93541779D01*
X171735074Y-93844665D01*
X170896820Y-93844665D01*
X170896820Y-93309127D01*
X171068917Y-93137030D01*
X172209078Y-93137030D01*
X172514407Y-93442359D01*
X172819736Y-93137030D01*
X172756237Y-93040234D01*
X172453351Y-93004276D01*
X172272577Y-93040234D01*
X172209078Y-93137030D01*
X171068917Y-93137030D01*
X172190414Y-92015533D01*
X173014407Y-92015533D01*
X173118468Y-91994834D01*
X173206686Y-91935888D01*
X173265632Y-91847670D01*
X173286331Y-91743609D01*
X173286331Y-90920409D01*
X176364136Y-90920409D01*
X176415151Y-92020138D01*
X176737852Y-92799211D01*
X177042875Y-93111916D01*
X178812750Y-91342040D01*
X179495250Y-91342040D01*
X181265125Y-93111916D01*
X181570148Y-92799211D01*
X181943864Y-91763671D01*
X181892849Y-90663942D01*
X181570148Y-89884869D01*
X181265125Y-89572164D01*
X179495250Y-91342040D01*
X178812750Y-91342040D01*
X177042875Y-89572164D01*
X176737852Y-89884869D01*
X176364136Y-90920409D01*
X173286331Y-90920409D01*
X173286331Y-90743609D01*
X173265632Y-90639548D01*
X173206686Y-90551330D01*
X173118468Y-90492384D01*
X173014407Y-90471685D01*
X172014407Y-90471685D01*
X171910346Y-90492384D01*
X171822128Y-90551330D01*
X171763182Y-90639548D01*
X171742483Y-90743609D01*
X171742483Y-91355570D01*
X170255423Y-92842630D01*
X170222721Y-92864481D01*
X170200871Y-92897182D01*
X170200870Y-92897183D01*
X170144471Y-92981591D01*
X170136147Y-92994048D01*
X170113420Y-93108306D01*
X170113420Y-93108310D01*
X170105748Y-93146880D01*
X170113420Y-93185451D01*
X170113421Y-95626232D01*
X167034069Y-98705584D01*
X166769208Y-98652900D01*
X166578792Y-98652900D01*
X166296813Y-98708989D01*
X165977049Y-98922649D01*
X165763389Y-99242413D01*
X165688362Y-99619600D01*
X165231124Y-99619600D01*
X165231124Y-98819600D01*
X165210425Y-98715539D01*
X165151479Y-98627321D01*
X165063261Y-98568375D01*
X164959200Y-98547676D01*
X163359200Y-98547676D01*
X163255139Y-98568375D01*
X163166921Y-98627321D01*
X163107975Y-98715539D01*
X163087276Y-98819600D01*
X157261923Y-98819600D01*
X156955405Y-98614791D01*
X156644257Y-98552900D01*
X156434143Y-98552900D01*
X156122995Y-98614791D01*
X155770153Y-98850553D01*
X155534391Y-99203395D01*
X155451603Y-99619600D01*
X143678728Y-99619600D01*
X143612247Y-99285381D01*
X143387410Y-98948890D01*
X143050919Y-98724053D01*
X142754190Y-98665030D01*
X142055970Y-98665030D01*
X141759241Y-98724053D01*
X141422750Y-98948890D01*
X141197913Y-99285381D01*
X141118961Y-99682300D01*
X135381700Y-99682300D01*
X135381700Y-98298000D01*
X144156801Y-98298000D01*
X144235753Y-98694919D01*
X144460590Y-99031410D01*
X144797081Y-99256247D01*
X145093810Y-99315270D01*
X145792030Y-99315270D01*
X146088759Y-99256247D01*
X146425250Y-99031410D01*
X146650087Y-98694919D01*
X146729039Y-98298000D01*
X146650087Y-97901081D01*
X146425250Y-97564590D01*
X146088759Y-97339753D01*
X145792030Y-97280730D01*
X145093810Y-97280730D01*
X144797081Y-97339753D01*
X144460590Y-97564590D01*
X144235753Y-97901081D01*
X144156801Y-98298000D01*
X135381700Y-98298000D01*
X135381700Y-96869600D01*
X155451603Y-96869600D01*
X155534391Y-97285805D01*
X155770153Y-97638647D01*
X156122995Y-97874409D01*
X156434143Y-97936300D01*
X156644257Y-97936300D01*
X156955405Y-97874409D01*
X157308247Y-97638647D01*
X157544009Y-97285805D01*
X157626797Y-96869600D01*
X157544009Y-96453395D01*
X157308247Y-96100553D01*
X157261923Y-96069600D01*
X163087276Y-96069600D01*
X163087276Y-97669600D01*
X163107975Y-97773661D01*
X163166921Y-97861879D01*
X163255139Y-97920825D01*
X163359200Y-97941524D01*
X164959200Y-97941524D01*
X165063261Y-97920825D01*
X165151479Y-97861879D01*
X165210425Y-97773661D01*
X165231124Y-97669600D01*
X165231124Y-96869600D01*
X165688362Y-96869600D01*
X165763389Y-97246787D01*
X165977049Y-97566551D01*
X166296813Y-97780211D01*
X166578792Y-97836300D01*
X166769208Y-97836300D01*
X167051187Y-97780211D01*
X167370951Y-97566551D01*
X167584611Y-97246787D01*
X167659638Y-96869600D01*
X167588016Y-96509531D01*
X168678393Y-95419154D01*
X168711095Y-95397303D01*
X168797669Y-95267737D01*
X168820396Y-95153479D01*
X168820396Y-95153474D01*
X168828068Y-95114904D01*
X168820396Y-95076334D01*
X168820396Y-94555533D01*
X168928696Y-94555533D01*
X169032757Y-94534834D01*
X169120975Y-94475888D01*
X169179921Y-94387670D01*
X169200620Y-94283609D01*
X169200620Y-93283609D01*
X169179921Y-93179548D01*
X169120975Y-93091330D01*
X169032757Y-93032384D01*
X168928696Y-93011685D01*
X167928696Y-93011685D01*
X167824635Y-93032384D01*
X167736417Y-93091330D01*
X167677471Y-93179548D01*
X167656772Y-93283609D01*
X167656772Y-94283609D01*
X167677471Y-94387670D01*
X167736417Y-94475888D01*
X167824635Y-94534834D01*
X167928696Y-94555533D01*
X168036997Y-94555533D01*
X168036997Y-94952656D01*
X167034069Y-95955584D01*
X166769208Y-95902900D01*
X166578792Y-95902900D01*
X166296813Y-95958989D01*
X165977049Y-96172649D01*
X165763389Y-96492413D01*
X165688362Y-96869600D01*
X165231124Y-96869600D01*
X165231124Y-96069600D01*
X165210425Y-95965539D01*
X165151479Y-95877321D01*
X165063261Y-95818375D01*
X164959200Y-95797676D01*
X163359200Y-95797676D01*
X163255139Y-95818375D01*
X163166921Y-95877321D01*
X163107975Y-95965539D01*
X163087276Y-96069600D01*
X157261923Y-96069600D01*
X156955405Y-95864791D01*
X156644257Y-95802900D01*
X156434143Y-95802900D01*
X156122995Y-95864791D01*
X155770153Y-96100553D01*
X155534391Y-96453395D01*
X155451603Y-96869600D01*
X135381700Y-96869600D01*
X135381700Y-94581700D01*
X149993653Y-94581700D01*
X150002946Y-94579852D01*
X150323757Y-94562175D01*
X150331650Y-94560875D01*
X150339644Y-94560927D01*
X150377321Y-94554943D01*
X151104974Y-94397270D01*
X151121970Y-94391607D01*
X151139485Y-94387876D01*
X151174997Y-94373941D01*
X151729850Y-94119600D01*
X155451603Y-94119600D01*
X155534391Y-94535805D01*
X155770153Y-94888647D01*
X156122995Y-95124409D01*
X156434143Y-95186300D01*
X156644257Y-95186300D01*
X156955405Y-95124409D01*
X157308247Y-94888647D01*
X157544009Y-94535805D01*
X157626797Y-94119600D01*
X157544009Y-93703395D01*
X157308247Y-93350553D01*
X157261923Y-93319600D01*
X163087276Y-93319600D01*
X163087276Y-94919600D01*
X163107975Y-95023661D01*
X163166921Y-95111879D01*
X163255139Y-95170825D01*
X163359200Y-95191524D01*
X164959200Y-95191524D01*
X165063261Y-95170825D01*
X165151479Y-95111879D01*
X165210425Y-95023661D01*
X165231124Y-94919600D01*
X165231124Y-93319600D01*
X165210425Y-93215539D01*
X165151479Y-93127321D01*
X165063261Y-93068375D01*
X164959200Y-93047676D01*
X163359200Y-93047676D01*
X163255139Y-93068375D01*
X163166921Y-93127321D01*
X163107975Y-93215539D01*
X163087276Y-93319600D01*
X157261923Y-93319600D01*
X156955405Y-93114791D01*
X156644257Y-93052900D01*
X156434143Y-93052900D01*
X156122995Y-93114791D01*
X155770153Y-93350553D01*
X155534391Y-93703395D01*
X155451603Y-94119600D01*
X151729850Y-94119600D01*
X151851816Y-94063692D01*
X151867194Y-94054516D01*
X151883504Y-94047108D01*
X151915195Y-94025872D01*
X152489614Y-93592603D01*
X152522820Y-93570416D01*
X154723636Y-91369600D01*
X155451603Y-91369600D01*
X155534391Y-91785805D01*
X155770153Y-92138647D01*
X156122995Y-92374409D01*
X156434143Y-92436300D01*
X156644257Y-92436300D01*
X156955405Y-92374409D01*
X157308247Y-92138647D01*
X157544009Y-91785805D01*
X157626797Y-91369600D01*
X157544009Y-90953395D01*
X157308247Y-90600553D01*
X157261923Y-90569600D01*
X163087276Y-90569600D01*
X163087276Y-92169600D01*
X163107975Y-92273661D01*
X163166921Y-92361879D01*
X163255139Y-92420825D01*
X163359200Y-92441524D01*
X164959200Y-92441524D01*
X165063261Y-92420825D01*
X165151479Y-92361879D01*
X165151997Y-92361103D01*
X166391996Y-92361103D01*
X166391996Y-92666115D01*
X166508719Y-92947910D01*
X166724395Y-93163586D01*
X167006190Y-93280309D01*
X167311202Y-93280309D01*
X167592997Y-93163586D01*
X167808673Y-92947910D01*
X167925396Y-92666115D01*
X167925396Y-92361103D01*
X167808673Y-92079308D01*
X167619553Y-91890188D01*
X168123367Y-91890188D01*
X168186866Y-91986984D01*
X168489752Y-92022942D01*
X168670526Y-91986984D01*
X168734025Y-91890188D01*
X168428696Y-91584859D01*
X168123367Y-91890188D01*
X167619553Y-91890188D01*
X167592997Y-91863632D01*
X167311202Y-91746909D01*
X167006190Y-91746909D01*
X166724395Y-91863632D01*
X166508719Y-92079308D01*
X166391996Y-92361103D01*
X165151997Y-92361103D01*
X165210425Y-92273661D01*
X165231124Y-92169600D01*
X165231124Y-91304665D01*
X167649363Y-91304665D01*
X167685321Y-91485439D01*
X167782117Y-91548938D01*
X168087446Y-91243609D01*
X168769946Y-91243609D01*
X169075275Y-91548938D01*
X169172071Y-91485439D01*
X169208029Y-91182553D01*
X169172071Y-91001779D01*
X169075275Y-90938280D01*
X168769946Y-91243609D01*
X168087446Y-91243609D01*
X167782117Y-90938280D01*
X167685321Y-91001779D01*
X167649363Y-91304665D01*
X165231124Y-91304665D01*
X165231124Y-90597030D01*
X168123367Y-90597030D01*
X168428696Y-90902359D01*
X168734025Y-90597030D01*
X168670526Y-90500234D01*
X168367640Y-90464276D01*
X168186866Y-90500234D01*
X168123367Y-90597030D01*
X165231124Y-90597030D01*
X165231124Y-90569600D01*
X165210425Y-90465539D01*
X165151479Y-90377321D01*
X165063261Y-90318375D01*
X164959200Y-90297676D01*
X163359200Y-90297676D01*
X163255139Y-90318375D01*
X163166921Y-90377321D01*
X163107975Y-90465539D01*
X163087276Y-90569600D01*
X157261923Y-90569600D01*
X156955405Y-90364791D01*
X156644257Y-90302900D01*
X156434143Y-90302900D01*
X156122995Y-90364791D01*
X155770153Y-90600553D01*
X155534391Y-90953395D01*
X155451603Y-91369600D01*
X154723636Y-91369600D01*
X157361537Y-88731700D01*
X178165652Y-88731700D01*
X177696829Y-88925892D01*
X177696829Y-88925892D01*
G37*
X177696829Y-88925892D02*
X177384124Y-89230915D01*
X179154000Y-91000790D01*
X180923876Y-89230915D01*
X180611171Y-88925892D01*
X180073079Y-88731700D01*
X187628300Y-88731700D01*
X187628301Y-119038300D01*
X179907202Y-119038300D01*
X180611171Y-118746708D01*
X180923876Y-118441685D01*
X179154000Y-116671810D01*
X177384124Y-118441685D01*
X177696829Y-118746708D01*
X178504809Y-119038300D01*
X144680679Y-119038300D01*
X145381171Y-118748148D01*
X145693876Y-118443125D01*
X143924000Y-116673250D01*
X142154124Y-118443125D01*
X142466829Y-118748148D01*
X143270819Y-119038300D01*
X135381700Y-119038300D01*
X135381700Y-115910369D01*
X141134136Y-115910369D01*
X141185151Y-117010098D01*
X141507852Y-117789171D01*
X141812875Y-118101876D01*
X143582750Y-116332000D01*
X144265250Y-116332000D01*
X146035125Y-118101876D01*
X146340148Y-117789171D01*
X146713864Y-116753631D01*
X146681674Y-116059711D01*
X148233300Y-116059711D01*
X148233300Y-116444289D01*
X148380471Y-116799592D01*
X148652408Y-117071529D01*
X149007711Y-117218700D01*
X149392289Y-117218700D01*
X149747592Y-117071529D01*
X150019529Y-116799592D01*
X150166700Y-116444289D01*
X150166700Y-116059711D01*
X150019529Y-115704408D01*
X149747592Y-115432471D01*
X149392289Y-115285300D01*
X149007711Y-115285300D01*
X148652408Y-115432471D01*
X148380471Y-115704408D01*
X148233300Y-116059711D01*
X146681674Y-116059711D01*
X146662849Y-115653902D01*
X146340148Y-114874829D01*
X146035125Y-114562124D01*
X144265250Y-116332000D01*
X143582750Y-116332000D01*
X141812875Y-114562124D01*
X141507852Y-114874829D01*
X141134136Y-115910369D01*
X135381700Y-115910369D01*
X135381700Y-114220875D01*
X142154124Y-114220875D01*
X143924000Y-115990750D01*
X145693876Y-114220875D01*
X145381171Y-113915852D01*
X144394331Y-113559711D01*
X148233300Y-113559711D01*
X148233300Y-113944289D01*
X148380471Y-114299592D01*
X148652408Y-114571529D01*
X149007711Y-114718700D01*
X149392289Y-114718700D01*
X149747592Y-114571529D01*
X150019529Y-114299592D01*
X150166700Y-113944289D01*
X150166700Y-113559711D01*
X150019529Y-113204408D01*
X149747592Y-112932471D01*
X149392289Y-112785300D01*
X149007711Y-112785300D01*
X148652408Y-112932471D01*
X148380471Y-113204408D01*
X148233300Y-113559711D01*
X144394331Y-113559711D01*
X144345631Y-113542136D01*
X143245902Y-113593151D01*
X142466829Y-113915852D01*
X142154124Y-114220875D01*
X135381700Y-114220875D01*
X135381700Y-111059711D01*
X148233300Y-111059711D01*
X148233300Y-111444289D01*
X148380471Y-111799592D01*
X148652408Y-112071529D01*
X149007711Y-112218700D01*
X149392289Y-112218700D01*
X149477470Y-112183417D01*
X150535101Y-113241049D01*
X150535100Y-114769429D01*
X150527428Y-114808000D01*
X150535100Y-114846570D01*
X150535100Y-114846574D01*
X150557827Y-114960832D01*
X150644401Y-115090399D01*
X150677103Y-115112250D01*
X151560030Y-115995178D01*
X151533300Y-116059711D01*
X151533300Y-116444289D01*
X151680471Y-116799592D01*
X151952408Y-117071529D01*
X152307711Y-117218700D01*
X152692289Y-117218700D01*
X153047592Y-117071529D01*
X153319529Y-116799592D01*
X153466700Y-116444289D01*
X153466700Y-116059711D01*
X158901300Y-116059711D01*
X158901300Y-116444289D01*
X159048471Y-116799592D01*
X159320408Y-117071529D01*
X159675711Y-117218700D01*
X160060289Y-117218700D01*
X160415592Y-117071529D01*
X160687529Y-116799592D01*
X160834700Y-116444289D01*
X160834700Y-116059711D01*
X160687529Y-115704408D01*
X160415592Y-115432471D01*
X160060289Y-115285300D01*
X159675711Y-115285300D01*
X159320408Y-115432471D01*
X159048471Y-115704408D01*
X158901300Y-116059711D01*
X153466700Y-116059711D01*
X153319529Y-115704408D01*
X153047592Y-115432471D01*
X152692289Y-115285300D01*
X152307711Y-115285300D01*
X152060461Y-115387714D01*
X151318500Y-114645753D01*
X151318500Y-113559711D01*
X151533300Y-113559711D01*
X151533300Y-113944289D01*
X151680471Y-114299592D01*
X151952408Y-114571529D01*
X152307711Y-114718700D01*
X152692289Y-114718700D01*
X153047592Y-114571529D01*
X153319529Y-114299592D01*
X153466700Y-113944289D01*
X153466700Y-113559711D01*
X158901300Y-113559711D01*
X158901300Y-113944289D01*
X159048471Y-114299592D01*
X159320408Y-114571529D01*
X159675711Y-114718700D01*
X160060289Y-114718700D01*
X160415592Y-114571529D01*
X160687529Y-114299592D01*
X160834700Y-113944289D01*
X160834700Y-113559711D01*
X160687529Y-113204408D01*
X160415592Y-112932471D01*
X160060289Y-112785300D01*
X159675711Y-112785300D01*
X159320408Y-112932471D01*
X159048471Y-113204408D01*
X158901300Y-113559711D01*
X153466700Y-113559711D01*
X153319529Y-113204408D01*
X153047592Y-112932471D01*
X152692289Y-112785300D01*
X152307711Y-112785300D01*
X151952408Y-112932471D01*
X151680471Y-113204408D01*
X151533300Y-113559711D01*
X151318500Y-113559711D01*
X151318500Y-113117369D01*
X151326172Y-113078799D01*
X151318500Y-113040229D01*
X151318500Y-113040225D01*
X151295773Y-112925967D01*
X151295772Y-112925965D01*
X151231050Y-112829102D01*
X151231048Y-112829100D01*
X151209199Y-112796401D01*
X151176500Y-112774552D01*
X150072839Y-111670891D01*
X150118781Y-111559975D01*
X151533300Y-111559975D01*
X151533300Y-112005050D01*
X151573903Y-112103073D01*
X151648927Y-112178097D01*
X151746950Y-112218700D01*
X152192025Y-112218700D01*
X152258700Y-112152025D01*
X152258700Y-111493300D01*
X152741300Y-111493300D01*
X152741300Y-112152025D01*
X152807975Y-112218700D01*
X153253050Y-112218700D01*
X153351073Y-112178097D01*
X153426097Y-112103073D01*
X153466700Y-112005050D01*
X153466700Y-111559975D01*
X153400025Y-111493300D01*
X152741300Y-111493300D01*
X152258700Y-111493300D01*
X151599975Y-111493300D01*
X151533300Y-111559975D01*
X150118781Y-111559975D01*
X150166700Y-111444289D01*
X150166700Y-111059711D01*
X158901300Y-111059711D01*
X158901300Y-111444289D01*
X159048471Y-111799592D01*
X159320408Y-112071529D01*
X159675711Y-112218700D01*
X160060289Y-112218700D01*
X160162016Y-112176563D01*
X161126900Y-113141447D01*
X161126901Y-114664025D01*
X161119228Y-114702600D01*
X161149628Y-114855434D01*
X161214350Y-114952297D01*
X161214353Y-114952300D01*
X161236202Y-114984999D01*
X161268901Y-115006848D01*
X162236583Y-115974530D01*
X162201300Y-116059711D01*
X162201300Y-116444289D01*
X162348471Y-116799592D01*
X162620408Y-117071529D01*
X162975711Y-117218700D01*
X163360289Y-117218700D01*
X163715592Y-117071529D01*
X163987529Y-116799592D01*
X164134700Y-116444289D01*
X164134700Y-116059711D01*
X166775300Y-116059711D01*
X166775300Y-116444289D01*
X166922471Y-116799592D01*
X167194408Y-117071529D01*
X167549711Y-117218700D01*
X167934289Y-117218700D01*
X168289592Y-117071529D01*
X168561529Y-116799592D01*
X168708700Y-116444289D01*
X168708700Y-116059711D01*
X170075300Y-116059711D01*
X170075300Y-116444289D01*
X170222471Y-116799592D01*
X170494408Y-117071529D01*
X170849711Y-117218700D01*
X171234289Y-117218700D01*
X171589592Y-117071529D01*
X171861529Y-116799592D01*
X172008700Y-116444289D01*
X172008700Y-116059711D01*
X171946245Y-115908929D01*
X176364136Y-115908929D01*
X176415151Y-117008658D01*
X176737852Y-117787731D01*
X177042875Y-118100436D01*
X178812750Y-116330560D01*
X179495250Y-116330560D01*
X181265125Y-118100436D01*
X181570148Y-117787731D01*
X181943864Y-116752191D01*
X181892849Y-115652462D01*
X181570148Y-114873389D01*
X181265125Y-114560684D01*
X179495250Y-116330560D01*
X178812750Y-116330560D01*
X177042875Y-114560684D01*
X176737852Y-114873389D01*
X176364136Y-115908929D01*
X171946245Y-115908929D01*
X171861529Y-115704408D01*
X171589592Y-115432471D01*
X171234289Y-115285300D01*
X170849711Y-115285300D01*
X170494408Y-115432471D01*
X170222471Y-115704408D01*
X170075300Y-116059711D01*
X168708700Y-116059711D01*
X168561529Y-115704408D01*
X168289592Y-115432471D01*
X167934289Y-115285300D01*
X167549711Y-115285300D01*
X167194408Y-115432471D01*
X166922471Y-115704408D01*
X166775300Y-116059711D01*
X164134700Y-116059711D01*
X164040838Y-115833109D01*
X165730248Y-114143700D01*
X166857899Y-114143700D01*
X166922471Y-114299592D01*
X167194408Y-114571529D01*
X167549711Y-114718700D01*
X167934289Y-114718700D01*
X168289592Y-114571529D01*
X168561529Y-114299592D01*
X168708700Y-113944289D01*
X168708700Y-113559711D01*
X170075300Y-113559711D01*
X170075300Y-113944289D01*
X170222471Y-114299592D01*
X170494408Y-114571529D01*
X170849711Y-114718700D01*
X171234289Y-114718700D01*
X171589592Y-114571529D01*
X171861529Y-114299592D01*
X171894731Y-114219435D01*
X177384124Y-114219435D01*
X179154000Y-115989310D01*
X180923876Y-114219435D01*
X180611171Y-113914412D01*
X179575631Y-113540696D01*
X178475902Y-113591711D01*
X177696829Y-113914412D01*
X177384124Y-114219435D01*
X171894731Y-114219435D01*
X172008700Y-113944289D01*
X172008700Y-113559711D01*
X171861529Y-113204408D01*
X171589592Y-112932471D01*
X171234289Y-112785300D01*
X170849711Y-112785300D01*
X170494408Y-112932471D01*
X170222471Y-113204408D01*
X170075300Y-113559711D01*
X168708700Y-113559711D01*
X168561529Y-113204408D01*
X168289592Y-112932471D01*
X167934289Y-112785300D01*
X167549711Y-112785300D01*
X167194408Y-112932471D01*
X166922471Y-113204408D01*
X166857899Y-113360300D01*
X165606570Y-113360300D01*
X165568000Y-113352628D01*
X165529430Y-113360300D01*
X165529425Y-113360300D01*
X165415167Y-113383027D01*
X165415165Y-113383028D01*
X165415166Y-113383028D01*
X165318302Y-113447750D01*
X165318300Y-113447752D01*
X165285601Y-113469601D01*
X165263752Y-113502300D01*
X163445470Y-115320583D01*
X163360289Y-115285300D01*
X162975711Y-115285300D01*
X162749109Y-115379161D01*
X161910300Y-114540353D01*
X161910300Y-113017770D01*
X161917972Y-112979200D01*
X161910300Y-112940630D01*
X161910300Y-112940625D01*
X161887573Y-112826367D01*
X161800999Y-112696801D01*
X161768298Y-112674951D01*
X160747692Y-111654345D01*
X160834700Y-111444289D01*
X160834700Y-111059711D01*
X160687529Y-110704408D01*
X160535121Y-110552000D01*
X162196076Y-110552000D01*
X162196076Y-111952000D01*
X162216775Y-112056061D01*
X162275721Y-112144279D01*
X162363939Y-112203225D01*
X162468000Y-112223924D01*
X163868000Y-112223924D01*
X163972061Y-112203225D01*
X164060279Y-112144279D01*
X164119225Y-112056061D01*
X164139924Y-111952000D01*
X164139924Y-110552000D01*
X164119225Y-110447939D01*
X164060279Y-110359721D01*
X163972061Y-110300775D01*
X163868000Y-110280076D01*
X162468000Y-110280076D01*
X162363939Y-110300775D01*
X162275721Y-110359721D01*
X162216775Y-110447939D01*
X162196076Y-110552000D01*
X160535121Y-110552000D01*
X160415592Y-110432471D01*
X160060289Y-110285300D01*
X159675711Y-110285300D01*
X159320408Y-110432471D01*
X159048471Y-110704408D01*
X158901300Y-111059711D01*
X150166700Y-111059711D01*
X150019529Y-110704408D01*
X149814071Y-110498950D01*
X151533300Y-110498950D01*
X151533300Y-110944025D01*
X151599975Y-111010700D01*
X152258700Y-111010700D01*
X152258700Y-110351975D01*
X152741300Y-110351975D01*
X152741300Y-111010700D01*
X153400025Y-111010700D01*
X153466700Y-110944025D01*
X153466700Y-110498950D01*
X153426097Y-110400927D01*
X153351073Y-110325903D01*
X153253050Y-110285300D01*
X152807975Y-110285300D01*
X152741300Y-110351975D01*
X152258700Y-110351975D01*
X152192025Y-110285300D01*
X151746950Y-110285300D01*
X151648927Y-110325903D01*
X151573903Y-110400927D01*
X151533300Y-110498950D01*
X149814071Y-110498950D01*
X149747592Y-110432471D01*
X149392289Y-110285300D01*
X149007711Y-110285300D01*
X148652408Y-110432471D01*
X148380471Y-110704408D01*
X148233300Y-111059711D01*
X135381700Y-111059711D01*
X135381700Y-109377480D01*
X144156801Y-109377480D01*
X144235753Y-109774399D01*
X144460590Y-110110890D01*
X144797081Y-110335727D01*
X145093810Y-110394750D01*
X145792030Y-110394750D01*
X146088759Y-110335727D01*
X146425250Y-110110890D01*
X146650087Y-109774399D01*
X146729039Y-109377480D01*
X146650087Y-108980561D01*
X146425250Y-108644070D01*
X146088759Y-108419233D01*
X145792030Y-108360210D01*
X145093810Y-108360210D01*
X144797081Y-108419233D01*
X144460590Y-108644070D01*
X144235753Y-108980561D01*
X144156801Y-109377480D01*
X135381700Y-109377480D01*
X135381700Y-107993180D01*
X141118961Y-107993180D01*
X141197913Y-108390099D01*
X141422750Y-108726590D01*
X141759241Y-108951427D01*
X142055970Y-109010450D01*
X142754190Y-109010450D01*
X143050919Y-108951427D01*
X143387410Y-108726590D01*
X143612247Y-108390099D01*
X143691199Y-107993180D01*
X143612247Y-107596261D01*
X143387410Y-107259770D01*
X143050919Y-107034933D01*
X142754190Y-106975910D01*
X142055970Y-106975910D01*
X141759241Y-107034933D01*
X141422750Y-107259770D01*
X141197913Y-107596261D01*
X141118961Y-107993180D01*
X135381700Y-107993180D01*
X135381700Y-105222040D01*
X141118961Y-105222040D01*
X141197913Y-105618959D01*
X141422750Y-105955450D01*
X141759241Y-106180287D01*
X142055970Y-106239310D01*
X142754190Y-106239310D01*
X143050919Y-106180287D01*
X143387410Y-105955450D01*
X143532212Y-105738740D01*
X144665220Y-105738740D01*
X144460590Y-105875470D01*
X144235753Y-106211961D01*
X144156801Y-106608880D01*
X144235753Y-107005799D01*
X144460590Y-107342290D01*
X144797081Y-107567127D01*
X145093810Y-107626150D01*
X145792030Y-107626150D01*
X146088759Y-107567127D01*
X146425250Y-107342290D01*
X146650087Y-107005799D01*
X146729039Y-106608880D01*
X146650087Y-106211961D01*
X146425250Y-105875470D01*
X146220620Y-105738740D01*
X152608017Y-105738740D01*
X154386657Y-107517381D01*
X154415481Y-107560519D01*
X154586394Y-107674720D01*
X154737113Y-107704700D01*
X154737117Y-107704700D01*
X154787999Y-107714821D01*
X154838881Y-107704700D01*
X174447118Y-107704700D01*
X174498000Y-107714821D01*
X174548882Y-107704700D01*
X174548887Y-107704700D01*
X174699606Y-107674720D01*
X174870519Y-107560519D01*
X174899345Y-107517378D01*
X176679424Y-105737300D01*
X176857380Y-105737300D01*
X176652750Y-105874030D01*
X176427913Y-106210521D01*
X176348961Y-106607440D01*
X176427913Y-107004359D01*
X176652750Y-107340850D01*
X176989241Y-107565687D01*
X177161945Y-107600040D01*
X175510830Y-107600040D01*
X175472260Y-107592368D01*
X175433690Y-107600040D01*
X175433685Y-107600040D01*
X175319427Y-107622767D01*
X175189861Y-107709341D01*
X175168010Y-107742043D01*
X174335753Y-108574300D01*
X167892569Y-108574300D01*
X167853999Y-108566628D01*
X167815429Y-108574300D01*
X167815425Y-108574300D01*
X167701167Y-108597027D01*
X167701166Y-108597028D01*
X167701165Y-108597028D01*
X167604302Y-108661750D01*
X167604300Y-108661752D01*
X167571601Y-108683601D01*
X167549752Y-108716300D01*
X163445470Y-112820583D01*
X163360289Y-112785300D01*
X162975711Y-112785300D01*
X162620408Y-112932471D01*
X162348471Y-113204408D01*
X162201300Y-113559711D01*
X162201300Y-113944289D01*
X162348471Y-114299592D01*
X162620408Y-114571529D01*
X162975711Y-114718700D01*
X163360289Y-114718700D01*
X163715592Y-114571529D01*
X163987529Y-114299592D01*
X164134700Y-113944289D01*
X164134700Y-113559711D01*
X164040838Y-113333109D01*
X166314236Y-111059711D01*
X166775300Y-111059711D01*
X166775300Y-111444289D01*
X166922471Y-111799592D01*
X167194408Y-112071529D01*
X167549711Y-112218700D01*
X167934289Y-112218700D01*
X168289592Y-112071529D01*
X168561529Y-111799592D01*
X168708700Y-111444289D01*
X168708700Y-111059711D01*
X168561529Y-110704408D01*
X168409121Y-110552000D01*
X170070076Y-110552000D01*
X170070076Y-111952000D01*
X170090775Y-112056061D01*
X170149721Y-112144279D01*
X170237939Y-112203225D01*
X170342000Y-112223924D01*
X171742000Y-112223924D01*
X171846061Y-112203225D01*
X171934279Y-112144279D01*
X171993225Y-112056061D01*
X172013924Y-111952000D01*
X172013924Y-110552000D01*
X171993225Y-110447939D01*
X171934279Y-110359721D01*
X171846061Y-110300775D01*
X171742000Y-110280076D01*
X170342000Y-110280076D01*
X170237939Y-110300775D01*
X170149721Y-110359721D01*
X170090775Y-110447939D01*
X170070076Y-110552000D01*
X168409121Y-110552000D01*
X168289592Y-110432471D01*
X167934289Y-110285300D01*
X167549711Y-110285300D01*
X167194408Y-110432471D01*
X166922471Y-110704408D01*
X166775300Y-111059711D01*
X166314236Y-111059711D01*
X168016248Y-109357700D01*
X174459430Y-109357700D01*
X174498000Y-109365372D01*
X174536570Y-109357700D01*
X174536575Y-109357700D01*
X174650833Y-109334973D01*
X174780399Y-109248399D01*
X174802250Y-109215697D01*
X175634507Y-108383440D01*
X177161945Y-108383440D01*
X176989241Y-108417793D01*
X176652750Y-108642630D01*
X176427913Y-108979121D01*
X176348961Y-109376040D01*
X176427913Y-109772959D01*
X176652750Y-110109450D01*
X176989241Y-110334287D01*
X177285970Y-110393310D01*
X177984190Y-110393310D01*
X178280919Y-110334287D01*
X178617410Y-110109450D01*
X178842247Y-109772959D01*
X178921199Y-109376040D01*
X178842247Y-108979121D01*
X178617410Y-108642630D01*
X178280919Y-108417793D01*
X178108215Y-108383440D01*
X179464715Y-108383440D01*
X179465753Y-108388659D01*
X179690590Y-108725150D01*
X180027081Y-108949987D01*
X180323810Y-109009010D01*
X181022030Y-109009010D01*
X181318759Y-108949987D01*
X181655250Y-108725150D01*
X181880087Y-108388659D01*
X181959039Y-107991740D01*
X181880087Y-107594821D01*
X181655250Y-107258330D01*
X181318759Y-107033493D01*
X181022030Y-106974470D01*
X180323810Y-106974470D01*
X180027081Y-107033493D01*
X179690590Y-107258330D01*
X179465753Y-107594821D01*
X179464715Y-107600040D01*
X178108215Y-107600040D01*
X178280919Y-107565687D01*
X178617410Y-107340850D01*
X178842247Y-107004359D01*
X178921199Y-106607440D01*
X178842247Y-106210521D01*
X178617410Y-105874030D01*
X178412780Y-105737300D01*
X179545788Y-105737300D01*
X179690590Y-105954010D01*
X180027081Y-106178847D01*
X180323810Y-106237870D01*
X181022030Y-106237870D01*
X181318759Y-106178847D01*
X181655250Y-105954010D01*
X181800052Y-105737300D01*
X181990918Y-105737300D01*
X182041800Y-105747421D01*
X182092682Y-105737300D01*
X182092687Y-105737300D01*
X182243406Y-105707320D01*
X182414319Y-105593119D01*
X182443145Y-105549978D01*
X183285581Y-104707543D01*
X183328719Y-104678719D01*
X183400022Y-104572008D01*
X183442920Y-104507806D01*
X183447021Y-104487190D01*
X183472900Y-104357087D01*
X183472900Y-104357083D01*
X183483021Y-104306200D01*
X183472900Y-104255317D01*
X183472900Y-99339481D01*
X183483021Y-99288599D01*
X183472900Y-99237717D01*
X183472900Y-99237713D01*
X183442920Y-99086994D01*
X183328719Y-98916081D01*
X183285581Y-98887257D01*
X182365505Y-97967182D01*
X182336679Y-97924041D01*
X182165766Y-97809840D01*
X182015047Y-97779860D01*
X182015042Y-97779860D01*
X181964160Y-97769739D01*
X181913278Y-97779860D01*
X178762212Y-97779860D01*
X178617410Y-97563150D01*
X178280919Y-97338313D01*
X177984190Y-97279290D01*
X177285970Y-97279290D01*
X176989241Y-97338313D01*
X176652750Y-97563150D01*
X176507948Y-97779860D01*
X175934984Y-97779860D01*
X175247904Y-97092781D01*
X175260700Y-97061889D01*
X175260700Y-96677311D01*
X175113529Y-96322008D01*
X174841592Y-96050071D01*
X174486289Y-95902900D01*
X174101711Y-95902900D01*
X173746408Y-96050071D01*
X173474471Y-96322008D01*
X173327300Y-96677311D01*
X173327300Y-97061889D01*
X173474471Y-97417192D01*
X173746408Y-97689129D01*
X173777301Y-97701925D01*
X173777300Y-98787275D01*
X173746408Y-98800071D01*
X173474471Y-99072008D01*
X173327300Y-99427311D01*
X173327300Y-99811889D01*
X173474471Y-100167192D01*
X173746408Y-100439129D01*
X173777301Y-100451925D01*
X173777300Y-101537275D01*
X173746408Y-101550071D01*
X173474471Y-101822008D01*
X173327300Y-102177311D01*
X173327300Y-102561889D01*
X173474471Y-102917192D01*
X173746408Y-103189129D01*
X174101711Y-103336300D01*
X174486289Y-103336300D01*
X174841592Y-103189129D01*
X175113529Y-102917192D01*
X175260700Y-102561889D01*
X175260700Y-102177311D01*
X175113529Y-101822008D01*
X174841592Y-101550071D01*
X174810700Y-101537275D01*
X174810700Y-101065160D01*
X176348961Y-101065160D01*
X176427913Y-101462079D01*
X176652750Y-101798570D01*
X176989241Y-102023407D01*
X177285970Y-102082430D01*
X177984190Y-102082430D01*
X178101598Y-102059076D01*
X179485677Y-102059076D01*
X179504541Y-102210700D01*
X180431620Y-102210700D01*
X180431620Y-101500502D01*
X180914220Y-101500502D01*
X180914220Y-102210700D01*
X181841299Y-102210700D01*
X181860163Y-102059076D01*
X181741081Y-101847368D01*
X181447337Y-101579883D01*
X181073591Y-101445170D01*
X180914220Y-101500502D01*
X180431620Y-101500502D01*
X180272249Y-101445170D01*
X179898503Y-101579883D01*
X179604759Y-101847368D01*
X179485677Y-102059076D01*
X178101598Y-102059076D01*
X178280919Y-102023407D01*
X178617410Y-101798570D01*
X178842247Y-101462079D01*
X178921199Y-101065160D01*
X178842247Y-100668241D01*
X178617410Y-100331750D01*
X178280919Y-100106913D01*
X177984190Y-100047890D01*
X177285970Y-100047890D01*
X176989241Y-100106913D01*
X176652750Y-100331750D01*
X176427913Y-100668241D01*
X176348961Y-101065160D01*
X174810700Y-101065160D01*
X174810700Y-100451925D01*
X174841592Y-100439129D01*
X175113529Y-100167192D01*
X175260700Y-99811889D01*
X175260700Y-99427311D01*
X175113529Y-99072008D01*
X174841592Y-98800071D01*
X174810700Y-98787275D01*
X174810700Y-98117024D01*
X175319617Y-98625941D01*
X175348441Y-98669079D01*
X175519354Y-98783280D01*
X175670073Y-98813260D01*
X175670077Y-98813260D01*
X175720959Y-98823381D01*
X175771841Y-98813260D01*
X176507948Y-98813260D01*
X176652750Y-99029970D01*
X176989241Y-99254807D01*
X177285970Y-99313830D01*
X177984190Y-99313830D01*
X178280919Y-99254807D01*
X178617410Y-99029970D01*
X178762212Y-98813260D01*
X179891419Y-98813260D01*
X179690590Y-98947450D01*
X179465753Y-99283941D01*
X179386801Y-99680860D01*
X179465753Y-100077779D01*
X179690590Y-100414270D01*
X180027081Y-100639107D01*
X180323810Y-100698130D01*
X181022030Y-100698130D01*
X181318759Y-100639107D01*
X181655250Y-100414270D01*
X181880087Y-100077779D01*
X181959039Y-99680860D01*
X181880087Y-99283941D01*
X181655250Y-98947450D01*
X181454421Y-98813260D01*
X181750137Y-98813260D01*
X182439500Y-99502624D01*
X182439501Y-104092175D01*
X181827777Y-104703900D01*
X181800052Y-104703900D01*
X181655250Y-104487190D01*
X181318759Y-104262353D01*
X181022030Y-104203330D01*
X180323810Y-104203330D01*
X180027081Y-104262353D01*
X179690590Y-104487190D01*
X179545788Y-104703900D01*
X178416581Y-104703900D01*
X178617410Y-104569710D01*
X178842247Y-104233219D01*
X178921199Y-103836300D01*
X178842247Y-103439381D01*
X178617410Y-103102890D01*
X178280919Y-102878053D01*
X178114369Y-102844924D01*
X179485677Y-102844924D01*
X179604759Y-103056632D01*
X179898503Y-103324117D01*
X180272249Y-103458830D01*
X180431620Y-103403498D01*
X180431620Y-102693300D01*
X180914220Y-102693300D01*
X180914220Y-103403498D01*
X181073591Y-103458830D01*
X181447337Y-103324117D01*
X181741081Y-103056632D01*
X181860163Y-102844924D01*
X181841299Y-102693300D01*
X180914220Y-102693300D01*
X180431620Y-102693300D01*
X179504541Y-102693300D01*
X179485677Y-102844924D01*
X178114369Y-102844924D01*
X177984190Y-102819030D01*
X177285970Y-102819030D01*
X176989241Y-102878053D01*
X176652750Y-103102890D01*
X176427913Y-103439381D01*
X176348961Y-103836300D01*
X176427913Y-104233219D01*
X176652750Y-104569710D01*
X176853579Y-104703900D01*
X176516283Y-104703900D01*
X176465400Y-104693779D01*
X176414517Y-104703900D01*
X176414513Y-104703900D01*
X176263794Y-104733880D01*
X176170845Y-104795987D01*
X176092881Y-104848081D01*
X176064057Y-104891219D01*
X174283977Y-106671300D01*
X155002024Y-106671300D01*
X153450324Y-105119600D01*
X155439603Y-105119600D01*
X155522391Y-105535805D01*
X155758153Y-105888647D01*
X156110995Y-106124409D01*
X156422143Y-106186300D01*
X156632257Y-106186300D01*
X156943405Y-106124409D01*
X157296247Y-105888647D01*
X157532009Y-105535805D01*
X157614797Y-105119600D01*
X157532009Y-104703395D01*
X157296247Y-104350553D01*
X157249923Y-104319600D01*
X163075276Y-104319600D01*
X163075276Y-105919600D01*
X163095975Y-106023661D01*
X163154921Y-106111879D01*
X163243139Y-106170825D01*
X163347200Y-106191524D01*
X164947200Y-106191524D01*
X165051261Y-106170825D01*
X165139479Y-106111879D01*
X165198425Y-106023661D01*
X165219124Y-105919600D01*
X165219124Y-104319600D01*
X165198425Y-104215539D01*
X165139479Y-104127321D01*
X165051261Y-104068375D01*
X164947200Y-104047676D01*
X163347200Y-104047676D01*
X163243139Y-104068375D01*
X163154921Y-104127321D01*
X163095975Y-104215539D01*
X163075276Y-104319600D01*
X157249923Y-104319600D01*
X156943405Y-104114791D01*
X156632257Y-104052900D01*
X156422143Y-104052900D01*
X156110995Y-104114791D01*
X155758153Y-104350553D01*
X155522391Y-104703395D01*
X155439603Y-105119600D01*
X153450324Y-105119600D01*
X153223385Y-104892662D01*
X153194559Y-104849521D01*
X153023646Y-104735320D01*
X152872927Y-104705340D01*
X152872922Y-104705340D01*
X152822040Y-104695219D01*
X152771158Y-104705340D01*
X146224421Y-104705340D01*
X146425250Y-104571150D01*
X146650087Y-104234659D01*
X146729039Y-103837740D01*
X146650087Y-103440821D01*
X146425250Y-103104330D01*
X146088759Y-102879493D01*
X145792030Y-102820470D01*
X145093810Y-102820470D01*
X144797081Y-102879493D01*
X144460590Y-103104330D01*
X144235753Y-103440821D01*
X144156801Y-103837740D01*
X144235753Y-104234659D01*
X144460590Y-104571150D01*
X144661419Y-104705340D01*
X143532212Y-104705340D01*
X143387410Y-104488630D01*
X143050919Y-104263793D01*
X142754190Y-104204770D01*
X142055970Y-104204770D01*
X141759241Y-104263793D01*
X141422750Y-104488630D01*
X141197913Y-104825121D01*
X141118961Y-105222040D01*
X135381700Y-105222040D01*
X135381700Y-102846364D01*
X141217837Y-102846364D01*
X141336919Y-103058072D01*
X141630663Y-103325557D01*
X142004409Y-103460270D01*
X142163780Y-103404938D01*
X142163780Y-102694740D01*
X142646380Y-102694740D01*
X142646380Y-103404938D01*
X142805751Y-103460270D01*
X143179497Y-103325557D01*
X143473241Y-103058072D01*
X143592323Y-102846364D01*
X143573459Y-102694740D01*
X142646380Y-102694740D01*
X142163780Y-102694740D01*
X141236701Y-102694740D01*
X141217837Y-102846364D01*
X135381700Y-102846364D01*
X135381700Y-102369600D01*
X155451603Y-102369600D01*
X155534391Y-102785805D01*
X155770153Y-103138647D01*
X156122995Y-103374409D01*
X156434143Y-103436300D01*
X156644257Y-103436300D01*
X156955405Y-103374409D01*
X157308247Y-103138647D01*
X157544009Y-102785805D01*
X157626797Y-102369600D01*
X157544009Y-101953395D01*
X157308247Y-101600553D01*
X157261923Y-101569600D01*
X163087276Y-101569600D01*
X163087276Y-103169600D01*
X163107975Y-103273661D01*
X163166921Y-103361879D01*
X163255139Y-103420825D01*
X163359200Y-103441524D01*
X164959200Y-103441524D01*
X165063261Y-103420825D01*
X165151479Y-103361879D01*
X165210425Y-103273661D01*
X165231124Y-103169600D01*
X165231124Y-102369600D01*
X165688362Y-102369600D01*
X165763389Y-102746787D01*
X165977049Y-103066551D01*
X166282300Y-103270514D01*
X166282301Y-104235498D01*
X166126408Y-104300071D01*
X165854471Y-104572008D01*
X165707300Y-104927311D01*
X165707300Y-105311889D01*
X165854471Y-105667192D01*
X166126408Y-105939129D01*
X166481711Y-106086300D01*
X166866289Y-106086300D01*
X167221592Y-105939129D01*
X167493529Y-105667192D01*
X167640700Y-105311889D01*
X167640700Y-104927311D01*
X167493529Y-104572008D01*
X167221592Y-104300071D01*
X167065700Y-104235499D01*
X167065700Y-103270514D01*
X167370951Y-103066551D01*
X167584611Y-102746787D01*
X167659638Y-102369600D01*
X167584611Y-101992413D01*
X167370951Y-101672649D01*
X167051187Y-101458989D01*
X166769208Y-101402900D01*
X166578792Y-101402900D01*
X166296813Y-101458989D01*
X165977049Y-101672649D01*
X165763389Y-101992413D01*
X165688362Y-102369600D01*
X165231124Y-102369600D01*
X165231124Y-101569600D01*
X165210425Y-101465539D01*
X165151479Y-101377321D01*
X165063261Y-101318375D01*
X164959200Y-101297676D01*
X163359200Y-101297676D01*
X163255139Y-101318375D01*
X163166921Y-101377321D01*
X163107975Y-101465539D01*
X163087276Y-101569600D01*
X157261923Y-101569600D01*
X156955405Y-101364791D01*
X156644257Y-101302900D01*
X156434143Y-101302900D01*
X156122995Y-101364791D01*
X155770153Y-101600553D01*
X155534391Y-101953395D01*
X155451603Y-102369600D01*
X135381700Y-102369600D01*
X135381700Y-102060516D01*
X141217837Y-102060516D01*
X141236701Y-102212140D01*
X142163780Y-102212140D01*
X142163780Y-101501942D01*
X142646380Y-101501942D01*
X142646380Y-102212140D01*
X143573459Y-102212140D01*
X143592323Y-102060516D01*
X143473241Y-101848808D01*
X143179497Y-101581323D01*
X142805751Y-101446610D01*
X142646380Y-101501942D01*
X142163780Y-101501942D01*
X142004409Y-101446610D01*
X141630663Y-101581323D01*
X141336919Y-101848808D01*
X141217837Y-102060516D01*
X135381700Y-102060516D01*
X135381700Y-101066600D01*
X144156801Y-101066600D01*
X144235753Y-101463519D01*
X144460590Y-101800010D01*
X144797081Y-102024847D01*
X145093810Y-102083870D01*
X145792030Y-102083870D01*
X146088759Y-102024847D01*
X146425250Y-101800010D01*
X146650087Y-101463519D01*
X146729039Y-101066600D01*
X146650087Y-100669681D01*
X146425250Y-100333190D01*
X146088759Y-100108353D01*
X145792030Y-100049330D01*
X145093810Y-100049330D01*
X144797081Y-100108353D01*
X144460590Y-100333190D01*
X144235753Y-100669681D01*
X144156801Y-101066600D01*
X135381700Y-101066600D01*
X135381700Y-99682300D01*
X141118961Y-99682300D01*
X141197913Y-100079219D01*
X141422750Y-100415710D01*
X141759241Y-100640547D01*
X142055970Y-100699570D01*
X142754190Y-100699570D01*
X143050919Y-100640547D01*
X143387410Y-100415710D01*
X143612247Y-100079219D01*
X143691199Y-99682300D01*
X143678728Y-99619600D01*
X155451603Y-99619600D01*
X155534391Y-100035805D01*
X155770153Y-100388647D01*
X156122995Y-100624409D01*
X156434143Y-100686300D01*
X156644257Y-100686300D01*
X156955405Y-100624409D01*
X157308247Y-100388647D01*
X157544009Y-100035805D01*
X157626797Y-99619600D01*
X157544009Y-99203395D01*
X157308247Y-98850553D01*
X157261923Y-98819600D01*
X163087276Y-98819600D01*
X163087276Y-100419600D01*
X163107975Y-100523661D01*
X163166921Y-100611879D01*
X163255139Y-100670825D01*
X163359200Y-100691524D01*
X164959200Y-100691524D01*
X165063261Y-100670825D01*
X165151479Y-100611879D01*
X165210425Y-100523661D01*
X165231124Y-100419600D01*
X165231124Y-99619600D01*
X165688362Y-99619600D01*
X165763389Y-99996787D01*
X165977049Y-100316551D01*
X166296813Y-100530211D01*
X166578792Y-100586300D01*
X166769208Y-100586300D01*
X167051187Y-100530211D01*
X167370951Y-100316551D01*
X167584611Y-99996787D01*
X167659638Y-99619600D01*
X167588016Y-99259531D01*
X170754817Y-96092730D01*
X170787519Y-96070879D01*
X170826861Y-96012000D01*
X172320628Y-96012000D01*
X172328300Y-96050571D01*
X172328301Y-103507025D01*
X172320628Y-103545600D01*
X172351028Y-103698434D01*
X172415750Y-103795297D01*
X172415753Y-103795300D01*
X172437602Y-103827999D01*
X172470301Y-103849848D01*
X173379984Y-104759532D01*
X173308362Y-105119600D01*
X173383389Y-105496787D01*
X173597049Y-105816551D01*
X173916813Y-106030211D01*
X174198792Y-106086300D01*
X174389208Y-106086300D01*
X174671187Y-106030211D01*
X174990951Y-105816551D01*
X175204611Y-105496787D01*
X175279638Y-105119600D01*
X175204611Y-104742413D01*
X174990951Y-104422649D01*
X174671187Y-104208989D01*
X174389208Y-104152900D01*
X174198792Y-104152900D01*
X173933932Y-104205584D01*
X173111700Y-103383353D01*
X173111700Y-96174247D01*
X174034104Y-95251843D01*
X174066806Y-95229992D01*
X174153380Y-95100426D01*
X174176107Y-94986168D01*
X174176107Y-94986163D01*
X174183779Y-94947593D01*
X174176107Y-94909023D01*
X174176107Y-93453165D01*
X177384124Y-93453165D01*
X177696829Y-93758188D01*
X178732369Y-94131904D01*
X179832098Y-94080889D01*
X180611171Y-93758188D01*
X180923876Y-93453165D01*
X179154000Y-91683290D01*
X177384124Y-93453165D01*
X174176107Y-93453165D01*
X174176107Y-93181232D01*
X174218708Y-93163586D01*
X174434384Y-92947910D01*
X174551107Y-92666115D01*
X174551107Y-92361103D01*
X174434384Y-92079308D01*
X174218708Y-91863632D01*
X173936913Y-91746909D01*
X173631901Y-91746909D01*
X173350106Y-91863632D01*
X173134430Y-92079308D01*
X173017707Y-92361103D01*
X173017707Y-92666115D01*
X173134430Y-92947910D01*
X173350106Y-93163586D01*
X173392707Y-93181232D01*
X173392708Y-94785345D01*
X172470303Y-95707750D01*
X172437601Y-95729601D01*
X172415751Y-95762302D01*
X172415750Y-95762303D01*
X172392115Y-95797676D01*
X172351027Y-95859168D01*
X172328300Y-95973426D01*
X172328300Y-95973430D01*
X172320628Y-96012000D01*
X170826861Y-96012000D01*
X170874093Y-95941313D01*
X170896820Y-95827055D01*
X170896820Y-95827050D01*
X170904492Y-95788480D01*
X170896820Y-95749910D01*
X170896820Y-94430188D01*
X172209078Y-94430188D01*
X172272577Y-94526984D01*
X172575463Y-94562942D01*
X172756237Y-94526984D01*
X172819736Y-94430188D01*
X172514407Y-94124859D01*
X172209078Y-94430188D01*
X170896820Y-94430188D01*
X170896820Y-93844665D01*
X171735074Y-93844665D01*
X171771032Y-94025439D01*
X171867828Y-94088938D01*
X172173157Y-93783609D01*
X172855657Y-93783609D01*
X173160986Y-94088938D01*
X173257782Y-94025439D01*
X173293740Y-93722553D01*
X173257782Y-93541779D01*
X173160986Y-93478280D01*
X172855657Y-93783609D01*
X172173157Y-93783609D01*
X171867828Y-93478280D01*
X171771032Y-93541779D01*
X171735074Y-93844665D01*
X170896820Y-93844665D01*
X170896820Y-93309127D01*
X171068917Y-93137030D01*
X172209078Y-93137030D01*
X172514407Y-93442359D01*
X172819736Y-93137030D01*
X172756237Y-93040234D01*
X172453351Y-93004276D01*
X172272577Y-93040234D01*
X172209078Y-93137030D01*
X171068917Y-93137030D01*
X172190414Y-92015533D01*
X173014407Y-92015533D01*
X173118468Y-91994834D01*
X173206686Y-91935888D01*
X173265632Y-91847670D01*
X173286331Y-91743609D01*
X173286331Y-90920409D01*
X176364136Y-90920409D01*
X176415151Y-92020138D01*
X176737852Y-92799211D01*
X177042875Y-93111916D01*
X178812750Y-91342040D01*
X179495250Y-91342040D01*
X181265125Y-93111916D01*
X181570148Y-92799211D01*
X181943864Y-91763671D01*
X181892849Y-90663942D01*
X181570148Y-89884869D01*
X181265125Y-89572164D01*
X179495250Y-91342040D01*
X178812750Y-91342040D01*
X177042875Y-89572164D01*
X176737852Y-89884869D01*
X176364136Y-90920409D01*
X173286331Y-90920409D01*
X173286331Y-90743609D01*
X173265632Y-90639548D01*
X173206686Y-90551330D01*
X173118468Y-90492384D01*
X173014407Y-90471685D01*
X172014407Y-90471685D01*
X171910346Y-90492384D01*
X171822128Y-90551330D01*
X171763182Y-90639548D01*
X171742483Y-90743609D01*
X171742483Y-91355570D01*
X170255423Y-92842630D01*
X170222721Y-92864481D01*
X170200871Y-92897182D01*
X170200870Y-92897183D01*
X170144471Y-92981591D01*
X170136147Y-92994048D01*
X170113420Y-93108306D01*
X170113420Y-93108310D01*
X170105748Y-93146880D01*
X170113420Y-93185451D01*
X170113421Y-95626232D01*
X167034069Y-98705584D01*
X166769208Y-98652900D01*
X166578792Y-98652900D01*
X166296813Y-98708989D01*
X165977049Y-98922649D01*
X165763389Y-99242413D01*
X165688362Y-99619600D01*
X165231124Y-99619600D01*
X165231124Y-98819600D01*
X165210425Y-98715539D01*
X165151479Y-98627321D01*
X165063261Y-98568375D01*
X164959200Y-98547676D01*
X163359200Y-98547676D01*
X163255139Y-98568375D01*
X163166921Y-98627321D01*
X163107975Y-98715539D01*
X163087276Y-98819600D01*
X157261923Y-98819600D01*
X156955405Y-98614791D01*
X156644257Y-98552900D01*
X156434143Y-98552900D01*
X156122995Y-98614791D01*
X155770153Y-98850553D01*
X155534391Y-99203395D01*
X155451603Y-99619600D01*
X143678728Y-99619600D01*
X143612247Y-99285381D01*
X143387410Y-98948890D01*
X143050919Y-98724053D01*
X142754190Y-98665030D01*
X142055970Y-98665030D01*
X141759241Y-98724053D01*
X141422750Y-98948890D01*
X141197913Y-99285381D01*
X141118961Y-99682300D01*
X135381700Y-99682300D01*
X135381700Y-98298000D01*
X144156801Y-98298000D01*
X144235753Y-98694919D01*
X144460590Y-99031410D01*
X144797081Y-99256247D01*
X145093810Y-99315270D01*
X145792030Y-99315270D01*
X146088759Y-99256247D01*
X146425250Y-99031410D01*
X146650087Y-98694919D01*
X146729039Y-98298000D01*
X146650087Y-97901081D01*
X146425250Y-97564590D01*
X146088759Y-97339753D01*
X145792030Y-97280730D01*
X145093810Y-97280730D01*
X144797081Y-97339753D01*
X144460590Y-97564590D01*
X144235753Y-97901081D01*
X144156801Y-98298000D01*
X135381700Y-98298000D01*
X135381700Y-96869600D01*
X155451603Y-96869600D01*
X155534391Y-97285805D01*
X155770153Y-97638647D01*
X156122995Y-97874409D01*
X156434143Y-97936300D01*
X156644257Y-97936300D01*
X156955405Y-97874409D01*
X157308247Y-97638647D01*
X157544009Y-97285805D01*
X157626797Y-96869600D01*
X157544009Y-96453395D01*
X157308247Y-96100553D01*
X157261923Y-96069600D01*
X163087276Y-96069600D01*
X163087276Y-97669600D01*
X163107975Y-97773661D01*
X163166921Y-97861879D01*
X163255139Y-97920825D01*
X163359200Y-97941524D01*
X164959200Y-97941524D01*
X165063261Y-97920825D01*
X165151479Y-97861879D01*
X165210425Y-97773661D01*
X165231124Y-97669600D01*
X165231124Y-96869600D01*
X165688362Y-96869600D01*
X165763389Y-97246787D01*
X165977049Y-97566551D01*
X166296813Y-97780211D01*
X166578792Y-97836300D01*
X166769208Y-97836300D01*
X167051187Y-97780211D01*
X167370951Y-97566551D01*
X167584611Y-97246787D01*
X167659638Y-96869600D01*
X167588016Y-96509531D01*
X168678393Y-95419154D01*
X168711095Y-95397303D01*
X168797669Y-95267737D01*
X168820396Y-95153479D01*
X168820396Y-95153474D01*
X168828068Y-95114904D01*
X168820396Y-95076334D01*
X168820396Y-94555533D01*
X168928696Y-94555533D01*
X169032757Y-94534834D01*
X169120975Y-94475888D01*
X169179921Y-94387670D01*
X169200620Y-94283609D01*
X169200620Y-93283609D01*
X169179921Y-93179548D01*
X169120975Y-93091330D01*
X169032757Y-93032384D01*
X168928696Y-93011685D01*
X167928696Y-93011685D01*
X167824635Y-93032384D01*
X167736417Y-93091330D01*
X167677471Y-93179548D01*
X167656772Y-93283609D01*
X167656772Y-94283609D01*
X167677471Y-94387670D01*
X167736417Y-94475888D01*
X167824635Y-94534834D01*
X167928696Y-94555533D01*
X168036997Y-94555533D01*
X168036997Y-94952656D01*
X167034069Y-95955584D01*
X166769208Y-95902900D01*
X166578792Y-95902900D01*
X166296813Y-95958989D01*
X165977049Y-96172649D01*
X165763389Y-96492413D01*
X165688362Y-96869600D01*
X165231124Y-96869600D01*
X165231124Y-96069600D01*
X165210425Y-95965539D01*
X165151479Y-95877321D01*
X165063261Y-95818375D01*
X164959200Y-95797676D01*
X163359200Y-95797676D01*
X163255139Y-95818375D01*
X163166921Y-95877321D01*
X163107975Y-95965539D01*
X163087276Y-96069600D01*
X157261923Y-96069600D01*
X156955405Y-95864791D01*
X156644257Y-95802900D01*
X156434143Y-95802900D01*
X156122995Y-95864791D01*
X155770153Y-96100553D01*
X155534391Y-96453395D01*
X155451603Y-96869600D01*
X135381700Y-96869600D01*
X135381700Y-94581700D01*
X149993653Y-94581700D01*
X150002946Y-94579852D01*
X150323757Y-94562175D01*
X150331650Y-94560875D01*
X150339644Y-94560927D01*
X150377321Y-94554943D01*
X151104974Y-94397270D01*
X151121970Y-94391607D01*
X151139485Y-94387876D01*
X151174997Y-94373941D01*
X151729850Y-94119600D01*
X155451603Y-94119600D01*
X155534391Y-94535805D01*
X155770153Y-94888647D01*
X156122995Y-95124409D01*
X156434143Y-95186300D01*
X156644257Y-95186300D01*
X156955405Y-95124409D01*
X157308247Y-94888647D01*
X157544009Y-94535805D01*
X157626797Y-94119600D01*
X157544009Y-93703395D01*
X157308247Y-93350553D01*
X157261923Y-93319600D01*
X163087276Y-93319600D01*
X163087276Y-94919600D01*
X163107975Y-95023661D01*
X163166921Y-95111879D01*
X163255139Y-95170825D01*
X163359200Y-95191524D01*
X164959200Y-95191524D01*
X165063261Y-95170825D01*
X165151479Y-95111879D01*
X165210425Y-95023661D01*
X165231124Y-94919600D01*
X165231124Y-93319600D01*
X165210425Y-93215539D01*
X165151479Y-93127321D01*
X165063261Y-93068375D01*
X164959200Y-93047676D01*
X163359200Y-93047676D01*
X163255139Y-93068375D01*
X163166921Y-93127321D01*
X163107975Y-93215539D01*
X163087276Y-93319600D01*
X157261923Y-93319600D01*
X156955405Y-93114791D01*
X156644257Y-93052900D01*
X156434143Y-93052900D01*
X156122995Y-93114791D01*
X155770153Y-93350553D01*
X155534391Y-93703395D01*
X155451603Y-94119600D01*
X151729850Y-94119600D01*
X151851816Y-94063692D01*
X151867194Y-94054516D01*
X151883504Y-94047108D01*
X151915195Y-94025872D01*
X152489614Y-93592603D01*
X152522820Y-93570416D01*
X154723636Y-91369600D01*
X155451603Y-91369600D01*
X155534391Y-91785805D01*
X155770153Y-92138647D01*
X156122995Y-92374409D01*
X156434143Y-92436300D01*
X156644257Y-92436300D01*
X156955405Y-92374409D01*
X157308247Y-92138647D01*
X157544009Y-91785805D01*
X157626797Y-91369600D01*
X157544009Y-90953395D01*
X157308247Y-90600553D01*
X157261923Y-90569600D01*
X163087276Y-90569600D01*
X163087276Y-92169600D01*
X163107975Y-92273661D01*
X163166921Y-92361879D01*
X163255139Y-92420825D01*
X163359200Y-92441524D01*
X164959200Y-92441524D01*
X165063261Y-92420825D01*
X165151479Y-92361879D01*
X165151997Y-92361103D01*
X166391996Y-92361103D01*
X166391996Y-92666115D01*
X166508719Y-92947910D01*
X166724395Y-93163586D01*
X167006190Y-93280309D01*
X167311202Y-93280309D01*
X167592997Y-93163586D01*
X167808673Y-92947910D01*
X167925396Y-92666115D01*
X167925396Y-92361103D01*
X167808673Y-92079308D01*
X167619553Y-91890188D01*
X168123367Y-91890188D01*
X168186866Y-91986984D01*
X168489752Y-92022942D01*
X168670526Y-91986984D01*
X168734025Y-91890188D01*
X168428696Y-91584859D01*
X168123367Y-91890188D01*
X167619553Y-91890188D01*
X167592997Y-91863632D01*
X167311202Y-91746909D01*
X167006190Y-91746909D01*
X166724395Y-91863632D01*
X166508719Y-92079308D01*
X166391996Y-92361103D01*
X165151997Y-92361103D01*
X165210425Y-92273661D01*
X165231124Y-92169600D01*
X165231124Y-91304665D01*
X167649363Y-91304665D01*
X167685321Y-91485439D01*
X167782117Y-91548938D01*
X168087446Y-91243609D01*
X168769946Y-91243609D01*
X169075275Y-91548938D01*
X169172071Y-91485439D01*
X169208029Y-91182553D01*
X169172071Y-91001779D01*
X169075275Y-90938280D01*
X168769946Y-91243609D01*
X168087446Y-91243609D01*
X167782117Y-90938280D01*
X167685321Y-91001779D01*
X167649363Y-91304665D01*
X165231124Y-91304665D01*
X165231124Y-90597030D01*
X168123367Y-90597030D01*
X168428696Y-90902359D01*
X168734025Y-90597030D01*
X168670526Y-90500234D01*
X168367640Y-90464276D01*
X168186866Y-90500234D01*
X168123367Y-90597030D01*
X165231124Y-90597030D01*
X165231124Y-90569600D01*
X165210425Y-90465539D01*
X165151479Y-90377321D01*
X165063261Y-90318375D01*
X164959200Y-90297676D01*
X163359200Y-90297676D01*
X163255139Y-90318375D01*
X163166921Y-90377321D01*
X163107975Y-90465539D01*
X163087276Y-90569600D01*
X157261923Y-90569600D01*
X156955405Y-90364791D01*
X156644257Y-90302900D01*
X156434143Y-90302900D01*
X156122995Y-90364791D01*
X155770153Y-90600553D01*
X155534391Y-90953395D01*
X155451603Y-91369600D01*
X154723636Y-91369600D01*
X157361537Y-88731700D01*
X178165652Y-88731700D01*
X177696829Y-88925892D01*
G04 #@! TD*
M02*
