G04 #@! TF.GenerationSoftware,KiCad,Pcbnew,5.1.5-52549c5~86~ubuntu18.04.1*
G04 #@! TF.CreationDate,2020-05-03T19:03:43+02:00*
G04 #@! TF.ProjectId,OpenC64MegaDrivePadAdapter,4f70656e-4336-4344-9d65-676144726976,5*
G04 #@! TF.SameCoordinates,Original*
G04 #@! TF.FileFunction,Copper,L1,Top*
G04 #@! TF.FilePolarity,Positive*
%FSLAX46Y46*%
G04 Gerber Fmt 4.6, Leading zero omitted, Abs format (unit mm)*
G04 Created by KiCad (PCBNEW 5.1.5-52549c5~86~ubuntu18.04.1) date 2020-05-03 19:03:43*
%MOMM*%
%LPD*%
G04 APERTURE LIST*
%ADD10O,1.998980X1.501140*%
%ADD11C,5.001260*%
%ADD12C,1.400000*%
%ADD13R,1.400000X1.400000*%
%ADD14O,1.400000X1.400000*%
%ADD15R,1.800000X1.100000*%
%ADD16C,0.100000*%
%ADD17O,1.600000X1.600000*%
%ADD18R,1.600000X1.600000*%
%ADD19C,1.000000*%
%ADD20C,0.500000*%
%ADD21C,0.250000*%
%ADD22C,0.025400*%
G04 APERTURE END LIST*
D10*
X142405080Y-107993180D03*
X142405080Y-105222040D03*
X142405080Y-102453440D03*
X142405080Y-99682300D03*
X145442920Y-98298000D03*
X145442920Y-101066600D03*
X145442920Y-109377480D03*
X145442920Y-106608880D03*
X145442920Y-103837740D03*
D11*
X143924000Y-116332000D03*
X179154000Y-116330560D03*
D10*
X180672920Y-99680860D03*
X180672920Y-102452000D03*
X180672920Y-105220600D03*
X180672920Y-107991740D03*
X177635080Y-109376040D03*
X177635080Y-106607440D03*
X177635080Y-98296560D03*
X177635080Y-101065160D03*
X177635080Y-103836300D03*
D11*
X179154000Y-91342040D03*
D12*
X149200000Y-116252000D03*
X149200000Y-113752000D03*
X149200000Y-111252000D03*
X152500000Y-116252000D03*
X152500000Y-113752000D03*
D13*
X152500000Y-111252000D03*
D12*
X167742000Y-116252000D03*
X167742000Y-113752000D03*
X167742000Y-111252000D03*
X171042000Y-116252000D03*
X171042000Y-113752000D03*
D13*
X171042000Y-111252000D03*
D12*
X159868000Y-116252000D03*
X159868000Y-113752000D03*
X159868000Y-111252000D03*
X163168000Y-116252000D03*
X163168000Y-113752000D03*
D13*
X163168000Y-111252000D03*
D14*
X166674000Y-95919600D03*
D12*
X174294000Y-95919600D03*
D14*
X166674000Y-98219600D03*
D12*
X174294000Y-98219600D03*
D14*
X166674000Y-100519600D03*
D12*
X174294000Y-100519600D03*
D14*
X166674000Y-102819600D03*
D12*
X174294000Y-102819600D03*
D14*
X174294000Y-105119600D03*
D12*
X166674000Y-105119600D03*
D15*
X168828696Y-93283609D03*
G04 #@! TA.AperFunction,ComponentPad*
D16*
G36*
X169480651Y-90194933D02*
G01*
X169507346Y-90198893D01*
X169533524Y-90205450D01*
X169558934Y-90214542D01*
X169583330Y-90226081D01*
X169606478Y-90239955D01*
X169628154Y-90256031D01*
X169648150Y-90274155D01*
X169666274Y-90294151D01*
X169682350Y-90315827D01*
X169696224Y-90338975D01*
X169707763Y-90363371D01*
X169716855Y-90388781D01*
X169723412Y-90414959D01*
X169727372Y-90441654D01*
X169728696Y-90468609D01*
X169728696Y-91018609D01*
X169727372Y-91045564D01*
X169723412Y-91072259D01*
X169716855Y-91098437D01*
X169707763Y-91123847D01*
X169696224Y-91148243D01*
X169682350Y-91171391D01*
X169666274Y-91193067D01*
X169648150Y-91213063D01*
X169628154Y-91231187D01*
X169606478Y-91247263D01*
X169583330Y-91261137D01*
X169558934Y-91272676D01*
X169533524Y-91281768D01*
X169507346Y-91288325D01*
X169480651Y-91292285D01*
X169453696Y-91293609D01*
X168203696Y-91293609D01*
X168176741Y-91292285D01*
X168150046Y-91288325D01*
X168123868Y-91281768D01*
X168098458Y-91272676D01*
X168074062Y-91261137D01*
X168050914Y-91247263D01*
X168029238Y-91231187D01*
X168009242Y-91213063D01*
X167991118Y-91193067D01*
X167975042Y-91171391D01*
X167961168Y-91148243D01*
X167949629Y-91123847D01*
X167940537Y-91098437D01*
X167933980Y-91072259D01*
X167930020Y-91045564D01*
X167928696Y-91018609D01*
X167928696Y-90468609D01*
X167930020Y-90441654D01*
X167933980Y-90414959D01*
X167940537Y-90388781D01*
X167949629Y-90363371D01*
X167961168Y-90338975D01*
X167975042Y-90315827D01*
X167991118Y-90294151D01*
X168009242Y-90274155D01*
X168029238Y-90256031D01*
X168050914Y-90239955D01*
X168074062Y-90226081D01*
X168098458Y-90214542D01*
X168123868Y-90205450D01*
X168150046Y-90198893D01*
X168176741Y-90194933D01*
X168203696Y-90193609D01*
X169453696Y-90193609D01*
X169480651Y-90194933D01*
G37*
G04 #@! TD.AperFunction*
G04 #@! TA.AperFunction,ComponentPad*
G36*
X167410651Y-91464933D02*
G01*
X167437346Y-91468893D01*
X167463524Y-91475450D01*
X167488934Y-91484542D01*
X167513330Y-91496081D01*
X167536478Y-91509955D01*
X167558154Y-91526031D01*
X167578150Y-91544155D01*
X167596274Y-91564151D01*
X167612350Y-91585827D01*
X167626224Y-91608975D01*
X167637763Y-91633371D01*
X167646855Y-91658781D01*
X167653412Y-91684959D01*
X167657372Y-91711654D01*
X167658696Y-91738609D01*
X167658696Y-92288609D01*
X167657372Y-92315564D01*
X167653412Y-92342259D01*
X167646855Y-92368437D01*
X167637763Y-92393847D01*
X167626224Y-92418243D01*
X167612350Y-92441391D01*
X167596274Y-92463067D01*
X167578150Y-92483063D01*
X167558154Y-92501187D01*
X167536478Y-92517263D01*
X167513330Y-92531137D01*
X167488934Y-92542676D01*
X167463524Y-92551768D01*
X167437346Y-92558325D01*
X167410651Y-92562285D01*
X167383696Y-92563609D01*
X166133696Y-92563609D01*
X166106741Y-92562285D01*
X166080046Y-92558325D01*
X166053868Y-92551768D01*
X166028458Y-92542676D01*
X166004062Y-92531137D01*
X165980914Y-92517263D01*
X165959238Y-92501187D01*
X165939242Y-92483063D01*
X165921118Y-92463067D01*
X165905042Y-92441391D01*
X165891168Y-92418243D01*
X165879629Y-92393847D01*
X165870537Y-92368437D01*
X165863980Y-92342259D01*
X165860020Y-92315564D01*
X165858696Y-92288609D01*
X165858696Y-91738609D01*
X165860020Y-91711654D01*
X165863980Y-91684959D01*
X165870537Y-91658781D01*
X165879629Y-91633371D01*
X165891168Y-91608975D01*
X165905042Y-91585827D01*
X165921118Y-91564151D01*
X165939242Y-91544155D01*
X165959238Y-91526031D01*
X165980914Y-91509955D01*
X166004062Y-91496081D01*
X166028458Y-91484542D01*
X166053868Y-91475450D01*
X166080046Y-91468893D01*
X166106741Y-91464933D01*
X166133696Y-91463609D01*
X167383696Y-91463609D01*
X167410651Y-91464933D01*
G37*
G04 #@! TD.AperFunction*
D15*
X172114407Y-90743609D03*
G04 #@! TA.AperFunction,ComponentPad*
D16*
G36*
X172766362Y-92734933D02*
G01*
X172793057Y-92738893D01*
X172819235Y-92745450D01*
X172844645Y-92754542D01*
X172869041Y-92766081D01*
X172892189Y-92779955D01*
X172913865Y-92796031D01*
X172933861Y-92814155D01*
X172951985Y-92834151D01*
X172968061Y-92855827D01*
X172981935Y-92878975D01*
X172993474Y-92903371D01*
X173002566Y-92928781D01*
X173009123Y-92954959D01*
X173013083Y-92981654D01*
X173014407Y-93008609D01*
X173014407Y-93558609D01*
X173013083Y-93585564D01*
X173009123Y-93612259D01*
X173002566Y-93638437D01*
X172993474Y-93663847D01*
X172981935Y-93688243D01*
X172968061Y-93711391D01*
X172951985Y-93733067D01*
X172933861Y-93753063D01*
X172913865Y-93771187D01*
X172892189Y-93787263D01*
X172869041Y-93801137D01*
X172844645Y-93812676D01*
X172819235Y-93821768D01*
X172793057Y-93828325D01*
X172766362Y-93832285D01*
X172739407Y-93833609D01*
X171489407Y-93833609D01*
X171462452Y-93832285D01*
X171435757Y-93828325D01*
X171409579Y-93821768D01*
X171384169Y-93812676D01*
X171359773Y-93801137D01*
X171336625Y-93787263D01*
X171314949Y-93771187D01*
X171294953Y-93753063D01*
X171276829Y-93733067D01*
X171260753Y-93711391D01*
X171246879Y-93688243D01*
X171235340Y-93663847D01*
X171226248Y-93638437D01*
X171219691Y-93612259D01*
X171215731Y-93585564D01*
X171214407Y-93558609D01*
X171214407Y-93008609D01*
X171215731Y-92981654D01*
X171219691Y-92954959D01*
X171226248Y-92928781D01*
X171235340Y-92903371D01*
X171246879Y-92878975D01*
X171260753Y-92855827D01*
X171276829Y-92834151D01*
X171294953Y-92814155D01*
X171314949Y-92796031D01*
X171336625Y-92779955D01*
X171359773Y-92766081D01*
X171384169Y-92754542D01*
X171409579Y-92745450D01*
X171435757Y-92738893D01*
X171462452Y-92734933D01*
X171489407Y-92733609D01*
X172739407Y-92733609D01*
X172766362Y-92734933D01*
G37*
G04 #@! TD.AperFunction*
G04 #@! TA.AperFunction,ComponentPad*
G36*
X174836362Y-91464933D02*
G01*
X174863057Y-91468893D01*
X174889235Y-91475450D01*
X174914645Y-91484542D01*
X174939041Y-91496081D01*
X174962189Y-91509955D01*
X174983865Y-91526031D01*
X175003861Y-91544155D01*
X175021985Y-91564151D01*
X175038061Y-91585827D01*
X175051935Y-91608975D01*
X175063474Y-91633371D01*
X175072566Y-91658781D01*
X175079123Y-91684959D01*
X175083083Y-91711654D01*
X175084407Y-91738609D01*
X175084407Y-92288609D01*
X175083083Y-92315564D01*
X175079123Y-92342259D01*
X175072566Y-92368437D01*
X175063474Y-92393847D01*
X175051935Y-92418243D01*
X175038061Y-92441391D01*
X175021985Y-92463067D01*
X175003861Y-92483063D01*
X174983865Y-92501187D01*
X174962189Y-92517263D01*
X174939041Y-92531137D01*
X174914645Y-92542676D01*
X174889235Y-92551768D01*
X174863057Y-92558325D01*
X174836362Y-92562285D01*
X174809407Y-92563609D01*
X173559407Y-92563609D01*
X173532452Y-92562285D01*
X173505757Y-92558325D01*
X173479579Y-92551768D01*
X173454169Y-92542676D01*
X173429773Y-92531137D01*
X173406625Y-92517263D01*
X173384949Y-92501187D01*
X173364953Y-92483063D01*
X173346829Y-92463067D01*
X173330753Y-92441391D01*
X173316879Y-92418243D01*
X173305340Y-92393847D01*
X173296248Y-92368437D01*
X173289691Y-92342259D01*
X173285731Y-92315564D01*
X173284407Y-92288609D01*
X173284407Y-91738609D01*
X173285731Y-91711654D01*
X173289691Y-91684959D01*
X173296248Y-91658781D01*
X173305340Y-91633371D01*
X173316879Y-91608975D01*
X173330753Y-91585827D01*
X173346829Y-91564151D01*
X173364953Y-91544155D01*
X173384949Y-91526031D01*
X173406625Y-91509955D01*
X173429773Y-91496081D01*
X173454169Y-91484542D01*
X173479579Y-91475450D01*
X173505757Y-91468893D01*
X173532452Y-91464933D01*
X173559407Y-91463609D01*
X174809407Y-91463609D01*
X174836362Y-91464933D01*
G37*
G04 #@! TD.AperFunction*
D17*
X156527200Y-105119600D03*
D18*
X164147200Y-105119600D03*
D17*
X156539200Y-102369600D03*
D18*
X164159200Y-102369600D03*
D17*
X156539200Y-99619600D03*
D18*
X164159200Y-99619600D03*
D17*
X156539200Y-96869600D03*
D18*
X164159200Y-96869600D03*
D17*
X156539200Y-94119600D03*
D18*
X164159200Y-94119600D03*
D17*
X156539200Y-91369600D03*
D18*
X164159200Y-91369600D03*
D19*
X139352000Y-104140000D03*
X139352000Y-106680000D03*
X139352000Y-109220000D03*
X139352000Y-111760000D03*
X139352000Y-114300000D03*
X139352000Y-116840000D03*
X156483974Y-111251668D03*
X156483974Y-113801668D03*
X184488000Y-116930000D03*
X184488000Y-114390000D03*
X184488000Y-111850000D03*
X184488000Y-109310000D03*
X184488000Y-106770000D03*
X184488000Y-104230000D03*
X184488000Y-101690000D03*
X184488000Y-99150000D03*
X184488000Y-96610000D03*
X184488000Y-94070000D03*
X184488000Y-91530000D03*
X139352000Y-96520000D03*
X139352000Y-99060000D03*
X139352000Y-101600000D03*
X156483974Y-116301668D03*
D20*
X142654000Y-105222040D02*
X152822040Y-105222040D01*
X152822040Y-105222040D02*
X154788000Y-107188000D01*
X166688000Y-107188000D02*
X166674000Y-107174000D01*
X182076560Y-98296560D02*
X177884000Y-98296560D01*
X183040000Y-99260000D02*
X182076560Y-98296560D01*
X183040000Y-109080000D02*
X183040000Y-99260000D01*
X154788000Y-107188000D02*
X166238000Y-107188000D01*
X166238000Y-107188000D02*
X166688000Y-107188000D01*
X166238000Y-107188000D02*
X170678000Y-107188000D01*
X170678000Y-107188000D02*
X174860000Y-111370000D01*
X174860000Y-111370000D02*
X180750000Y-111370000D01*
X180750000Y-111370000D02*
X183040000Y-109080000D01*
X174370960Y-98296560D02*
X174294000Y-98219600D01*
X177884000Y-98296560D02*
X174370960Y-98296560D01*
X174294000Y-98219600D02*
X174294000Y-95919600D01*
X174294000Y-98219600D02*
X174294000Y-100519600D01*
X174294000Y-100519600D02*
X174294000Y-102819600D01*
D21*
X172720000Y-103545600D02*
X174294000Y-105119600D01*
X172720000Y-95430000D02*
X172720000Y-103545600D01*
X173784407Y-92513609D02*
X173784407Y-94365593D01*
X173784407Y-94365593D02*
X172720000Y-95430000D01*
D20*
X139352000Y-106680000D02*
X139352000Y-109220000D01*
X139352000Y-111760000D02*
X139352000Y-114300000D01*
X142654000Y-102453440D02*
X140205440Y-102453440D01*
X140205440Y-102453440D02*
X139352000Y-101600000D01*
X184488000Y-111850000D02*
X184488000Y-114390000D01*
X184488000Y-106770000D02*
X184488000Y-109310000D01*
X184488000Y-101690000D02*
X184488000Y-104230000D01*
X184488000Y-96610000D02*
X184488000Y-99150000D01*
X184488000Y-91530000D02*
X184488000Y-94070000D01*
X139352000Y-96520000D02*
X139352000Y-99060000D01*
X139352000Y-101600000D02*
X139352000Y-104140000D01*
D16*
X156483974Y-113801668D02*
X156483974Y-111251668D01*
D21*
X150926800Y-113078800D02*
X149100000Y-111252000D01*
X150926800Y-114808000D02*
X150926800Y-113078800D01*
X152370800Y-116252000D02*
X150926800Y-114808000D01*
X152400000Y-116252000D02*
X152370800Y-116252000D01*
X170500000Y-96693600D02*
X166674000Y-100519600D01*
X170500000Y-91390000D02*
X170500000Y-96693600D01*
X172514407Y-90743609D02*
X171146391Y-90743609D01*
X171146391Y-90743609D02*
X170500000Y-91390000D01*
X165568000Y-113752000D02*
X167642000Y-113752000D01*
X163068000Y-116252000D02*
X165568000Y-113752000D01*
X159768000Y-111252000D02*
X159791400Y-111252000D01*
X159791400Y-111252000D02*
X161518600Y-112979200D01*
X161518600Y-112979200D02*
X161518600Y-114702600D01*
X161518600Y-114702600D02*
X163068000Y-116252000D01*
X168428696Y-96464904D02*
X166674000Y-98219600D01*
X168428696Y-93283609D02*
X168428696Y-96464904D01*
X166674000Y-102819600D02*
X166674000Y-105119600D01*
X166674000Y-95919600D02*
X166669600Y-95919600D01*
X166669600Y-95919600D02*
X166240000Y-95490000D01*
X148002000Y-95490000D02*
X145194000Y-98298000D01*
X166240000Y-95490000D02*
X148002000Y-95490000D01*
D22*
G36*
X177968790Y-88826551D02*
G01*
X177720915Y-88959043D01*
X177413105Y-89259895D01*
X179154000Y-91000790D01*
X180894895Y-89259895D01*
X180587085Y-88959043D01*
X180108233Y-88731700D01*
X187628300Y-88731700D01*
X187628301Y-119038300D01*
X179761922Y-119038300D01*
X179825689Y-119028937D01*
X180339210Y-118846049D01*
X180587085Y-118713557D01*
X180894895Y-118412705D01*
X179154000Y-116671810D01*
X177413105Y-118412705D01*
X177720915Y-118713557D01*
X178213351Y-118947349D01*
X178574193Y-119038300D01*
X144541729Y-119038300D01*
X144595689Y-119030377D01*
X145109210Y-118847489D01*
X145357085Y-118714997D01*
X145664895Y-118414145D01*
X143924000Y-116673250D01*
X142183105Y-118414145D01*
X142490915Y-118714997D01*
X142983351Y-118948789D01*
X143338480Y-119038300D01*
X135381700Y-119038300D01*
X135381700Y-116464356D01*
X141146432Y-116464356D01*
X141225623Y-117003689D01*
X141408511Y-117517210D01*
X141541003Y-117765085D01*
X141841855Y-118072895D01*
X143582750Y-116332000D01*
X144265250Y-116332000D01*
X146006145Y-118072895D01*
X146306997Y-117765085D01*
X146540789Y-117272649D01*
X146674020Y-116744064D01*
X146701568Y-116199644D01*
X146695276Y-116156788D01*
X148233300Y-116156788D01*
X148233300Y-116347212D01*
X148270450Y-116533976D01*
X148343322Y-116709904D01*
X148449115Y-116868235D01*
X148583765Y-117002885D01*
X148742096Y-117108678D01*
X148918024Y-117181550D01*
X149104788Y-117218700D01*
X149295212Y-117218700D01*
X149481976Y-117181550D01*
X149657904Y-117108678D01*
X149816235Y-117002885D01*
X149950885Y-116868235D01*
X150056678Y-116709904D01*
X150129550Y-116533976D01*
X150166700Y-116347212D01*
X150166700Y-116156788D01*
X150129550Y-115970024D01*
X150056678Y-115794096D01*
X149950885Y-115635765D01*
X149816235Y-115501115D01*
X149657904Y-115395322D01*
X149481976Y-115322450D01*
X149295212Y-115285300D01*
X149104788Y-115285300D01*
X148918024Y-115322450D01*
X148742096Y-115395322D01*
X148583765Y-115501115D01*
X148449115Y-115635765D01*
X148343322Y-115794096D01*
X148270450Y-115970024D01*
X148233300Y-116156788D01*
X146695276Y-116156788D01*
X146622377Y-115660311D01*
X146439489Y-115146790D01*
X146306997Y-114898915D01*
X146006145Y-114591105D01*
X144265250Y-116332000D01*
X143582750Y-116332000D01*
X141841855Y-114591105D01*
X141541003Y-114898915D01*
X141307211Y-115391351D01*
X141173980Y-115919936D01*
X141146432Y-116464356D01*
X135381700Y-116464356D01*
X135381700Y-114249855D01*
X142183105Y-114249855D01*
X143924000Y-115990750D01*
X145664895Y-114249855D01*
X145357085Y-113949003D01*
X144864649Y-113715211D01*
X144632860Y-113656788D01*
X148233300Y-113656788D01*
X148233300Y-113847212D01*
X148270450Y-114033976D01*
X148343322Y-114209904D01*
X148449115Y-114368235D01*
X148583765Y-114502885D01*
X148742096Y-114608678D01*
X148918024Y-114681550D01*
X149104788Y-114718700D01*
X149295212Y-114718700D01*
X149481976Y-114681550D01*
X149657904Y-114608678D01*
X149816235Y-114502885D01*
X149950885Y-114368235D01*
X150056678Y-114209904D01*
X150129550Y-114033976D01*
X150166700Y-113847212D01*
X150166700Y-113656788D01*
X150129550Y-113470024D01*
X150056678Y-113294096D01*
X149950885Y-113135765D01*
X149816235Y-113001115D01*
X149657904Y-112895322D01*
X149481976Y-112822450D01*
X149295212Y-112785300D01*
X149104788Y-112785300D01*
X148918024Y-112822450D01*
X148742096Y-112895322D01*
X148583765Y-113001115D01*
X148449115Y-113135765D01*
X148343322Y-113294096D01*
X148270450Y-113470024D01*
X148233300Y-113656788D01*
X144632860Y-113656788D01*
X144336064Y-113581980D01*
X143791644Y-113554432D01*
X143252311Y-113633623D01*
X142738790Y-113816511D01*
X142490915Y-113949003D01*
X142183105Y-114249855D01*
X135381700Y-114249855D01*
X135381700Y-111156788D01*
X148233300Y-111156788D01*
X148233300Y-111347212D01*
X148270450Y-111533976D01*
X148343322Y-111709904D01*
X148449115Y-111868235D01*
X148583765Y-112002885D01*
X148742096Y-112108678D01*
X148918024Y-112181550D01*
X149104788Y-112218700D01*
X149295212Y-112218700D01*
X149476661Y-112182607D01*
X150535101Y-113241049D01*
X150535100Y-114788760D01*
X150533205Y-114808000D01*
X150535100Y-114827239D01*
X150540768Y-114884786D01*
X150563166Y-114958621D01*
X150599538Y-115026669D01*
X150648486Y-115086314D01*
X150663441Y-115098587D01*
X151564548Y-115999695D01*
X151533300Y-116156788D01*
X151533300Y-116347212D01*
X151570450Y-116533976D01*
X151643322Y-116709904D01*
X151749115Y-116868235D01*
X151883765Y-117002885D01*
X152042096Y-117108678D01*
X152218024Y-117181550D01*
X152404788Y-117218700D01*
X152595212Y-117218700D01*
X152781976Y-117181550D01*
X152957904Y-117108678D01*
X153116235Y-117002885D01*
X153250885Y-116868235D01*
X153356678Y-116709904D01*
X153429550Y-116533976D01*
X153466700Y-116347212D01*
X153466700Y-116156788D01*
X158901300Y-116156788D01*
X158901300Y-116347212D01*
X158938450Y-116533976D01*
X159011322Y-116709904D01*
X159117115Y-116868235D01*
X159251765Y-117002885D01*
X159410096Y-117108678D01*
X159586024Y-117181550D01*
X159772788Y-117218700D01*
X159963212Y-117218700D01*
X160149976Y-117181550D01*
X160325904Y-117108678D01*
X160484235Y-117002885D01*
X160618885Y-116868235D01*
X160724678Y-116709904D01*
X160797550Y-116533976D01*
X160834700Y-116347212D01*
X160834700Y-116156788D01*
X160797550Y-115970024D01*
X160724678Y-115794096D01*
X160618885Y-115635765D01*
X160484235Y-115501115D01*
X160325904Y-115395322D01*
X160149976Y-115322450D01*
X159963212Y-115285300D01*
X159772788Y-115285300D01*
X159586024Y-115322450D01*
X159410096Y-115395322D01*
X159251765Y-115501115D01*
X159117115Y-115635765D01*
X159011322Y-115794096D01*
X158938450Y-115970024D01*
X158901300Y-116156788D01*
X153466700Y-116156788D01*
X153429550Y-115970024D01*
X153356678Y-115794096D01*
X153250885Y-115635765D01*
X153116235Y-115501115D01*
X152957904Y-115395322D01*
X152781976Y-115322450D01*
X152595212Y-115285300D01*
X152404788Y-115285300D01*
X152218024Y-115322450D01*
X152060462Y-115387715D01*
X151318500Y-114645754D01*
X151318500Y-113656788D01*
X151533300Y-113656788D01*
X151533300Y-113847212D01*
X151570450Y-114033976D01*
X151643322Y-114209904D01*
X151749115Y-114368235D01*
X151883765Y-114502885D01*
X152042096Y-114608678D01*
X152218024Y-114681550D01*
X152404788Y-114718700D01*
X152595212Y-114718700D01*
X152781976Y-114681550D01*
X152957904Y-114608678D01*
X153116235Y-114502885D01*
X153250885Y-114368235D01*
X153356678Y-114209904D01*
X153429550Y-114033976D01*
X153466700Y-113847212D01*
X153466700Y-113656788D01*
X158901300Y-113656788D01*
X158901300Y-113847212D01*
X158938450Y-114033976D01*
X159011322Y-114209904D01*
X159117115Y-114368235D01*
X159251765Y-114502885D01*
X159410096Y-114608678D01*
X159586024Y-114681550D01*
X159772788Y-114718700D01*
X159963212Y-114718700D01*
X160149976Y-114681550D01*
X160325904Y-114608678D01*
X160484235Y-114502885D01*
X160618885Y-114368235D01*
X160724678Y-114209904D01*
X160797550Y-114033976D01*
X160834700Y-113847212D01*
X160834700Y-113656788D01*
X160797550Y-113470024D01*
X160724678Y-113294096D01*
X160618885Y-113135765D01*
X160484235Y-113001115D01*
X160325904Y-112895322D01*
X160149976Y-112822450D01*
X159963212Y-112785300D01*
X159772788Y-112785300D01*
X159586024Y-112822450D01*
X159410096Y-112895322D01*
X159251765Y-113001115D01*
X159117115Y-113135765D01*
X159011322Y-113294096D01*
X158938450Y-113470024D01*
X158901300Y-113656788D01*
X153466700Y-113656788D01*
X153429550Y-113470024D01*
X153356678Y-113294096D01*
X153250885Y-113135765D01*
X153116235Y-113001115D01*
X152957904Y-112895322D01*
X152781976Y-112822450D01*
X152595212Y-112785300D01*
X152404788Y-112785300D01*
X152218024Y-112822450D01*
X152042096Y-112895322D01*
X151883765Y-113001115D01*
X151749115Y-113135765D01*
X151643322Y-113294096D01*
X151570450Y-113470024D01*
X151533300Y-113656788D01*
X151318500Y-113656788D01*
X151318500Y-113098036D01*
X151320395Y-113078799D01*
X151318148Y-113055986D01*
X151312832Y-113002013D01*
X151290434Y-112928178D01*
X151254062Y-112860130D01*
X151205114Y-112800486D01*
X151190169Y-112788221D01*
X150353948Y-111952000D01*
X151532010Y-111952000D01*
X151537159Y-112004282D01*
X151552410Y-112054555D01*
X151577174Y-112100887D01*
X151610502Y-112141498D01*
X151651113Y-112174826D01*
X151697445Y-112199590D01*
X151747718Y-112214841D01*
X151800000Y-112219990D01*
X152192025Y-112218700D01*
X152258700Y-112152025D01*
X152258700Y-111493300D01*
X152741300Y-111493300D01*
X152741300Y-112152025D01*
X152807975Y-112218700D01*
X153200000Y-112219990D01*
X153252282Y-112214841D01*
X153302555Y-112199590D01*
X153348887Y-112174826D01*
X153389498Y-112141498D01*
X153422826Y-112100887D01*
X153447590Y-112054555D01*
X153462841Y-112004282D01*
X153467990Y-111952000D01*
X153466700Y-111559975D01*
X153400025Y-111493300D01*
X152741300Y-111493300D01*
X152258700Y-111493300D01*
X151599975Y-111493300D01*
X151533300Y-111559975D01*
X151532010Y-111952000D01*
X150353948Y-111952000D01*
X150072838Y-111670891D01*
X150129550Y-111533976D01*
X150166700Y-111347212D01*
X150166700Y-111156788D01*
X158901300Y-111156788D01*
X158901300Y-111347212D01*
X158938450Y-111533976D01*
X159011322Y-111709904D01*
X159117115Y-111868235D01*
X159251765Y-112002885D01*
X159410096Y-112108678D01*
X159586024Y-112181550D01*
X159772788Y-112218700D01*
X159963212Y-112218700D01*
X160149976Y-112181550D01*
X160162016Y-112176563D01*
X161126900Y-113141447D01*
X161126901Y-114683350D01*
X161125005Y-114702600D01*
X161132568Y-114779386D01*
X161154967Y-114853222D01*
X161171839Y-114884787D01*
X161191339Y-114921270D01*
X161240287Y-114980914D01*
X161255237Y-114993183D01*
X162237393Y-115975340D01*
X162201300Y-116156788D01*
X162201300Y-116347212D01*
X162238450Y-116533976D01*
X162311322Y-116709904D01*
X162417115Y-116868235D01*
X162551765Y-117002885D01*
X162710096Y-117108678D01*
X162886024Y-117181550D01*
X163072788Y-117218700D01*
X163263212Y-117218700D01*
X163449976Y-117181550D01*
X163625904Y-117108678D01*
X163784235Y-117002885D01*
X163918885Y-116868235D01*
X164024678Y-116709904D01*
X164097550Y-116533976D01*
X164134700Y-116347212D01*
X164134700Y-116156788D01*
X166775300Y-116156788D01*
X166775300Y-116347212D01*
X166812450Y-116533976D01*
X166885322Y-116709904D01*
X166991115Y-116868235D01*
X167125765Y-117002885D01*
X167284096Y-117108678D01*
X167460024Y-117181550D01*
X167646788Y-117218700D01*
X167837212Y-117218700D01*
X168023976Y-117181550D01*
X168199904Y-117108678D01*
X168358235Y-117002885D01*
X168492885Y-116868235D01*
X168598678Y-116709904D01*
X168671550Y-116533976D01*
X168708700Y-116347212D01*
X168708700Y-116156788D01*
X170075300Y-116156788D01*
X170075300Y-116347212D01*
X170112450Y-116533976D01*
X170185322Y-116709904D01*
X170291115Y-116868235D01*
X170425765Y-117002885D01*
X170584096Y-117108678D01*
X170760024Y-117181550D01*
X170946788Y-117218700D01*
X171137212Y-117218700D01*
X171323976Y-117181550D01*
X171499904Y-117108678D01*
X171658235Y-117002885D01*
X171792885Y-116868235D01*
X171898678Y-116709904D01*
X171971550Y-116533976D01*
X171985684Y-116462916D01*
X176376432Y-116462916D01*
X176455623Y-117002249D01*
X176638511Y-117515770D01*
X176771003Y-117763645D01*
X177071855Y-118071455D01*
X178812750Y-116330560D01*
X179495250Y-116330560D01*
X181236145Y-118071455D01*
X181536997Y-117763645D01*
X181770789Y-117271209D01*
X181904020Y-116742624D01*
X181931568Y-116198204D01*
X181852377Y-115658871D01*
X181669489Y-115145350D01*
X181536997Y-114897475D01*
X181236145Y-114589665D01*
X179495250Y-116330560D01*
X178812750Y-116330560D01*
X177071855Y-114589665D01*
X176771003Y-114897475D01*
X176537211Y-115389911D01*
X176403980Y-115918496D01*
X176376432Y-116462916D01*
X171985684Y-116462916D01*
X172008700Y-116347212D01*
X172008700Y-116156788D01*
X171971550Y-115970024D01*
X171898678Y-115794096D01*
X171792885Y-115635765D01*
X171658235Y-115501115D01*
X171499904Y-115395322D01*
X171323976Y-115322450D01*
X171137212Y-115285300D01*
X170946788Y-115285300D01*
X170760024Y-115322450D01*
X170584096Y-115395322D01*
X170425765Y-115501115D01*
X170291115Y-115635765D01*
X170185322Y-115794096D01*
X170112450Y-115970024D01*
X170075300Y-116156788D01*
X168708700Y-116156788D01*
X168671550Y-115970024D01*
X168598678Y-115794096D01*
X168492885Y-115635765D01*
X168358235Y-115501115D01*
X168199904Y-115395322D01*
X168023976Y-115322450D01*
X167837212Y-115285300D01*
X167646788Y-115285300D01*
X167460024Y-115322450D01*
X167284096Y-115395322D01*
X167125765Y-115501115D01*
X166991115Y-115635765D01*
X166885322Y-115794096D01*
X166812450Y-115970024D01*
X166775300Y-116156788D01*
X164134700Y-116156788D01*
X164097550Y-115970024D01*
X164040838Y-115833109D01*
X165730247Y-114143700D01*
X166857899Y-114143700D01*
X166885322Y-114209904D01*
X166991115Y-114368235D01*
X167125765Y-114502885D01*
X167284096Y-114608678D01*
X167460024Y-114681550D01*
X167646788Y-114718700D01*
X167837212Y-114718700D01*
X168023976Y-114681550D01*
X168199904Y-114608678D01*
X168358235Y-114502885D01*
X168492885Y-114368235D01*
X168598678Y-114209904D01*
X168671550Y-114033976D01*
X168708700Y-113847212D01*
X168708700Y-113656788D01*
X170075300Y-113656788D01*
X170075300Y-113847212D01*
X170112450Y-114033976D01*
X170185322Y-114209904D01*
X170291115Y-114368235D01*
X170425765Y-114502885D01*
X170584096Y-114608678D01*
X170760024Y-114681550D01*
X170946788Y-114718700D01*
X171137212Y-114718700D01*
X171323976Y-114681550D01*
X171499904Y-114608678D01*
X171658235Y-114502885D01*
X171792885Y-114368235D01*
X171872945Y-114248415D01*
X177413105Y-114248415D01*
X179154000Y-115989310D01*
X180894895Y-114248415D01*
X180587085Y-113947563D01*
X180094649Y-113713771D01*
X179566064Y-113580540D01*
X179021644Y-113552992D01*
X178482311Y-113632183D01*
X177968790Y-113815071D01*
X177720915Y-113947563D01*
X177413105Y-114248415D01*
X171872945Y-114248415D01*
X171898678Y-114209904D01*
X171971550Y-114033976D01*
X172008700Y-113847212D01*
X172008700Y-113656788D01*
X171971550Y-113470024D01*
X171898678Y-113294096D01*
X171792885Y-113135765D01*
X171658235Y-113001115D01*
X171499904Y-112895322D01*
X171323976Y-112822450D01*
X171137212Y-112785300D01*
X170946788Y-112785300D01*
X170760024Y-112822450D01*
X170584096Y-112895322D01*
X170425765Y-113001115D01*
X170291115Y-113135765D01*
X170185322Y-113294096D01*
X170112450Y-113470024D01*
X170075300Y-113656788D01*
X168708700Y-113656788D01*
X168671550Y-113470024D01*
X168598678Y-113294096D01*
X168492885Y-113135765D01*
X168358235Y-113001115D01*
X168199904Y-112895322D01*
X168023976Y-112822450D01*
X167837212Y-112785300D01*
X167646788Y-112785300D01*
X167460024Y-112822450D01*
X167284096Y-112895322D01*
X167125765Y-113001115D01*
X166991115Y-113135765D01*
X166885322Y-113294096D01*
X166857899Y-113360300D01*
X165587240Y-113360300D01*
X165568000Y-113358405D01*
X165548760Y-113360300D01*
X165491213Y-113365968D01*
X165417378Y-113388366D01*
X165349330Y-113424738D01*
X165289686Y-113473686D01*
X165277417Y-113488636D01*
X163444661Y-115321393D01*
X163263212Y-115285300D01*
X163072788Y-115285300D01*
X162886024Y-115322450D01*
X162749109Y-115379162D01*
X161910300Y-114540354D01*
X161910300Y-113656788D01*
X162201300Y-113656788D01*
X162201300Y-113847212D01*
X162238450Y-114033976D01*
X162311322Y-114209904D01*
X162417115Y-114368235D01*
X162551765Y-114502885D01*
X162710096Y-114608678D01*
X162886024Y-114681550D01*
X163072788Y-114718700D01*
X163263212Y-114718700D01*
X163449976Y-114681550D01*
X163625904Y-114608678D01*
X163784235Y-114502885D01*
X163918885Y-114368235D01*
X164024678Y-114209904D01*
X164097550Y-114033976D01*
X164134700Y-113847212D01*
X164134700Y-113656788D01*
X164097550Y-113470024D01*
X164024678Y-113294096D01*
X163918885Y-113135765D01*
X163784235Y-113001115D01*
X163625904Y-112895322D01*
X163449976Y-112822450D01*
X163263212Y-112785300D01*
X163072788Y-112785300D01*
X162886024Y-112822450D01*
X162710096Y-112895322D01*
X162551765Y-113001115D01*
X162417115Y-113135765D01*
X162311322Y-113294096D01*
X162238450Y-113470024D01*
X162201300Y-113656788D01*
X161910300Y-113656788D01*
X161910300Y-112998440D01*
X161912195Y-112979200D01*
X161904632Y-112902414D01*
X161882234Y-112828578D01*
X161875206Y-112815430D01*
X161845862Y-112760530D01*
X161796914Y-112700886D01*
X161781965Y-112688618D01*
X160747691Y-111654345D01*
X160797550Y-111533976D01*
X160834700Y-111347212D01*
X160834700Y-111156788D01*
X160797550Y-110970024D01*
X160724678Y-110794096D01*
X160618885Y-110635765D01*
X160535120Y-110552000D01*
X162200010Y-110552000D01*
X162200010Y-111952000D01*
X162205159Y-112004282D01*
X162220410Y-112054555D01*
X162245174Y-112100887D01*
X162278502Y-112141498D01*
X162319113Y-112174826D01*
X162365445Y-112199590D01*
X162415718Y-112214841D01*
X162468000Y-112219990D01*
X163868000Y-112219990D01*
X163920282Y-112214841D01*
X163970555Y-112199590D01*
X164016887Y-112174826D01*
X164057498Y-112141498D01*
X164090826Y-112100887D01*
X164115590Y-112054555D01*
X164130841Y-112004282D01*
X164135990Y-111952000D01*
X164135990Y-111156788D01*
X166775300Y-111156788D01*
X166775300Y-111347212D01*
X166812450Y-111533976D01*
X166885322Y-111709904D01*
X166991115Y-111868235D01*
X167125765Y-112002885D01*
X167284096Y-112108678D01*
X167460024Y-112181550D01*
X167646788Y-112218700D01*
X167837212Y-112218700D01*
X168023976Y-112181550D01*
X168199904Y-112108678D01*
X168358235Y-112002885D01*
X168492885Y-111868235D01*
X168598678Y-111709904D01*
X168671550Y-111533976D01*
X168708700Y-111347212D01*
X168708700Y-111156788D01*
X168671550Y-110970024D01*
X168598678Y-110794096D01*
X168492885Y-110635765D01*
X168409120Y-110552000D01*
X170074010Y-110552000D01*
X170074010Y-111952000D01*
X170079159Y-112004282D01*
X170094410Y-112054555D01*
X170119174Y-112100887D01*
X170152502Y-112141498D01*
X170193113Y-112174826D01*
X170239445Y-112199590D01*
X170289718Y-112214841D01*
X170342000Y-112219990D01*
X171742000Y-112219990D01*
X171794282Y-112214841D01*
X171844555Y-112199590D01*
X171890887Y-112174826D01*
X171931498Y-112141498D01*
X171964826Y-112100887D01*
X171989590Y-112054555D01*
X172004841Y-112004282D01*
X172009990Y-111952000D01*
X172009990Y-110552000D01*
X172004841Y-110499718D01*
X171989590Y-110449445D01*
X171964826Y-110403113D01*
X171931498Y-110362502D01*
X171890887Y-110329174D01*
X171844555Y-110304410D01*
X171794282Y-110289159D01*
X171742000Y-110284010D01*
X170342000Y-110284010D01*
X170289718Y-110289159D01*
X170239445Y-110304410D01*
X170193113Y-110329174D01*
X170152502Y-110362502D01*
X170119174Y-110403113D01*
X170094410Y-110449445D01*
X170079159Y-110499718D01*
X170074010Y-110552000D01*
X168409120Y-110552000D01*
X168358235Y-110501115D01*
X168199904Y-110395322D01*
X168023976Y-110322450D01*
X167837212Y-110285300D01*
X167646788Y-110285300D01*
X167460024Y-110322450D01*
X167284096Y-110395322D01*
X167125765Y-110501115D01*
X166991115Y-110635765D01*
X166885322Y-110794096D01*
X166812450Y-110970024D01*
X166775300Y-111156788D01*
X164135990Y-111156788D01*
X164135990Y-110552000D01*
X164130841Y-110499718D01*
X164115590Y-110449445D01*
X164090826Y-110403113D01*
X164057498Y-110362502D01*
X164016887Y-110329174D01*
X163970555Y-110304410D01*
X163920282Y-110289159D01*
X163868000Y-110284010D01*
X162468000Y-110284010D01*
X162415718Y-110289159D01*
X162365445Y-110304410D01*
X162319113Y-110329174D01*
X162278502Y-110362502D01*
X162245174Y-110403113D01*
X162220410Y-110449445D01*
X162205159Y-110499718D01*
X162200010Y-110552000D01*
X160535120Y-110552000D01*
X160484235Y-110501115D01*
X160325904Y-110395322D01*
X160149976Y-110322450D01*
X159963212Y-110285300D01*
X159772788Y-110285300D01*
X159586024Y-110322450D01*
X159410096Y-110395322D01*
X159251765Y-110501115D01*
X159117115Y-110635765D01*
X159011322Y-110794096D01*
X158938450Y-110970024D01*
X158901300Y-111156788D01*
X150166700Y-111156788D01*
X150129550Y-110970024D01*
X150056678Y-110794096D01*
X149950885Y-110635765D01*
X149867120Y-110552000D01*
X151532010Y-110552000D01*
X151533300Y-110944025D01*
X151599975Y-111010700D01*
X152258700Y-111010700D01*
X152258700Y-110351975D01*
X152741300Y-110351975D01*
X152741300Y-111010700D01*
X153400025Y-111010700D01*
X153466700Y-110944025D01*
X153467990Y-110552000D01*
X153462841Y-110499718D01*
X153447590Y-110449445D01*
X153422826Y-110403113D01*
X153389498Y-110362502D01*
X153348887Y-110329174D01*
X153302555Y-110304410D01*
X153252282Y-110289159D01*
X153200000Y-110284010D01*
X152807975Y-110285300D01*
X152741300Y-110351975D01*
X152258700Y-110351975D01*
X152192025Y-110285300D01*
X151800000Y-110284010D01*
X151747718Y-110289159D01*
X151697445Y-110304410D01*
X151651113Y-110329174D01*
X151610502Y-110362502D01*
X151577174Y-110403113D01*
X151552410Y-110449445D01*
X151537159Y-110499718D01*
X151532010Y-110552000D01*
X149867120Y-110552000D01*
X149816235Y-110501115D01*
X149657904Y-110395322D01*
X149481976Y-110322450D01*
X149295212Y-110285300D01*
X149104788Y-110285300D01*
X148918024Y-110322450D01*
X148742096Y-110395322D01*
X148583765Y-110501115D01*
X148449115Y-110635765D01*
X148343322Y-110794096D01*
X148270450Y-110970024D01*
X148233300Y-111156788D01*
X135381700Y-111156788D01*
X135381700Y-109377480D01*
X144171808Y-109377480D01*
X144191449Y-109576900D01*
X144249618Y-109768656D01*
X144344078Y-109945379D01*
X144471201Y-110100279D01*
X144626101Y-110227402D01*
X144802824Y-110321862D01*
X144994580Y-110380031D01*
X145144026Y-110394750D01*
X145741814Y-110394750D01*
X145891260Y-110380031D01*
X146083016Y-110321862D01*
X146259739Y-110227402D01*
X146414639Y-110100279D01*
X146541762Y-109945379D01*
X146636222Y-109768656D01*
X146694391Y-109576900D01*
X146714032Y-109377480D01*
X146694391Y-109178060D01*
X146636222Y-108986304D01*
X146541762Y-108809581D01*
X146414639Y-108654681D01*
X146259739Y-108527558D01*
X146083016Y-108433098D01*
X145891260Y-108374929D01*
X145741814Y-108360210D01*
X145144026Y-108360210D01*
X144994580Y-108374929D01*
X144802824Y-108433098D01*
X144626101Y-108527558D01*
X144471201Y-108654681D01*
X144344078Y-108809581D01*
X144249618Y-108986304D01*
X144191449Y-109178060D01*
X144171808Y-109377480D01*
X135381700Y-109377480D01*
X135381700Y-107993180D01*
X141133968Y-107993180D01*
X141153609Y-108192600D01*
X141211778Y-108384356D01*
X141306238Y-108561079D01*
X141433361Y-108715979D01*
X141588261Y-108843102D01*
X141764984Y-108937562D01*
X141956740Y-108995731D01*
X142106186Y-109010450D01*
X142703974Y-109010450D01*
X142853420Y-108995731D01*
X143045176Y-108937562D01*
X143221899Y-108843102D01*
X143376799Y-108715979D01*
X143503922Y-108561079D01*
X143598382Y-108384356D01*
X143656551Y-108192600D01*
X143676192Y-107993180D01*
X143656551Y-107793760D01*
X143598382Y-107602004D01*
X143503922Y-107425281D01*
X143376799Y-107270381D01*
X143221899Y-107143258D01*
X143045176Y-107048798D01*
X142853420Y-106990629D01*
X142703974Y-106975910D01*
X142106186Y-106975910D01*
X141956740Y-106990629D01*
X141764984Y-107048798D01*
X141588261Y-107143258D01*
X141433361Y-107270381D01*
X141306238Y-107425281D01*
X141211778Y-107602004D01*
X141153609Y-107793760D01*
X141133968Y-107993180D01*
X135381700Y-107993180D01*
X135381700Y-105222040D01*
X141133968Y-105222040D01*
X141153609Y-105421460D01*
X141211778Y-105613216D01*
X141306238Y-105789939D01*
X141433361Y-105944839D01*
X141588261Y-106071962D01*
X141764984Y-106166422D01*
X141956740Y-106224591D01*
X142106186Y-106239310D01*
X142703974Y-106239310D01*
X142853420Y-106224591D01*
X143045176Y-106166422D01*
X143221899Y-106071962D01*
X143376799Y-105944839D01*
X143503922Y-105789939D01*
X143531288Y-105738740D01*
X144663926Y-105738740D01*
X144626101Y-105758958D01*
X144471201Y-105886081D01*
X144344078Y-106040981D01*
X144249618Y-106217704D01*
X144191449Y-106409460D01*
X144171808Y-106608880D01*
X144191449Y-106808300D01*
X144249618Y-107000056D01*
X144344078Y-107176779D01*
X144471201Y-107331679D01*
X144626101Y-107458802D01*
X144802824Y-107553262D01*
X144994580Y-107611431D01*
X145144026Y-107626150D01*
X145741814Y-107626150D01*
X145891260Y-107611431D01*
X146083016Y-107553262D01*
X146259739Y-107458802D01*
X146414639Y-107331679D01*
X146541762Y-107176779D01*
X146636222Y-107000056D01*
X146694391Y-106808300D01*
X146714032Y-106608880D01*
X146694391Y-106409460D01*
X146636222Y-106217704D01*
X146541762Y-106040981D01*
X146414639Y-105886081D01*
X146259739Y-105758958D01*
X146221914Y-105738740D01*
X152608017Y-105738740D01*
X154404692Y-107535417D01*
X154420870Y-107555130D01*
X154440583Y-107571308D01*
X154440586Y-107571311D01*
X154499547Y-107619699D01*
X154547526Y-107645344D01*
X154589311Y-107667678D01*
X154686709Y-107697224D01*
X154762616Y-107704700D01*
X154762618Y-107704700D01*
X154787999Y-107707200D01*
X154813380Y-107704700D01*
X166662619Y-107704700D01*
X166688000Y-107707200D01*
X166713381Y-107704700D01*
X170463977Y-107704700D01*
X174476688Y-111717412D01*
X174492870Y-111737130D01*
X174512587Y-111753311D01*
X174571547Y-111801699D01*
X174619526Y-111827344D01*
X174661311Y-111849678D01*
X174758709Y-111879224D01*
X174834616Y-111886700D01*
X174834618Y-111886700D01*
X174859999Y-111889200D01*
X174885380Y-111886700D01*
X180724619Y-111886700D01*
X180750000Y-111889200D01*
X180775381Y-111886700D01*
X180775384Y-111886700D01*
X180851291Y-111879224D01*
X180948689Y-111849678D01*
X181038452Y-111801699D01*
X181117130Y-111737130D01*
X181133317Y-111717406D01*
X183387412Y-109463312D01*
X183407130Y-109447130D01*
X183433976Y-109414418D01*
X183471699Y-109368453D01*
X183519677Y-109278690D01*
X183519678Y-109278689D01*
X183549224Y-109181291D01*
X183556700Y-109105384D01*
X183556700Y-109105382D01*
X183559200Y-109080001D01*
X183556700Y-109054620D01*
X183556700Y-99285381D01*
X183559200Y-99260000D01*
X183551941Y-99186300D01*
X183549224Y-99158709D01*
X183519678Y-99061311D01*
X183497254Y-99019359D01*
X183471699Y-98971547D01*
X183423311Y-98912587D01*
X183407130Y-98892870D01*
X183387412Y-98876688D01*
X182459877Y-97949154D01*
X182443690Y-97929430D01*
X182365012Y-97864861D01*
X182275249Y-97816882D01*
X182177851Y-97787336D01*
X182101944Y-97779860D01*
X182101941Y-97779860D01*
X182076560Y-97777360D01*
X182051179Y-97779860D01*
X178761288Y-97779860D01*
X178733922Y-97728661D01*
X178606799Y-97573761D01*
X178451899Y-97446638D01*
X178275176Y-97352178D01*
X178083420Y-97294009D01*
X177933974Y-97279290D01*
X177336186Y-97279290D01*
X177186740Y-97294009D01*
X176994984Y-97352178D01*
X176818261Y-97446638D01*
X176663361Y-97573761D01*
X176536238Y-97728661D01*
X176508872Y-97779860D01*
X175158202Y-97779860D01*
X175150678Y-97761696D01*
X175044885Y-97603365D01*
X174910235Y-97468715D01*
X174810700Y-97402208D01*
X174810700Y-96736992D01*
X174910235Y-96670485D01*
X175044885Y-96535835D01*
X175150678Y-96377504D01*
X175223550Y-96201576D01*
X175260700Y-96014812D01*
X175260700Y-95824388D01*
X175223550Y-95637624D01*
X175150678Y-95461696D01*
X175044885Y-95303365D01*
X174910235Y-95168715D01*
X174751904Y-95062922D01*
X174575976Y-94990050D01*
X174389212Y-94952900D01*
X174198788Y-94952900D01*
X174012024Y-94990050D01*
X173836096Y-95062922D01*
X173677765Y-95168715D01*
X173543115Y-95303365D01*
X173437322Y-95461696D01*
X173364450Y-95637624D01*
X173327300Y-95824388D01*
X173327300Y-96014812D01*
X173364450Y-96201576D01*
X173437322Y-96377504D01*
X173543115Y-96535835D01*
X173677765Y-96670485D01*
X173777301Y-96736992D01*
X173777300Y-97402208D01*
X173677765Y-97468715D01*
X173543115Y-97603365D01*
X173437322Y-97761696D01*
X173364450Y-97937624D01*
X173327300Y-98124388D01*
X173327300Y-98314812D01*
X173364450Y-98501576D01*
X173437322Y-98677504D01*
X173543115Y-98835835D01*
X173677765Y-98970485D01*
X173777300Y-99036992D01*
X173777301Y-99702208D01*
X173677765Y-99768715D01*
X173543115Y-99903365D01*
X173437322Y-100061696D01*
X173364450Y-100237624D01*
X173327300Y-100424388D01*
X173327300Y-100614812D01*
X173364450Y-100801576D01*
X173437322Y-100977504D01*
X173543115Y-101135835D01*
X173677765Y-101270485D01*
X173777300Y-101336992D01*
X173777301Y-102002208D01*
X173677765Y-102068715D01*
X173543115Y-102203365D01*
X173437322Y-102361696D01*
X173364450Y-102537624D01*
X173327300Y-102724388D01*
X173327300Y-102914812D01*
X173364450Y-103101576D01*
X173437322Y-103277504D01*
X173543115Y-103435835D01*
X173677765Y-103570485D01*
X173836096Y-103676278D01*
X174012024Y-103749150D01*
X174198788Y-103786300D01*
X174389212Y-103786300D01*
X174575976Y-103749150D01*
X174751904Y-103676278D01*
X174910235Y-103570485D01*
X175044885Y-103435835D01*
X175150678Y-103277504D01*
X175223550Y-103101576D01*
X175260700Y-102914812D01*
X175260700Y-102724388D01*
X175223550Y-102537624D01*
X175150678Y-102361696D01*
X175044885Y-102203365D01*
X174910235Y-102068715D01*
X174810700Y-102002208D01*
X174810700Y-101336992D01*
X174910235Y-101270485D01*
X175044885Y-101135835D01*
X175092108Y-101065160D01*
X176363968Y-101065160D01*
X176383609Y-101264580D01*
X176441778Y-101456336D01*
X176536238Y-101633059D01*
X176663361Y-101787959D01*
X176818261Y-101915082D01*
X176994984Y-102009542D01*
X177186740Y-102067711D01*
X177336186Y-102082430D01*
X177933974Y-102082430D01*
X178083420Y-102067711D01*
X178111885Y-102059076D01*
X179485677Y-102059076D01*
X179504541Y-102210700D01*
X180431620Y-102210700D01*
X180431620Y-101500502D01*
X180914220Y-101500502D01*
X180914220Y-102210700D01*
X181841299Y-102210700D01*
X181860163Y-102059076D01*
X181843296Y-102018812D01*
X181741080Y-101847368D01*
X181607381Y-101699160D01*
X181447337Y-101579883D01*
X181267098Y-101494121D01*
X181073591Y-101445170D01*
X180914220Y-101500502D01*
X180431620Y-101500502D01*
X180272249Y-101445170D01*
X180078742Y-101494121D01*
X179898503Y-101579883D01*
X179738459Y-101699160D01*
X179604760Y-101847368D01*
X179502544Y-102018812D01*
X179485677Y-102059076D01*
X178111885Y-102059076D01*
X178275176Y-102009542D01*
X178451899Y-101915082D01*
X178606799Y-101787959D01*
X178733922Y-101633059D01*
X178828382Y-101456336D01*
X178886551Y-101264580D01*
X178906192Y-101065160D01*
X178886551Y-100865740D01*
X178828382Y-100673984D01*
X178733922Y-100497261D01*
X178606799Y-100342361D01*
X178451899Y-100215238D01*
X178275176Y-100120778D01*
X178083420Y-100062609D01*
X177933974Y-100047890D01*
X177336186Y-100047890D01*
X177186740Y-100062609D01*
X176994984Y-100120778D01*
X176818261Y-100215238D01*
X176663361Y-100342361D01*
X176536238Y-100497261D01*
X176441778Y-100673984D01*
X176383609Y-100865740D01*
X176363968Y-101065160D01*
X175092108Y-101065160D01*
X175150678Y-100977504D01*
X175223550Y-100801576D01*
X175260700Y-100614812D01*
X175260700Y-100424388D01*
X175223550Y-100237624D01*
X175150678Y-100061696D01*
X175044885Y-99903365D01*
X174910235Y-99768715D01*
X174810700Y-99702208D01*
X174810700Y-99036992D01*
X174910235Y-98970485D01*
X175044885Y-98835835D01*
X175059969Y-98813260D01*
X176508872Y-98813260D01*
X176536238Y-98864459D01*
X176663361Y-99019359D01*
X176818261Y-99146482D01*
X176994984Y-99240942D01*
X177186740Y-99299111D01*
X177336186Y-99313830D01*
X177933974Y-99313830D01*
X178083420Y-99299111D01*
X178275176Y-99240942D01*
X178451899Y-99146482D01*
X178606799Y-99019359D01*
X178733922Y-98864459D01*
X178761288Y-98813260D01*
X179889174Y-98813260D01*
X179856101Y-98830938D01*
X179701201Y-98958061D01*
X179574078Y-99112961D01*
X179479618Y-99289684D01*
X179421449Y-99481440D01*
X179401808Y-99680860D01*
X179421449Y-99880280D01*
X179479618Y-100072036D01*
X179574078Y-100248759D01*
X179701201Y-100403659D01*
X179856101Y-100530782D01*
X180032824Y-100625242D01*
X180224580Y-100683411D01*
X180374026Y-100698130D01*
X180971814Y-100698130D01*
X181121260Y-100683411D01*
X181313016Y-100625242D01*
X181489739Y-100530782D01*
X181644639Y-100403659D01*
X181771762Y-100248759D01*
X181866222Y-100072036D01*
X181924391Y-99880280D01*
X181944032Y-99680860D01*
X181924391Y-99481440D01*
X181866222Y-99289684D01*
X181771762Y-99112961D01*
X181644639Y-98958061D01*
X181489739Y-98830938D01*
X181456666Y-98813260D01*
X181862537Y-98813260D01*
X182523301Y-99474025D01*
X182523300Y-108865976D01*
X180535977Y-110853300D01*
X175074024Y-110853300D01*
X173596764Y-109376040D01*
X176363968Y-109376040D01*
X176383609Y-109575460D01*
X176441778Y-109767216D01*
X176536238Y-109943939D01*
X176663361Y-110098839D01*
X176818261Y-110225962D01*
X176994984Y-110320422D01*
X177186740Y-110378591D01*
X177336186Y-110393310D01*
X177933974Y-110393310D01*
X178083420Y-110378591D01*
X178275176Y-110320422D01*
X178451899Y-110225962D01*
X178606799Y-110098839D01*
X178733922Y-109943939D01*
X178828382Y-109767216D01*
X178886551Y-109575460D01*
X178906192Y-109376040D01*
X178886551Y-109176620D01*
X178828382Y-108984864D01*
X178733922Y-108808141D01*
X178606799Y-108653241D01*
X178451899Y-108526118D01*
X178275176Y-108431658D01*
X178083420Y-108373489D01*
X177933974Y-108358770D01*
X177336186Y-108358770D01*
X177186740Y-108373489D01*
X176994984Y-108431658D01*
X176818261Y-108526118D01*
X176663361Y-108653241D01*
X176536238Y-108808141D01*
X176441778Y-108984864D01*
X176383609Y-109176620D01*
X176363968Y-109376040D01*
X173596764Y-109376040D01*
X172212464Y-107991740D01*
X179401808Y-107991740D01*
X179421449Y-108191160D01*
X179479618Y-108382916D01*
X179574078Y-108559639D01*
X179701201Y-108714539D01*
X179856101Y-108841662D01*
X180032824Y-108936122D01*
X180224580Y-108994291D01*
X180374026Y-109009010D01*
X180971814Y-109009010D01*
X181121260Y-108994291D01*
X181313016Y-108936122D01*
X181489739Y-108841662D01*
X181644639Y-108714539D01*
X181771762Y-108559639D01*
X181866222Y-108382916D01*
X181924391Y-108191160D01*
X181944032Y-107991740D01*
X181924391Y-107792320D01*
X181866222Y-107600564D01*
X181771762Y-107423841D01*
X181644639Y-107268941D01*
X181489739Y-107141818D01*
X181313016Y-107047358D01*
X181121260Y-106989189D01*
X180971814Y-106974470D01*
X180374026Y-106974470D01*
X180224580Y-106989189D01*
X180032824Y-107047358D01*
X179856101Y-107141818D01*
X179701201Y-107268941D01*
X179574078Y-107423841D01*
X179479618Y-107600564D01*
X179421449Y-107792320D01*
X179401808Y-107991740D01*
X172212464Y-107991740D01*
X171061317Y-106840594D01*
X171045130Y-106820870D01*
X170966452Y-106756301D01*
X170876689Y-106708322D01*
X170779291Y-106678776D01*
X170703384Y-106671300D01*
X170703381Y-106671300D01*
X170678000Y-106668800D01*
X170652619Y-106671300D01*
X166796793Y-106671300D01*
X166775290Y-106664777D01*
X166674000Y-106654800D01*
X166572710Y-106664777D01*
X166551207Y-106671300D01*
X155002025Y-106671300D01*
X154938165Y-106607440D01*
X176363968Y-106607440D01*
X176383609Y-106806860D01*
X176441778Y-106998616D01*
X176536238Y-107175339D01*
X176663361Y-107330239D01*
X176818261Y-107457362D01*
X176994984Y-107551822D01*
X177186740Y-107609991D01*
X177336186Y-107624710D01*
X177933974Y-107624710D01*
X178083420Y-107609991D01*
X178275176Y-107551822D01*
X178451899Y-107457362D01*
X178606799Y-107330239D01*
X178733922Y-107175339D01*
X178828382Y-106998616D01*
X178886551Y-106806860D01*
X178906192Y-106607440D01*
X178886551Y-106408020D01*
X178828382Y-106216264D01*
X178733922Y-106039541D01*
X178606799Y-105884641D01*
X178451899Y-105757518D01*
X178275176Y-105663058D01*
X178083420Y-105604889D01*
X177933974Y-105590170D01*
X177336186Y-105590170D01*
X177186740Y-105604889D01*
X176994984Y-105663058D01*
X176818261Y-105757518D01*
X176663361Y-105884641D01*
X176536238Y-106039541D01*
X176441778Y-106216264D01*
X176383609Y-106408020D01*
X176363968Y-106607440D01*
X154938165Y-106607440D01*
X153345263Y-105014539D01*
X155460500Y-105014539D01*
X155460500Y-105224661D01*
X155501493Y-105430745D01*
X155581903Y-105624872D01*
X155698640Y-105799581D01*
X155847219Y-105948160D01*
X156021928Y-106064897D01*
X156216055Y-106145307D01*
X156422139Y-106186300D01*
X156632261Y-106186300D01*
X156838345Y-106145307D01*
X157032472Y-106064897D01*
X157207181Y-105948160D01*
X157355760Y-105799581D01*
X157472497Y-105624872D01*
X157552907Y-105430745D01*
X157593900Y-105224661D01*
X157593900Y-105014539D01*
X157552907Y-104808455D01*
X157472497Y-104614328D01*
X157355760Y-104439619D01*
X157235741Y-104319600D01*
X163079210Y-104319600D01*
X163079210Y-105919600D01*
X163084359Y-105971882D01*
X163099610Y-106022155D01*
X163124374Y-106068487D01*
X163157702Y-106109098D01*
X163198313Y-106142426D01*
X163244645Y-106167190D01*
X163294918Y-106182441D01*
X163347200Y-106187590D01*
X164947200Y-106187590D01*
X164999482Y-106182441D01*
X165049755Y-106167190D01*
X165096087Y-106142426D01*
X165136698Y-106109098D01*
X165170026Y-106068487D01*
X165194790Y-106022155D01*
X165210041Y-105971882D01*
X165215190Y-105919600D01*
X165215190Y-104319600D01*
X165210041Y-104267318D01*
X165194790Y-104217045D01*
X165170026Y-104170713D01*
X165136698Y-104130102D01*
X165096087Y-104096774D01*
X165049755Y-104072010D01*
X164999482Y-104056759D01*
X164947200Y-104051610D01*
X163347200Y-104051610D01*
X163294918Y-104056759D01*
X163244645Y-104072010D01*
X163198313Y-104096774D01*
X163157702Y-104130102D01*
X163124374Y-104170713D01*
X163099610Y-104217045D01*
X163084359Y-104267318D01*
X163079210Y-104319600D01*
X157235741Y-104319600D01*
X157207181Y-104291040D01*
X157032472Y-104174303D01*
X156838345Y-104093893D01*
X156632261Y-104052900D01*
X156422139Y-104052900D01*
X156216055Y-104093893D01*
X156021928Y-104174303D01*
X155847219Y-104291040D01*
X155698640Y-104439619D01*
X155581903Y-104614328D01*
X155501493Y-104808455D01*
X155460500Y-105014539D01*
X153345263Y-105014539D01*
X153205357Y-104874634D01*
X153189170Y-104854910D01*
X153110492Y-104790341D01*
X153020729Y-104742362D01*
X152923331Y-104712816D01*
X152847424Y-104705340D01*
X152847421Y-104705340D01*
X152822040Y-104702840D01*
X152796659Y-104705340D01*
X146226666Y-104705340D01*
X146259739Y-104687662D01*
X146414639Y-104560539D01*
X146541762Y-104405639D01*
X146636222Y-104228916D01*
X146694391Y-104037160D01*
X146714032Y-103837740D01*
X146694391Y-103638320D01*
X146636222Y-103446564D01*
X146541762Y-103269841D01*
X146414639Y-103114941D01*
X146259739Y-102987818D01*
X146083016Y-102893358D01*
X145891260Y-102835189D01*
X145741814Y-102820470D01*
X145144026Y-102820470D01*
X144994580Y-102835189D01*
X144802824Y-102893358D01*
X144626101Y-102987818D01*
X144471201Y-103114941D01*
X144344078Y-103269841D01*
X144249618Y-103446564D01*
X144191449Y-103638320D01*
X144171808Y-103837740D01*
X144191449Y-104037160D01*
X144249618Y-104228916D01*
X144344078Y-104405639D01*
X144471201Y-104560539D01*
X144626101Y-104687662D01*
X144659174Y-104705340D01*
X143531288Y-104705340D01*
X143503922Y-104654141D01*
X143376799Y-104499241D01*
X143221899Y-104372118D01*
X143045176Y-104277658D01*
X142853420Y-104219489D01*
X142703974Y-104204770D01*
X142106186Y-104204770D01*
X141956740Y-104219489D01*
X141764984Y-104277658D01*
X141588261Y-104372118D01*
X141433361Y-104499241D01*
X141306238Y-104654141D01*
X141211778Y-104830864D01*
X141153609Y-105022620D01*
X141133968Y-105222040D01*
X135381700Y-105222040D01*
X135381700Y-102846364D01*
X141217837Y-102846364D01*
X141234704Y-102886628D01*
X141336920Y-103058072D01*
X141470619Y-103206280D01*
X141630663Y-103325557D01*
X141810902Y-103411319D01*
X142004409Y-103460270D01*
X142163780Y-103404938D01*
X142163780Y-102694740D01*
X142646380Y-102694740D01*
X142646380Y-103404938D01*
X142805751Y-103460270D01*
X142999258Y-103411319D01*
X143179497Y-103325557D01*
X143339541Y-103206280D01*
X143473240Y-103058072D01*
X143575456Y-102886628D01*
X143592323Y-102846364D01*
X143573459Y-102694740D01*
X142646380Y-102694740D01*
X142163780Y-102694740D01*
X141236701Y-102694740D01*
X141217837Y-102846364D01*
X135381700Y-102846364D01*
X135381700Y-102264539D01*
X155472500Y-102264539D01*
X155472500Y-102474661D01*
X155513493Y-102680745D01*
X155593903Y-102874872D01*
X155710640Y-103049581D01*
X155859219Y-103198160D01*
X156033928Y-103314897D01*
X156228055Y-103395307D01*
X156434139Y-103436300D01*
X156644261Y-103436300D01*
X156850345Y-103395307D01*
X157044472Y-103314897D01*
X157219181Y-103198160D01*
X157367760Y-103049581D01*
X157484497Y-102874872D01*
X157564907Y-102680745D01*
X157605900Y-102474661D01*
X157605900Y-102264539D01*
X157564907Y-102058455D01*
X157484497Y-101864328D01*
X157367760Y-101689619D01*
X157247741Y-101569600D01*
X163091210Y-101569600D01*
X163091210Y-103169600D01*
X163096359Y-103221882D01*
X163111610Y-103272155D01*
X163136374Y-103318487D01*
X163169702Y-103359098D01*
X163210313Y-103392426D01*
X163256645Y-103417190D01*
X163306918Y-103432441D01*
X163359200Y-103437590D01*
X164959200Y-103437590D01*
X165011482Y-103432441D01*
X165061755Y-103417190D01*
X165108087Y-103392426D01*
X165148698Y-103359098D01*
X165182026Y-103318487D01*
X165206790Y-103272155D01*
X165222041Y-103221882D01*
X165227190Y-103169600D01*
X165227190Y-102724388D01*
X165707300Y-102724388D01*
X165707300Y-102914812D01*
X165744450Y-103101576D01*
X165817322Y-103277504D01*
X165923115Y-103435835D01*
X166057765Y-103570485D01*
X166216096Y-103676278D01*
X166282300Y-103703701D01*
X166282301Y-104235499D01*
X166216096Y-104262922D01*
X166057765Y-104368715D01*
X165923115Y-104503365D01*
X165817322Y-104661696D01*
X165744450Y-104837624D01*
X165707300Y-105024388D01*
X165707300Y-105214812D01*
X165744450Y-105401576D01*
X165817322Y-105577504D01*
X165923115Y-105735835D01*
X166057765Y-105870485D01*
X166216096Y-105976278D01*
X166392024Y-106049150D01*
X166578788Y-106086300D01*
X166769212Y-106086300D01*
X166955976Y-106049150D01*
X167131904Y-105976278D01*
X167290235Y-105870485D01*
X167424885Y-105735835D01*
X167530678Y-105577504D01*
X167603550Y-105401576D01*
X167640700Y-105214812D01*
X167640700Y-105024388D01*
X167603550Y-104837624D01*
X167530678Y-104661696D01*
X167424885Y-104503365D01*
X167290235Y-104368715D01*
X167131904Y-104262922D01*
X167065700Y-104235499D01*
X167065700Y-103703701D01*
X167131904Y-103676278D01*
X167290235Y-103570485D01*
X167424885Y-103435835D01*
X167530678Y-103277504D01*
X167603550Y-103101576D01*
X167640700Y-102914812D01*
X167640700Y-102724388D01*
X167603550Y-102537624D01*
X167530678Y-102361696D01*
X167424885Y-102203365D01*
X167290235Y-102068715D01*
X167131904Y-101962922D01*
X166955976Y-101890050D01*
X166769212Y-101852900D01*
X166578788Y-101852900D01*
X166392024Y-101890050D01*
X166216096Y-101962922D01*
X166057765Y-102068715D01*
X165923115Y-102203365D01*
X165817322Y-102361696D01*
X165744450Y-102537624D01*
X165707300Y-102724388D01*
X165227190Y-102724388D01*
X165227190Y-101569600D01*
X165222041Y-101517318D01*
X165206790Y-101467045D01*
X165182026Y-101420713D01*
X165148698Y-101380102D01*
X165108087Y-101346774D01*
X165061755Y-101322010D01*
X165011482Y-101306759D01*
X164959200Y-101301610D01*
X163359200Y-101301610D01*
X163306918Y-101306759D01*
X163256645Y-101322010D01*
X163210313Y-101346774D01*
X163169702Y-101380102D01*
X163136374Y-101420713D01*
X163111610Y-101467045D01*
X163096359Y-101517318D01*
X163091210Y-101569600D01*
X157247741Y-101569600D01*
X157219181Y-101541040D01*
X157044472Y-101424303D01*
X156850345Y-101343893D01*
X156644261Y-101302900D01*
X156434139Y-101302900D01*
X156228055Y-101343893D01*
X156033928Y-101424303D01*
X155859219Y-101541040D01*
X155710640Y-101689619D01*
X155593903Y-101864328D01*
X155513493Y-102058455D01*
X155472500Y-102264539D01*
X135381700Y-102264539D01*
X135381700Y-102060516D01*
X141217837Y-102060516D01*
X141236701Y-102212140D01*
X142163780Y-102212140D01*
X142163780Y-101501942D01*
X142646380Y-101501942D01*
X142646380Y-102212140D01*
X143573459Y-102212140D01*
X143592323Y-102060516D01*
X143575456Y-102020252D01*
X143473240Y-101848808D01*
X143339541Y-101700600D01*
X143179497Y-101581323D01*
X142999258Y-101495561D01*
X142805751Y-101446610D01*
X142646380Y-101501942D01*
X142163780Y-101501942D01*
X142004409Y-101446610D01*
X141810902Y-101495561D01*
X141630663Y-101581323D01*
X141470619Y-101700600D01*
X141336920Y-101848808D01*
X141234704Y-102020252D01*
X141217837Y-102060516D01*
X135381700Y-102060516D01*
X135381700Y-101066600D01*
X144171808Y-101066600D01*
X144191449Y-101266020D01*
X144249618Y-101457776D01*
X144344078Y-101634499D01*
X144471201Y-101789399D01*
X144626101Y-101916522D01*
X144802824Y-102010982D01*
X144994580Y-102069151D01*
X145144026Y-102083870D01*
X145741814Y-102083870D01*
X145891260Y-102069151D01*
X146083016Y-102010982D01*
X146259739Y-101916522D01*
X146414639Y-101789399D01*
X146541762Y-101634499D01*
X146636222Y-101457776D01*
X146694391Y-101266020D01*
X146714032Y-101066600D01*
X146694391Y-100867180D01*
X146636222Y-100675424D01*
X146541762Y-100498701D01*
X146414639Y-100343801D01*
X146259739Y-100216678D01*
X146083016Y-100122218D01*
X145891260Y-100064049D01*
X145741814Y-100049330D01*
X145144026Y-100049330D01*
X144994580Y-100064049D01*
X144802824Y-100122218D01*
X144626101Y-100216678D01*
X144471201Y-100343801D01*
X144344078Y-100498701D01*
X144249618Y-100675424D01*
X144191449Y-100867180D01*
X144171808Y-101066600D01*
X135381700Y-101066600D01*
X135381700Y-99682300D01*
X141133968Y-99682300D01*
X141153609Y-99881720D01*
X141211778Y-100073476D01*
X141306238Y-100250199D01*
X141433361Y-100405099D01*
X141588261Y-100532222D01*
X141764984Y-100626682D01*
X141956740Y-100684851D01*
X142106186Y-100699570D01*
X142703974Y-100699570D01*
X142853420Y-100684851D01*
X143045176Y-100626682D01*
X143221899Y-100532222D01*
X143376799Y-100405099D01*
X143503922Y-100250199D01*
X143598382Y-100073476D01*
X143656551Y-99881720D01*
X143676192Y-99682300D01*
X143659670Y-99514539D01*
X155472500Y-99514539D01*
X155472500Y-99724661D01*
X155513493Y-99930745D01*
X155593903Y-100124872D01*
X155710640Y-100299581D01*
X155859219Y-100448160D01*
X156033928Y-100564897D01*
X156228055Y-100645307D01*
X156434139Y-100686300D01*
X156644261Y-100686300D01*
X156850345Y-100645307D01*
X157044472Y-100564897D01*
X157219181Y-100448160D01*
X157367760Y-100299581D01*
X157484497Y-100124872D01*
X157564907Y-99930745D01*
X157605900Y-99724661D01*
X157605900Y-99514539D01*
X157564907Y-99308455D01*
X157484497Y-99114328D01*
X157367760Y-98939619D01*
X157247741Y-98819600D01*
X163091210Y-98819600D01*
X163091210Y-100419600D01*
X163096359Y-100471882D01*
X163111610Y-100522155D01*
X163136374Y-100568487D01*
X163169702Y-100609098D01*
X163210313Y-100642426D01*
X163256645Y-100667190D01*
X163306918Y-100682441D01*
X163359200Y-100687590D01*
X164959200Y-100687590D01*
X165011482Y-100682441D01*
X165061755Y-100667190D01*
X165108087Y-100642426D01*
X165148698Y-100609098D01*
X165182026Y-100568487D01*
X165206790Y-100522155D01*
X165222041Y-100471882D01*
X165226718Y-100424388D01*
X165707300Y-100424388D01*
X165707300Y-100614812D01*
X165744450Y-100801576D01*
X165817322Y-100977504D01*
X165923115Y-101135835D01*
X166057765Y-101270485D01*
X166216096Y-101376278D01*
X166392024Y-101449150D01*
X166578788Y-101486300D01*
X166769212Y-101486300D01*
X166955976Y-101449150D01*
X167131904Y-101376278D01*
X167290235Y-101270485D01*
X167424885Y-101135835D01*
X167530678Y-100977504D01*
X167603550Y-100801576D01*
X167640700Y-100614812D01*
X167640700Y-100424388D01*
X167603550Y-100237624D01*
X167576127Y-100171419D01*
X170763369Y-96984179D01*
X170778314Y-96971914D01*
X170827262Y-96912270D01*
X170863634Y-96844222D01*
X170886032Y-96770387D01*
X170891700Y-96712840D01*
X170893595Y-96693601D01*
X170891700Y-96674361D01*
X170891700Y-93833609D01*
X170946417Y-93833609D01*
X170951566Y-93885891D01*
X170966817Y-93936164D01*
X170991581Y-93982496D01*
X171024909Y-94023107D01*
X171065520Y-94056435D01*
X171111852Y-94081199D01*
X171162125Y-94096450D01*
X171214407Y-94101599D01*
X171806432Y-94100309D01*
X171873107Y-94033634D01*
X171873107Y-93524909D01*
X172355707Y-93524909D01*
X172355707Y-94033634D01*
X172422382Y-94100309D01*
X173014407Y-94101599D01*
X173066689Y-94096450D01*
X173116962Y-94081199D01*
X173163294Y-94056435D01*
X173203905Y-94023107D01*
X173237233Y-93982496D01*
X173261997Y-93936164D01*
X173277248Y-93885891D01*
X173282397Y-93833609D01*
X173281107Y-93591584D01*
X173214432Y-93524909D01*
X172355707Y-93524909D01*
X171873107Y-93524909D01*
X171014382Y-93524909D01*
X170947707Y-93591584D01*
X170946417Y-93833609D01*
X170891700Y-93833609D01*
X170891700Y-92733609D01*
X170946417Y-92733609D01*
X170947707Y-92975634D01*
X171014382Y-93042309D01*
X171873107Y-93042309D01*
X171873107Y-92533584D01*
X171806432Y-92466909D01*
X171214407Y-92465619D01*
X171162125Y-92470768D01*
X171111852Y-92486019D01*
X171065520Y-92510783D01*
X171024909Y-92544111D01*
X170991581Y-92584722D01*
X170966817Y-92631054D01*
X170951566Y-92681327D01*
X170946417Y-92733609D01*
X170891700Y-92733609D01*
X170891700Y-91552246D01*
X170996030Y-91447917D01*
X171024909Y-91483107D01*
X171065520Y-91516435D01*
X171111852Y-91541199D01*
X171162125Y-91556450D01*
X171214407Y-91561599D01*
X173014407Y-91561599D01*
X173049459Y-91558147D01*
X173026850Y-91632677D01*
X173016417Y-91738609D01*
X173016417Y-92288609D01*
X173026850Y-92394541D01*
X173049459Y-92469071D01*
X173014407Y-92465619D01*
X172422382Y-92466909D01*
X172355707Y-92533584D01*
X172355707Y-93042309D01*
X173214432Y-93042309D01*
X173281107Y-92975634D01*
X173282293Y-92753213D01*
X173351614Y-92790266D01*
X173392707Y-92802732D01*
X173392708Y-94203345D01*
X172456641Y-95139413D01*
X172441686Y-95151686D01*
X172392738Y-95211331D01*
X172356366Y-95279379D01*
X172349090Y-95303365D01*
X172333968Y-95353214D01*
X172326405Y-95430000D01*
X172328300Y-95449240D01*
X172328301Y-103526350D01*
X172326405Y-103545600D01*
X172333968Y-103622386D01*
X172338365Y-103636880D01*
X172356367Y-103696222D01*
X172392739Y-103764270D01*
X172441687Y-103823914D01*
X172456637Y-103836183D01*
X173391873Y-104771420D01*
X173364450Y-104837624D01*
X173327300Y-105024388D01*
X173327300Y-105214812D01*
X173364450Y-105401576D01*
X173437322Y-105577504D01*
X173543115Y-105735835D01*
X173677765Y-105870485D01*
X173836096Y-105976278D01*
X174012024Y-106049150D01*
X174198788Y-106086300D01*
X174389212Y-106086300D01*
X174575976Y-106049150D01*
X174751904Y-105976278D01*
X174910235Y-105870485D01*
X175044885Y-105735835D01*
X175150678Y-105577504D01*
X175223550Y-105401576D01*
X175259548Y-105220600D01*
X179401808Y-105220600D01*
X179421449Y-105420020D01*
X179479618Y-105611776D01*
X179574078Y-105788499D01*
X179701201Y-105943399D01*
X179856101Y-106070522D01*
X180032824Y-106164982D01*
X180224580Y-106223151D01*
X180374026Y-106237870D01*
X180971814Y-106237870D01*
X181121260Y-106223151D01*
X181313016Y-106164982D01*
X181489739Y-106070522D01*
X181644639Y-105943399D01*
X181771762Y-105788499D01*
X181866222Y-105611776D01*
X181924391Y-105420020D01*
X181944032Y-105220600D01*
X181924391Y-105021180D01*
X181866222Y-104829424D01*
X181771762Y-104652701D01*
X181644639Y-104497801D01*
X181489739Y-104370678D01*
X181313016Y-104276218D01*
X181121260Y-104218049D01*
X180971814Y-104203330D01*
X180374026Y-104203330D01*
X180224580Y-104218049D01*
X180032824Y-104276218D01*
X179856101Y-104370678D01*
X179701201Y-104497801D01*
X179574078Y-104652701D01*
X179479618Y-104829424D01*
X179421449Y-105021180D01*
X179401808Y-105220600D01*
X175259548Y-105220600D01*
X175260700Y-105214812D01*
X175260700Y-105024388D01*
X175223550Y-104837624D01*
X175150678Y-104661696D01*
X175044885Y-104503365D01*
X174910235Y-104368715D01*
X174751904Y-104262922D01*
X174575976Y-104190050D01*
X174389212Y-104152900D01*
X174198788Y-104152900D01*
X174012024Y-104190050D01*
X173945820Y-104217473D01*
X173564647Y-103836300D01*
X176363968Y-103836300D01*
X176383609Y-104035720D01*
X176441778Y-104227476D01*
X176536238Y-104404199D01*
X176663361Y-104559099D01*
X176818261Y-104686222D01*
X176994984Y-104780682D01*
X177186740Y-104838851D01*
X177336186Y-104853570D01*
X177933974Y-104853570D01*
X178083420Y-104838851D01*
X178275176Y-104780682D01*
X178451899Y-104686222D01*
X178606799Y-104559099D01*
X178733922Y-104404199D01*
X178828382Y-104227476D01*
X178886551Y-104035720D01*
X178906192Y-103836300D01*
X178886551Y-103636880D01*
X178828382Y-103445124D01*
X178733922Y-103268401D01*
X178606799Y-103113501D01*
X178451899Y-102986378D01*
X178275176Y-102891918D01*
X178120259Y-102844924D01*
X179485677Y-102844924D01*
X179502544Y-102885188D01*
X179604760Y-103056632D01*
X179738459Y-103204840D01*
X179898503Y-103324117D01*
X180078742Y-103409879D01*
X180272249Y-103458830D01*
X180431620Y-103403498D01*
X180431620Y-102693300D01*
X180914220Y-102693300D01*
X180914220Y-103403498D01*
X181073591Y-103458830D01*
X181267098Y-103409879D01*
X181447337Y-103324117D01*
X181607381Y-103204840D01*
X181741080Y-103056632D01*
X181843296Y-102885188D01*
X181860163Y-102844924D01*
X181841299Y-102693300D01*
X180914220Y-102693300D01*
X180431620Y-102693300D01*
X179504541Y-102693300D01*
X179485677Y-102844924D01*
X178120259Y-102844924D01*
X178083420Y-102833749D01*
X177933974Y-102819030D01*
X177336186Y-102819030D01*
X177186740Y-102833749D01*
X176994984Y-102891918D01*
X176818261Y-102986378D01*
X176663361Y-103113501D01*
X176536238Y-103268401D01*
X176441778Y-103445124D01*
X176383609Y-103636880D01*
X176363968Y-103836300D01*
X173564647Y-103836300D01*
X173111700Y-103383354D01*
X173111700Y-95592246D01*
X174047771Y-94656176D01*
X174062721Y-94643907D01*
X174111669Y-94584263D01*
X174113721Y-94580424D01*
X174148041Y-94516216D01*
X174170439Y-94442380D01*
X174178002Y-94365593D01*
X174176107Y-94346353D01*
X174176107Y-93424185D01*
X177413105Y-93424185D01*
X177720915Y-93725037D01*
X178213351Y-93958829D01*
X178741936Y-94092060D01*
X179286356Y-94119608D01*
X179825689Y-94040417D01*
X180339210Y-93857529D01*
X180587085Y-93725037D01*
X180894895Y-93424185D01*
X179154000Y-91683290D01*
X177413105Y-93424185D01*
X174176107Y-93424185D01*
X174176107Y-92831599D01*
X174809407Y-92831599D01*
X174915339Y-92821166D01*
X175017200Y-92790266D01*
X175111076Y-92740089D01*
X175193359Y-92672561D01*
X175260887Y-92590278D01*
X175311064Y-92496402D01*
X175341964Y-92394541D01*
X175352397Y-92288609D01*
X175352397Y-91738609D01*
X175341964Y-91632677D01*
X175311064Y-91530816D01*
X175280908Y-91474396D01*
X176376432Y-91474396D01*
X176455623Y-92013729D01*
X176638511Y-92527250D01*
X176771003Y-92775125D01*
X177071855Y-93082935D01*
X178812750Y-91342040D01*
X179495250Y-91342040D01*
X181236145Y-93082935D01*
X181536997Y-92775125D01*
X181770789Y-92282689D01*
X181904020Y-91754104D01*
X181931568Y-91209684D01*
X181852377Y-90670351D01*
X181669489Y-90156830D01*
X181536997Y-89908955D01*
X181236145Y-89601145D01*
X179495250Y-91342040D01*
X178812750Y-91342040D01*
X177071855Y-89601145D01*
X176771003Y-89908955D01*
X176537211Y-90401391D01*
X176403980Y-90929976D01*
X176376432Y-91474396D01*
X175280908Y-91474396D01*
X175260887Y-91436940D01*
X175193359Y-91354657D01*
X175111076Y-91287129D01*
X175017200Y-91236952D01*
X174915339Y-91206052D01*
X174809407Y-91195619D01*
X173559407Y-91195619D01*
X173453475Y-91206052D01*
X173351614Y-91236952D01*
X173282397Y-91273949D01*
X173282397Y-90193609D01*
X173277248Y-90141327D01*
X173261997Y-90091054D01*
X173237233Y-90044722D01*
X173203905Y-90004111D01*
X173163294Y-89970783D01*
X173116962Y-89946019D01*
X173066689Y-89930768D01*
X173014407Y-89925619D01*
X171214407Y-89925619D01*
X171162125Y-89930768D01*
X171111852Y-89946019D01*
X171065520Y-89970783D01*
X171024909Y-90004111D01*
X170991581Y-90044722D01*
X170966817Y-90091054D01*
X170951566Y-90141327D01*
X170946417Y-90193609D01*
X170946417Y-90406354D01*
X170927721Y-90416347D01*
X170868077Y-90465295D01*
X170855808Y-90480245D01*
X170236641Y-91099413D01*
X170221686Y-91111686D01*
X170172738Y-91171331D01*
X170136366Y-91239379D01*
X170128734Y-91264539D01*
X170113968Y-91313214D01*
X170106405Y-91390000D01*
X170108300Y-91409240D01*
X170108301Y-96531351D01*
X167022181Y-99617473D01*
X166955976Y-99590050D01*
X166769212Y-99552900D01*
X166578788Y-99552900D01*
X166392024Y-99590050D01*
X166216096Y-99662922D01*
X166057765Y-99768715D01*
X165923115Y-99903365D01*
X165817322Y-100061696D01*
X165744450Y-100237624D01*
X165707300Y-100424388D01*
X165226718Y-100424388D01*
X165227190Y-100419600D01*
X165227190Y-98819600D01*
X165222041Y-98767318D01*
X165206790Y-98717045D01*
X165182026Y-98670713D01*
X165148698Y-98630102D01*
X165108087Y-98596774D01*
X165061755Y-98572010D01*
X165011482Y-98556759D01*
X164959200Y-98551610D01*
X163359200Y-98551610D01*
X163306918Y-98556759D01*
X163256645Y-98572010D01*
X163210313Y-98596774D01*
X163169702Y-98630102D01*
X163136374Y-98670713D01*
X163111610Y-98717045D01*
X163096359Y-98767318D01*
X163091210Y-98819600D01*
X157247741Y-98819600D01*
X157219181Y-98791040D01*
X157044472Y-98674303D01*
X156850345Y-98593893D01*
X156644261Y-98552900D01*
X156434139Y-98552900D01*
X156228055Y-98593893D01*
X156033928Y-98674303D01*
X155859219Y-98791040D01*
X155710640Y-98939619D01*
X155593903Y-99114328D01*
X155513493Y-99308455D01*
X155472500Y-99514539D01*
X143659670Y-99514539D01*
X143656551Y-99482880D01*
X143598382Y-99291124D01*
X143503922Y-99114401D01*
X143376799Y-98959501D01*
X143221899Y-98832378D01*
X143045176Y-98737918D01*
X142853420Y-98679749D01*
X142703974Y-98665030D01*
X142106186Y-98665030D01*
X141956740Y-98679749D01*
X141764984Y-98737918D01*
X141588261Y-98832378D01*
X141433361Y-98959501D01*
X141306238Y-99114401D01*
X141211778Y-99291124D01*
X141153609Y-99482880D01*
X141133968Y-99682300D01*
X135381700Y-99682300D01*
X135381700Y-98298000D01*
X144171808Y-98298000D01*
X144191449Y-98497420D01*
X144249618Y-98689176D01*
X144344078Y-98865899D01*
X144471201Y-99020799D01*
X144626101Y-99147922D01*
X144802824Y-99242382D01*
X144994580Y-99300551D01*
X145144026Y-99315270D01*
X145741814Y-99315270D01*
X145891260Y-99300551D01*
X146083016Y-99242382D01*
X146259739Y-99147922D01*
X146414639Y-99020799D01*
X146541762Y-98865899D01*
X146636222Y-98689176D01*
X146694391Y-98497420D01*
X146714032Y-98298000D01*
X146694391Y-98098580D01*
X146636222Y-97906824D01*
X146541762Y-97730101D01*
X146439929Y-97606017D01*
X148164247Y-95881700D01*
X156136781Y-95881700D01*
X156033928Y-95924303D01*
X155859219Y-96041040D01*
X155710640Y-96189619D01*
X155593903Y-96364328D01*
X155513493Y-96558455D01*
X155472500Y-96764539D01*
X155472500Y-96974661D01*
X155513493Y-97180745D01*
X155593903Y-97374872D01*
X155710640Y-97549581D01*
X155859219Y-97698160D01*
X156033928Y-97814897D01*
X156228055Y-97895307D01*
X156434139Y-97936300D01*
X156644261Y-97936300D01*
X156850345Y-97895307D01*
X157044472Y-97814897D01*
X157219181Y-97698160D01*
X157367760Y-97549581D01*
X157484497Y-97374872D01*
X157564907Y-97180745D01*
X157605900Y-96974661D01*
X157605900Y-96764539D01*
X157564907Y-96558455D01*
X157484497Y-96364328D01*
X157367760Y-96189619D01*
X157219181Y-96041040D01*
X157044472Y-95924303D01*
X156941619Y-95881700D01*
X163168391Y-95881700D01*
X163136374Y-95920713D01*
X163111610Y-95967045D01*
X163096359Y-96017318D01*
X163091210Y-96069600D01*
X163091210Y-97669600D01*
X163096359Y-97721882D01*
X163111610Y-97772155D01*
X163136374Y-97818487D01*
X163169702Y-97859098D01*
X163210313Y-97892426D01*
X163256645Y-97917190D01*
X163306918Y-97932441D01*
X163359200Y-97937590D01*
X164959200Y-97937590D01*
X165011482Y-97932441D01*
X165061755Y-97917190D01*
X165108087Y-97892426D01*
X165148698Y-97859098D01*
X165182026Y-97818487D01*
X165206790Y-97772155D01*
X165222041Y-97721882D01*
X165227190Y-97669600D01*
X165227190Y-96069600D01*
X165222041Y-96017318D01*
X165206790Y-95967045D01*
X165182026Y-95920713D01*
X165150009Y-95881700D01*
X165707300Y-95881700D01*
X165707300Y-96014812D01*
X165744450Y-96201576D01*
X165817322Y-96377504D01*
X165923115Y-96535835D01*
X166057765Y-96670485D01*
X166216096Y-96776278D01*
X166392024Y-96849150D01*
X166578788Y-96886300D01*
X166769212Y-96886300D01*
X166955976Y-96849150D01*
X167131904Y-96776278D01*
X167290235Y-96670485D01*
X167424885Y-96535835D01*
X167530678Y-96377504D01*
X167603550Y-96201576D01*
X167640700Y-96014812D01*
X167640700Y-95824388D01*
X167603550Y-95637624D01*
X167530678Y-95461696D01*
X167424885Y-95303365D01*
X167290235Y-95168715D01*
X167131904Y-95062922D01*
X166955976Y-94990050D01*
X166769212Y-94952900D01*
X166578788Y-94952900D01*
X166392024Y-94990050D01*
X166216096Y-95062922D01*
X166163149Y-95098300D01*
X165157560Y-95098300D01*
X165182026Y-95068487D01*
X165206790Y-95022155D01*
X165222041Y-94971882D01*
X165227190Y-94919600D01*
X165227190Y-93319600D01*
X165222041Y-93267318D01*
X165206790Y-93217045D01*
X165182026Y-93170713D01*
X165148698Y-93130102D01*
X165108087Y-93096774D01*
X165061755Y-93072010D01*
X165011482Y-93056759D01*
X164959200Y-93051610D01*
X163359200Y-93051610D01*
X163306918Y-93056759D01*
X163256645Y-93072010D01*
X163210313Y-93096774D01*
X163169702Y-93130102D01*
X163136374Y-93170713D01*
X163111610Y-93217045D01*
X163096359Y-93267318D01*
X163091210Y-93319600D01*
X163091210Y-94919600D01*
X163096359Y-94971882D01*
X163111610Y-95022155D01*
X163136374Y-95068487D01*
X163160840Y-95098300D01*
X156963830Y-95098300D01*
X157044472Y-95064897D01*
X157219181Y-94948160D01*
X157367760Y-94799581D01*
X157484497Y-94624872D01*
X157564907Y-94430745D01*
X157605900Y-94224661D01*
X157605900Y-94014539D01*
X157564907Y-93808455D01*
X157484497Y-93614328D01*
X157367760Y-93439619D01*
X157219181Y-93291040D01*
X157044472Y-93174303D01*
X156850345Y-93093893D01*
X156644261Y-93052900D01*
X156434139Y-93052900D01*
X156228055Y-93093893D01*
X156033928Y-93174303D01*
X155859219Y-93291040D01*
X155710640Y-93439619D01*
X155593903Y-93614328D01*
X155513493Y-93808455D01*
X155472500Y-94014539D01*
X155472500Y-94224661D01*
X155513493Y-94430745D01*
X155593903Y-94624872D01*
X155710640Y-94799581D01*
X155859219Y-94948160D01*
X156033928Y-95064897D01*
X156114570Y-95098300D01*
X148021240Y-95098300D01*
X148002000Y-95096405D01*
X147982760Y-95098300D01*
X147925213Y-95103968D01*
X147908302Y-95109098D01*
X147851377Y-95126366D01*
X147815941Y-95145307D01*
X147783330Y-95162738D01*
X147723686Y-95211686D01*
X147711417Y-95226636D01*
X145657324Y-97280730D01*
X145144026Y-97280730D01*
X144994580Y-97295449D01*
X144802824Y-97353618D01*
X144626101Y-97448078D01*
X144471201Y-97575201D01*
X144344078Y-97730101D01*
X144249618Y-97906824D01*
X144191449Y-98098580D01*
X144171808Y-98298000D01*
X135381700Y-98298000D01*
X135381700Y-94581700D01*
X149976784Y-94581700D01*
X149991461Y-94580255D01*
X150548991Y-94531931D01*
X150576738Y-94526761D01*
X150604614Y-94522433D01*
X150609226Y-94521212D01*
X151258339Y-94344532D01*
X151287258Y-94333532D01*
X151316383Y-94322916D01*
X151320670Y-94320822D01*
X151923104Y-94021427D01*
X151949352Y-94005009D01*
X151975844Y-93988948D01*
X151979643Y-93986062D01*
X152486176Y-93595609D01*
X152495754Y-93590489D01*
X152534748Y-93558488D01*
X154828697Y-91264539D01*
X155472500Y-91264539D01*
X155472500Y-91474661D01*
X155513493Y-91680745D01*
X155593903Y-91874872D01*
X155710640Y-92049581D01*
X155859219Y-92198160D01*
X156033928Y-92314897D01*
X156228055Y-92395307D01*
X156434139Y-92436300D01*
X156644261Y-92436300D01*
X156850345Y-92395307D01*
X157044472Y-92314897D01*
X157219181Y-92198160D01*
X157367760Y-92049581D01*
X157484497Y-91874872D01*
X157564907Y-91680745D01*
X157605900Y-91474661D01*
X157605900Y-91264539D01*
X157564907Y-91058455D01*
X157484497Y-90864328D01*
X157367760Y-90689619D01*
X157247741Y-90569600D01*
X163091210Y-90569600D01*
X163091210Y-92169600D01*
X163096359Y-92221882D01*
X163111610Y-92272155D01*
X163136374Y-92318487D01*
X163169702Y-92359098D01*
X163210313Y-92392426D01*
X163256645Y-92417190D01*
X163306918Y-92432441D01*
X163359200Y-92437590D01*
X164959200Y-92437590D01*
X165011482Y-92432441D01*
X165061755Y-92417190D01*
X165108087Y-92392426D01*
X165148698Y-92359098D01*
X165182026Y-92318487D01*
X165206790Y-92272155D01*
X165222041Y-92221882D01*
X165227190Y-92169600D01*
X165227190Y-91738609D01*
X165590706Y-91738609D01*
X165590706Y-92288609D01*
X165601139Y-92394541D01*
X165632039Y-92496402D01*
X165682216Y-92590278D01*
X165749744Y-92672561D01*
X165832027Y-92740089D01*
X165925903Y-92790266D01*
X166027764Y-92821166D01*
X166133696Y-92831599D01*
X167383696Y-92831599D01*
X167489628Y-92821166D01*
X167591489Y-92790266D01*
X167660706Y-92753269D01*
X167660706Y-93833609D01*
X167665855Y-93885891D01*
X167681106Y-93936164D01*
X167705870Y-93982496D01*
X167739198Y-94023107D01*
X167779809Y-94056435D01*
X167826141Y-94081199D01*
X167876414Y-94096450D01*
X167928696Y-94101599D01*
X168036996Y-94101599D01*
X168036997Y-96302656D01*
X167022181Y-97317473D01*
X166955976Y-97290050D01*
X166769212Y-97252900D01*
X166578788Y-97252900D01*
X166392024Y-97290050D01*
X166216096Y-97362922D01*
X166057765Y-97468715D01*
X165923115Y-97603365D01*
X165817322Y-97761696D01*
X165744450Y-97937624D01*
X165707300Y-98124388D01*
X165707300Y-98314812D01*
X165744450Y-98501576D01*
X165817322Y-98677504D01*
X165923115Y-98835835D01*
X166057765Y-98970485D01*
X166216096Y-99076278D01*
X166392024Y-99149150D01*
X166578788Y-99186300D01*
X166769212Y-99186300D01*
X166955976Y-99149150D01*
X167131904Y-99076278D01*
X167290235Y-98970485D01*
X167424885Y-98835835D01*
X167530678Y-98677504D01*
X167603550Y-98501576D01*
X167640700Y-98314812D01*
X167640700Y-98124388D01*
X167603550Y-97937624D01*
X167576127Y-97871419D01*
X168692060Y-96755487D01*
X168707010Y-96743218D01*
X168755958Y-96683574D01*
X168792330Y-96615526D01*
X168814728Y-96541691D01*
X168820396Y-96484144D01*
X168822291Y-96464904D01*
X168820396Y-96445664D01*
X168820396Y-94101599D01*
X169728696Y-94101599D01*
X169780978Y-94096450D01*
X169831251Y-94081199D01*
X169877583Y-94056435D01*
X169918194Y-94023107D01*
X169951522Y-93982496D01*
X169976286Y-93936164D01*
X169991537Y-93885891D01*
X169996686Y-93833609D01*
X169996686Y-92733609D01*
X169991537Y-92681327D01*
X169976286Y-92631054D01*
X169951522Y-92584722D01*
X169918194Y-92544111D01*
X169877583Y-92510783D01*
X169831251Y-92486019D01*
X169780978Y-92470768D01*
X169728696Y-92465619D01*
X167928696Y-92465619D01*
X167893644Y-92469071D01*
X167916253Y-92394541D01*
X167926686Y-92288609D01*
X167926686Y-91738609D01*
X167916253Y-91632677D01*
X167893644Y-91558147D01*
X167928696Y-91561599D01*
X168520721Y-91560309D01*
X168587396Y-91493634D01*
X168587396Y-90984909D01*
X169069996Y-90984909D01*
X169069996Y-91493634D01*
X169136671Y-91560309D01*
X169728696Y-91561599D01*
X169780978Y-91556450D01*
X169831251Y-91541199D01*
X169877583Y-91516435D01*
X169918194Y-91483107D01*
X169951522Y-91442496D01*
X169976286Y-91396164D01*
X169991537Y-91345891D01*
X169996686Y-91293609D01*
X169995396Y-91051584D01*
X169928721Y-90984909D01*
X169069996Y-90984909D01*
X168587396Y-90984909D01*
X167728671Y-90984909D01*
X167661996Y-91051584D01*
X167660810Y-91274005D01*
X167591489Y-91236952D01*
X167489628Y-91206052D01*
X167383696Y-91195619D01*
X166133696Y-91195619D01*
X166027764Y-91206052D01*
X165925903Y-91236952D01*
X165832027Y-91287129D01*
X165749744Y-91354657D01*
X165682216Y-91436940D01*
X165632039Y-91530816D01*
X165601139Y-91632677D01*
X165590706Y-91738609D01*
X165227190Y-91738609D01*
X165227190Y-90569600D01*
X165222041Y-90517318D01*
X165206790Y-90467045D01*
X165182026Y-90420713D01*
X165148698Y-90380102D01*
X165108087Y-90346774D01*
X165061755Y-90322010D01*
X165011482Y-90306759D01*
X164959200Y-90301610D01*
X163359200Y-90301610D01*
X163306918Y-90306759D01*
X163256645Y-90322010D01*
X163210313Y-90346774D01*
X163169702Y-90380102D01*
X163136374Y-90420713D01*
X163111610Y-90467045D01*
X163096359Y-90517318D01*
X163091210Y-90569600D01*
X157247741Y-90569600D01*
X157219181Y-90541040D01*
X157044472Y-90424303D01*
X156850345Y-90343893D01*
X156644261Y-90302900D01*
X156434139Y-90302900D01*
X156228055Y-90343893D01*
X156033928Y-90424303D01*
X155859219Y-90541040D01*
X155710640Y-90689619D01*
X155593903Y-90864328D01*
X155513493Y-91058455D01*
X155472500Y-91264539D01*
X154828697Y-91264539D01*
X155899627Y-90193609D01*
X167660706Y-90193609D01*
X167661996Y-90435634D01*
X167728671Y-90502309D01*
X168587396Y-90502309D01*
X168587396Y-89993584D01*
X169069996Y-89993584D01*
X169069996Y-90502309D01*
X169928721Y-90502309D01*
X169995396Y-90435634D01*
X169996686Y-90193609D01*
X169991537Y-90141327D01*
X169976286Y-90091054D01*
X169951522Y-90044722D01*
X169918194Y-90004111D01*
X169877583Y-89970783D01*
X169831251Y-89946019D01*
X169780978Y-89930768D01*
X169728696Y-89925619D01*
X169136671Y-89926909D01*
X169069996Y-89993584D01*
X168587396Y-89993584D01*
X168520721Y-89926909D01*
X167928696Y-89925619D01*
X167876414Y-89930768D01*
X167826141Y-89946019D01*
X167779809Y-89970783D01*
X167739198Y-90004111D01*
X167705870Y-90044722D01*
X167681106Y-90091054D01*
X167665855Y-90141327D01*
X167660706Y-90193609D01*
X155899627Y-90193609D01*
X157361537Y-88731700D01*
X178235117Y-88731700D01*
X177968790Y-88826551D01*
G37*
X177968790Y-88826551D02*
X177720915Y-88959043D01*
X177413105Y-89259895D01*
X179154000Y-91000790D01*
X180894895Y-89259895D01*
X180587085Y-88959043D01*
X180108233Y-88731700D01*
X187628300Y-88731700D01*
X187628301Y-119038300D01*
X179761922Y-119038300D01*
X179825689Y-119028937D01*
X180339210Y-118846049D01*
X180587085Y-118713557D01*
X180894895Y-118412705D01*
X179154000Y-116671810D01*
X177413105Y-118412705D01*
X177720915Y-118713557D01*
X178213351Y-118947349D01*
X178574193Y-119038300D01*
X144541729Y-119038300D01*
X144595689Y-119030377D01*
X145109210Y-118847489D01*
X145357085Y-118714997D01*
X145664895Y-118414145D01*
X143924000Y-116673250D01*
X142183105Y-118414145D01*
X142490915Y-118714997D01*
X142983351Y-118948789D01*
X143338480Y-119038300D01*
X135381700Y-119038300D01*
X135381700Y-116464356D01*
X141146432Y-116464356D01*
X141225623Y-117003689D01*
X141408511Y-117517210D01*
X141541003Y-117765085D01*
X141841855Y-118072895D01*
X143582750Y-116332000D01*
X144265250Y-116332000D01*
X146006145Y-118072895D01*
X146306997Y-117765085D01*
X146540789Y-117272649D01*
X146674020Y-116744064D01*
X146701568Y-116199644D01*
X146695276Y-116156788D01*
X148233300Y-116156788D01*
X148233300Y-116347212D01*
X148270450Y-116533976D01*
X148343322Y-116709904D01*
X148449115Y-116868235D01*
X148583765Y-117002885D01*
X148742096Y-117108678D01*
X148918024Y-117181550D01*
X149104788Y-117218700D01*
X149295212Y-117218700D01*
X149481976Y-117181550D01*
X149657904Y-117108678D01*
X149816235Y-117002885D01*
X149950885Y-116868235D01*
X150056678Y-116709904D01*
X150129550Y-116533976D01*
X150166700Y-116347212D01*
X150166700Y-116156788D01*
X150129550Y-115970024D01*
X150056678Y-115794096D01*
X149950885Y-115635765D01*
X149816235Y-115501115D01*
X149657904Y-115395322D01*
X149481976Y-115322450D01*
X149295212Y-115285300D01*
X149104788Y-115285300D01*
X148918024Y-115322450D01*
X148742096Y-115395322D01*
X148583765Y-115501115D01*
X148449115Y-115635765D01*
X148343322Y-115794096D01*
X148270450Y-115970024D01*
X148233300Y-116156788D01*
X146695276Y-116156788D01*
X146622377Y-115660311D01*
X146439489Y-115146790D01*
X146306997Y-114898915D01*
X146006145Y-114591105D01*
X144265250Y-116332000D01*
X143582750Y-116332000D01*
X141841855Y-114591105D01*
X141541003Y-114898915D01*
X141307211Y-115391351D01*
X141173980Y-115919936D01*
X141146432Y-116464356D01*
X135381700Y-116464356D01*
X135381700Y-114249855D01*
X142183105Y-114249855D01*
X143924000Y-115990750D01*
X145664895Y-114249855D01*
X145357085Y-113949003D01*
X144864649Y-113715211D01*
X144632860Y-113656788D01*
X148233300Y-113656788D01*
X148233300Y-113847212D01*
X148270450Y-114033976D01*
X148343322Y-114209904D01*
X148449115Y-114368235D01*
X148583765Y-114502885D01*
X148742096Y-114608678D01*
X148918024Y-114681550D01*
X149104788Y-114718700D01*
X149295212Y-114718700D01*
X149481976Y-114681550D01*
X149657904Y-114608678D01*
X149816235Y-114502885D01*
X149950885Y-114368235D01*
X150056678Y-114209904D01*
X150129550Y-114033976D01*
X150166700Y-113847212D01*
X150166700Y-113656788D01*
X150129550Y-113470024D01*
X150056678Y-113294096D01*
X149950885Y-113135765D01*
X149816235Y-113001115D01*
X149657904Y-112895322D01*
X149481976Y-112822450D01*
X149295212Y-112785300D01*
X149104788Y-112785300D01*
X148918024Y-112822450D01*
X148742096Y-112895322D01*
X148583765Y-113001115D01*
X148449115Y-113135765D01*
X148343322Y-113294096D01*
X148270450Y-113470024D01*
X148233300Y-113656788D01*
X144632860Y-113656788D01*
X144336064Y-113581980D01*
X143791644Y-113554432D01*
X143252311Y-113633623D01*
X142738790Y-113816511D01*
X142490915Y-113949003D01*
X142183105Y-114249855D01*
X135381700Y-114249855D01*
X135381700Y-111156788D01*
X148233300Y-111156788D01*
X148233300Y-111347212D01*
X148270450Y-111533976D01*
X148343322Y-111709904D01*
X148449115Y-111868235D01*
X148583765Y-112002885D01*
X148742096Y-112108678D01*
X148918024Y-112181550D01*
X149104788Y-112218700D01*
X149295212Y-112218700D01*
X149476661Y-112182607D01*
X150535101Y-113241049D01*
X150535100Y-114788760D01*
X150533205Y-114808000D01*
X150535100Y-114827239D01*
X150540768Y-114884786D01*
X150563166Y-114958621D01*
X150599538Y-115026669D01*
X150648486Y-115086314D01*
X150663441Y-115098587D01*
X151564548Y-115999695D01*
X151533300Y-116156788D01*
X151533300Y-116347212D01*
X151570450Y-116533976D01*
X151643322Y-116709904D01*
X151749115Y-116868235D01*
X151883765Y-117002885D01*
X152042096Y-117108678D01*
X152218024Y-117181550D01*
X152404788Y-117218700D01*
X152595212Y-117218700D01*
X152781976Y-117181550D01*
X152957904Y-117108678D01*
X153116235Y-117002885D01*
X153250885Y-116868235D01*
X153356678Y-116709904D01*
X153429550Y-116533976D01*
X153466700Y-116347212D01*
X153466700Y-116156788D01*
X158901300Y-116156788D01*
X158901300Y-116347212D01*
X158938450Y-116533976D01*
X159011322Y-116709904D01*
X159117115Y-116868235D01*
X159251765Y-117002885D01*
X159410096Y-117108678D01*
X159586024Y-117181550D01*
X159772788Y-117218700D01*
X159963212Y-117218700D01*
X160149976Y-117181550D01*
X160325904Y-117108678D01*
X160484235Y-117002885D01*
X160618885Y-116868235D01*
X160724678Y-116709904D01*
X160797550Y-116533976D01*
X160834700Y-116347212D01*
X160834700Y-116156788D01*
X160797550Y-115970024D01*
X160724678Y-115794096D01*
X160618885Y-115635765D01*
X160484235Y-115501115D01*
X160325904Y-115395322D01*
X160149976Y-115322450D01*
X159963212Y-115285300D01*
X159772788Y-115285300D01*
X159586024Y-115322450D01*
X159410096Y-115395322D01*
X159251765Y-115501115D01*
X159117115Y-115635765D01*
X159011322Y-115794096D01*
X158938450Y-115970024D01*
X158901300Y-116156788D01*
X153466700Y-116156788D01*
X153429550Y-115970024D01*
X153356678Y-115794096D01*
X153250885Y-115635765D01*
X153116235Y-115501115D01*
X152957904Y-115395322D01*
X152781976Y-115322450D01*
X152595212Y-115285300D01*
X152404788Y-115285300D01*
X152218024Y-115322450D01*
X152060462Y-115387715D01*
X151318500Y-114645754D01*
X151318500Y-113656788D01*
X151533300Y-113656788D01*
X151533300Y-113847212D01*
X151570450Y-114033976D01*
X151643322Y-114209904D01*
X151749115Y-114368235D01*
X151883765Y-114502885D01*
X152042096Y-114608678D01*
X152218024Y-114681550D01*
X152404788Y-114718700D01*
X152595212Y-114718700D01*
X152781976Y-114681550D01*
X152957904Y-114608678D01*
X153116235Y-114502885D01*
X153250885Y-114368235D01*
X153356678Y-114209904D01*
X153429550Y-114033976D01*
X153466700Y-113847212D01*
X153466700Y-113656788D01*
X158901300Y-113656788D01*
X158901300Y-113847212D01*
X158938450Y-114033976D01*
X159011322Y-114209904D01*
X159117115Y-114368235D01*
X159251765Y-114502885D01*
X159410096Y-114608678D01*
X159586024Y-114681550D01*
X159772788Y-114718700D01*
X159963212Y-114718700D01*
X160149976Y-114681550D01*
X160325904Y-114608678D01*
X160484235Y-114502885D01*
X160618885Y-114368235D01*
X160724678Y-114209904D01*
X160797550Y-114033976D01*
X160834700Y-113847212D01*
X160834700Y-113656788D01*
X160797550Y-113470024D01*
X160724678Y-113294096D01*
X160618885Y-113135765D01*
X160484235Y-113001115D01*
X160325904Y-112895322D01*
X160149976Y-112822450D01*
X159963212Y-112785300D01*
X159772788Y-112785300D01*
X159586024Y-112822450D01*
X159410096Y-112895322D01*
X159251765Y-113001115D01*
X159117115Y-113135765D01*
X159011322Y-113294096D01*
X158938450Y-113470024D01*
X158901300Y-113656788D01*
X153466700Y-113656788D01*
X153429550Y-113470024D01*
X153356678Y-113294096D01*
X153250885Y-113135765D01*
X153116235Y-113001115D01*
X152957904Y-112895322D01*
X152781976Y-112822450D01*
X152595212Y-112785300D01*
X152404788Y-112785300D01*
X152218024Y-112822450D01*
X152042096Y-112895322D01*
X151883765Y-113001115D01*
X151749115Y-113135765D01*
X151643322Y-113294096D01*
X151570450Y-113470024D01*
X151533300Y-113656788D01*
X151318500Y-113656788D01*
X151318500Y-113098036D01*
X151320395Y-113078799D01*
X151318148Y-113055986D01*
X151312832Y-113002013D01*
X151290434Y-112928178D01*
X151254062Y-112860130D01*
X151205114Y-112800486D01*
X151190169Y-112788221D01*
X150353948Y-111952000D01*
X151532010Y-111952000D01*
X151537159Y-112004282D01*
X151552410Y-112054555D01*
X151577174Y-112100887D01*
X151610502Y-112141498D01*
X151651113Y-112174826D01*
X151697445Y-112199590D01*
X151747718Y-112214841D01*
X151800000Y-112219990D01*
X152192025Y-112218700D01*
X152258700Y-112152025D01*
X152258700Y-111493300D01*
X152741300Y-111493300D01*
X152741300Y-112152025D01*
X152807975Y-112218700D01*
X153200000Y-112219990D01*
X153252282Y-112214841D01*
X153302555Y-112199590D01*
X153348887Y-112174826D01*
X153389498Y-112141498D01*
X153422826Y-112100887D01*
X153447590Y-112054555D01*
X153462841Y-112004282D01*
X153467990Y-111952000D01*
X153466700Y-111559975D01*
X153400025Y-111493300D01*
X152741300Y-111493300D01*
X152258700Y-111493300D01*
X151599975Y-111493300D01*
X151533300Y-111559975D01*
X151532010Y-111952000D01*
X150353948Y-111952000D01*
X150072838Y-111670891D01*
X150129550Y-111533976D01*
X150166700Y-111347212D01*
X150166700Y-111156788D01*
X158901300Y-111156788D01*
X158901300Y-111347212D01*
X158938450Y-111533976D01*
X159011322Y-111709904D01*
X159117115Y-111868235D01*
X159251765Y-112002885D01*
X159410096Y-112108678D01*
X159586024Y-112181550D01*
X159772788Y-112218700D01*
X159963212Y-112218700D01*
X160149976Y-112181550D01*
X160162016Y-112176563D01*
X161126900Y-113141447D01*
X161126901Y-114683350D01*
X161125005Y-114702600D01*
X161132568Y-114779386D01*
X161154967Y-114853222D01*
X161171839Y-114884787D01*
X161191339Y-114921270D01*
X161240287Y-114980914D01*
X161255237Y-114993183D01*
X162237393Y-115975340D01*
X162201300Y-116156788D01*
X162201300Y-116347212D01*
X162238450Y-116533976D01*
X162311322Y-116709904D01*
X162417115Y-116868235D01*
X162551765Y-117002885D01*
X162710096Y-117108678D01*
X162886024Y-117181550D01*
X163072788Y-117218700D01*
X163263212Y-117218700D01*
X163449976Y-117181550D01*
X163625904Y-117108678D01*
X163784235Y-117002885D01*
X163918885Y-116868235D01*
X164024678Y-116709904D01*
X164097550Y-116533976D01*
X164134700Y-116347212D01*
X164134700Y-116156788D01*
X166775300Y-116156788D01*
X166775300Y-116347212D01*
X166812450Y-116533976D01*
X166885322Y-116709904D01*
X166991115Y-116868235D01*
X167125765Y-117002885D01*
X167284096Y-117108678D01*
X167460024Y-117181550D01*
X167646788Y-117218700D01*
X167837212Y-117218700D01*
X168023976Y-117181550D01*
X168199904Y-117108678D01*
X168358235Y-117002885D01*
X168492885Y-116868235D01*
X168598678Y-116709904D01*
X168671550Y-116533976D01*
X168708700Y-116347212D01*
X168708700Y-116156788D01*
X170075300Y-116156788D01*
X170075300Y-116347212D01*
X170112450Y-116533976D01*
X170185322Y-116709904D01*
X170291115Y-116868235D01*
X170425765Y-117002885D01*
X170584096Y-117108678D01*
X170760024Y-117181550D01*
X170946788Y-117218700D01*
X171137212Y-117218700D01*
X171323976Y-117181550D01*
X171499904Y-117108678D01*
X171658235Y-117002885D01*
X171792885Y-116868235D01*
X171898678Y-116709904D01*
X171971550Y-116533976D01*
X171985684Y-116462916D01*
X176376432Y-116462916D01*
X176455623Y-117002249D01*
X176638511Y-117515770D01*
X176771003Y-117763645D01*
X177071855Y-118071455D01*
X178812750Y-116330560D01*
X179495250Y-116330560D01*
X181236145Y-118071455D01*
X181536997Y-117763645D01*
X181770789Y-117271209D01*
X181904020Y-116742624D01*
X181931568Y-116198204D01*
X181852377Y-115658871D01*
X181669489Y-115145350D01*
X181536997Y-114897475D01*
X181236145Y-114589665D01*
X179495250Y-116330560D01*
X178812750Y-116330560D01*
X177071855Y-114589665D01*
X176771003Y-114897475D01*
X176537211Y-115389911D01*
X176403980Y-115918496D01*
X176376432Y-116462916D01*
X171985684Y-116462916D01*
X172008700Y-116347212D01*
X172008700Y-116156788D01*
X171971550Y-115970024D01*
X171898678Y-115794096D01*
X171792885Y-115635765D01*
X171658235Y-115501115D01*
X171499904Y-115395322D01*
X171323976Y-115322450D01*
X171137212Y-115285300D01*
X170946788Y-115285300D01*
X170760024Y-115322450D01*
X170584096Y-115395322D01*
X170425765Y-115501115D01*
X170291115Y-115635765D01*
X170185322Y-115794096D01*
X170112450Y-115970024D01*
X170075300Y-116156788D01*
X168708700Y-116156788D01*
X168671550Y-115970024D01*
X168598678Y-115794096D01*
X168492885Y-115635765D01*
X168358235Y-115501115D01*
X168199904Y-115395322D01*
X168023976Y-115322450D01*
X167837212Y-115285300D01*
X167646788Y-115285300D01*
X167460024Y-115322450D01*
X167284096Y-115395322D01*
X167125765Y-115501115D01*
X166991115Y-115635765D01*
X166885322Y-115794096D01*
X166812450Y-115970024D01*
X166775300Y-116156788D01*
X164134700Y-116156788D01*
X164097550Y-115970024D01*
X164040838Y-115833109D01*
X165730247Y-114143700D01*
X166857899Y-114143700D01*
X166885322Y-114209904D01*
X166991115Y-114368235D01*
X167125765Y-114502885D01*
X167284096Y-114608678D01*
X167460024Y-114681550D01*
X167646788Y-114718700D01*
X167837212Y-114718700D01*
X168023976Y-114681550D01*
X168199904Y-114608678D01*
X168358235Y-114502885D01*
X168492885Y-114368235D01*
X168598678Y-114209904D01*
X168671550Y-114033976D01*
X168708700Y-113847212D01*
X168708700Y-113656788D01*
X170075300Y-113656788D01*
X170075300Y-113847212D01*
X170112450Y-114033976D01*
X170185322Y-114209904D01*
X170291115Y-114368235D01*
X170425765Y-114502885D01*
X170584096Y-114608678D01*
X170760024Y-114681550D01*
X170946788Y-114718700D01*
X171137212Y-114718700D01*
X171323976Y-114681550D01*
X171499904Y-114608678D01*
X171658235Y-114502885D01*
X171792885Y-114368235D01*
X171872945Y-114248415D01*
X177413105Y-114248415D01*
X179154000Y-115989310D01*
X180894895Y-114248415D01*
X180587085Y-113947563D01*
X180094649Y-113713771D01*
X179566064Y-113580540D01*
X179021644Y-113552992D01*
X178482311Y-113632183D01*
X177968790Y-113815071D01*
X177720915Y-113947563D01*
X177413105Y-114248415D01*
X171872945Y-114248415D01*
X171898678Y-114209904D01*
X171971550Y-114033976D01*
X172008700Y-113847212D01*
X172008700Y-113656788D01*
X171971550Y-113470024D01*
X171898678Y-113294096D01*
X171792885Y-113135765D01*
X171658235Y-113001115D01*
X171499904Y-112895322D01*
X171323976Y-112822450D01*
X171137212Y-112785300D01*
X170946788Y-112785300D01*
X170760024Y-112822450D01*
X170584096Y-112895322D01*
X170425765Y-113001115D01*
X170291115Y-113135765D01*
X170185322Y-113294096D01*
X170112450Y-113470024D01*
X170075300Y-113656788D01*
X168708700Y-113656788D01*
X168671550Y-113470024D01*
X168598678Y-113294096D01*
X168492885Y-113135765D01*
X168358235Y-113001115D01*
X168199904Y-112895322D01*
X168023976Y-112822450D01*
X167837212Y-112785300D01*
X167646788Y-112785300D01*
X167460024Y-112822450D01*
X167284096Y-112895322D01*
X167125765Y-113001115D01*
X166991115Y-113135765D01*
X166885322Y-113294096D01*
X166857899Y-113360300D01*
X165587240Y-113360300D01*
X165568000Y-113358405D01*
X165548760Y-113360300D01*
X165491213Y-113365968D01*
X165417378Y-113388366D01*
X165349330Y-113424738D01*
X165289686Y-113473686D01*
X165277417Y-113488636D01*
X163444661Y-115321393D01*
X163263212Y-115285300D01*
X163072788Y-115285300D01*
X162886024Y-115322450D01*
X162749109Y-115379162D01*
X161910300Y-114540354D01*
X161910300Y-113656788D01*
X162201300Y-113656788D01*
X162201300Y-113847212D01*
X162238450Y-114033976D01*
X162311322Y-114209904D01*
X162417115Y-114368235D01*
X162551765Y-114502885D01*
X162710096Y-114608678D01*
X162886024Y-114681550D01*
X163072788Y-114718700D01*
X163263212Y-114718700D01*
X163449976Y-114681550D01*
X163625904Y-114608678D01*
X163784235Y-114502885D01*
X163918885Y-114368235D01*
X164024678Y-114209904D01*
X164097550Y-114033976D01*
X164134700Y-113847212D01*
X164134700Y-113656788D01*
X164097550Y-113470024D01*
X164024678Y-113294096D01*
X163918885Y-113135765D01*
X163784235Y-113001115D01*
X163625904Y-112895322D01*
X163449976Y-112822450D01*
X163263212Y-112785300D01*
X163072788Y-112785300D01*
X162886024Y-112822450D01*
X162710096Y-112895322D01*
X162551765Y-113001115D01*
X162417115Y-113135765D01*
X162311322Y-113294096D01*
X162238450Y-113470024D01*
X162201300Y-113656788D01*
X161910300Y-113656788D01*
X161910300Y-112998440D01*
X161912195Y-112979200D01*
X161904632Y-112902414D01*
X161882234Y-112828578D01*
X161875206Y-112815430D01*
X161845862Y-112760530D01*
X161796914Y-112700886D01*
X161781965Y-112688618D01*
X160747691Y-111654345D01*
X160797550Y-111533976D01*
X160834700Y-111347212D01*
X160834700Y-111156788D01*
X160797550Y-110970024D01*
X160724678Y-110794096D01*
X160618885Y-110635765D01*
X160535120Y-110552000D01*
X162200010Y-110552000D01*
X162200010Y-111952000D01*
X162205159Y-112004282D01*
X162220410Y-112054555D01*
X162245174Y-112100887D01*
X162278502Y-112141498D01*
X162319113Y-112174826D01*
X162365445Y-112199590D01*
X162415718Y-112214841D01*
X162468000Y-112219990D01*
X163868000Y-112219990D01*
X163920282Y-112214841D01*
X163970555Y-112199590D01*
X164016887Y-112174826D01*
X164057498Y-112141498D01*
X164090826Y-112100887D01*
X164115590Y-112054555D01*
X164130841Y-112004282D01*
X164135990Y-111952000D01*
X164135990Y-111156788D01*
X166775300Y-111156788D01*
X166775300Y-111347212D01*
X166812450Y-111533976D01*
X166885322Y-111709904D01*
X166991115Y-111868235D01*
X167125765Y-112002885D01*
X167284096Y-112108678D01*
X167460024Y-112181550D01*
X167646788Y-112218700D01*
X167837212Y-112218700D01*
X168023976Y-112181550D01*
X168199904Y-112108678D01*
X168358235Y-112002885D01*
X168492885Y-111868235D01*
X168598678Y-111709904D01*
X168671550Y-111533976D01*
X168708700Y-111347212D01*
X168708700Y-111156788D01*
X168671550Y-110970024D01*
X168598678Y-110794096D01*
X168492885Y-110635765D01*
X168409120Y-110552000D01*
X170074010Y-110552000D01*
X170074010Y-111952000D01*
X170079159Y-112004282D01*
X170094410Y-112054555D01*
X170119174Y-112100887D01*
X170152502Y-112141498D01*
X170193113Y-112174826D01*
X170239445Y-112199590D01*
X170289718Y-112214841D01*
X170342000Y-112219990D01*
X171742000Y-112219990D01*
X171794282Y-112214841D01*
X171844555Y-112199590D01*
X171890887Y-112174826D01*
X171931498Y-112141498D01*
X171964826Y-112100887D01*
X171989590Y-112054555D01*
X172004841Y-112004282D01*
X172009990Y-111952000D01*
X172009990Y-110552000D01*
X172004841Y-110499718D01*
X171989590Y-110449445D01*
X171964826Y-110403113D01*
X171931498Y-110362502D01*
X171890887Y-110329174D01*
X171844555Y-110304410D01*
X171794282Y-110289159D01*
X171742000Y-110284010D01*
X170342000Y-110284010D01*
X170289718Y-110289159D01*
X170239445Y-110304410D01*
X170193113Y-110329174D01*
X170152502Y-110362502D01*
X170119174Y-110403113D01*
X170094410Y-110449445D01*
X170079159Y-110499718D01*
X170074010Y-110552000D01*
X168409120Y-110552000D01*
X168358235Y-110501115D01*
X168199904Y-110395322D01*
X168023976Y-110322450D01*
X167837212Y-110285300D01*
X167646788Y-110285300D01*
X167460024Y-110322450D01*
X167284096Y-110395322D01*
X167125765Y-110501115D01*
X166991115Y-110635765D01*
X166885322Y-110794096D01*
X166812450Y-110970024D01*
X166775300Y-111156788D01*
X164135990Y-111156788D01*
X164135990Y-110552000D01*
X164130841Y-110499718D01*
X164115590Y-110449445D01*
X164090826Y-110403113D01*
X164057498Y-110362502D01*
X164016887Y-110329174D01*
X163970555Y-110304410D01*
X163920282Y-110289159D01*
X163868000Y-110284010D01*
X162468000Y-110284010D01*
X162415718Y-110289159D01*
X162365445Y-110304410D01*
X162319113Y-110329174D01*
X162278502Y-110362502D01*
X162245174Y-110403113D01*
X162220410Y-110449445D01*
X162205159Y-110499718D01*
X162200010Y-110552000D01*
X160535120Y-110552000D01*
X160484235Y-110501115D01*
X160325904Y-110395322D01*
X160149976Y-110322450D01*
X159963212Y-110285300D01*
X159772788Y-110285300D01*
X159586024Y-110322450D01*
X159410096Y-110395322D01*
X159251765Y-110501115D01*
X159117115Y-110635765D01*
X159011322Y-110794096D01*
X158938450Y-110970024D01*
X158901300Y-111156788D01*
X150166700Y-111156788D01*
X150129550Y-110970024D01*
X150056678Y-110794096D01*
X149950885Y-110635765D01*
X149867120Y-110552000D01*
X151532010Y-110552000D01*
X151533300Y-110944025D01*
X151599975Y-111010700D01*
X152258700Y-111010700D01*
X152258700Y-110351975D01*
X152741300Y-110351975D01*
X152741300Y-111010700D01*
X153400025Y-111010700D01*
X153466700Y-110944025D01*
X153467990Y-110552000D01*
X153462841Y-110499718D01*
X153447590Y-110449445D01*
X153422826Y-110403113D01*
X153389498Y-110362502D01*
X153348887Y-110329174D01*
X153302555Y-110304410D01*
X153252282Y-110289159D01*
X153200000Y-110284010D01*
X152807975Y-110285300D01*
X152741300Y-110351975D01*
X152258700Y-110351975D01*
X152192025Y-110285300D01*
X151800000Y-110284010D01*
X151747718Y-110289159D01*
X151697445Y-110304410D01*
X151651113Y-110329174D01*
X151610502Y-110362502D01*
X151577174Y-110403113D01*
X151552410Y-110449445D01*
X151537159Y-110499718D01*
X151532010Y-110552000D01*
X149867120Y-110552000D01*
X149816235Y-110501115D01*
X149657904Y-110395322D01*
X149481976Y-110322450D01*
X149295212Y-110285300D01*
X149104788Y-110285300D01*
X148918024Y-110322450D01*
X148742096Y-110395322D01*
X148583765Y-110501115D01*
X148449115Y-110635765D01*
X148343322Y-110794096D01*
X148270450Y-110970024D01*
X148233300Y-111156788D01*
X135381700Y-111156788D01*
X135381700Y-109377480D01*
X144171808Y-109377480D01*
X144191449Y-109576900D01*
X144249618Y-109768656D01*
X144344078Y-109945379D01*
X144471201Y-110100279D01*
X144626101Y-110227402D01*
X144802824Y-110321862D01*
X144994580Y-110380031D01*
X145144026Y-110394750D01*
X145741814Y-110394750D01*
X145891260Y-110380031D01*
X146083016Y-110321862D01*
X146259739Y-110227402D01*
X146414639Y-110100279D01*
X146541762Y-109945379D01*
X146636222Y-109768656D01*
X146694391Y-109576900D01*
X146714032Y-109377480D01*
X146694391Y-109178060D01*
X146636222Y-108986304D01*
X146541762Y-108809581D01*
X146414639Y-108654681D01*
X146259739Y-108527558D01*
X146083016Y-108433098D01*
X145891260Y-108374929D01*
X145741814Y-108360210D01*
X145144026Y-108360210D01*
X144994580Y-108374929D01*
X144802824Y-108433098D01*
X144626101Y-108527558D01*
X144471201Y-108654681D01*
X144344078Y-108809581D01*
X144249618Y-108986304D01*
X144191449Y-109178060D01*
X144171808Y-109377480D01*
X135381700Y-109377480D01*
X135381700Y-107993180D01*
X141133968Y-107993180D01*
X141153609Y-108192600D01*
X141211778Y-108384356D01*
X141306238Y-108561079D01*
X141433361Y-108715979D01*
X141588261Y-108843102D01*
X141764984Y-108937562D01*
X141956740Y-108995731D01*
X142106186Y-109010450D01*
X142703974Y-109010450D01*
X142853420Y-108995731D01*
X143045176Y-108937562D01*
X143221899Y-108843102D01*
X143376799Y-108715979D01*
X143503922Y-108561079D01*
X143598382Y-108384356D01*
X143656551Y-108192600D01*
X143676192Y-107993180D01*
X143656551Y-107793760D01*
X143598382Y-107602004D01*
X143503922Y-107425281D01*
X143376799Y-107270381D01*
X143221899Y-107143258D01*
X143045176Y-107048798D01*
X142853420Y-106990629D01*
X142703974Y-106975910D01*
X142106186Y-106975910D01*
X141956740Y-106990629D01*
X141764984Y-107048798D01*
X141588261Y-107143258D01*
X141433361Y-107270381D01*
X141306238Y-107425281D01*
X141211778Y-107602004D01*
X141153609Y-107793760D01*
X141133968Y-107993180D01*
X135381700Y-107993180D01*
X135381700Y-105222040D01*
X141133968Y-105222040D01*
X141153609Y-105421460D01*
X141211778Y-105613216D01*
X141306238Y-105789939D01*
X141433361Y-105944839D01*
X141588261Y-106071962D01*
X141764984Y-106166422D01*
X141956740Y-106224591D01*
X142106186Y-106239310D01*
X142703974Y-106239310D01*
X142853420Y-106224591D01*
X143045176Y-106166422D01*
X143221899Y-106071962D01*
X143376799Y-105944839D01*
X143503922Y-105789939D01*
X143531288Y-105738740D01*
X144663926Y-105738740D01*
X144626101Y-105758958D01*
X144471201Y-105886081D01*
X144344078Y-106040981D01*
X144249618Y-106217704D01*
X144191449Y-106409460D01*
X144171808Y-106608880D01*
X144191449Y-106808300D01*
X144249618Y-107000056D01*
X144344078Y-107176779D01*
X144471201Y-107331679D01*
X144626101Y-107458802D01*
X144802824Y-107553262D01*
X144994580Y-107611431D01*
X145144026Y-107626150D01*
X145741814Y-107626150D01*
X145891260Y-107611431D01*
X146083016Y-107553262D01*
X146259739Y-107458802D01*
X146414639Y-107331679D01*
X146541762Y-107176779D01*
X146636222Y-107000056D01*
X146694391Y-106808300D01*
X146714032Y-106608880D01*
X146694391Y-106409460D01*
X146636222Y-106217704D01*
X146541762Y-106040981D01*
X146414639Y-105886081D01*
X146259739Y-105758958D01*
X146221914Y-105738740D01*
X152608017Y-105738740D01*
X154404692Y-107535417D01*
X154420870Y-107555130D01*
X154440583Y-107571308D01*
X154440586Y-107571311D01*
X154499547Y-107619699D01*
X154547526Y-107645344D01*
X154589311Y-107667678D01*
X154686709Y-107697224D01*
X154762616Y-107704700D01*
X154762618Y-107704700D01*
X154787999Y-107707200D01*
X154813380Y-107704700D01*
X166662619Y-107704700D01*
X166688000Y-107707200D01*
X166713381Y-107704700D01*
X170463977Y-107704700D01*
X174476688Y-111717412D01*
X174492870Y-111737130D01*
X174512587Y-111753311D01*
X174571547Y-111801699D01*
X174619526Y-111827344D01*
X174661311Y-111849678D01*
X174758709Y-111879224D01*
X174834616Y-111886700D01*
X174834618Y-111886700D01*
X174859999Y-111889200D01*
X174885380Y-111886700D01*
X180724619Y-111886700D01*
X180750000Y-111889200D01*
X180775381Y-111886700D01*
X180775384Y-111886700D01*
X180851291Y-111879224D01*
X180948689Y-111849678D01*
X181038452Y-111801699D01*
X181117130Y-111737130D01*
X181133317Y-111717406D01*
X183387412Y-109463312D01*
X183407130Y-109447130D01*
X183433976Y-109414418D01*
X183471699Y-109368453D01*
X183519677Y-109278690D01*
X183519678Y-109278689D01*
X183549224Y-109181291D01*
X183556700Y-109105384D01*
X183556700Y-109105382D01*
X183559200Y-109080001D01*
X183556700Y-109054620D01*
X183556700Y-99285381D01*
X183559200Y-99260000D01*
X183551941Y-99186300D01*
X183549224Y-99158709D01*
X183519678Y-99061311D01*
X183497254Y-99019359D01*
X183471699Y-98971547D01*
X183423311Y-98912587D01*
X183407130Y-98892870D01*
X183387412Y-98876688D01*
X182459877Y-97949154D01*
X182443690Y-97929430D01*
X182365012Y-97864861D01*
X182275249Y-97816882D01*
X182177851Y-97787336D01*
X182101944Y-97779860D01*
X182101941Y-97779860D01*
X182076560Y-97777360D01*
X182051179Y-97779860D01*
X178761288Y-97779860D01*
X178733922Y-97728661D01*
X178606799Y-97573761D01*
X178451899Y-97446638D01*
X178275176Y-97352178D01*
X178083420Y-97294009D01*
X177933974Y-97279290D01*
X177336186Y-97279290D01*
X177186740Y-97294009D01*
X176994984Y-97352178D01*
X176818261Y-97446638D01*
X176663361Y-97573761D01*
X176536238Y-97728661D01*
X176508872Y-97779860D01*
X175158202Y-97779860D01*
X175150678Y-97761696D01*
X175044885Y-97603365D01*
X174910235Y-97468715D01*
X174810700Y-97402208D01*
X174810700Y-96736992D01*
X174910235Y-96670485D01*
X175044885Y-96535835D01*
X175150678Y-96377504D01*
X175223550Y-96201576D01*
X175260700Y-96014812D01*
X175260700Y-95824388D01*
X175223550Y-95637624D01*
X175150678Y-95461696D01*
X175044885Y-95303365D01*
X174910235Y-95168715D01*
X174751904Y-95062922D01*
X174575976Y-94990050D01*
X174389212Y-94952900D01*
X174198788Y-94952900D01*
X174012024Y-94990050D01*
X173836096Y-95062922D01*
X173677765Y-95168715D01*
X173543115Y-95303365D01*
X173437322Y-95461696D01*
X173364450Y-95637624D01*
X173327300Y-95824388D01*
X173327300Y-96014812D01*
X173364450Y-96201576D01*
X173437322Y-96377504D01*
X173543115Y-96535835D01*
X173677765Y-96670485D01*
X173777301Y-96736992D01*
X173777300Y-97402208D01*
X173677765Y-97468715D01*
X173543115Y-97603365D01*
X173437322Y-97761696D01*
X173364450Y-97937624D01*
X173327300Y-98124388D01*
X173327300Y-98314812D01*
X173364450Y-98501576D01*
X173437322Y-98677504D01*
X173543115Y-98835835D01*
X173677765Y-98970485D01*
X173777300Y-99036992D01*
X173777301Y-99702208D01*
X173677765Y-99768715D01*
X173543115Y-99903365D01*
X173437322Y-100061696D01*
X173364450Y-100237624D01*
X173327300Y-100424388D01*
X173327300Y-100614812D01*
X173364450Y-100801576D01*
X173437322Y-100977504D01*
X173543115Y-101135835D01*
X173677765Y-101270485D01*
X173777300Y-101336992D01*
X173777301Y-102002208D01*
X173677765Y-102068715D01*
X173543115Y-102203365D01*
X173437322Y-102361696D01*
X173364450Y-102537624D01*
X173327300Y-102724388D01*
X173327300Y-102914812D01*
X173364450Y-103101576D01*
X173437322Y-103277504D01*
X173543115Y-103435835D01*
X173677765Y-103570485D01*
X173836096Y-103676278D01*
X174012024Y-103749150D01*
X174198788Y-103786300D01*
X174389212Y-103786300D01*
X174575976Y-103749150D01*
X174751904Y-103676278D01*
X174910235Y-103570485D01*
X175044885Y-103435835D01*
X175150678Y-103277504D01*
X175223550Y-103101576D01*
X175260700Y-102914812D01*
X175260700Y-102724388D01*
X175223550Y-102537624D01*
X175150678Y-102361696D01*
X175044885Y-102203365D01*
X174910235Y-102068715D01*
X174810700Y-102002208D01*
X174810700Y-101336992D01*
X174910235Y-101270485D01*
X175044885Y-101135835D01*
X175092108Y-101065160D01*
X176363968Y-101065160D01*
X176383609Y-101264580D01*
X176441778Y-101456336D01*
X176536238Y-101633059D01*
X176663361Y-101787959D01*
X176818261Y-101915082D01*
X176994984Y-102009542D01*
X177186740Y-102067711D01*
X177336186Y-102082430D01*
X177933974Y-102082430D01*
X178083420Y-102067711D01*
X178111885Y-102059076D01*
X179485677Y-102059076D01*
X179504541Y-102210700D01*
X180431620Y-102210700D01*
X180431620Y-101500502D01*
X180914220Y-101500502D01*
X180914220Y-102210700D01*
X181841299Y-102210700D01*
X181860163Y-102059076D01*
X181843296Y-102018812D01*
X181741080Y-101847368D01*
X181607381Y-101699160D01*
X181447337Y-101579883D01*
X181267098Y-101494121D01*
X181073591Y-101445170D01*
X180914220Y-101500502D01*
X180431620Y-101500502D01*
X180272249Y-101445170D01*
X180078742Y-101494121D01*
X179898503Y-101579883D01*
X179738459Y-101699160D01*
X179604760Y-101847368D01*
X179502544Y-102018812D01*
X179485677Y-102059076D01*
X178111885Y-102059076D01*
X178275176Y-102009542D01*
X178451899Y-101915082D01*
X178606799Y-101787959D01*
X178733922Y-101633059D01*
X178828382Y-101456336D01*
X178886551Y-101264580D01*
X178906192Y-101065160D01*
X178886551Y-100865740D01*
X178828382Y-100673984D01*
X178733922Y-100497261D01*
X178606799Y-100342361D01*
X178451899Y-100215238D01*
X178275176Y-100120778D01*
X178083420Y-100062609D01*
X177933974Y-100047890D01*
X177336186Y-100047890D01*
X177186740Y-100062609D01*
X176994984Y-100120778D01*
X176818261Y-100215238D01*
X176663361Y-100342361D01*
X176536238Y-100497261D01*
X176441778Y-100673984D01*
X176383609Y-100865740D01*
X176363968Y-101065160D01*
X175092108Y-101065160D01*
X175150678Y-100977504D01*
X175223550Y-100801576D01*
X175260700Y-100614812D01*
X175260700Y-100424388D01*
X175223550Y-100237624D01*
X175150678Y-100061696D01*
X175044885Y-99903365D01*
X174910235Y-99768715D01*
X174810700Y-99702208D01*
X174810700Y-99036992D01*
X174910235Y-98970485D01*
X175044885Y-98835835D01*
X175059969Y-98813260D01*
X176508872Y-98813260D01*
X176536238Y-98864459D01*
X176663361Y-99019359D01*
X176818261Y-99146482D01*
X176994984Y-99240942D01*
X177186740Y-99299111D01*
X177336186Y-99313830D01*
X177933974Y-99313830D01*
X178083420Y-99299111D01*
X178275176Y-99240942D01*
X178451899Y-99146482D01*
X178606799Y-99019359D01*
X178733922Y-98864459D01*
X178761288Y-98813260D01*
X179889174Y-98813260D01*
X179856101Y-98830938D01*
X179701201Y-98958061D01*
X179574078Y-99112961D01*
X179479618Y-99289684D01*
X179421449Y-99481440D01*
X179401808Y-99680860D01*
X179421449Y-99880280D01*
X179479618Y-100072036D01*
X179574078Y-100248759D01*
X179701201Y-100403659D01*
X179856101Y-100530782D01*
X180032824Y-100625242D01*
X180224580Y-100683411D01*
X180374026Y-100698130D01*
X180971814Y-100698130D01*
X181121260Y-100683411D01*
X181313016Y-100625242D01*
X181489739Y-100530782D01*
X181644639Y-100403659D01*
X181771762Y-100248759D01*
X181866222Y-100072036D01*
X181924391Y-99880280D01*
X181944032Y-99680860D01*
X181924391Y-99481440D01*
X181866222Y-99289684D01*
X181771762Y-99112961D01*
X181644639Y-98958061D01*
X181489739Y-98830938D01*
X181456666Y-98813260D01*
X181862537Y-98813260D01*
X182523301Y-99474025D01*
X182523300Y-108865976D01*
X180535977Y-110853300D01*
X175074024Y-110853300D01*
X173596764Y-109376040D01*
X176363968Y-109376040D01*
X176383609Y-109575460D01*
X176441778Y-109767216D01*
X176536238Y-109943939D01*
X176663361Y-110098839D01*
X176818261Y-110225962D01*
X176994984Y-110320422D01*
X177186740Y-110378591D01*
X177336186Y-110393310D01*
X177933974Y-110393310D01*
X178083420Y-110378591D01*
X178275176Y-110320422D01*
X178451899Y-110225962D01*
X178606799Y-110098839D01*
X178733922Y-109943939D01*
X178828382Y-109767216D01*
X178886551Y-109575460D01*
X178906192Y-109376040D01*
X178886551Y-109176620D01*
X178828382Y-108984864D01*
X178733922Y-108808141D01*
X178606799Y-108653241D01*
X178451899Y-108526118D01*
X178275176Y-108431658D01*
X178083420Y-108373489D01*
X177933974Y-108358770D01*
X177336186Y-108358770D01*
X177186740Y-108373489D01*
X176994984Y-108431658D01*
X176818261Y-108526118D01*
X176663361Y-108653241D01*
X176536238Y-108808141D01*
X176441778Y-108984864D01*
X176383609Y-109176620D01*
X176363968Y-109376040D01*
X173596764Y-109376040D01*
X172212464Y-107991740D01*
X179401808Y-107991740D01*
X179421449Y-108191160D01*
X179479618Y-108382916D01*
X179574078Y-108559639D01*
X179701201Y-108714539D01*
X179856101Y-108841662D01*
X180032824Y-108936122D01*
X180224580Y-108994291D01*
X180374026Y-109009010D01*
X180971814Y-109009010D01*
X181121260Y-108994291D01*
X181313016Y-108936122D01*
X181489739Y-108841662D01*
X181644639Y-108714539D01*
X181771762Y-108559639D01*
X181866222Y-108382916D01*
X181924391Y-108191160D01*
X181944032Y-107991740D01*
X181924391Y-107792320D01*
X181866222Y-107600564D01*
X181771762Y-107423841D01*
X181644639Y-107268941D01*
X181489739Y-107141818D01*
X181313016Y-107047358D01*
X181121260Y-106989189D01*
X180971814Y-106974470D01*
X180374026Y-106974470D01*
X180224580Y-106989189D01*
X180032824Y-107047358D01*
X179856101Y-107141818D01*
X179701201Y-107268941D01*
X179574078Y-107423841D01*
X179479618Y-107600564D01*
X179421449Y-107792320D01*
X179401808Y-107991740D01*
X172212464Y-107991740D01*
X171061317Y-106840594D01*
X171045130Y-106820870D01*
X170966452Y-106756301D01*
X170876689Y-106708322D01*
X170779291Y-106678776D01*
X170703384Y-106671300D01*
X170703381Y-106671300D01*
X170678000Y-106668800D01*
X170652619Y-106671300D01*
X166796793Y-106671300D01*
X166775290Y-106664777D01*
X166674000Y-106654800D01*
X166572710Y-106664777D01*
X166551207Y-106671300D01*
X155002025Y-106671300D01*
X154938165Y-106607440D01*
X176363968Y-106607440D01*
X176383609Y-106806860D01*
X176441778Y-106998616D01*
X176536238Y-107175339D01*
X176663361Y-107330239D01*
X176818261Y-107457362D01*
X176994984Y-107551822D01*
X177186740Y-107609991D01*
X177336186Y-107624710D01*
X177933974Y-107624710D01*
X178083420Y-107609991D01*
X178275176Y-107551822D01*
X178451899Y-107457362D01*
X178606799Y-107330239D01*
X178733922Y-107175339D01*
X178828382Y-106998616D01*
X178886551Y-106806860D01*
X178906192Y-106607440D01*
X178886551Y-106408020D01*
X178828382Y-106216264D01*
X178733922Y-106039541D01*
X178606799Y-105884641D01*
X178451899Y-105757518D01*
X178275176Y-105663058D01*
X178083420Y-105604889D01*
X177933974Y-105590170D01*
X177336186Y-105590170D01*
X177186740Y-105604889D01*
X176994984Y-105663058D01*
X176818261Y-105757518D01*
X176663361Y-105884641D01*
X176536238Y-106039541D01*
X176441778Y-106216264D01*
X176383609Y-106408020D01*
X176363968Y-106607440D01*
X154938165Y-106607440D01*
X153345263Y-105014539D01*
X155460500Y-105014539D01*
X155460500Y-105224661D01*
X155501493Y-105430745D01*
X155581903Y-105624872D01*
X155698640Y-105799581D01*
X155847219Y-105948160D01*
X156021928Y-106064897D01*
X156216055Y-106145307D01*
X156422139Y-106186300D01*
X156632261Y-106186300D01*
X156838345Y-106145307D01*
X157032472Y-106064897D01*
X157207181Y-105948160D01*
X157355760Y-105799581D01*
X157472497Y-105624872D01*
X157552907Y-105430745D01*
X157593900Y-105224661D01*
X157593900Y-105014539D01*
X157552907Y-104808455D01*
X157472497Y-104614328D01*
X157355760Y-104439619D01*
X157235741Y-104319600D01*
X163079210Y-104319600D01*
X163079210Y-105919600D01*
X163084359Y-105971882D01*
X163099610Y-106022155D01*
X163124374Y-106068487D01*
X163157702Y-106109098D01*
X163198313Y-106142426D01*
X163244645Y-106167190D01*
X163294918Y-106182441D01*
X163347200Y-106187590D01*
X164947200Y-106187590D01*
X164999482Y-106182441D01*
X165049755Y-106167190D01*
X165096087Y-106142426D01*
X165136698Y-106109098D01*
X165170026Y-106068487D01*
X165194790Y-106022155D01*
X165210041Y-105971882D01*
X165215190Y-105919600D01*
X165215190Y-104319600D01*
X165210041Y-104267318D01*
X165194790Y-104217045D01*
X165170026Y-104170713D01*
X165136698Y-104130102D01*
X165096087Y-104096774D01*
X165049755Y-104072010D01*
X164999482Y-104056759D01*
X164947200Y-104051610D01*
X163347200Y-104051610D01*
X163294918Y-104056759D01*
X163244645Y-104072010D01*
X163198313Y-104096774D01*
X163157702Y-104130102D01*
X163124374Y-104170713D01*
X163099610Y-104217045D01*
X163084359Y-104267318D01*
X163079210Y-104319600D01*
X157235741Y-104319600D01*
X157207181Y-104291040D01*
X157032472Y-104174303D01*
X156838345Y-104093893D01*
X156632261Y-104052900D01*
X156422139Y-104052900D01*
X156216055Y-104093893D01*
X156021928Y-104174303D01*
X155847219Y-104291040D01*
X155698640Y-104439619D01*
X155581903Y-104614328D01*
X155501493Y-104808455D01*
X155460500Y-105014539D01*
X153345263Y-105014539D01*
X153205357Y-104874634D01*
X153189170Y-104854910D01*
X153110492Y-104790341D01*
X153020729Y-104742362D01*
X152923331Y-104712816D01*
X152847424Y-104705340D01*
X152847421Y-104705340D01*
X152822040Y-104702840D01*
X152796659Y-104705340D01*
X146226666Y-104705340D01*
X146259739Y-104687662D01*
X146414639Y-104560539D01*
X146541762Y-104405639D01*
X146636222Y-104228916D01*
X146694391Y-104037160D01*
X146714032Y-103837740D01*
X146694391Y-103638320D01*
X146636222Y-103446564D01*
X146541762Y-103269841D01*
X146414639Y-103114941D01*
X146259739Y-102987818D01*
X146083016Y-102893358D01*
X145891260Y-102835189D01*
X145741814Y-102820470D01*
X145144026Y-102820470D01*
X144994580Y-102835189D01*
X144802824Y-102893358D01*
X144626101Y-102987818D01*
X144471201Y-103114941D01*
X144344078Y-103269841D01*
X144249618Y-103446564D01*
X144191449Y-103638320D01*
X144171808Y-103837740D01*
X144191449Y-104037160D01*
X144249618Y-104228916D01*
X144344078Y-104405639D01*
X144471201Y-104560539D01*
X144626101Y-104687662D01*
X144659174Y-104705340D01*
X143531288Y-104705340D01*
X143503922Y-104654141D01*
X143376799Y-104499241D01*
X143221899Y-104372118D01*
X143045176Y-104277658D01*
X142853420Y-104219489D01*
X142703974Y-104204770D01*
X142106186Y-104204770D01*
X141956740Y-104219489D01*
X141764984Y-104277658D01*
X141588261Y-104372118D01*
X141433361Y-104499241D01*
X141306238Y-104654141D01*
X141211778Y-104830864D01*
X141153609Y-105022620D01*
X141133968Y-105222040D01*
X135381700Y-105222040D01*
X135381700Y-102846364D01*
X141217837Y-102846364D01*
X141234704Y-102886628D01*
X141336920Y-103058072D01*
X141470619Y-103206280D01*
X141630663Y-103325557D01*
X141810902Y-103411319D01*
X142004409Y-103460270D01*
X142163780Y-103404938D01*
X142163780Y-102694740D01*
X142646380Y-102694740D01*
X142646380Y-103404938D01*
X142805751Y-103460270D01*
X142999258Y-103411319D01*
X143179497Y-103325557D01*
X143339541Y-103206280D01*
X143473240Y-103058072D01*
X143575456Y-102886628D01*
X143592323Y-102846364D01*
X143573459Y-102694740D01*
X142646380Y-102694740D01*
X142163780Y-102694740D01*
X141236701Y-102694740D01*
X141217837Y-102846364D01*
X135381700Y-102846364D01*
X135381700Y-102264539D01*
X155472500Y-102264539D01*
X155472500Y-102474661D01*
X155513493Y-102680745D01*
X155593903Y-102874872D01*
X155710640Y-103049581D01*
X155859219Y-103198160D01*
X156033928Y-103314897D01*
X156228055Y-103395307D01*
X156434139Y-103436300D01*
X156644261Y-103436300D01*
X156850345Y-103395307D01*
X157044472Y-103314897D01*
X157219181Y-103198160D01*
X157367760Y-103049581D01*
X157484497Y-102874872D01*
X157564907Y-102680745D01*
X157605900Y-102474661D01*
X157605900Y-102264539D01*
X157564907Y-102058455D01*
X157484497Y-101864328D01*
X157367760Y-101689619D01*
X157247741Y-101569600D01*
X163091210Y-101569600D01*
X163091210Y-103169600D01*
X163096359Y-103221882D01*
X163111610Y-103272155D01*
X163136374Y-103318487D01*
X163169702Y-103359098D01*
X163210313Y-103392426D01*
X163256645Y-103417190D01*
X163306918Y-103432441D01*
X163359200Y-103437590D01*
X164959200Y-103437590D01*
X165011482Y-103432441D01*
X165061755Y-103417190D01*
X165108087Y-103392426D01*
X165148698Y-103359098D01*
X165182026Y-103318487D01*
X165206790Y-103272155D01*
X165222041Y-103221882D01*
X165227190Y-103169600D01*
X165227190Y-102724388D01*
X165707300Y-102724388D01*
X165707300Y-102914812D01*
X165744450Y-103101576D01*
X165817322Y-103277504D01*
X165923115Y-103435835D01*
X166057765Y-103570485D01*
X166216096Y-103676278D01*
X166282300Y-103703701D01*
X166282301Y-104235499D01*
X166216096Y-104262922D01*
X166057765Y-104368715D01*
X165923115Y-104503365D01*
X165817322Y-104661696D01*
X165744450Y-104837624D01*
X165707300Y-105024388D01*
X165707300Y-105214812D01*
X165744450Y-105401576D01*
X165817322Y-105577504D01*
X165923115Y-105735835D01*
X166057765Y-105870485D01*
X166216096Y-105976278D01*
X166392024Y-106049150D01*
X166578788Y-106086300D01*
X166769212Y-106086300D01*
X166955976Y-106049150D01*
X167131904Y-105976278D01*
X167290235Y-105870485D01*
X167424885Y-105735835D01*
X167530678Y-105577504D01*
X167603550Y-105401576D01*
X167640700Y-105214812D01*
X167640700Y-105024388D01*
X167603550Y-104837624D01*
X167530678Y-104661696D01*
X167424885Y-104503365D01*
X167290235Y-104368715D01*
X167131904Y-104262922D01*
X167065700Y-104235499D01*
X167065700Y-103703701D01*
X167131904Y-103676278D01*
X167290235Y-103570485D01*
X167424885Y-103435835D01*
X167530678Y-103277504D01*
X167603550Y-103101576D01*
X167640700Y-102914812D01*
X167640700Y-102724388D01*
X167603550Y-102537624D01*
X167530678Y-102361696D01*
X167424885Y-102203365D01*
X167290235Y-102068715D01*
X167131904Y-101962922D01*
X166955976Y-101890050D01*
X166769212Y-101852900D01*
X166578788Y-101852900D01*
X166392024Y-101890050D01*
X166216096Y-101962922D01*
X166057765Y-102068715D01*
X165923115Y-102203365D01*
X165817322Y-102361696D01*
X165744450Y-102537624D01*
X165707300Y-102724388D01*
X165227190Y-102724388D01*
X165227190Y-101569600D01*
X165222041Y-101517318D01*
X165206790Y-101467045D01*
X165182026Y-101420713D01*
X165148698Y-101380102D01*
X165108087Y-101346774D01*
X165061755Y-101322010D01*
X165011482Y-101306759D01*
X164959200Y-101301610D01*
X163359200Y-101301610D01*
X163306918Y-101306759D01*
X163256645Y-101322010D01*
X163210313Y-101346774D01*
X163169702Y-101380102D01*
X163136374Y-101420713D01*
X163111610Y-101467045D01*
X163096359Y-101517318D01*
X163091210Y-101569600D01*
X157247741Y-101569600D01*
X157219181Y-101541040D01*
X157044472Y-101424303D01*
X156850345Y-101343893D01*
X156644261Y-101302900D01*
X156434139Y-101302900D01*
X156228055Y-101343893D01*
X156033928Y-101424303D01*
X155859219Y-101541040D01*
X155710640Y-101689619D01*
X155593903Y-101864328D01*
X155513493Y-102058455D01*
X155472500Y-102264539D01*
X135381700Y-102264539D01*
X135381700Y-102060516D01*
X141217837Y-102060516D01*
X141236701Y-102212140D01*
X142163780Y-102212140D01*
X142163780Y-101501942D01*
X142646380Y-101501942D01*
X142646380Y-102212140D01*
X143573459Y-102212140D01*
X143592323Y-102060516D01*
X143575456Y-102020252D01*
X143473240Y-101848808D01*
X143339541Y-101700600D01*
X143179497Y-101581323D01*
X142999258Y-101495561D01*
X142805751Y-101446610D01*
X142646380Y-101501942D01*
X142163780Y-101501942D01*
X142004409Y-101446610D01*
X141810902Y-101495561D01*
X141630663Y-101581323D01*
X141470619Y-101700600D01*
X141336920Y-101848808D01*
X141234704Y-102020252D01*
X141217837Y-102060516D01*
X135381700Y-102060516D01*
X135381700Y-101066600D01*
X144171808Y-101066600D01*
X144191449Y-101266020D01*
X144249618Y-101457776D01*
X144344078Y-101634499D01*
X144471201Y-101789399D01*
X144626101Y-101916522D01*
X144802824Y-102010982D01*
X144994580Y-102069151D01*
X145144026Y-102083870D01*
X145741814Y-102083870D01*
X145891260Y-102069151D01*
X146083016Y-102010982D01*
X146259739Y-101916522D01*
X146414639Y-101789399D01*
X146541762Y-101634499D01*
X146636222Y-101457776D01*
X146694391Y-101266020D01*
X146714032Y-101066600D01*
X146694391Y-100867180D01*
X146636222Y-100675424D01*
X146541762Y-100498701D01*
X146414639Y-100343801D01*
X146259739Y-100216678D01*
X146083016Y-100122218D01*
X145891260Y-100064049D01*
X145741814Y-100049330D01*
X145144026Y-100049330D01*
X144994580Y-100064049D01*
X144802824Y-100122218D01*
X144626101Y-100216678D01*
X144471201Y-100343801D01*
X144344078Y-100498701D01*
X144249618Y-100675424D01*
X144191449Y-100867180D01*
X144171808Y-101066600D01*
X135381700Y-101066600D01*
X135381700Y-99682300D01*
X141133968Y-99682300D01*
X141153609Y-99881720D01*
X141211778Y-100073476D01*
X141306238Y-100250199D01*
X141433361Y-100405099D01*
X141588261Y-100532222D01*
X141764984Y-100626682D01*
X141956740Y-100684851D01*
X142106186Y-100699570D01*
X142703974Y-100699570D01*
X142853420Y-100684851D01*
X143045176Y-100626682D01*
X143221899Y-100532222D01*
X143376799Y-100405099D01*
X143503922Y-100250199D01*
X143598382Y-100073476D01*
X143656551Y-99881720D01*
X143676192Y-99682300D01*
X143659670Y-99514539D01*
X155472500Y-99514539D01*
X155472500Y-99724661D01*
X155513493Y-99930745D01*
X155593903Y-100124872D01*
X155710640Y-100299581D01*
X155859219Y-100448160D01*
X156033928Y-100564897D01*
X156228055Y-100645307D01*
X156434139Y-100686300D01*
X156644261Y-100686300D01*
X156850345Y-100645307D01*
X157044472Y-100564897D01*
X157219181Y-100448160D01*
X157367760Y-100299581D01*
X157484497Y-100124872D01*
X157564907Y-99930745D01*
X157605900Y-99724661D01*
X157605900Y-99514539D01*
X157564907Y-99308455D01*
X157484497Y-99114328D01*
X157367760Y-98939619D01*
X157247741Y-98819600D01*
X163091210Y-98819600D01*
X163091210Y-100419600D01*
X163096359Y-100471882D01*
X163111610Y-100522155D01*
X163136374Y-100568487D01*
X163169702Y-100609098D01*
X163210313Y-100642426D01*
X163256645Y-100667190D01*
X163306918Y-100682441D01*
X163359200Y-100687590D01*
X164959200Y-100687590D01*
X165011482Y-100682441D01*
X165061755Y-100667190D01*
X165108087Y-100642426D01*
X165148698Y-100609098D01*
X165182026Y-100568487D01*
X165206790Y-100522155D01*
X165222041Y-100471882D01*
X165226718Y-100424388D01*
X165707300Y-100424388D01*
X165707300Y-100614812D01*
X165744450Y-100801576D01*
X165817322Y-100977504D01*
X165923115Y-101135835D01*
X166057765Y-101270485D01*
X166216096Y-101376278D01*
X166392024Y-101449150D01*
X166578788Y-101486300D01*
X166769212Y-101486300D01*
X166955976Y-101449150D01*
X167131904Y-101376278D01*
X167290235Y-101270485D01*
X167424885Y-101135835D01*
X167530678Y-100977504D01*
X167603550Y-100801576D01*
X167640700Y-100614812D01*
X167640700Y-100424388D01*
X167603550Y-100237624D01*
X167576127Y-100171419D01*
X170763369Y-96984179D01*
X170778314Y-96971914D01*
X170827262Y-96912270D01*
X170863634Y-96844222D01*
X170886032Y-96770387D01*
X170891700Y-96712840D01*
X170893595Y-96693601D01*
X170891700Y-96674361D01*
X170891700Y-93833609D01*
X170946417Y-93833609D01*
X170951566Y-93885891D01*
X170966817Y-93936164D01*
X170991581Y-93982496D01*
X171024909Y-94023107D01*
X171065520Y-94056435D01*
X171111852Y-94081199D01*
X171162125Y-94096450D01*
X171214407Y-94101599D01*
X171806432Y-94100309D01*
X171873107Y-94033634D01*
X171873107Y-93524909D01*
X172355707Y-93524909D01*
X172355707Y-94033634D01*
X172422382Y-94100309D01*
X173014407Y-94101599D01*
X173066689Y-94096450D01*
X173116962Y-94081199D01*
X173163294Y-94056435D01*
X173203905Y-94023107D01*
X173237233Y-93982496D01*
X173261997Y-93936164D01*
X173277248Y-93885891D01*
X173282397Y-93833609D01*
X173281107Y-93591584D01*
X173214432Y-93524909D01*
X172355707Y-93524909D01*
X171873107Y-93524909D01*
X171014382Y-93524909D01*
X170947707Y-93591584D01*
X170946417Y-93833609D01*
X170891700Y-93833609D01*
X170891700Y-92733609D01*
X170946417Y-92733609D01*
X170947707Y-92975634D01*
X171014382Y-93042309D01*
X171873107Y-93042309D01*
X171873107Y-92533584D01*
X171806432Y-92466909D01*
X171214407Y-92465619D01*
X171162125Y-92470768D01*
X171111852Y-92486019D01*
X171065520Y-92510783D01*
X171024909Y-92544111D01*
X170991581Y-92584722D01*
X170966817Y-92631054D01*
X170951566Y-92681327D01*
X170946417Y-92733609D01*
X170891700Y-92733609D01*
X170891700Y-91552246D01*
X170996030Y-91447917D01*
X171024909Y-91483107D01*
X171065520Y-91516435D01*
X171111852Y-91541199D01*
X171162125Y-91556450D01*
X171214407Y-91561599D01*
X173014407Y-91561599D01*
X173049459Y-91558147D01*
X173026850Y-91632677D01*
X173016417Y-91738609D01*
X173016417Y-92288609D01*
X173026850Y-92394541D01*
X173049459Y-92469071D01*
X173014407Y-92465619D01*
X172422382Y-92466909D01*
X172355707Y-92533584D01*
X172355707Y-93042309D01*
X173214432Y-93042309D01*
X173281107Y-92975634D01*
X173282293Y-92753213D01*
X173351614Y-92790266D01*
X173392707Y-92802732D01*
X173392708Y-94203345D01*
X172456641Y-95139413D01*
X172441686Y-95151686D01*
X172392738Y-95211331D01*
X172356366Y-95279379D01*
X172349090Y-95303365D01*
X172333968Y-95353214D01*
X172326405Y-95430000D01*
X172328300Y-95449240D01*
X172328301Y-103526350D01*
X172326405Y-103545600D01*
X172333968Y-103622386D01*
X172338365Y-103636880D01*
X172356367Y-103696222D01*
X172392739Y-103764270D01*
X172441687Y-103823914D01*
X172456637Y-103836183D01*
X173391873Y-104771420D01*
X173364450Y-104837624D01*
X173327300Y-105024388D01*
X173327300Y-105214812D01*
X173364450Y-105401576D01*
X173437322Y-105577504D01*
X173543115Y-105735835D01*
X173677765Y-105870485D01*
X173836096Y-105976278D01*
X174012024Y-106049150D01*
X174198788Y-106086300D01*
X174389212Y-106086300D01*
X174575976Y-106049150D01*
X174751904Y-105976278D01*
X174910235Y-105870485D01*
X175044885Y-105735835D01*
X175150678Y-105577504D01*
X175223550Y-105401576D01*
X175259548Y-105220600D01*
X179401808Y-105220600D01*
X179421449Y-105420020D01*
X179479618Y-105611776D01*
X179574078Y-105788499D01*
X179701201Y-105943399D01*
X179856101Y-106070522D01*
X180032824Y-106164982D01*
X180224580Y-106223151D01*
X180374026Y-106237870D01*
X180971814Y-106237870D01*
X181121260Y-106223151D01*
X181313016Y-106164982D01*
X181489739Y-106070522D01*
X181644639Y-105943399D01*
X181771762Y-105788499D01*
X181866222Y-105611776D01*
X181924391Y-105420020D01*
X181944032Y-105220600D01*
X181924391Y-105021180D01*
X181866222Y-104829424D01*
X181771762Y-104652701D01*
X181644639Y-104497801D01*
X181489739Y-104370678D01*
X181313016Y-104276218D01*
X181121260Y-104218049D01*
X180971814Y-104203330D01*
X180374026Y-104203330D01*
X180224580Y-104218049D01*
X180032824Y-104276218D01*
X179856101Y-104370678D01*
X179701201Y-104497801D01*
X179574078Y-104652701D01*
X179479618Y-104829424D01*
X179421449Y-105021180D01*
X179401808Y-105220600D01*
X175259548Y-105220600D01*
X175260700Y-105214812D01*
X175260700Y-105024388D01*
X175223550Y-104837624D01*
X175150678Y-104661696D01*
X175044885Y-104503365D01*
X174910235Y-104368715D01*
X174751904Y-104262922D01*
X174575976Y-104190050D01*
X174389212Y-104152900D01*
X174198788Y-104152900D01*
X174012024Y-104190050D01*
X173945820Y-104217473D01*
X173564647Y-103836300D01*
X176363968Y-103836300D01*
X176383609Y-104035720D01*
X176441778Y-104227476D01*
X176536238Y-104404199D01*
X176663361Y-104559099D01*
X176818261Y-104686222D01*
X176994984Y-104780682D01*
X177186740Y-104838851D01*
X177336186Y-104853570D01*
X177933974Y-104853570D01*
X178083420Y-104838851D01*
X178275176Y-104780682D01*
X178451899Y-104686222D01*
X178606799Y-104559099D01*
X178733922Y-104404199D01*
X178828382Y-104227476D01*
X178886551Y-104035720D01*
X178906192Y-103836300D01*
X178886551Y-103636880D01*
X178828382Y-103445124D01*
X178733922Y-103268401D01*
X178606799Y-103113501D01*
X178451899Y-102986378D01*
X178275176Y-102891918D01*
X178120259Y-102844924D01*
X179485677Y-102844924D01*
X179502544Y-102885188D01*
X179604760Y-103056632D01*
X179738459Y-103204840D01*
X179898503Y-103324117D01*
X180078742Y-103409879D01*
X180272249Y-103458830D01*
X180431620Y-103403498D01*
X180431620Y-102693300D01*
X180914220Y-102693300D01*
X180914220Y-103403498D01*
X181073591Y-103458830D01*
X181267098Y-103409879D01*
X181447337Y-103324117D01*
X181607381Y-103204840D01*
X181741080Y-103056632D01*
X181843296Y-102885188D01*
X181860163Y-102844924D01*
X181841299Y-102693300D01*
X180914220Y-102693300D01*
X180431620Y-102693300D01*
X179504541Y-102693300D01*
X179485677Y-102844924D01*
X178120259Y-102844924D01*
X178083420Y-102833749D01*
X177933974Y-102819030D01*
X177336186Y-102819030D01*
X177186740Y-102833749D01*
X176994984Y-102891918D01*
X176818261Y-102986378D01*
X176663361Y-103113501D01*
X176536238Y-103268401D01*
X176441778Y-103445124D01*
X176383609Y-103636880D01*
X176363968Y-103836300D01*
X173564647Y-103836300D01*
X173111700Y-103383354D01*
X173111700Y-95592246D01*
X174047771Y-94656176D01*
X174062721Y-94643907D01*
X174111669Y-94584263D01*
X174113721Y-94580424D01*
X174148041Y-94516216D01*
X174170439Y-94442380D01*
X174178002Y-94365593D01*
X174176107Y-94346353D01*
X174176107Y-93424185D01*
X177413105Y-93424185D01*
X177720915Y-93725037D01*
X178213351Y-93958829D01*
X178741936Y-94092060D01*
X179286356Y-94119608D01*
X179825689Y-94040417D01*
X180339210Y-93857529D01*
X180587085Y-93725037D01*
X180894895Y-93424185D01*
X179154000Y-91683290D01*
X177413105Y-93424185D01*
X174176107Y-93424185D01*
X174176107Y-92831599D01*
X174809407Y-92831599D01*
X174915339Y-92821166D01*
X175017200Y-92790266D01*
X175111076Y-92740089D01*
X175193359Y-92672561D01*
X175260887Y-92590278D01*
X175311064Y-92496402D01*
X175341964Y-92394541D01*
X175352397Y-92288609D01*
X175352397Y-91738609D01*
X175341964Y-91632677D01*
X175311064Y-91530816D01*
X175280908Y-91474396D01*
X176376432Y-91474396D01*
X176455623Y-92013729D01*
X176638511Y-92527250D01*
X176771003Y-92775125D01*
X177071855Y-93082935D01*
X178812750Y-91342040D01*
X179495250Y-91342040D01*
X181236145Y-93082935D01*
X181536997Y-92775125D01*
X181770789Y-92282689D01*
X181904020Y-91754104D01*
X181931568Y-91209684D01*
X181852377Y-90670351D01*
X181669489Y-90156830D01*
X181536997Y-89908955D01*
X181236145Y-89601145D01*
X179495250Y-91342040D01*
X178812750Y-91342040D01*
X177071855Y-89601145D01*
X176771003Y-89908955D01*
X176537211Y-90401391D01*
X176403980Y-90929976D01*
X176376432Y-91474396D01*
X175280908Y-91474396D01*
X175260887Y-91436940D01*
X175193359Y-91354657D01*
X175111076Y-91287129D01*
X175017200Y-91236952D01*
X174915339Y-91206052D01*
X174809407Y-91195619D01*
X173559407Y-91195619D01*
X173453475Y-91206052D01*
X173351614Y-91236952D01*
X173282397Y-91273949D01*
X173282397Y-90193609D01*
X173277248Y-90141327D01*
X173261997Y-90091054D01*
X173237233Y-90044722D01*
X173203905Y-90004111D01*
X173163294Y-89970783D01*
X173116962Y-89946019D01*
X173066689Y-89930768D01*
X173014407Y-89925619D01*
X171214407Y-89925619D01*
X171162125Y-89930768D01*
X171111852Y-89946019D01*
X171065520Y-89970783D01*
X171024909Y-90004111D01*
X170991581Y-90044722D01*
X170966817Y-90091054D01*
X170951566Y-90141327D01*
X170946417Y-90193609D01*
X170946417Y-90406354D01*
X170927721Y-90416347D01*
X170868077Y-90465295D01*
X170855808Y-90480245D01*
X170236641Y-91099413D01*
X170221686Y-91111686D01*
X170172738Y-91171331D01*
X170136366Y-91239379D01*
X170128734Y-91264539D01*
X170113968Y-91313214D01*
X170106405Y-91390000D01*
X170108300Y-91409240D01*
X170108301Y-96531351D01*
X167022181Y-99617473D01*
X166955976Y-99590050D01*
X166769212Y-99552900D01*
X166578788Y-99552900D01*
X166392024Y-99590050D01*
X166216096Y-99662922D01*
X166057765Y-99768715D01*
X165923115Y-99903365D01*
X165817322Y-100061696D01*
X165744450Y-100237624D01*
X165707300Y-100424388D01*
X165226718Y-100424388D01*
X165227190Y-100419600D01*
X165227190Y-98819600D01*
X165222041Y-98767318D01*
X165206790Y-98717045D01*
X165182026Y-98670713D01*
X165148698Y-98630102D01*
X165108087Y-98596774D01*
X165061755Y-98572010D01*
X165011482Y-98556759D01*
X164959200Y-98551610D01*
X163359200Y-98551610D01*
X163306918Y-98556759D01*
X163256645Y-98572010D01*
X163210313Y-98596774D01*
X163169702Y-98630102D01*
X163136374Y-98670713D01*
X163111610Y-98717045D01*
X163096359Y-98767318D01*
X163091210Y-98819600D01*
X157247741Y-98819600D01*
X157219181Y-98791040D01*
X157044472Y-98674303D01*
X156850345Y-98593893D01*
X156644261Y-98552900D01*
X156434139Y-98552900D01*
X156228055Y-98593893D01*
X156033928Y-98674303D01*
X155859219Y-98791040D01*
X155710640Y-98939619D01*
X155593903Y-99114328D01*
X155513493Y-99308455D01*
X155472500Y-99514539D01*
X143659670Y-99514539D01*
X143656551Y-99482880D01*
X143598382Y-99291124D01*
X143503922Y-99114401D01*
X143376799Y-98959501D01*
X143221899Y-98832378D01*
X143045176Y-98737918D01*
X142853420Y-98679749D01*
X142703974Y-98665030D01*
X142106186Y-98665030D01*
X141956740Y-98679749D01*
X141764984Y-98737918D01*
X141588261Y-98832378D01*
X141433361Y-98959501D01*
X141306238Y-99114401D01*
X141211778Y-99291124D01*
X141153609Y-99482880D01*
X141133968Y-99682300D01*
X135381700Y-99682300D01*
X135381700Y-98298000D01*
X144171808Y-98298000D01*
X144191449Y-98497420D01*
X144249618Y-98689176D01*
X144344078Y-98865899D01*
X144471201Y-99020799D01*
X144626101Y-99147922D01*
X144802824Y-99242382D01*
X144994580Y-99300551D01*
X145144026Y-99315270D01*
X145741814Y-99315270D01*
X145891260Y-99300551D01*
X146083016Y-99242382D01*
X146259739Y-99147922D01*
X146414639Y-99020799D01*
X146541762Y-98865899D01*
X146636222Y-98689176D01*
X146694391Y-98497420D01*
X146714032Y-98298000D01*
X146694391Y-98098580D01*
X146636222Y-97906824D01*
X146541762Y-97730101D01*
X146439929Y-97606017D01*
X148164247Y-95881700D01*
X156136781Y-95881700D01*
X156033928Y-95924303D01*
X155859219Y-96041040D01*
X155710640Y-96189619D01*
X155593903Y-96364328D01*
X155513493Y-96558455D01*
X155472500Y-96764539D01*
X155472500Y-96974661D01*
X155513493Y-97180745D01*
X155593903Y-97374872D01*
X155710640Y-97549581D01*
X155859219Y-97698160D01*
X156033928Y-97814897D01*
X156228055Y-97895307D01*
X156434139Y-97936300D01*
X156644261Y-97936300D01*
X156850345Y-97895307D01*
X157044472Y-97814897D01*
X157219181Y-97698160D01*
X157367760Y-97549581D01*
X157484497Y-97374872D01*
X157564907Y-97180745D01*
X157605900Y-96974661D01*
X157605900Y-96764539D01*
X157564907Y-96558455D01*
X157484497Y-96364328D01*
X157367760Y-96189619D01*
X157219181Y-96041040D01*
X157044472Y-95924303D01*
X156941619Y-95881700D01*
X163168391Y-95881700D01*
X163136374Y-95920713D01*
X163111610Y-95967045D01*
X163096359Y-96017318D01*
X163091210Y-96069600D01*
X163091210Y-97669600D01*
X163096359Y-97721882D01*
X163111610Y-97772155D01*
X163136374Y-97818487D01*
X163169702Y-97859098D01*
X163210313Y-97892426D01*
X163256645Y-97917190D01*
X163306918Y-97932441D01*
X163359200Y-97937590D01*
X164959200Y-97937590D01*
X165011482Y-97932441D01*
X165061755Y-97917190D01*
X165108087Y-97892426D01*
X165148698Y-97859098D01*
X165182026Y-97818487D01*
X165206790Y-97772155D01*
X165222041Y-97721882D01*
X165227190Y-97669600D01*
X165227190Y-96069600D01*
X165222041Y-96017318D01*
X165206790Y-95967045D01*
X165182026Y-95920713D01*
X165150009Y-95881700D01*
X165707300Y-95881700D01*
X165707300Y-96014812D01*
X165744450Y-96201576D01*
X165817322Y-96377504D01*
X165923115Y-96535835D01*
X166057765Y-96670485D01*
X166216096Y-96776278D01*
X166392024Y-96849150D01*
X166578788Y-96886300D01*
X166769212Y-96886300D01*
X166955976Y-96849150D01*
X167131904Y-96776278D01*
X167290235Y-96670485D01*
X167424885Y-96535835D01*
X167530678Y-96377504D01*
X167603550Y-96201576D01*
X167640700Y-96014812D01*
X167640700Y-95824388D01*
X167603550Y-95637624D01*
X167530678Y-95461696D01*
X167424885Y-95303365D01*
X167290235Y-95168715D01*
X167131904Y-95062922D01*
X166955976Y-94990050D01*
X166769212Y-94952900D01*
X166578788Y-94952900D01*
X166392024Y-94990050D01*
X166216096Y-95062922D01*
X166163149Y-95098300D01*
X165157560Y-95098300D01*
X165182026Y-95068487D01*
X165206790Y-95022155D01*
X165222041Y-94971882D01*
X165227190Y-94919600D01*
X165227190Y-93319600D01*
X165222041Y-93267318D01*
X165206790Y-93217045D01*
X165182026Y-93170713D01*
X165148698Y-93130102D01*
X165108087Y-93096774D01*
X165061755Y-93072010D01*
X165011482Y-93056759D01*
X164959200Y-93051610D01*
X163359200Y-93051610D01*
X163306918Y-93056759D01*
X163256645Y-93072010D01*
X163210313Y-93096774D01*
X163169702Y-93130102D01*
X163136374Y-93170713D01*
X163111610Y-93217045D01*
X163096359Y-93267318D01*
X163091210Y-93319600D01*
X163091210Y-94919600D01*
X163096359Y-94971882D01*
X163111610Y-95022155D01*
X163136374Y-95068487D01*
X163160840Y-95098300D01*
X156963830Y-95098300D01*
X157044472Y-95064897D01*
X157219181Y-94948160D01*
X157367760Y-94799581D01*
X157484497Y-94624872D01*
X157564907Y-94430745D01*
X157605900Y-94224661D01*
X157605900Y-94014539D01*
X157564907Y-93808455D01*
X157484497Y-93614328D01*
X157367760Y-93439619D01*
X157219181Y-93291040D01*
X157044472Y-93174303D01*
X156850345Y-93093893D01*
X156644261Y-93052900D01*
X156434139Y-93052900D01*
X156228055Y-93093893D01*
X156033928Y-93174303D01*
X155859219Y-93291040D01*
X155710640Y-93439619D01*
X155593903Y-93614328D01*
X155513493Y-93808455D01*
X155472500Y-94014539D01*
X155472500Y-94224661D01*
X155513493Y-94430745D01*
X155593903Y-94624872D01*
X155710640Y-94799581D01*
X155859219Y-94948160D01*
X156033928Y-95064897D01*
X156114570Y-95098300D01*
X148021240Y-95098300D01*
X148002000Y-95096405D01*
X147982760Y-95098300D01*
X147925213Y-95103968D01*
X147908302Y-95109098D01*
X147851377Y-95126366D01*
X147815941Y-95145307D01*
X147783330Y-95162738D01*
X147723686Y-95211686D01*
X147711417Y-95226636D01*
X145657324Y-97280730D01*
X145144026Y-97280730D01*
X144994580Y-97295449D01*
X144802824Y-97353618D01*
X144626101Y-97448078D01*
X144471201Y-97575201D01*
X144344078Y-97730101D01*
X144249618Y-97906824D01*
X144191449Y-98098580D01*
X144171808Y-98298000D01*
X135381700Y-98298000D01*
X135381700Y-94581700D01*
X149976784Y-94581700D01*
X149991461Y-94580255D01*
X150548991Y-94531931D01*
X150576738Y-94526761D01*
X150604614Y-94522433D01*
X150609226Y-94521212D01*
X151258339Y-94344532D01*
X151287258Y-94333532D01*
X151316383Y-94322916D01*
X151320670Y-94320822D01*
X151923104Y-94021427D01*
X151949352Y-94005009D01*
X151975844Y-93988948D01*
X151979643Y-93986062D01*
X152486176Y-93595609D01*
X152495754Y-93590489D01*
X152534748Y-93558488D01*
X154828697Y-91264539D01*
X155472500Y-91264539D01*
X155472500Y-91474661D01*
X155513493Y-91680745D01*
X155593903Y-91874872D01*
X155710640Y-92049581D01*
X155859219Y-92198160D01*
X156033928Y-92314897D01*
X156228055Y-92395307D01*
X156434139Y-92436300D01*
X156644261Y-92436300D01*
X156850345Y-92395307D01*
X157044472Y-92314897D01*
X157219181Y-92198160D01*
X157367760Y-92049581D01*
X157484497Y-91874872D01*
X157564907Y-91680745D01*
X157605900Y-91474661D01*
X157605900Y-91264539D01*
X157564907Y-91058455D01*
X157484497Y-90864328D01*
X157367760Y-90689619D01*
X157247741Y-90569600D01*
X163091210Y-90569600D01*
X163091210Y-92169600D01*
X163096359Y-92221882D01*
X163111610Y-92272155D01*
X163136374Y-92318487D01*
X163169702Y-92359098D01*
X163210313Y-92392426D01*
X163256645Y-92417190D01*
X163306918Y-92432441D01*
X163359200Y-92437590D01*
X164959200Y-92437590D01*
X165011482Y-92432441D01*
X165061755Y-92417190D01*
X165108087Y-92392426D01*
X165148698Y-92359098D01*
X165182026Y-92318487D01*
X165206790Y-92272155D01*
X165222041Y-92221882D01*
X165227190Y-92169600D01*
X165227190Y-91738609D01*
X165590706Y-91738609D01*
X165590706Y-92288609D01*
X165601139Y-92394541D01*
X165632039Y-92496402D01*
X165682216Y-92590278D01*
X165749744Y-92672561D01*
X165832027Y-92740089D01*
X165925903Y-92790266D01*
X166027764Y-92821166D01*
X166133696Y-92831599D01*
X167383696Y-92831599D01*
X167489628Y-92821166D01*
X167591489Y-92790266D01*
X167660706Y-92753269D01*
X167660706Y-93833609D01*
X167665855Y-93885891D01*
X167681106Y-93936164D01*
X167705870Y-93982496D01*
X167739198Y-94023107D01*
X167779809Y-94056435D01*
X167826141Y-94081199D01*
X167876414Y-94096450D01*
X167928696Y-94101599D01*
X168036996Y-94101599D01*
X168036997Y-96302656D01*
X167022181Y-97317473D01*
X166955976Y-97290050D01*
X166769212Y-97252900D01*
X166578788Y-97252900D01*
X166392024Y-97290050D01*
X166216096Y-97362922D01*
X166057765Y-97468715D01*
X165923115Y-97603365D01*
X165817322Y-97761696D01*
X165744450Y-97937624D01*
X165707300Y-98124388D01*
X165707300Y-98314812D01*
X165744450Y-98501576D01*
X165817322Y-98677504D01*
X165923115Y-98835835D01*
X166057765Y-98970485D01*
X166216096Y-99076278D01*
X166392024Y-99149150D01*
X166578788Y-99186300D01*
X166769212Y-99186300D01*
X166955976Y-99149150D01*
X167131904Y-99076278D01*
X167290235Y-98970485D01*
X167424885Y-98835835D01*
X167530678Y-98677504D01*
X167603550Y-98501576D01*
X167640700Y-98314812D01*
X167640700Y-98124388D01*
X167603550Y-97937624D01*
X167576127Y-97871419D01*
X168692060Y-96755487D01*
X168707010Y-96743218D01*
X168755958Y-96683574D01*
X168792330Y-96615526D01*
X168814728Y-96541691D01*
X168820396Y-96484144D01*
X168822291Y-96464904D01*
X168820396Y-96445664D01*
X168820396Y-94101599D01*
X169728696Y-94101599D01*
X169780978Y-94096450D01*
X169831251Y-94081199D01*
X169877583Y-94056435D01*
X169918194Y-94023107D01*
X169951522Y-93982496D01*
X169976286Y-93936164D01*
X169991537Y-93885891D01*
X169996686Y-93833609D01*
X169996686Y-92733609D01*
X169991537Y-92681327D01*
X169976286Y-92631054D01*
X169951522Y-92584722D01*
X169918194Y-92544111D01*
X169877583Y-92510783D01*
X169831251Y-92486019D01*
X169780978Y-92470768D01*
X169728696Y-92465619D01*
X167928696Y-92465619D01*
X167893644Y-92469071D01*
X167916253Y-92394541D01*
X167926686Y-92288609D01*
X167926686Y-91738609D01*
X167916253Y-91632677D01*
X167893644Y-91558147D01*
X167928696Y-91561599D01*
X168520721Y-91560309D01*
X168587396Y-91493634D01*
X168587396Y-90984909D01*
X169069996Y-90984909D01*
X169069996Y-91493634D01*
X169136671Y-91560309D01*
X169728696Y-91561599D01*
X169780978Y-91556450D01*
X169831251Y-91541199D01*
X169877583Y-91516435D01*
X169918194Y-91483107D01*
X169951522Y-91442496D01*
X169976286Y-91396164D01*
X169991537Y-91345891D01*
X169996686Y-91293609D01*
X169995396Y-91051584D01*
X169928721Y-90984909D01*
X169069996Y-90984909D01*
X168587396Y-90984909D01*
X167728671Y-90984909D01*
X167661996Y-91051584D01*
X167660810Y-91274005D01*
X167591489Y-91236952D01*
X167489628Y-91206052D01*
X167383696Y-91195619D01*
X166133696Y-91195619D01*
X166027764Y-91206052D01*
X165925903Y-91236952D01*
X165832027Y-91287129D01*
X165749744Y-91354657D01*
X165682216Y-91436940D01*
X165632039Y-91530816D01*
X165601139Y-91632677D01*
X165590706Y-91738609D01*
X165227190Y-91738609D01*
X165227190Y-90569600D01*
X165222041Y-90517318D01*
X165206790Y-90467045D01*
X165182026Y-90420713D01*
X165148698Y-90380102D01*
X165108087Y-90346774D01*
X165061755Y-90322010D01*
X165011482Y-90306759D01*
X164959200Y-90301610D01*
X163359200Y-90301610D01*
X163306918Y-90306759D01*
X163256645Y-90322010D01*
X163210313Y-90346774D01*
X163169702Y-90380102D01*
X163136374Y-90420713D01*
X163111610Y-90467045D01*
X163096359Y-90517318D01*
X163091210Y-90569600D01*
X157247741Y-90569600D01*
X157219181Y-90541040D01*
X157044472Y-90424303D01*
X156850345Y-90343893D01*
X156644261Y-90302900D01*
X156434139Y-90302900D01*
X156228055Y-90343893D01*
X156033928Y-90424303D01*
X155859219Y-90541040D01*
X155710640Y-90689619D01*
X155593903Y-90864328D01*
X155513493Y-91058455D01*
X155472500Y-91264539D01*
X154828697Y-91264539D01*
X155899627Y-90193609D01*
X167660706Y-90193609D01*
X167661996Y-90435634D01*
X167728671Y-90502309D01*
X168587396Y-90502309D01*
X168587396Y-89993584D01*
X169069996Y-89993584D01*
X169069996Y-90502309D01*
X169928721Y-90502309D01*
X169995396Y-90435634D01*
X169996686Y-90193609D01*
X169991537Y-90141327D01*
X169976286Y-90091054D01*
X169951522Y-90044722D01*
X169918194Y-90004111D01*
X169877583Y-89970783D01*
X169831251Y-89946019D01*
X169780978Y-89930768D01*
X169728696Y-89925619D01*
X169136671Y-89926909D01*
X169069996Y-89993584D01*
X168587396Y-89993584D01*
X168520721Y-89926909D01*
X167928696Y-89925619D01*
X167876414Y-89930768D01*
X167826141Y-89946019D01*
X167779809Y-89970783D01*
X167739198Y-90004111D01*
X167705870Y-90044722D01*
X167681106Y-90091054D01*
X167665855Y-90141327D01*
X167660706Y-90193609D01*
X155899627Y-90193609D01*
X157361537Y-88731700D01*
X178235117Y-88731700D01*
X177968790Y-88826551D01*
M02*
