G04 #@! TF.GenerationSoftware,KiCad,Pcbnew,5.1.5-52549c5~86~ubuntu18.04.1*
G04 #@! TF.CreationDate,2020-05-03T19:03:43+02:00*
G04 #@! TF.ProjectId,OpenC64MegaDrivePadAdapter,4f70656e-4336-4344-9d65-676144726976,5*
G04 #@! TF.SameCoordinates,Original*
G04 #@! TF.FileFunction,Legend,Top*
G04 #@! TF.FilePolarity,Positive*
%FSLAX46Y46*%
G04 Gerber Fmt 4.6, Leading zero omitted, Abs format (unit mm)*
G04 Created by KiCad (PCBNEW 5.1.5-52549c5~86~ubuntu18.04.1) date 2020-05-03 19:03:43*
%MOMM*%
%LPD*%
G04 APERTURE LIST*
%ADD10C,0.100000*%
%ADD11C,0.075000*%
%ADD12C,0.200000*%
%ADD13C,0.150000*%
%ADD14C,0.381000*%
%ADD15C,0.120000*%
%ADD16C,0.010000*%
%ADD17C,0.304800*%
%ADD18C,0.125000*%
G04 APERTURE END LIST*
D10*
X167599457Y-93462180D02*
X167575648Y-93485989D01*
X167504219Y-93509799D01*
X167456600Y-93509799D01*
X167385172Y-93485989D01*
X167337553Y-93438370D01*
X167313743Y-93390751D01*
X167289934Y-93295513D01*
X167289934Y-93224085D01*
X167313743Y-93128847D01*
X167337553Y-93081228D01*
X167385172Y-93033609D01*
X167456600Y-93009799D01*
X167504219Y-93009799D01*
X167575648Y-93033609D01*
X167599457Y-93057418D01*
X167337553Y-90707894D02*
X167504219Y-90707894D01*
X167575648Y-90969799D02*
X167337553Y-90969799D01*
X167337553Y-90469799D01*
X167575648Y-90469799D01*
X168210410Y-91977894D02*
X168281838Y-92001704D01*
X168305648Y-92025513D01*
X168329457Y-92073132D01*
X168329457Y-92144561D01*
X168305648Y-92192180D01*
X168281838Y-92215989D01*
X168234219Y-92239799D01*
X168043743Y-92239799D01*
X168043743Y-91739799D01*
X168210410Y-91739799D01*
X168258029Y-91763609D01*
X168281838Y-91787418D01*
X168305648Y-91835037D01*
X168305648Y-91882656D01*
X168281838Y-91930275D01*
X168258029Y-91954085D01*
X168210410Y-91977894D01*
X168043743Y-91977894D01*
D11*
X150418895Y-105755285D02*
X150252228Y-105755285D01*
X150252228Y-106017190D02*
X150252228Y-105517190D01*
X150490323Y-105517190D01*
X150680800Y-106017190D02*
X150680800Y-105517190D01*
X151204609Y-106017190D02*
X151037942Y-105779095D01*
X150918895Y-106017190D02*
X150918895Y-105517190D01*
X151109371Y-105517190D01*
X151156990Y-105541000D01*
X151180800Y-105564809D01*
X151204609Y-105612428D01*
X151204609Y-105683857D01*
X151180800Y-105731476D01*
X151156990Y-105755285D01*
X151109371Y-105779095D01*
X150918895Y-105779095D01*
X151418895Y-105755285D02*
X151585561Y-105755285D01*
X151656990Y-106017190D02*
X151418895Y-106017190D01*
X151418895Y-105517190D01*
X151656990Y-105517190D01*
X151847466Y-105564809D02*
X151871276Y-105541000D01*
X151918895Y-105517190D01*
X152037942Y-105517190D01*
X152085561Y-105541000D01*
X152109371Y-105564809D01*
X152133180Y-105612428D01*
X152133180Y-105660047D01*
X152109371Y-105731476D01*
X151823657Y-106017190D01*
X152133180Y-106017190D01*
X153060495Y-105755285D02*
X152893828Y-105755285D01*
X152893828Y-106017190D02*
X152893828Y-105517190D01*
X153131923Y-105517190D01*
X153322400Y-106017190D02*
X153322400Y-105517190D01*
X153846209Y-106017190D02*
X153679542Y-105779095D01*
X153560495Y-106017190D02*
X153560495Y-105517190D01*
X153750971Y-105517190D01*
X153798590Y-105541000D01*
X153822400Y-105564809D01*
X153846209Y-105612428D01*
X153846209Y-105683857D01*
X153822400Y-105731476D01*
X153798590Y-105755285D01*
X153750971Y-105779095D01*
X153560495Y-105779095D01*
X154060495Y-105755285D02*
X154227161Y-105755285D01*
X154298590Y-106017190D02*
X154060495Y-106017190D01*
X154060495Y-105517190D01*
X154298590Y-105517190D01*
X154774780Y-106017190D02*
X154489066Y-106017190D01*
X154631923Y-106017190D02*
X154631923Y-105517190D01*
X154584304Y-105588619D01*
X154536685Y-105636238D01*
X154489066Y-105660047D01*
X150787942Y-103993190D02*
X150787942Y-104397952D01*
X150811752Y-104445571D01*
X150835561Y-104469380D01*
X150883180Y-104493190D01*
X150978419Y-104493190D01*
X151026038Y-104469380D01*
X151049847Y-104445571D01*
X151073657Y-104397952D01*
X151073657Y-103993190D01*
X151311752Y-104493190D02*
X151311752Y-103993190D01*
X151502228Y-103993190D01*
X151549847Y-104017000D01*
X151573657Y-104040809D01*
X151597466Y-104088428D01*
X151597466Y-104159857D01*
X151573657Y-104207476D01*
X151549847Y-104231285D01*
X151502228Y-104255095D01*
X151311752Y-104255095D01*
X153060495Y-104231285D02*
X152893828Y-104231285D01*
X152893828Y-104493190D02*
X152893828Y-103993190D01*
X153131923Y-103993190D01*
X153322400Y-104493190D02*
X153322400Y-103993190D01*
X153846209Y-104493190D02*
X153679542Y-104255095D01*
X153560495Y-104493190D02*
X153560495Y-103993190D01*
X153750971Y-103993190D01*
X153798590Y-104017000D01*
X153822400Y-104040809D01*
X153846209Y-104088428D01*
X153846209Y-104159857D01*
X153822400Y-104207476D01*
X153798590Y-104231285D01*
X153750971Y-104255095D01*
X153560495Y-104255095D01*
X154060495Y-104231285D02*
X154227161Y-104231285D01*
X154298590Y-104493190D02*
X154060495Y-104493190D01*
X154060495Y-103993190D01*
X154298590Y-103993190D01*
X154774780Y-104493190D02*
X154489066Y-104493190D01*
X154631923Y-104493190D02*
X154631923Y-103993190D01*
X154584304Y-104064619D01*
X154536685Y-104112238D01*
X154489066Y-104136047D01*
X153060495Y-102707285D02*
X152893828Y-102707285D01*
X152893828Y-102969190D02*
X152893828Y-102469190D01*
X153131923Y-102469190D01*
X153322400Y-102969190D02*
X153322400Y-102469190D01*
X153846209Y-102969190D02*
X153679542Y-102731095D01*
X153560495Y-102969190D02*
X153560495Y-102469190D01*
X153750971Y-102469190D01*
X153798590Y-102493000D01*
X153822400Y-102516809D01*
X153846209Y-102564428D01*
X153846209Y-102635857D01*
X153822400Y-102683476D01*
X153798590Y-102707285D01*
X153750971Y-102731095D01*
X153560495Y-102731095D01*
X154060495Y-102707285D02*
X154227161Y-102707285D01*
X154298590Y-102969190D02*
X154060495Y-102969190D01*
X154060495Y-102469190D01*
X154298590Y-102469190D01*
X154489066Y-102516809D02*
X154512876Y-102493000D01*
X154560495Y-102469190D01*
X154679542Y-102469190D01*
X154727161Y-102493000D01*
X154750971Y-102516809D01*
X154774780Y-102564428D01*
X154774780Y-102612047D01*
X154750971Y-102683476D01*
X154465257Y-102969190D01*
X154774780Y-102969190D01*
X150418895Y-102707285D02*
X150252228Y-102707285D01*
X150252228Y-102969190D02*
X150252228Y-102469190D01*
X150490323Y-102469190D01*
X150680800Y-102969190D02*
X150680800Y-102469190D01*
X151204609Y-102969190D02*
X151037942Y-102731095D01*
X150918895Y-102969190D02*
X150918895Y-102469190D01*
X151109371Y-102469190D01*
X151156990Y-102493000D01*
X151180800Y-102516809D01*
X151204609Y-102564428D01*
X151204609Y-102635857D01*
X151180800Y-102683476D01*
X151156990Y-102707285D01*
X151109371Y-102731095D01*
X150918895Y-102731095D01*
X151418895Y-102707285D02*
X151585561Y-102707285D01*
X151656990Y-102969190D02*
X151418895Y-102969190D01*
X151418895Y-102469190D01*
X151656990Y-102469190D01*
X152133180Y-102969190D02*
X151847466Y-102969190D01*
X151990323Y-102969190D02*
X151990323Y-102469190D01*
X151942704Y-102540619D01*
X151895085Y-102588238D01*
X151847466Y-102612047D01*
X153493042Y-100945190D02*
X153493042Y-101349952D01*
X153516852Y-101397571D01*
X153540661Y-101421380D01*
X153588280Y-101445190D01*
X153683519Y-101445190D01*
X153731138Y-101421380D01*
X153754947Y-101397571D01*
X153778757Y-101349952D01*
X153778757Y-100945190D01*
X154016852Y-101445190D02*
X154016852Y-100945190D01*
X154207328Y-100945190D01*
X154254947Y-100969000D01*
X154278757Y-100992809D01*
X154302566Y-101040428D01*
X154302566Y-101111857D01*
X154278757Y-101159476D01*
X154254947Y-101183285D01*
X154207328Y-101207095D01*
X154016852Y-101207095D01*
X150418895Y-101183285D02*
X150252228Y-101183285D01*
X150252228Y-101445190D02*
X150252228Y-100945190D01*
X150490323Y-100945190D01*
X150680800Y-101445190D02*
X150680800Y-100945190D01*
X151204609Y-101445190D02*
X151037942Y-101207095D01*
X150918895Y-101445190D02*
X150918895Y-100945190D01*
X151109371Y-100945190D01*
X151156990Y-100969000D01*
X151180800Y-100992809D01*
X151204609Y-101040428D01*
X151204609Y-101111857D01*
X151180800Y-101159476D01*
X151156990Y-101183285D01*
X151109371Y-101207095D01*
X150918895Y-101207095D01*
X151418895Y-101183285D02*
X151585561Y-101183285D01*
X151656990Y-101445190D02*
X151418895Y-101445190D01*
X151418895Y-100945190D01*
X151656990Y-100945190D01*
X152133180Y-101445190D02*
X151847466Y-101445190D01*
X151990323Y-101445190D02*
X151990323Y-100945190D01*
X151942704Y-101016619D01*
X151895085Y-101064238D01*
X151847466Y-101088047D01*
D10*
X152527000Y-99060000D02*
X152527000Y-106680000D01*
D12*
X149085300Y-101219000D02*
X149593300Y-101727000D01*
X149212300Y-101600000D02*
X149593300Y-101219000D01*
X148183600Y-101219000D02*
X148691600Y-101727000D01*
X148691600Y-101219000D02*
X148183600Y-101727000D01*
X148183600Y-102743000D02*
X148691600Y-103251000D01*
X148691600Y-102743000D02*
X148183600Y-103251000D01*
X148183600Y-104267000D02*
X148691600Y-103759000D01*
X148691600Y-104267000D02*
X148183600Y-103759000D01*
X149593300Y-104775000D02*
X149085300Y-104267000D01*
X149085300Y-104775000D02*
X149593300Y-104267000D01*
X149593300Y-104775000D02*
X149212300Y-104775000D01*
X148691600Y-101219000D02*
X148183600Y-101219000D01*
X149085300Y-101727000D02*
X149593300Y-101727000D01*
X149593300Y-101727000D02*
X149593300Y-100711000D01*
X149593300Y-100711000D02*
X149339300Y-100711000D01*
X149593300Y-101219000D02*
X149593300Y-100965000D01*
X149085300Y-100711000D02*
X149085300Y-101727000D01*
X148183600Y-101219000D02*
X148691600Y-101219000D01*
X148691600Y-101727000D02*
X148691600Y-100711000D01*
X149593300Y-101219000D02*
X149085300Y-101219000D01*
X148691600Y-101219000D02*
X148691600Y-100965000D01*
X148183600Y-100711000D02*
X148183600Y-101219000D01*
X148183600Y-101727000D02*
X148691600Y-101727000D01*
X149085300Y-100711000D02*
X149085300Y-101219000D01*
X148691600Y-100711000D02*
X148437600Y-100711000D01*
X148183600Y-100711000D02*
X148183600Y-101727000D01*
X148437600Y-100711000D02*
X148183600Y-100711000D01*
X149339300Y-100711000D02*
X149085300Y-100711000D01*
X149085300Y-101219000D02*
X149593300Y-101219000D01*
X148437600Y-102235000D02*
X148183600Y-102235000D01*
X149085300Y-102743000D02*
X149593300Y-102743000D01*
X148183600Y-102235000D02*
X148183600Y-102743000D01*
X148691600Y-102743000D02*
X148691600Y-102489000D01*
X149085300Y-102235000D02*
X149593300Y-102743000D01*
X148691600Y-102743000D02*
X148183600Y-102743000D01*
X149593300Y-103251000D02*
X149593300Y-102235000D01*
X149085300Y-102235000D02*
X149085300Y-103251000D01*
X148183600Y-102235000D02*
X148183600Y-103251000D01*
X149085300Y-102743000D02*
X149593300Y-102235000D01*
X149593300Y-102743000D02*
X149085300Y-102743000D01*
X149085300Y-102235000D02*
X149085300Y-102743000D01*
X148183600Y-102743000D02*
X148691600Y-102743000D01*
X148183600Y-103251000D02*
X148691600Y-103251000D01*
X149339300Y-102235000D02*
X149085300Y-102235000D01*
X148691600Y-102235000D02*
X148437600Y-102235000D01*
X149085300Y-103251000D02*
X149593300Y-103251000D01*
X148691600Y-103251000D02*
X148691600Y-102235000D01*
X149593300Y-102743000D02*
X149593300Y-102489000D01*
X149593300Y-102235000D02*
X149339300Y-102235000D01*
X148691600Y-103759000D02*
X148437600Y-103759000D01*
X148437600Y-103759000D02*
X148183600Y-103759000D01*
X149593300Y-104267000D02*
X149085300Y-104267000D01*
X149085300Y-103759000D02*
X149085300Y-104267000D01*
X148691600Y-104775000D02*
X148691600Y-103759000D01*
X149593300Y-104775000D02*
X149593300Y-103759000D01*
X148183600Y-104775000D02*
X148691600Y-104775000D01*
X149085300Y-103759000D02*
X149085300Y-104775000D01*
X148691600Y-104267000D02*
X148183600Y-104267000D01*
X148183600Y-103759000D02*
X148183600Y-104775000D01*
X149085300Y-104267000D02*
X149593300Y-104267000D01*
X148183600Y-104267000D02*
X148691600Y-104267000D01*
X148183600Y-103759000D02*
X148183600Y-104267000D01*
X149593300Y-103759000D02*
X149339300Y-103759000D01*
X149085300Y-104775000D02*
X149593300Y-104775000D01*
X149339300Y-103759000D02*
X149085300Y-103759000D01*
X148691600Y-104267000D02*
X148691600Y-104013000D01*
X149593300Y-104267000D02*
X149593300Y-104013000D01*
X149593300Y-105283000D02*
X149339300Y-105283000D01*
X149339300Y-105283000D02*
X149085300Y-105283000D01*
X149593300Y-106299000D02*
X149593300Y-105283000D01*
X149085300Y-105791000D02*
X149593300Y-105283000D01*
X149085300Y-105283000D02*
X149593300Y-105791000D01*
X149085300Y-106299000D02*
X149593300Y-106299000D01*
X149593300Y-105791000D02*
X149085300Y-105791000D01*
X149085300Y-105283000D02*
X149085300Y-106299000D01*
X149085300Y-105791000D02*
X149593300Y-105791000D01*
X149085300Y-105283000D02*
X149085300Y-105791000D01*
X149593300Y-105791000D02*
X149593300Y-105537000D01*
X148183600Y-105791000D02*
X148691600Y-105283000D01*
X148691600Y-105791000D02*
X148183600Y-105791000D01*
X148183600Y-105283000D02*
X148691600Y-105791000D01*
X148691600Y-105791000D02*
X148691600Y-105537000D01*
X148183600Y-105791000D02*
X148691600Y-105791000D01*
X148183600Y-105283000D02*
X148183600Y-105791000D01*
X148437600Y-105283000D02*
X148183600Y-105283000D01*
X148691600Y-105283000D02*
X148437600Y-105283000D01*
X148691600Y-106299000D02*
X148691600Y-105283000D01*
X148183600Y-106299000D02*
X148691600Y-106299000D01*
X148183600Y-105283000D02*
X148183600Y-106299000D01*
D10*
X147828000Y-100330000D02*
X155194000Y-100330000D01*
X149910800Y-99060000D02*
X149910800Y-106680000D01*
X154027961Y-99898971D02*
X154004152Y-99922780D01*
X153932723Y-99946590D01*
X153885104Y-99946590D01*
X153813676Y-99922780D01*
X153766057Y-99875161D01*
X153742247Y-99827542D01*
X153718438Y-99732304D01*
X153718438Y-99660876D01*
X153742247Y-99565638D01*
X153766057Y-99518019D01*
X153813676Y-99470400D01*
X153885104Y-99446590D01*
X153932723Y-99446590D01*
X154004152Y-99470400D01*
X154027961Y-99494209D01*
X151216514Y-99684685D02*
X151287942Y-99708495D01*
X151311752Y-99732304D01*
X151335561Y-99779923D01*
X151335561Y-99851352D01*
X151311752Y-99898971D01*
X151287942Y-99922780D01*
X151240323Y-99946590D01*
X151049847Y-99946590D01*
X151049847Y-99446590D01*
X151216514Y-99446590D01*
X151264133Y-99470400D01*
X151287942Y-99494209D01*
X151311752Y-99541828D01*
X151311752Y-99589447D01*
X151287942Y-99637066D01*
X151264133Y-99660876D01*
X151216514Y-99684685D01*
X151049847Y-99684685D01*
D11*
X149218666Y-99684685D02*
X149085333Y-99684685D01*
X149085333Y-99946590D02*
X149085333Y-99446590D01*
X149275809Y-99446590D01*
X149409142Y-99494209D02*
X149428190Y-99470400D01*
X149466285Y-99446590D01*
X149561523Y-99446590D01*
X149599619Y-99470400D01*
X149618666Y-99494209D01*
X149637714Y-99541828D01*
X149637714Y-99589447D01*
X149618666Y-99660876D01*
X149390095Y-99946590D01*
X149637714Y-99946590D01*
X148304266Y-99684685D02*
X148170933Y-99684685D01*
X148170933Y-99946590D02*
X148170933Y-99446590D01*
X148361409Y-99446590D01*
X148723314Y-99946590D02*
X148494742Y-99946590D01*
X148609028Y-99946590D02*
X148609028Y-99446590D01*
X148570933Y-99518019D01*
X148532838Y-99565638D01*
X148494742Y-99589447D01*
D10*
X147828000Y-106680000D02*
X147828000Y-99060000D01*
X155194000Y-106680000D02*
X147828000Y-106680000D01*
X155194000Y-99060000D02*
X155194000Y-106680000D01*
X147828000Y-99060000D02*
X155194000Y-99060000D01*
X173369553Y-93247894D02*
X173536219Y-93247894D01*
X173607648Y-93509799D02*
X173369553Y-93509799D01*
X173369553Y-93009799D01*
X173607648Y-93009799D01*
X172782410Y-91977894D02*
X172853838Y-92001704D01*
X172877648Y-92025513D01*
X172901457Y-92073132D01*
X172901457Y-92144561D01*
X172877648Y-92192180D01*
X172853838Y-92215989D01*
X172806219Y-92239799D01*
X172615743Y-92239799D01*
X172615743Y-91739799D01*
X172782410Y-91739799D01*
X172830029Y-91763609D01*
X172853838Y-91787418D01*
X172877648Y-91835037D01*
X172877648Y-91882656D01*
X172853838Y-91930275D01*
X172830029Y-91954085D01*
X172782410Y-91977894D01*
X172615743Y-91977894D01*
X173631457Y-90922180D02*
X173607648Y-90945989D01*
X173536219Y-90969799D01*
X173488600Y-90969799D01*
X173417172Y-90945989D01*
X173369553Y-90898370D01*
X173345743Y-90850751D01*
X173321934Y-90755513D01*
X173321934Y-90684085D01*
X173345743Y-90588847D01*
X173369553Y-90541228D01*
X173417172Y-90493609D01*
X173488600Y-90469799D01*
X173536219Y-90469799D01*
X173607648Y-90493609D01*
X173631457Y-90517418D01*
X148841285Y-108815904D02*
X148841285Y-108015904D01*
X149107952Y-108587333D01*
X149374619Y-108015904D01*
X149374619Y-108815904D01*
X149907952Y-108015904D02*
X150060333Y-108015904D01*
X150136523Y-108054000D01*
X150212714Y-108130190D01*
X150250809Y-108282571D01*
X150250809Y-108549238D01*
X150212714Y-108701619D01*
X150136523Y-108777809D01*
X150060333Y-108815904D01*
X149907952Y-108815904D01*
X149831761Y-108777809D01*
X149755571Y-108701619D01*
X149717476Y-108549238D01*
X149717476Y-108282571D01*
X149755571Y-108130190D01*
X149831761Y-108054000D01*
X149907952Y-108015904D01*
X150593666Y-108815904D02*
X150593666Y-108015904D01*
X150784142Y-108015904D01*
X150898428Y-108054000D01*
X150974619Y-108130190D01*
X151012714Y-108206380D01*
X151050809Y-108358761D01*
X151050809Y-108473047D01*
X151012714Y-108625428D01*
X150974619Y-108701619D01*
X150898428Y-108777809D01*
X150784142Y-108815904D01*
X150593666Y-108815904D01*
X151393666Y-108396857D02*
X151660333Y-108396857D01*
X151774619Y-108815904D02*
X151393666Y-108815904D01*
X151393666Y-108015904D01*
X151774619Y-108015904D01*
D13*
X153765880Y-117989333D02*
X154146833Y-117989333D01*
X153689690Y-118217904D02*
X153956357Y-117417904D01*
X154223023Y-118217904D01*
X154489690Y-118217904D02*
X154489690Y-117684571D01*
X154489690Y-117760761D02*
X154527785Y-117722666D01*
X154603976Y-117684571D01*
X154718261Y-117684571D01*
X154794452Y-117722666D01*
X154832547Y-117798857D01*
X154832547Y-118217904D01*
X154832547Y-117798857D02*
X154870642Y-117722666D01*
X154946833Y-117684571D01*
X155061119Y-117684571D01*
X155137309Y-117722666D01*
X155175404Y-117798857D01*
X155175404Y-118217904D01*
X155556357Y-118217904D02*
X155556357Y-117684571D01*
X155556357Y-117417904D02*
X155518261Y-117456000D01*
X155556357Y-117494095D01*
X155594452Y-117456000D01*
X155556357Y-117417904D01*
X155556357Y-117494095D01*
X156280166Y-117684571D02*
X156280166Y-118332190D01*
X156242071Y-118408380D01*
X156203976Y-118446476D01*
X156127785Y-118484571D01*
X156013500Y-118484571D01*
X155937309Y-118446476D01*
X156280166Y-118179809D02*
X156203976Y-118217904D01*
X156051595Y-118217904D01*
X155975404Y-118179809D01*
X155937309Y-118141714D01*
X155899214Y-118065523D01*
X155899214Y-117836952D01*
X155937309Y-117760761D01*
X155975404Y-117722666D01*
X156051595Y-117684571D01*
X156203976Y-117684571D01*
X156280166Y-117722666D01*
X157003976Y-118217904D02*
X157003976Y-117798857D01*
X156965880Y-117722666D01*
X156889690Y-117684571D01*
X156737309Y-117684571D01*
X156661119Y-117722666D01*
X157003976Y-118179809D02*
X156927785Y-118217904D01*
X156737309Y-118217904D01*
X156661119Y-118179809D01*
X156623023Y-118103619D01*
X156623023Y-118027428D01*
X156661119Y-117951238D01*
X156737309Y-117913142D01*
X156927785Y-117913142D01*
X157003976Y-117875047D01*
X154261119Y-110013714D02*
X154223023Y-110051809D01*
X154108738Y-110089904D01*
X154032547Y-110089904D01*
X153918261Y-110051809D01*
X153842071Y-109975619D01*
X153803976Y-109899428D01*
X153765880Y-109747047D01*
X153765880Y-109632761D01*
X153803976Y-109480380D01*
X153842071Y-109404190D01*
X153918261Y-109328000D01*
X154032547Y-109289904D01*
X154108738Y-109289904D01*
X154223023Y-109328000D01*
X154261119Y-109366095D01*
X154946833Y-109289904D02*
X154794452Y-109289904D01*
X154718261Y-109328000D01*
X154680166Y-109366095D01*
X154603976Y-109480380D01*
X154565880Y-109632761D01*
X154565880Y-109937523D01*
X154603976Y-110013714D01*
X154642071Y-110051809D01*
X154718261Y-110089904D01*
X154870642Y-110089904D01*
X154946833Y-110051809D01*
X154984928Y-110013714D01*
X155023023Y-109937523D01*
X155023023Y-109747047D01*
X154984928Y-109670857D01*
X154946833Y-109632761D01*
X154870642Y-109594666D01*
X154718261Y-109594666D01*
X154642071Y-109632761D01*
X154603976Y-109670857D01*
X154565880Y-109747047D01*
X155708738Y-109556571D02*
X155708738Y-110089904D01*
X155518261Y-109251809D02*
X155327785Y-109823238D01*
X155823023Y-109823238D01*
D12*
X157988000Y-107188000D02*
X147828000Y-107188000D01*
X157988000Y-118872000D02*
X157988000Y-107188000D01*
X147828000Y-118872000D02*
X157988000Y-118872000D01*
X147828000Y-107188000D02*
X147828000Y-118872000D01*
D13*
X172612642Y-117798857D02*
X172345976Y-117798857D01*
X172345976Y-118217904D02*
X172345976Y-117417904D01*
X172726928Y-117417904D01*
X173031690Y-118217904D02*
X173031690Y-117417904D01*
X173869785Y-118217904D02*
X173603119Y-117836952D01*
X173412642Y-118217904D02*
X173412642Y-117417904D01*
X173717404Y-117417904D01*
X173793595Y-117456000D01*
X173831690Y-117494095D01*
X173869785Y-117570285D01*
X173869785Y-117684571D01*
X173831690Y-117760761D01*
X173793595Y-117798857D01*
X173717404Y-117836952D01*
X173412642Y-117836952D01*
X174212642Y-117798857D02*
X174479309Y-117798857D01*
X174593595Y-118217904D02*
X174212642Y-118217904D01*
X174212642Y-117417904D01*
X174593595Y-117417904D01*
X172345976Y-109289904D02*
X172345976Y-109937523D01*
X172384071Y-110013714D01*
X172422166Y-110051809D01*
X172498357Y-110089904D01*
X172650738Y-110089904D01*
X172726928Y-110051809D01*
X172765023Y-110013714D01*
X172803119Y-109937523D01*
X172803119Y-109289904D01*
X173184071Y-110089904D02*
X173184071Y-109289904D01*
X173488833Y-109289904D01*
X173565023Y-109328000D01*
X173603119Y-109366095D01*
X173641214Y-109442285D01*
X173641214Y-109556571D01*
X173603119Y-109632761D01*
X173565023Y-109670857D01*
X173488833Y-109708952D01*
X173184071Y-109708952D01*
D10*
X167573761Y-108396857D02*
X167307095Y-108396857D01*
X167307095Y-108815904D02*
X167307095Y-108015904D01*
X167688047Y-108015904D01*
X167992809Y-108815904D02*
X167992809Y-108015904D01*
X168830904Y-108815904D02*
X168564238Y-108434952D01*
X168373761Y-108815904D02*
X168373761Y-108015904D01*
X168678523Y-108015904D01*
X168754714Y-108054000D01*
X168792809Y-108092095D01*
X168830904Y-108168285D01*
X168830904Y-108282571D01*
X168792809Y-108358761D01*
X168754714Y-108396857D01*
X168678523Y-108434952D01*
X168373761Y-108434952D01*
X169173761Y-108396857D02*
X169440428Y-108396857D01*
X169554714Y-108815904D02*
X169173761Y-108815904D01*
X169173761Y-108015904D01*
X169554714Y-108015904D01*
X169859476Y-108092095D02*
X169897571Y-108054000D01*
X169973761Y-108015904D01*
X170164238Y-108015904D01*
X170240428Y-108054000D01*
X170278523Y-108092095D01*
X170316619Y-108168285D01*
X170316619Y-108244476D01*
X170278523Y-108358761D01*
X169821380Y-108815904D01*
X170316619Y-108815904D01*
D13*
X164929119Y-118141714D02*
X164891023Y-118179809D01*
X164776738Y-118217904D01*
X164700547Y-118217904D01*
X164586261Y-118179809D01*
X164510071Y-118103619D01*
X164471976Y-118027428D01*
X164433880Y-117875047D01*
X164433880Y-117760761D01*
X164471976Y-117608380D01*
X164510071Y-117532190D01*
X164586261Y-117456000D01*
X164700547Y-117417904D01*
X164776738Y-117417904D01*
X164891023Y-117456000D01*
X164929119Y-117494095D01*
X164738642Y-109670857D02*
X164852928Y-109708952D01*
X164891023Y-109747047D01*
X164929119Y-109823238D01*
X164929119Y-109937523D01*
X164891023Y-110013714D01*
X164852928Y-110051809D01*
X164776738Y-110089904D01*
X164471976Y-110089904D01*
X164471976Y-109289904D01*
X164738642Y-109289904D01*
X164814833Y-109328000D01*
X164852928Y-109366095D01*
X164891023Y-109442285D01*
X164891023Y-109518476D01*
X164852928Y-109594666D01*
X164814833Y-109632761D01*
X164738642Y-109670857D01*
X164471976Y-109670857D01*
D10*
X159699761Y-108396857D02*
X159433095Y-108396857D01*
X159433095Y-108815904D02*
X159433095Y-108015904D01*
X159814047Y-108015904D01*
X160118809Y-108815904D02*
X160118809Y-108015904D01*
X160956904Y-108815904D02*
X160690238Y-108434952D01*
X160499761Y-108815904D02*
X160499761Y-108015904D01*
X160804523Y-108015904D01*
X160880714Y-108054000D01*
X160918809Y-108092095D01*
X160956904Y-108168285D01*
X160956904Y-108282571D01*
X160918809Y-108358761D01*
X160880714Y-108396857D01*
X160804523Y-108434952D01*
X160499761Y-108434952D01*
X161299761Y-108396857D02*
X161566428Y-108396857D01*
X161680714Y-108815904D02*
X161299761Y-108815904D01*
X161299761Y-108015904D01*
X161680714Y-108015904D01*
X162442619Y-108815904D02*
X161985476Y-108815904D01*
X162214047Y-108815904D02*
X162214047Y-108015904D01*
X162137857Y-108130190D01*
X162061666Y-108206380D01*
X161985476Y-108244476D01*
D12*
X175260000Y-107188000D02*
X158496000Y-107188000D01*
X175260000Y-118872000D02*
X175260000Y-107188000D01*
X158496000Y-118872000D02*
X175260000Y-118872000D01*
X158496000Y-107188000D02*
X158496000Y-118872000D01*
D14*
X147226000Y-119331740D02*
X147226000Y-94820740D01*
X134907000Y-119331740D02*
X147226000Y-119331740D01*
X134907000Y-94820740D02*
X134907000Y-119331740D01*
X134907000Y-94820740D02*
X147226000Y-94820740D01*
X134907000Y-112854740D02*
X147226000Y-112854740D01*
X137447000Y-117553740D02*
X134907000Y-117553740D01*
X137447000Y-115267740D02*
X137447000Y-117553740D01*
X134907000Y-115267740D02*
X137447000Y-115267740D01*
X135034000Y-118696740D02*
X135288000Y-118696740D01*
X135034000Y-114124740D02*
X135034000Y-118696740D01*
X135288000Y-114124740D02*
X135034000Y-114124740D01*
X135288000Y-118696740D02*
X135288000Y-114124740D01*
X141765000Y-118442740D02*
X135288000Y-118442740D01*
X143924000Y-117934740D02*
X141765000Y-118442740D01*
X143924000Y-114759740D02*
X143924000Y-117934740D01*
X141892000Y-114378740D02*
X143924000Y-114759740D01*
X135288000Y-114378740D02*
X141892000Y-114378740D01*
X175852000Y-119330300D02*
X188171000Y-119330300D01*
X175852000Y-88342300D02*
X175852000Y-119330300D01*
X188171000Y-88342300D02*
X175852000Y-88342300D01*
X188171000Y-119330300D02*
X188171000Y-88342300D01*
X188171000Y-112853300D02*
X175852000Y-112853300D01*
X188171000Y-94819300D02*
X175852000Y-94819300D01*
X185631000Y-115266300D02*
X188171000Y-115266300D01*
X185631000Y-117552300D02*
X185631000Y-115266300D01*
X188171000Y-117552300D02*
X185631000Y-117552300D01*
X185631000Y-90120300D02*
X188171000Y-90120300D01*
X185631000Y-92406300D02*
X185631000Y-90120300D01*
X188171000Y-92406300D02*
X185631000Y-92406300D01*
X188044000Y-113996300D02*
X187790000Y-113996300D01*
X188044000Y-118822300D02*
X188044000Y-113996300D01*
X187790000Y-118822300D02*
X188044000Y-118822300D01*
X187790000Y-113996300D02*
X187790000Y-118822300D01*
X188044000Y-88977300D02*
X187790000Y-88977300D01*
X188044000Y-93549300D02*
X188044000Y-88977300D01*
X187790000Y-93549300D02*
X188044000Y-93549300D01*
X187790000Y-88977300D02*
X187790000Y-93549300D01*
X179154000Y-117933300D02*
X179154000Y-114758300D01*
X181440000Y-118568300D02*
X179154000Y-117933300D01*
X187790000Y-118568300D02*
X181440000Y-118568300D01*
X181313000Y-114250300D02*
X187790000Y-114250300D01*
X179154000Y-114758300D02*
X181313000Y-114250300D01*
X181313000Y-89231300D02*
X187790000Y-89231300D01*
X179154000Y-89739300D02*
X181313000Y-89231300D01*
X179154000Y-92914300D02*
X179154000Y-89739300D01*
X181186000Y-93295300D02*
X179154000Y-92914300D01*
X187790000Y-93295300D02*
X181186000Y-93295300D01*
D15*
X152950000Y-110352000D02*
X152950000Y-109152000D01*
X152950000Y-109152000D02*
X148750000Y-109152000D01*
X148750000Y-109152000D02*
X148750000Y-110352000D01*
X152950000Y-117152000D02*
X152950000Y-118352000D01*
X152950000Y-118352000D02*
X148750000Y-118352000D01*
X148750000Y-118352000D02*
X148750000Y-117152000D01*
X153250000Y-110052000D02*
X153250000Y-108852000D01*
X153250000Y-108852000D02*
X152050000Y-108852000D01*
X171492000Y-110352000D02*
X171492000Y-109152000D01*
X171492000Y-109152000D02*
X167292000Y-109152000D01*
X167292000Y-109152000D02*
X167292000Y-110352000D01*
X171492000Y-117152000D02*
X171492000Y-118352000D01*
X171492000Y-118352000D02*
X167292000Y-118352000D01*
X167292000Y-118352000D02*
X167292000Y-117152000D01*
X171792000Y-110052000D02*
X171792000Y-108852000D01*
X171792000Y-108852000D02*
X170592000Y-108852000D01*
X163618000Y-110352000D02*
X163618000Y-109152000D01*
X163618000Y-109152000D02*
X159418000Y-109152000D01*
X159418000Y-109152000D02*
X159418000Y-110352000D01*
X163618000Y-117152000D02*
X163618000Y-118352000D01*
X163618000Y-118352000D02*
X159418000Y-118352000D01*
X159418000Y-118352000D02*
X159418000Y-117152000D01*
X163918000Y-110052000D02*
X163918000Y-108852000D01*
X163918000Y-108852000D02*
X162718000Y-108852000D01*
X167614000Y-95919600D02*
X168564000Y-95919600D01*
X173354000Y-95919600D02*
X172404000Y-95919600D01*
X168564000Y-96839600D02*
X172404000Y-96839600D01*
X168564000Y-94999600D02*
X168564000Y-96839600D01*
X172404000Y-94999600D02*
X168564000Y-94999600D01*
X172404000Y-96839600D02*
X172404000Y-94999600D01*
X167614000Y-98219600D02*
X168564000Y-98219600D01*
X173354000Y-98219600D02*
X172404000Y-98219600D01*
X168564000Y-99139600D02*
X172404000Y-99139600D01*
X168564000Y-97299600D02*
X168564000Y-99139600D01*
X172404000Y-97299600D02*
X168564000Y-97299600D01*
X172404000Y-99139600D02*
X172404000Y-97299600D01*
X167614000Y-100519600D02*
X168564000Y-100519600D01*
X173354000Y-100519600D02*
X172404000Y-100519600D01*
X168564000Y-101439600D02*
X172404000Y-101439600D01*
X168564000Y-99599600D02*
X168564000Y-101439600D01*
X172404000Y-99599600D02*
X168564000Y-99599600D01*
X172404000Y-101439600D02*
X172404000Y-99599600D01*
X167614000Y-102819600D02*
X168564000Y-102819600D01*
X173354000Y-102819600D02*
X172404000Y-102819600D01*
X168564000Y-103739600D02*
X172404000Y-103739600D01*
X168564000Y-101899600D02*
X168564000Y-103739600D01*
X172404000Y-101899600D02*
X168564000Y-101899600D01*
X172404000Y-103739600D02*
X172404000Y-101899600D01*
X173354000Y-105119600D02*
X172404000Y-105119600D01*
X167614000Y-105119600D02*
X168564000Y-105119600D01*
X172404000Y-104199600D02*
X168564000Y-104199600D01*
X172404000Y-106039600D02*
X172404000Y-104199600D01*
X168564000Y-106039600D02*
X172404000Y-106039600D01*
X168564000Y-104199600D02*
X168564000Y-106039600D01*
X170256380Y-90205164D02*
G75*
G03X165978696Y-91233609I-1827684J-1808445D01*
G01*
X170270852Y-93825062D02*
G75*
G02X165978696Y-92833609I-1842156J1811453D01*
G01*
X170278696Y-93813609D02*
X170278696Y-90213609D01*
X170686723Y-93822054D02*
G75*
G03X174964407Y-92793609I1827684J1808445D01*
G01*
X170672251Y-90202156D02*
G75*
G02X174964407Y-91193609I1842156J-1811453D01*
G01*
X170664407Y-90213609D02*
X170664407Y-93813609D01*
X161857200Y-106239600D02*
X161857200Y-103999600D01*
X161617200Y-106239600D02*
X161617200Y-103999600D01*
X161737200Y-106239600D02*
X161737200Y-103999600D01*
X157567200Y-105119600D02*
X158217200Y-105119600D01*
X163107200Y-105119600D02*
X162457200Y-105119600D01*
X158217200Y-106239600D02*
X162457200Y-106239600D01*
X158217200Y-103999600D02*
X158217200Y-106239600D01*
X162457200Y-103999600D02*
X158217200Y-103999600D01*
X162457200Y-106239600D02*
X162457200Y-103999600D01*
X161869200Y-103489600D02*
X161869200Y-101249600D01*
X161629200Y-103489600D02*
X161629200Y-101249600D01*
X161749200Y-103489600D02*
X161749200Y-101249600D01*
X157579200Y-102369600D02*
X158229200Y-102369600D01*
X163119200Y-102369600D02*
X162469200Y-102369600D01*
X158229200Y-103489600D02*
X162469200Y-103489600D01*
X158229200Y-101249600D02*
X158229200Y-103489600D01*
X162469200Y-101249600D02*
X158229200Y-101249600D01*
X162469200Y-103489600D02*
X162469200Y-101249600D01*
X161869200Y-100739600D02*
X161869200Y-98499600D01*
X161629200Y-100739600D02*
X161629200Y-98499600D01*
X161749200Y-100739600D02*
X161749200Y-98499600D01*
X157579200Y-99619600D02*
X158229200Y-99619600D01*
X163119200Y-99619600D02*
X162469200Y-99619600D01*
X158229200Y-100739600D02*
X162469200Y-100739600D01*
X158229200Y-98499600D02*
X158229200Y-100739600D01*
X162469200Y-98499600D02*
X158229200Y-98499600D01*
X162469200Y-100739600D02*
X162469200Y-98499600D01*
X161869200Y-97989600D02*
X161869200Y-95749600D01*
X161629200Y-97989600D02*
X161629200Y-95749600D01*
X161749200Y-97989600D02*
X161749200Y-95749600D01*
X157579200Y-96869600D02*
X158229200Y-96869600D01*
X163119200Y-96869600D02*
X162469200Y-96869600D01*
X158229200Y-97989600D02*
X162469200Y-97989600D01*
X158229200Y-95749600D02*
X158229200Y-97989600D01*
X162469200Y-95749600D02*
X158229200Y-95749600D01*
X162469200Y-97989600D02*
X162469200Y-95749600D01*
X161869200Y-95239600D02*
X161869200Y-92999600D01*
X161629200Y-95239600D02*
X161629200Y-92999600D01*
X161749200Y-95239600D02*
X161749200Y-92999600D01*
X157579200Y-94119600D02*
X158229200Y-94119600D01*
X163119200Y-94119600D02*
X162469200Y-94119600D01*
X158229200Y-95239600D02*
X162469200Y-95239600D01*
X158229200Y-92999600D02*
X158229200Y-95239600D01*
X162469200Y-92999600D02*
X158229200Y-92999600D01*
X162469200Y-95239600D02*
X162469200Y-92999600D01*
X161869200Y-92489600D02*
X161869200Y-90249600D01*
X161629200Y-92489600D02*
X161629200Y-90249600D01*
X161749200Y-92489600D02*
X161749200Y-90249600D01*
X157579200Y-91369600D02*
X158229200Y-91369600D01*
X163119200Y-91369600D02*
X162469200Y-91369600D01*
X158229200Y-92489600D02*
X162469200Y-92489600D01*
X158229200Y-90249600D02*
X158229200Y-92489600D01*
X162469200Y-90249600D02*
X158229200Y-90249600D01*
X162469200Y-92489600D02*
X162469200Y-90249600D01*
D13*
X154135323Y-96212660D02*
G75*
G03X154135323Y-96212660I-25903J0D01*
G01*
X154233094Y-96205040D02*
G75*
G03X154233094Y-96205040I-118594J0D01*
G01*
X154367201Y-96205040D02*
G75*
G03X154367201Y-96205040I-250161J0D01*
G01*
X153444651Y-96499680D02*
G75*
G03X153444651Y-96499680I-18491J0D01*
G01*
X153540460Y-96507300D02*
G75*
G03X153540460Y-96507300I-109220J0D01*
G01*
X153673873Y-96507300D02*
G75*
G03X153673873Y-96507300I-242633J0D01*
G01*
D16*
G36*
X151996999Y-94828643D02*
G01*
X152471479Y-94891661D01*
X152860591Y-94975095D01*
X153116907Y-95049023D01*
X153374074Y-95140268D01*
X153624536Y-95245114D01*
X153860738Y-95359843D01*
X154075125Y-95480740D01*
X154260142Y-95604087D01*
X154408235Y-95726167D01*
X154429681Y-95747013D01*
X154595329Y-95940235D01*
X154719929Y-96148943D01*
X154804932Y-96376817D01*
X154851793Y-96627536D01*
X154862802Y-96843210D01*
X154839945Y-97145658D01*
X154773071Y-97443970D01*
X154664298Y-97733315D01*
X154515744Y-98008863D01*
X154329528Y-98265783D01*
X154157274Y-98452311D01*
X154014315Y-98581128D01*
X153885152Y-98673044D01*
X153762179Y-98732032D01*
X153637789Y-98762066D01*
X153553071Y-98767939D01*
X153457853Y-98763788D01*
X153383871Y-98744629D01*
X153310455Y-98706421D01*
X153191670Y-98625762D01*
X153095975Y-98538665D01*
X153012329Y-98432977D01*
X152929693Y-98296548D01*
X152917167Y-98273546D01*
X152838433Y-98135257D01*
X152767119Y-98030917D01*
X152694593Y-97951217D01*
X152612221Y-97886850D01*
X152511370Y-97828507D01*
X152498124Y-97821727D01*
X152233448Y-97712368D01*
X151948940Y-97639858D01*
X151652533Y-97604197D01*
X151352163Y-97605383D01*
X151055762Y-97643415D01*
X150771267Y-97718294D01*
X150522553Y-97821889D01*
X150402590Y-97892518D01*
X150302878Y-97976736D01*
X150214954Y-98083843D01*
X150130355Y-98223134D01*
X150094378Y-98292277D01*
X149989052Y-98465834D01*
X149867515Y-98602360D01*
X149732992Y-98699951D01*
X149588710Y-98756703D01*
X149437894Y-98770712D01*
X149317726Y-98750723D01*
X149204438Y-98709551D01*
X149095259Y-98648455D01*
X148981491Y-98561443D01*
X148854432Y-98442520D01*
X148820768Y-98408332D01*
X148681049Y-98255052D01*
X148566856Y-98105643D01*
X148467000Y-97943796D01*
X148370290Y-97753203D01*
X148368248Y-97748849D01*
X148257201Y-97469596D01*
X148188573Y-97193176D01*
X148160239Y-96910387D01*
X148159198Y-96843210D01*
X148160010Y-96819539D01*
X148262806Y-96819539D01*
X148265215Y-96912420D01*
X148298157Y-97181891D01*
X148368059Y-97452281D01*
X148470930Y-97715838D01*
X148602781Y-97964811D01*
X148759621Y-98191447D01*
X148937461Y-98387995D01*
X149091572Y-98517920D01*
X149242870Y-98609202D01*
X149387026Y-98656063D01*
X149522989Y-98658310D01*
X149642613Y-98619453D01*
X149757495Y-98547834D01*
X149854242Y-98456053D01*
X149941662Y-98334524D01*
X149999991Y-98230546D01*
X150056891Y-98128509D01*
X150119350Y-98028521D01*
X150176710Y-97947304D01*
X150194598Y-97925252D01*
X150293473Y-97835547D01*
X150430409Y-97748506D01*
X150597348Y-97668235D01*
X150786232Y-97598839D01*
X150899647Y-97565982D01*
X150994048Y-97542523D01*
X151077059Y-97525966D01*
X151160445Y-97515145D01*
X151255974Y-97508895D01*
X151375413Y-97506051D01*
X151511000Y-97505440D01*
X151661531Y-97506237D01*
X151777704Y-97509405D01*
X151871287Y-97516109D01*
X151954046Y-97527515D01*
X152037748Y-97544787D01*
X152122354Y-97565982D01*
X152302148Y-97621424D01*
X152471059Y-97689107D01*
X152620136Y-97764553D01*
X152740432Y-97843282D01*
X152817103Y-97913718D01*
X152864240Y-97976958D01*
X152922108Y-98066478D01*
X152981140Y-98167126D01*
X153006167Y-98213205D01*
X153099345Y-98368650D01*
X153198013Y-98487322D01*
X153310806Y-98578480D01*
X153389501Y-98624153D01*
X153506266Y-98659578D01*
X153633375Y-98654117D01*
X153767559Y-98610966D01*
X153905544Y-98533325D01*
X154044061Y-98424393D01*
X154179837Y-98287366D01*
X154309602Y-98125444D01*
X154430084Y-97941824D01*
X154538012Y-97739705D01*
X154630115Y-97522286D01*
X154684914Y-97357655D01*
X154729715Y-97163293D01*
X154755011Y-96957981D01*
X154759976Y-96756819D01*
X154743784Y-96574911D01*
X154731220Y-96511013D01*
X154657463Y-96281262D01*
X154550725Y-96069336D01*
X154415810Y-95882504D01*
X154257524Y-95728031D01*
X154172540Y-95666126D01*
X153791136Y-95444274D01*
X153387460Y-95260507D01*
X152965571Y-95115023D01*
X152529528Y-95008022D01*
X152083393Y-94939700D01*
X151631225Y-94910256D01*
X151177083Y-94919887D01*
X150725029Y-94968793D01*
X150279120Y-95057170D01*
X149843419Y-95185217D01*
X149421984Y-95353131D01*
X149267516Y-95426887D01*
X149044157Y-95545770D01*
X148862353Y-95658596D01*
X148718351Y-95768030D01*
X148608400Y-95876735D01*
X148574420Y-95918865D01*
X148434108Y-96133583D01*
X148337046Y-96349985D01*
X148280768Y-96575995D01*
X148262806Y-96819539D01*
X148160010Y-96819539D01*
X148165922Y-96647338D01*
X148188719Y-96480128D01*
X148231226Y-96325811D01*
X148297078Y-96168616D01*
X148329761Y-96103338D01*
X148419723Y-95950348D01*
X148524237Y-95813940D01*
X148649052Y-95689256D01*
X148799915Y-95571438D01*
X148982575Y-95455630D01*
X149202779Y-95336974D01*
X149284751Y-95296323D01*
X149698957Y-95119646D01*
X150134113Y-94981939D01*
X150585856Y-94883594D01*
X151049826Y-94825001D01*
X151521661Y-94806554D01*
X151996999Y-94828643D01*
G37*
X151996999Y-94828643D02*
X152471479Y-94891661D01*
X152860591Y-94975095D01*
X153116907Y-95049023D01*
X153374074Y-95140268D01*
X153624536Y-95245114D01*
X153860738Y-95359843D01*
X154075125Y-95480740D01*
X154260142Y-95604087D01*
X154408235Y-95726167D01*
X154429681Y-95747013D01*
X154595329Y-95940235D01*
X154719929Y-96148943D01*
X154804932Y-96376817D01*
X154851793Y-96627536D01*
X154862802Y-96843210D01*
X154839945Y-97145658D01*
X154773071Y-97443970D01*
X154664298Y-97733315D01*
X154515744Y-98008863D01*
X154329528Y-98265783D01*
X154157274Y-98452311D01*
X154014315Y-98581128D01*
X153885152Y-98673044D01*
X153762179Y-98732032D01*
X153637789Y-98762066D01*
X153553071Y-98767939D01*
X153457853Y-98763788D01*
X153383871Y-98744629D01*
X153310455Y-98706421D01*
X153191670Y-98625762D01*
X153095975Y-98538665D01*
X153012329Y-98432977D01*
X152929693Y-98296548D01*
X152917167Y-98273546D01*
X152838433Y-98135257D01*
X152767119Y-98030917D01*
X152694593Y-97951217D01*
X152612221Y-97886850D01*
X152511370Y-97828507D01*
X152498124Y-97821727D01*
X152233448Y-97712368D01*
X151948940Y-97639858D01*
X151652533Y-97604197D01*
X151352163Y-97605383D01*
X151055762Y-97643415D01*
X150771267Y-97718294D01*
X150522553Y-97821889D01*
X150402590Y-97892518D01*
X150302878Y-97976736D01*
X150214954Y-98083843D01*
X150130355Y-98223134D01*
X150094378Y-98292277D01*
X149989052Y-98465834D01*
X149867515Y-98602360D01*
X149732992Y-98699951D01*
X149588710Y-98756703D01*
X149437894Y-98770712D01*
X149317726Y-98750723D01*
X149204438Y-98709551D01*
X149095259Y-98648455D01*
X148981491Y-98561443D01*
X148854432Y-98442520D01*
X148820768Y-98408332D01*
X148681049Y-98255052D01*
X148566856Y-98105643D01*
X148467000Y-97943796D01*
X148370290Y-97753203D01*
X148368248Y-97748849D01*
X148257201Y-97469596D01*
X148188573Y-97193176D01*
X148160239Y-96910387D01*
X148159198Y-96843210D01*
X148160010Y-96819539D01*
X148262806Y-96819539D01*
X148265215Y-96912420D01*
X148298157Y-97181891D01*
X148368059Y-97452281D01*
X148470930Y-97715838D01*
X148602781Y-97964811D01*
X148759621Y-98191447D01*
X148937461Y-98387995D01*
X149091572Y-98517920D01*
X149242870Y-98609202D01*
X149387026Y-98656063D01*
X149522989Y-98658310D01*
X149642613Y-98619453D01*
X149757495Y-98547834D01*
X149854242Y-98456053D01*
X149941662Y-98334524D01*
X149999991Y-98230546D01*
X150056891Y-98128509D01*
X150119350Y-98028521D01*
X150176710Y-97947304D01*
X150194598Y-97925252D01*
X150293473Y-97835547D01*
X150430409Y-97748506D01*
X150597348Y-97668235D01*
X150786232Y-97598839D01*
X150899647Y-97565982D01*
X150994048Y-97542523D01*
X151077059Y-97525966D01*
X151160445Y-97515145D01*
X151255974Y-97508895D01*
X151375413Y-97506051D01*
X151511000Y-97505440D01*
X151661531Y-97506237D01*
X151777704Y-97509405D01*
X151871287Y-97516109D01*
X151954046Y-97527515D01*
X152037748Y-97544787D01*
X152122354Y-97565982D01*
X152302148Y-97621424D01*
X152471059Y-97689107D01*
X152620136Y-97764553D01*
X152740432Y-97843282D01*
X152817103Y-97913718D01*
X152864240Y-97976958D01*
X152922108Y-98066478D01*
X152981140Y-98167126D01*
X153006167Y-98213205D01*
X153099345Y-98368650D01*
X153198013Y-98487322D01*
X153310806Y-98578480D01*
X153389501Y-98624153D01*
X153506266Y-98659578D01*
X153633375Y-98654117D01*
X153767559Y-98610966D01*
X153905544Y-98533325D01*
X154044061Y-98424393D01*
X154179837Y-98287366D01*
X154309602Y-98125444D01*
X154430084Y-97941824D01*
X154538012Y-97739705D01*
X154630115Y-97522286D01*
X154684914Y-97357655D01*
X154729715Y-97163293D01*
X154755011Y-96957981D01*
X154759976Y-96756819D01*
X154743784Y-96574911D01*
X154731220Y-96511013D01*
X154657463Y-96281262D01*
X154550725Y-96069336D01*
X154415810Y-95882504D01*
X154257524Y-95728031D01*
X154172540Y-95666126D01*
X153791136Y-95444274D01*
X153387460Y-95260507D01*
X152965571Y-95115023D01*
X152529528Y-95008022D01*
X152083393Y-94939700D01*
X151631225Y-94910256D01*
X151177083Y-94919887D01*
X150725029Y-94968793D01*
X150279120Y-95057170D01*
X149843419Y-95185217D01*
X149421984Y-95353131D01*
X149267516Y-95426887D01*
X149044157Y-95545770D01*
X148862353Y-95658596D01*
X148718351Y-95768030D01*
X148608400Y-95876735D01*
X148574420Y-95918865D01*
X148434108Y-96133583D01*
X148337046Y-96349985D01*
X148280768Y-96575995D01*
X148262806Y-96819539D01*
X148160010Y-96819539D01*
X148165922Y-96647338D01*
X148188719Y-96480128D01*
X148231226Y-96325811D01*
X148297078Y-96168616D01*
X148329761Y-96103338D01*
X148419723Y-95950348D01*
X148524237Y-95813940D01*
X148649052Y-95689256D01*
X148799915Y-95571438D01*
X148982575Y-95455630D01*
X149202779Y-95336974D01*
X149284751Y-95296323D01*
X149698957Y-95119646D01*
X150134113Y-94981939D01*
X150585856Y-94883594D01*
X151049826Y-94825001D01*
X151521661Y-94806554D01*
X151996999Y-94828643D01*
G36*
X149763744Y-95868382D02*
G01*
X149933904Y-95923870D01*
X150087735Y-96018406D01*
X150181263Y-96106268D01*
X150270075Y-96225389D01*
X150325934Y-96353467D01*
X150353051Y-96502580D01*
X150357278Y-96610853D01*
X150339983Y-96785969D01*
X150286304Y-96937080D01*
X150192813Y-97072468D01*
X150146013Y-97121636D01*
X150018964Y-97225792D01*
X149886537Y-97290785D01*
X149736253Y-97321554D01*
X149630800Y-97325632D01*
X149527561Y-97320373D01*
X149428443Y-97308020D01*
X149353549Y-97291144D01*
X149348761Y-97289519D01*
X149240352Y-97232867D01*
X149130703Y-97144294D01*
X149032500Y-97035866D01*
X148958430Y-96919650D01*
X148957167Y-96917094D01*
X148923800Y-96842402D01*
X148904387Y-96775483D01*
X148895499Y-96698633D01*
X148894712Y-96652639D01*
X148995421Y-96652639D01*
X149031922Y-96810327D01*
X149050768Y-96855228D01*
X149143396Y-97005286D01*
X149262194Y-97118837D01*
X149402751Y-97193929D01*
X149560657Y-97228605D01*
X149731501Y-97220911D01*
X149826119Y-97198887D01*
X149954783Y-97138856D01*
X150072127Y-97043793D01*
X150167277Y-96924803D01*
X150229355Y-96792993D01*
X150231904Y-96784527D01*
X150258719Y-96616763D01*
X150243586Y-96453828D01*
X150189520Y-96302743D01*
X150099533Y-96170528D01*
X149976637Y-96064205D01*
X149905411Y-96023731D01*
X149795408Y-95987606D01*
X149664770Y-95970409D01*
X149532061Y-95972736D01*
X149415845Y-95995185D01*
X149384552Y-96006988D01*
X149239643Y-96093864D01*
X149125535Y-96208832D01*
X149044968Y-96344927D01*
X149000683Y-96495185D01*
X148995421Y-96652639D01*
X148894712Y-96652639D01*
X148893709Y-96594150D01*
X148893734Y-96589441D01*
X148903723Y-96438236D01*
X148935679Y-96314261D01*
X148995619Y-96204182D01*
X149089561Y-96094664D01*
X149138129Y-96047914D01*
X149235212Y-95966523D01*
X149323382Y-95913728D01*
X149405105Y-95883360D01*
X149584922Y-95854145D01*
X149763744Y-95868382D01*
G37*
X149763744Y-95868382D02*
X149933904Y-95923870D01*
X150087735Y-96018406D01*
X150181263Y-96106268D01*
X150270075Y-96225389D01*
X150325934Y-96353467D01*
X150353051Y-96502580D01*
X150357278Y-96610853D01*
X150339983Y-96785969D01*
X150286304Y-96937080D01*
X150192813Y-97072468D01*
X150146013Y-97121636D01*
X150018964Y-97225792D01*
X149886537Y-97290785D01*
X149736253Y-97321554D01*
X149630800Y-97325632D01*
X149527561Y-97320373D01*
X149428443Y-97308020D01*
X149353549Y-97291144D01*
X149348761Y-97289519D01*
X149240352Y-97232867D01*
X149130703Y-97144294D01*
X149032500Y-97035866D01*
X148958430Y-96919650D01*
X148957167Y-96917094D01*
X148923800Y-96842402D01*
X148904387Y-96775483D01*
X148895499Y-96698633D01*
X148894712Y-96652639D01*
X148995421Y-96652639D01*
X149031922Y-96810327D01*
X149050768Y-96855228D01*
X149143396Y-97005286D01*
X149262194Y-97118837D01*
X149402751Y-97193929D01*
X149560657Y-97228605D01*
X149731501Y-97220911D01*
X149826119Y-97198887D01*
X149954783Y-97138856D01*
X150072127Y-97043793D01*
X150167277Y-96924803D01*
X150229355Y-96792993D01*
X150231904Y-96784527D01*
X150258719Y-96616763D01*
X150243586Y-96453828D01*
X150189520Y-96302743D01*
X150099533Y-96170528D01*
X149976637Y-96064205D01*
X149905411Y-96023731D01*
X149795408Y-95987606D01*
X149664770Y-95970409D01*
X149532061Y-95972736D01*
X149415845Y-95995185D01*
X149384552Y-96006988D01*
X149239643Y-96093864D01*
X149125535Y-96208832D01*
X149044968Y-96344927D01*
X149000683Y-96495185D01*
X148995421Y-96652639D01*
X148894712Y-96652639D01*
X148893709Y-96594150D01*
X148893734Y-96589441D01*
X148903723Y-96438236D01*
X148935679Y-96314261D01*
X148995619Y-96204182D01*
X149089561Y-96094664D01*
X149138129Y-96047914D01*
X149235212Y-95966523D01*
X149323382Y-95913728D01*
X149405105Y-95883360D01*
X149584922Y-95854145D01*
X149763744Y-95868382D01*
G36*
X152665674Y-97200307D02*
G01*
X152693253Y-97227637D01*
X152694042Y-97259271D01*
X152665165Y-97296989D01*
X152614319Y-97300587D01*
X152572217Y-97282020D01*
X152550214Y-97260958D01*
X152563042Y-97235233D01*
X152575412Y-97222327D01*
X152621240Y-97196932D01*
X152665674Y-97200307D01*
G37*
X152665674Y-97200307D02*
X152693253Y-97227637D01*
X152694042Y-97259271D01*
X152665165Y-97296989D01*
X152614319Y-97300587D01*
X152572217Y-97282020D01*
X152550214Y-97260958D01*
X152563042Y-97235233D01*
X152575412Y-97222327D01*
X152621240Y-97196932D01*
X152665674Y-97200307D01*
G36*
X152974102Y-97166130D02*
G01*
X152999721Y-97190043D01*
X153021895Y-97220109D01*
X153013726Y-97241247D01*
X152969512Y-97267362D01*
X152967622Y-97268341D01*
X152889522Y-97299721D01*
X152842202Y-97297297D01*
X152825991Y-97261086D01*
X152825987Y-97260158D01*
X152846293Y-97217147D01*
X152893835Y-97181861D01*
X152943330Y-97161254D01*
X152974102Y-97166130D01*
G37*
X152974102Y-97166130D02*
X152999721Y-97190043D01*
X153021895Y-97220109D01*
X153013726Y-97241247D01*
X152969512Y-97267362D01*
X152967622Y-97268341D01*
X152889522Y-97299721D01*
X152842202Y-97297297D01*
X152825991Y-97261086D01*
X152825987Y-97260158D01*
X152846293Y-97217147D01*
X152893835Y-97181861D01*
X152943330Y-97161254D01*
X152974102Y-97166130D01*
G36*
X152459126Y-97000953D02*
G01*
X152489141Y-97046629D01*
X152493540Y-97100212D01*
X152475300Y-97134574D01*
X152446580Y-97156088D01*
X152422750Y-97144291D01*
X152401998Y-97117054D01*
X152369689Y-97053371D01*
X152368977Y-97005785D01*
X152399294Y-96982627D01*
X152411222Y-96981629D01*
X152459126Y-97000953D01*
G37*
X152459126Y-97000953D02*
X152489141Y-97046629D01*
X152493540Y-97100212D01*
X152475300Y-97134574D01*
X152446580Y-97156088D01*
X152422750Y-97144291D01*
X152401998Y-97117054D01*
X152369689Y-97053371D01*
X152368977Y-97005785D01*
X152399294Y-96982627D01*
X152411222Y-96981629D01*
X152459126Y-97000953D01*
G36*
X153160842Y-96979631D02*
G01*
X153173143Y-97011798D01*
X153155098Y-97063250D01*
X153142390Y-97082564D01*
X153117629Y-97109795D01*
X153095153Y-97102305D01*
X153074347Y-97080679D01*
X153049871Y-97033548D01*
X153069930Y-96997072D01*
X153120128Y-96975998D01*
X153160842Y-96979631D01*
G37*
X153160842Y-96979631D02*
X153173143Y-97011798D01*
X153155098Y-97063250D01*
X153142390Y-97082564D01*
X153117629Y-97109795D01*
X153095153Y-97102305D01*
X153074347Y-97080679D01*
X153049871Y-97033548D01*
X153069930Y-96997072D01*
X153120128Y-96975998D01*
X153160842Y-96979631D01*
G36*
X154249680Y-95808941D02*
G01*
X154292084Y-95824238D01*
X154335034Y-95855912D01*
X154372493Y-95889190D01*
X154470533Y-96002751D01*
X154524031Y-96123563D01*
X154532908Y-96247447D01*
X154497081Y-96370224D01*
X154416471Y-96487716D01*
X154384677Y-96520231D01*
X154339608Y-96560862D01*
X154300653Y-96584909D01*
X154253526Y-96596714D01*
X154183944Y-96600618D01*
X154119044Y-96600976D01*
X154017669Y-96598372D01*
X153950985Y-96589199D01*
X153907763Y-96571415D01*
X153892701Y-96559811D01*
X153863354Y-96536338D01*
X153847685Y-96541252D01*
X153837276Y-96581691D01*
X153832463Y-96610895D01*
X153797185Y-96705494D01*
X153729119Y-96796040D01*
X153640688Y-96869263D01*
X153552690Y-96909739D01*
X153477705Y-96927636D01*
X153418388Y-96931181D01*
X153349871Y-96920667D01*
X153314085Y-96912535D01*
X153253759Y-96892848D01*
X153212737Y-96870002D01*
X153211424Y-96868756D01*
X153170911Y-96849913D01*
X153119514Y-96843210D01*
X153074447Y-96838588D01*
X153058522Y-96815243D01*
X153059639Y-96767900D01*
X153056737Y-96692481D01*
X153034603Y-96649573D01*
X152996286Y-96644980D01*
X152995216Y-96645379D01*
X152945581Y-96644845D01*
X152888846Y-96619765D01*
X152843024Y-96581064D01*
X152825987Y-96542708D01*
X152842321Y-96505934D01*
X152884839Y-96499000D01*
X152943814Y-96522775D01*
X152956395Y-96531058D01*
X152985294Y-96548314D01*
X153001719Y-96542394D01*
X153004299Y-96533134D01*
X153124818Y-96533134D01*
X153146262Y-96635569D01*
X153187456Y-96705201D01*
X153254547Y-96771501D01*
X153324548Y-96805427D01*
X153414452Y-96813723D01*
X153455721Y-96811680D01*
X153545763Y-96795453D01*
X153614346Y-96756329D01*
X153634659Y-96738222D01*
X153703442Y-96646961D01*
X153732694Y-96550312D01*
X153727516Y-96454590D01*
X153693009Y-96366104D01*
X153634273Y-96291169D01*
X153556411Y-96236096D01*
X153464524Y-96207198D01*
X153363711Y-96210786D01*
X153259074Y-96253174D01*
X153248228Y-96260030D01*
X153177658Y-96331760D01*
X153135902Y-96427329D01*
X153124818Y-96533134D01*
X153004299Y-96533134D01*
X153012111Y-96505110D01*
X153020013Y-96450193D01*
X153057599Y-96330701D01*
X153131690Y-96224241D01*
X153157030Y-96204165D01*
X153818080Y-96204165D01*
X153837464Y-96317613D01*
X153890334Y-96410383D01*
X153968411Y-96477535D01*
X154063412Y-96514131D01*
X154167056Y-96515232D01*
X154271064Y-96475899D01*
X154272372Y-96475106D01*
X154361216Y-96400640D01*
X154409517Y-96307202D01*
X154421657Y-96208787D01*
X154404374Y-96093925D01*
X154349881Y-96003983D01*
X154272372Y-95942467D01*
X154169074Y-95903205D01*
X154065129Y-95904066D01*
X153969296Y-95940002D01*
X153890339Y-96005968D01*
X153837019Y-96096915D01*
X153818080Y-96204165D01*
X153157030Y-96204165D01*
X153232655Y-96144251D01*
X153243524Y-96138398D01*
X153329635Y-96112338D01*
X153435332Y-96105604D01*
X153539961Y-96117654D01*
X153622871Y-96147944D01*
X153623629Y-96148404D01*
X153694569Y-96191663D01*
X153720224Y-96096410D01*
X153763295Y-96003533D01*
X153837630Y-95911907D01*
X153840299Y-95909291D01*
X153892188Y-95861488D01*
X153935961Y-95833224D01*
X153987518Y-95818452D01*
X154062756Y-95811125D01*
X154104350Y-95808859D01*
X154192283Y-95805367D01*
X154249680Y-95808941D01*
G37*
X154249680Y-95808941D02*
X154292084Y-95824238D01*
X154335034Y-95855912D01*
X154372493Y-95889190D01*
X154470533Y-96002751D01*
X154524031Y-96123563D01*
X154532908Y-96247447D01*
X154497081Y-96370224D01*
X154416471Y-96487716D01*
X154384677Y-96520231D01*
X154339608Y-96560862D01*
X154300653Y-96584909D01*
X154253526Y-96596714D01*
X154183944Y-96600618D01*
X154119044Y-96600976D01*
X154017669Y-96598372D01*
X153950985Y-96589199D01*
X153907763Y-96571415D01*
X153892701Y-96559811D01*
X153863354Y-96536338D01*
X153847685Y-96541252D01*
X153837276Y-96581691D01*
X153832463Y-96610895D01*
X153797185Y-96705494D01*
X153729119Y-96796040D01*
X153640688Y-96869263D01*
X153552690Y-96909739D01*
X153477705Y-96927636D01*
X153418388Y-96931181D01*
X153349871Y-96920667D01*
X153314085Y-96912535D01*
X153253759Y-96892848D01*
X153212737Y-96870002D01*
X153211424Y-96868756D01*
X153170911Y-96849913D01*
X153119514Y-96843210D01*
X153074447Y-96838588D01*
X153058522Y-96815243D01*
X153059639Y-96767900D01*
X153056737Y-96692481D01*
X153034603Y-96649573D01*
X152996286Y-96644980D01*
X152995216Y-96645379D01*
X152945581Y-96644845D01*
X152888846Y-96619765D01*
X152843024Y-96581064D01*
X152825987Y-96542708D01*
X152842321Y-96505934D01*
X152884839Y-96499000D01*
X152943814Y-96522775D01*
X152956395Y-96531058D01*
X152985294Y-96548314D01*
X153001719Y-96542394D01*
X153004299Y-96533134D01*
X153124818Y-96533134D01*
X153146262Y-96635569D01*
X153187456Y-96705201D01*
X153254547Y-96771501D01*
X153324548Y-96805427D01*
X153414452Y-96813723D01*
X153455721Y-96811680D01*
X153545763Y-96795453D01*
X153614346Y-96756329D01*
X153634659Y-96738222D01*
X153703442Y-96646961D01*
X153732694Y-96550312D01*
X153727516Y-96454590D01*
X153693009Y-96366104D01*
X153634273Y-96291169D01*
X153556411Y-96236096D01*
X153464524Y-96207198D01*
X153363711Y-96210786D01*
X153259074Y-96253174D01*
X153248228Y-96260030D01*
X153177658Y-96331760D01*
X153135902Y-96427329D01*
X153124818Y-96533134D01*
X153004299Y-96533134D01*
X153012111Y-96505110D01*
X153020013Y-96450193D01*
X153057599Y-96330701D01*
X153131690Y-96224241D01*
X153157030Y-96204165D01*
X153818080Y-96204165D01*
X153837464Y-96317613D01*
X153890334Y-96410383D01*
X153968411Y-96477535D01*
X154063412Y-96514131D01*
X154167056Y-96515232D01*
X154271064Y-96475899D01*
X154272372Y-96475106D01*
X154361216Y-96400640D01*
X154409517Y-96307202D01*
X154421657Y-96208787D01*
X154404374Y-96093925D01*
X154349881Y-96003983D01*
X154272372Y-95942467D01*
X154169074Y-95903205D01*
X154065129Y-95904066D01*
X153969296Y-95940002D01*
X153890339Y-96005968D01*
X153837019Y-96096915D01*
X153818080Y-96204165D01*
X153157030Y-96204165D01*
X153232655Y-96144251D01*
X153243524Y-96138398D01*
X153329635Y-96112338D01*
X153435332Y-96105604D01*
X153539961Y-96117654D01*
X153622871Y-96147944D01*
X153623629Y-96148404D01*
X153694569Y-96191663D01*
X153720224Y-96096410D01*
X153763295Y-96003533D01*
X153837630Y-95911907D01*
X153840299Y-95909291D01*
X153892188Y-95861488D01*
X153935961Y-95833224D01*
X153987518Y-95818452D01*
X154062756Y-95811125D01*
X154104350Y-95808859D01*
X154192283Y-95805367D01*
X154249680Y-95808941D01*
G36*
X152471236Y-96678032D02*
G01*
X152488639Y-96725157D01*
X152481004Y-96782729D01*
X152452241Y-96822817D01*
X152413209Y-96842876D01*
X152378971Y-96839418D01*
X152364588Y-96809690D01*
X152373489Y-96764373D01*
X152394439Y-96711877D01*
X152418809Y-96670800D01*
X152434676Y-96658650D01*
X152471236Y-96678032D01*
G37*
X152471236Y-96678032D02*
X152488639Y-96725157D01*
X152481004Y-96782729D01*
X152452241Y-96822817D01*
X152413209Y-96842876D01*
X152378971Y-96839418D01*
X152364588Y-96809690D01*
X152373489Y-96764373D01*
X152394439Y-96711877D01*
X152418809Y-96670800D01*
X152434676Y-96658650D01*
X152471236Y-96678032D01*
G36*
X152698327Y-96505932D02*
G01*
X152706709Y-96544904D01*
X152706474Y-96546557D01*
X152680358Y-96596456D01*
X152632362Y-96618282D01*
X152580220Y-96606473D01*
X152562698Y-96591668D01*
X152540296Y-96560604D01*
X152552230Y-96540485D01*
X152584679Y-96524006D01*
X152657879Y-96499008D01*
X152698327Y-96505932D01*
G37*
X152698327Y-96505932D02*
X152706709Y-96544904D01*
X152706474Y-96546557D01*
X152680358Y-96596456D01*
X152632362Y-96618282D01*
X152580220Y-96606473D01*
X152562698Y-96591668D01*
X152540296Y-96560604D01*
X152552230Y-96540485D01*
X152584679Y-96524006D01*
X152657879Y-96499008D01*
X152698327Y-96505932D01*
D17*
X137501428Y-111711740D02*
X135977428Y-111711740D01*
X135977428Y-111348882D01*
X136050000Y-111131168D01*
X136195142Y-110986025D01*
X136340285Y-110913454D01*
X136630571Y-110840882D01*
X136848285Y-110840882D01*
X137138571Y-110913454D01*
X137283714Y-110986025D01*
X137428857Y-111131168D01*
X137501428Y-111348882D01*
X137501428Y-111711740D01*
X136703142Y-109679740D02*
X136775714Y-109462025D01*
X136848285Y-109389454D01*
X136993428Y-109316882D01*
X137211142Y-109316882D01*
X137356285Y-109389454D01*
X137428857Y-109462025D01*
X137501428Y-109607168D01*
X137501428Y-110187740D01*
X135977428Y-110187740D01*
X135977428Y-109679740D01*
X136050000Y-109534597D01*
X136122571Y-109462025D01*
X136267714Y-109389454D01*
X136412857Y-109389454D01*
X136558000Y-109462025D01*
X136630571Y-109534597D01*
X136703142Y-109679740D01*
X136703142Y-110187740D01*
X137501428Y-108591168D02*
X137501428Y-108300882D01*
X137428857Y-108155740D01*
X137356285Y-108083168D01*
X137138571Y-107938025D01*
X136848285Y-107865454D01*
X136267714Y-107865454D01*
X136122571Y-107938025D01*
X136050000Y-108010597D01*
X135977428Y-108155740D01*
X135977428Y-108446025D01*
X136050000Y-108591168D01*
X136122571Y-108663740D01*
X136267714Y-108736311D01*
X136630571Y-108736311D01*
X136775714Y-108663740D01*
X136848285Y-108591168D01*
X136920857Y-108446025D01*
X136920857Y-108155740D01*
X136848285Y-108010597D01*
X136775714Y-107938025D01*
X136630571Y-107865454D01*
X137646571Y-107575168D02*
X137646571Y-106414025D01*
X136703142Y-105543168D02*
X136703142Y-106051168D01*
X137501428Y-106051168D02*
X135977428Y-106051168D01*
X135977428Y-105325454D01*
X137646571Y-105107740D02*
X137646571Y-103946597D01*
X135977428Y-103801454D02*
X135977428Y-102930597D01*
X137501428Y-103366025D02*
X135977428Y-103366025D01*
X135977428Y-102132311D02*
X135977428Y-101842025D01*
X136050000Y-101696882D01*
X136195142Y-101551740D01*
X136485428Y-101479168D01*
X136993428Y-101479168D01*
X137283714Y-101551740D01*
X137428857Y-101696882D01*
X137501428Y-101842025D01*
X137501428Y-102132311D01*
X137428857Y-102277454D01*
X137283714Y-102422597D01*
X136993428Y-102495168D01*
X136485428Y-102495168D01*
X136195142Y-102422597D01*
X136050000Y-102277454D01*
X135977428Y-102132311D01*
X137646571Y-101188882D02*
X137646571Y-100027740D01*
X137356285Y-98794025D02*
X137428857Y-98866597D01*
X137501428Y-99084311D01*
X137501428Y-99229454D01*
X137428857Y-99447168D01*
X137283714Y-99592311D01*
X137138571Y-99664882D01*
X136848285Y-99737454D01*
X136630571Y-99737454D01*
X136340285Y-99664882D01*
X136195142Y-99592311D01*
X136050000Y-99447168D01*
X135977428Y-99229454D01*
X135977428Y-99084311D01*
X136050000Y-98866597D01*
X136122571Y-98794025D01*
X135977428Y-97487740D02*
X135977428Y-97778025D01*
X136050000Y-97923168D01*
X136122571Y-97995740D01*
X136340285Y-98140882D01*
X136630571Y-98213454D01*
X137211142Y-98213454D01*
X137356285Y-98140882D01*
X137428857Y-98068311D01*
X137501428Y-97923168D01*
X137501428Y-97632882D01*
X137428857Y-97487740D01*
X137356285Y-97415168D01*
X137211142Y-97342597D01*
X136848285Y-97342597D01*
X136703142Y-97415168D01*
X136630571Y-97487740D01*
X136558000Y-97632882D01*
X136558000Y-97923168D01*
X136630571Y-98068311D01*
X136703142Y-98140882D01*
X136848285Y-98213454D01*
X136485428Y-96036311D02*
X137501428Y-96036311D01*
X135904857Y-96399168D02*
X136993428Y-96762025D01*
X136993428Y-95818597D01*
X186955428Y-111891728D02*
X185431428Y-111891728D01*
X185431428Y-111528871D01*
X185504000Y-111311157D01*
X185649142Y-111166014D01*
X185794285Y-111093442D01*
X186084571Y-111020871D01*
X186302285Y-111020871D01*
X186592571Y-111093442D01*
X186737714Y-111166014D01*
X186882857Y-111311157D01*
X186955428Y-111528871D01*
X186955428Y-111891728D01*
X186157142Y-109859728D02*
X186229714Y-109642014D01*
X186302285Y-109569442D01*
X186447428Y-109496871D01*
X186665142Y-109496871D01*
X186810285Y-109569442D01*
X186882857Y-109642014D01*
X186955428Y-109787157D01*
X186955428Y-110367728D01*
X185431428Y-110367728D01*
X185431428Y-109859728D01*
X185504000Y-109714585D01*
X185576571Y-109642014D01*
X185721714Y-109569442D01*
X185866857Y-109569442D01*
X186012000Y-109642014D01*
X186084571Y-109714585D01*
X186157142Y-109859728D01*
X186157142Y-110367728D01*
X186955428Y-108771157D02*
X186955428Y-108480871D01*
X186882857Y-108335728D01*
X186810285Y-108263157D01*
X186592571Y-108118014D01*
X186302285Y-108045442D01*
X185721714Y-108045442D01*
X185576571Y-108118014D01*
X185504000Y-108190585D01*
X185431428Y-108335728D01*
X185431428Y-108626014D01*
X185504000Y-108771157D01*
X185576571Y-108843728D01*
X185721714Y-108916300D01*
X186084571Y-108916300D01*
X186229714Y-108843728D01*
X186302285Y-108771157D01*
X186374857Y-108626014D01*
X186374857Y-108335728D01*
X186302285Y-108190585D01*
X186229714Y-108118014D01*
X186084571Y-108045442D01*
X187100571Y-107755157D02*
X187100571Y-106594014D01*
X186955428Y-106231157D02*
X185431428Y-106231157D01*
X186520000Y-105723157D01*
X185431428Y-105215157D01*
X186955428Y-105215157D01*
X187100571Y-104852300D02*
X187100571Y-103691157D01*
X185431428Y-103546014D02*
X185431428Y-102675157D01*
X186955428Y-103110585D02*
X185431428Y-103110585D01*
X185431428Y-101876871D02*
X185431428Y-101586585D01*
X185504000Y-101441442D01*
X185649142Y-101296300D01*
X185939428Y-101223728D01*
X186447428Y-101223728D01*
X186737714Y-101296300D01*
X186882857Y-101441442D01*
X186955428Y-101586585D01*
X186955428Y-101876871D01*
X186882857Y-102022014D01*
X186737714Y-102167157D01*
X186447428Y-102239728D01*
X185939428Y-102239728D01*
X185649142Y-102167157D01*
X185504000Y-102022014D01*
X185431428Y-101876871D01*
X187100571Y-100933442D02*
X187100571Y-99772300D01*
X186955428Y-99409442D02*
X185431428Y-99409442D01*
X185431428Y-98828871D01*
X185504000Y-98683728D01*
X185576571Y-98611157D01*
X185721714Y-98538585D01*
X185939428Y-98538585D01*
X186084571Y-98611157D01*
X186157142Y-98683728D01*
X186229714Y-98828871D01*
X186229714Y-99409442D01*
X186520000Y-97958014D02*
X186520000Y-97232300D01*
X186955428Y-98103157D02*
X185431428Y-97595157D01*
X186955428Y-97087157D01*
X186955428Y-96579157D02*
X185431428Y-96579157D01*
X185431428Y-96216300D01*
X185504000Y-95998585D01*
X185649142Y-95853442D01*
X185794285Y-95780871D01*
X186084571Y-95708300D01*
X186302285Y-95708300D01*
X186592571Y-95780871D01*
X186737714Y-95853442D01*
X186882857Y-95998585D01*
X186955428Y-96216300D01*
X186955428Y-96579157D01*
D13*
X151173809Y-114611523D02*
X151211904Y-114497238D01*
X151211904Y-114306761D01*
X151173809Y-114230571D01*
X151135714Y-114192476D01*
X151059523Y-114154380D01*
X150983333Y-114154380D01*
X150907142Y-114192476D01*
X150869047Y-114230571D01*
X150830952Y-114306761D01*
X150792857Y-114459142D01*
X150754761Y-114535333D01*
X150716666Y-114573428D01*
X150640476Y-114611523D01*
X150564285Y-114611523D01*
X150488095Y-114573428D01*
X150450000Y-114535333D01*
X150411904Y-114459142D01*
X150411904Y-114268666D01*
X150450000Y-114154380D01*
X150411904Y-113887714D02*
X150411904Y-113392476D01*
X150716666Y-113659142D01*
X150716666Y-113544857D01*
X150754761Y-113468666D01*
X150792857Y-113430571D01*
X150869047Y-113392476D01*
X151059523Y-113392476D01*
X151135714Y-113430571D01*
X151173809Y-113468666D01*
X151211904Y-113544857D01*
X151211904Y-113773428D01*
X151173809Y-113849619D01*
X151135714Y-113887714D01*
X169715809Y-114611523D02*
X169753904Y-114497238D01*
X169753904Y-114306761D01*
X169715809Y-114230571D01*
X169677714Y-114192476D01*
X169601523Y-114154380D01*
X169525333Y-114154380D01*
X169449142Y-114192476D01*
X169411047Y-114230571D01*
X169372952Y-114306761D01*
X169334857Y-114459142D01*
X169296761Y-114535333D01*
X169258666Y-114573428D01*
X169182476Y-114611523D01*
X169106285Y-114611523D01*
X169030095Y-114573428D01*
X168992000Y-114535333D01*
X168953904Y-114459142D01*
X168953904Y-114268666D01*
X168992000Y-114154380D01*
X169030095Y-113849619D02*
X168992000Y-113811523D01*
X168953904Y-113735333D01*
X168953904Y-113544857D01*
X168992000Y-113468666D01*
X169030095Y-113430571D01*
X169106285Y-113392476D01*
X169182476Y-113392476D01*
X169296761Y-113430571D01*
X169753904Y-113887714D01*
X169753904Y-113392476D01*
X161841809Y-114611523D02*
X161879904Y-114497238D01*
X161879904Y-114306761D01*
X161841809Y-114230571D01*
X161803714Y-114192476D01*
X161727523Y-114154380D01*
X161651333Y-114154380D01*
X161575142Y-114192476D01*
X161537047Y-114230571D01*
X161498952Y-114306761D01*
X161460857Y-114459142D01*
X161422761Y-114535333D01*
X161384666Y-114573428D01*
X161308476Y-114611523D01*
X161232285Y-114611523D01*
X161156095Y-114573428D01*
X161118000Y-114535333D01*
X161079904Y-114459142D01*
X161079904Y-114268666D01*
X161118000Y-114154380D01*
X161879904Y-113392476D02*
X161879904Y-113849619D01*
X161879904Y-113621047D02*
X161079904Y-113621047D01*
X161194190Y-113697238D01*
X161270380Y-113773428D01*
X161308476Y-113849619D01*
X170317333Y-96371980D02*
X169984000Y-95895790D01*
X169745904Y-96371980D02*
X169745904Y-95371980D01*
X170126857Y-95371980D01*
X170222095Y-95419600D01*
X170269714Y-95467219D01*
X170317333Y-95562457D01*
X170317333Y-95705314D01*
X170269714Y-95800552D01*
X170222095Y-95848171D01*
X170126857Y-95895790D01*
X169745904Y-95895790D01*
X171222095Y-95371980D02*
X170745904Y-95371980D01*
X170698285Y-95848171D01*
X170745904Y-95800552D01*
X170841142Y-95752933D01*
X171079238Y-95752933D01*
X171174476Y-95800552D01*
X171222095Y-95848171D01*
X171269714Y-95943409D01*
X171269714Y-96181504D01*
X171222095Y-96276742D01*
X171174476Y-96324361D01*
X171079238Y-96371980D01*
X170841142Y-96371980D01*
X170745904Y-96324361D01*
X170698285Y-96276742D01*
X170317333Y-98671980D02*
X169984000Y-98195790D01*
X169745904Y-98671980D02*
X169745904Y-97671980D01*
X170126857Y-97671980D01*
X170222095Y-97719600D01*
X170269714Y-97767219D01*
X170317333Y-97862457D01*
X170317333Y-98005314D01*
X170269714Y-98100552D01*
X170222095Y-98148171D01*
X170126857Y-98195790D01*
X169745904Y-98195790D01*
X171174476Y-98005314D02*
X171174476Y-98671980D01*
X170936380Y-97624361D02*
X170698285Y-98338647D01*
X171317333Y-98338647D01*
X170317333Y-100971980D02*
X169984000Y-100495790D01*
X169745904Y-100971980D02*
X169745904Y-99971980D01*
X170126857Y-99971980D01*
X170222095Y-100019600D01*
X170269714Y-100067219D01*
X170317333Y-100162457D01*
X170317333Y-100305314D01*
X170269714Y-100400552D01*
X170222095Y-100448171D01*
X170126857Y-100495790D01*
X169745904Y-100495790D01*
X170650666Y-99971980D02*
X171269714Y-99971980D01*
X170936380Y-100352933D01*
X171079238Y-100352933D01*
X171174476Y-100400552D01*
X171222095Y-100448171D01*
X171269714Y-100543409D01*
X171269714Y-100781504D01*
X171222095Y-100876742D01*
X171174476Y-100924361D01*
X171079238Y-100971980D01*
X170793523Y-100971980D01*
X170698285Y-100924361D01*
X170650666Y-100876742D01*
X170317333Y-103271980D02*
X169984000Y-102795790D01*
X169745904Y-103271980D02*
X169745904Y-102271980D01*
X170126857Y-102271980D01*
X170222095Y-102319600D01*
X170269714Y-102367219D01*
X170317333Y-102462457D01*
X170317333Y-102605314D01*
X170269714Y-102700552D01*
X170222095Y-102748171D01*
X170126857Y-102795790D01*
X169745904Y-102795790D01*
X170698285Y-102367219D02*
X170745904Y-102319600D01*
X170841142Y-102271980D01*
X171079238Y-102271980D01*
X171174476Y-102319600D01*
X171222095Y-102367219D01*
X171269714Y-102462457D01*
X171269714Y-102557695D01*
X171222095Y-102700552D01*
X170650666Y-103271980D01*
X171269714Y-103271980D01*
X170317333Y-105571980D02*
X169984000Y-105095790D01*
X169745904Y-105571980D02*
X169745904Y-104571980D01*
X170126857Y-104571980D01*
X170222095Y-104619600D01*
X170269714Y-104667219D01*
X170317333Y-104762457D01*
X170317333Y-104905314D01*
X170269714Y-105000552D01*
X170222095Y-105048171D01*
X170126857Y-105095790D01*
X169745904Y-105095790D01*
X171269714Y-105571980D02*
X170698285Y-105571980D01*
X170984000Y-105571980D02*
X170984000Y-104571980D01*
X170888761Y-104714838D01*
X170793523Y-104810076D01*
X170698285Y-104857695D01*
D18*
X168382857Y-89328571D02*
X168325714Y-89300000D01*
X168268571Y-89242857D01*
X168182857Y-89157142D01*
X168125714Y-89128571D01*
X168068571Y-89128571D01*
X168097142Y-89271428D02*
X168040000Y-89242857D01*
X167982857Y-89185714D01*
X167954285Y-89071428D01*
X167954285Y-88871428D01*
X167982857Y-88757142D01*
X168040000Y-88700000D01*
X168097142Y-88671428D01*
X168211428Y-88671428D01*
X168268571Y-88700000D01*
X168325714Y-88757142D01*
X168354285Y-88871428D01*
X168354285Y-89071428D01*
X168325714Y-89185714D01*
X168268571Y-89242857D01*
X168211428Y-89271428D01*
X168097142Y-89271428D01*
X168582857Y-88728571D02*
X168611428Y-88700000D01*
X168668571Y-88671428D01*
X168811428Y-88671428D01*
X168868571Y-88700000D01*
X168897142Y-88728571D01*
X168925714Y-88785714D01*
X168925714Y-88842857D01*
X168897142Y-88928571D01*
X168554285Y-89271428D01*
X168925714Y-89271428D01*
X172452857Y-89328571D02*
X172395714Y-89300000D01*
X172338571Y-89242857D01*
X172252857Y-89157142D01*
X172195714Y-89128571D01*
X172138571Y-89128571D01*
X172167142Y-89271428D02*
X172110000Y-89242857D01*
X172052857Y-89185714D01*
X172024285Y-89071428D01*
X172024285Y-88871428D01*
X172052857Y-88757142D01*
X172110000Y-88700000D01*
X172167142Y-88671428D01*
X172281428Y-88671428D01*
X172338571Y-88700000D01*
X172395714Y-88757142D01*
X172424285Y-88871428D01*
X172424285Y-89071428D01*
X172395714Y-89185714D01*
X172338571Y-89242857D01*
X172281428Y-89271428D01*
X172167142Y-89271428D01*
X172995714Y-89271428D02*
X172652857Y-89271428D01*
X172824285Y-89271428D02*
X172824285Y-88671428D01*
X172767142Y-88757142D01*
X172710000Y-88814285D01*
X172652857Y-88842857D01*
D13*
X159599104Y-105571980D02*
X159599104Y-104571980D01*
X159837200Y-104571980D01*
X159980057Y-104619600D01*
X160075295Y-104714838D01*
X160122914Y-104810076D01*
X160170533Y-105000552D01*
X160170533Y-105143409D01*
X160122914Y-105333885D01*
X160075295Y-105429123D01*
X159980057Y-105524361D01*
X159837200Y-105571980D01*
X159599104Y-105571980D01*
X161027676Y-104571980D02*
X160837200Y-104571980D01*
X160741961Y-104619600D01*
X160694342Y-104667219D01*
X160599104Y-104810076D01*
X160551485Y-105000552D01*
X160551485Y-105381504D01*
X160599104Y-105476742D01*
X160646723Y-105524361D01*
X160741961Y-105571980D01*
X160932438Y-105571980D01*
X161027676Y-105524361D01*
X161075295Y-105476742D01*
X161122914Y-105381504D01*
X161122914Y-105143409D01*
X161075295Y-105048171D01*
X161027676Y-105000552D01*
X160932438Y-104952933D01*
X160741961Y-104952933D01*
X160646723Y-105000552D01*
X160599104Y-105048171D01*
X160551485Y-105143409D01*
X159611104Y-102821980D02*
X159611104Y-101821980D01*
X159849200Y-101821980D01*
X159992057Y-101869600D01*
X160087295Y-101964838D01*
X160134914Y-102060076D01*
X160182533Y-102250552D01*
X160182533Y-102393409D01*
X160134914Y-102583885D01*
X160087295Y-102679123D01*
X159992057Y-102774361D01*
X159849200Y-102821980D01*
X159611104Y-102821980D01*
X161087295Y-101821980D02*
X160611104Y-101821980D01*
X160563485Y-102298171D01*
X160611104Y-102250552D01*
X160706342Y-102202933D01*
X160944438Y-102202933D01*
X161039676Y-102250552D01*
X161087295Y-102298171D01*
X161134914Y-102393409D01*
X161134914Y-102631504D01*
X161087295Y-102726742D01*
X161039676Y-102774361D01*
X160944438Y-102821980D01*
X160706342Y-102821980D01*
X160611104Y-102774361D01*
X160563485Y-102726742D01*
X159611104Y-100071980D02*
X159611104Y-99071980D01*
X159849200Y-99071980D01*
X159992057Y-99119600D01*
X160087295Y-99214838D01*
X160134914Y-99310076D01*
X160182533Y-99500552D01*
X160182533Y-99643409D01*
X160134914Y-99833885D01*
X160087295Y-99929123D01*
X159992057Y-100024361D01*
X159849200Y-100071980D01*
X159611104Y-100071980D01*
X161039676Y-99405314D02*
X161039676Y-100071980D01*
X160801580Y-99024361D02*
X160563485Y-99738647D01*
X161182533Y-99738647D01*
X159611104Y-97321980D02*
X159611104Y-96321980D01*
X159849200Y-96321980D01*
X159992057Y-96369600D01*
X160087295Y-96464838D01*
X160134914Y-96560076D01*
X160182533Y-96750552D01*
X160182533Y-96893409D01*
X160134914Y-97083885D01*
X160087295Y-97179123D01*
X159992057Y-97274361D01*
X159849200Y-97321980D01*
X159611104Y-97321980D01*
X160515866Y-96321980D02*
X161134914Y-96321980D01*
X160801580Y-96702933D01*
X160944438Y-96702933D01*
X161039676Y-96750552D01*
X161087295Y-96798171D01*
X161134914Y-96893409D01*
X161134914Y-97131504D01*
X161087295Y-97226742D01*
X161039676Y-97274361D01*
X160944438Y-97321980D01*
X160658723Y-97321980D01*
X160563485Y-97274361D01*
X160515866Y-97226742D01*
X159611104Y-94571980D02*
X159611104Y-93571980D01*
X159849200Y-93571980D01*
X159992057Y-93619600D01*
X160087295Y-93714838D01*
X160134914Y-93810076D01*
X160182533Y-94000552D01*
X160182533Y-94143409D01*
X160134914Y-94333885D01*
X160087295Y-94429123D01*
X159992057Y-94524361D01*
X159849200Y-94571980D01*
X159611104Y-94571980D01*
X160563485Y-93667219D02*
X160611104Y-93619600D01*
X160706342Y-93571980D01*
X160944438Y-93571980D01*
X161039676Y-93619600D01*
X161087295Y-93667219D01*
X161134914Y-93762457D01*
X161134914Y-93857695D01*
X161087295Y-94000552D01*
X160515866Y-94571980D01*
X161134914Y-94571980D01*
X159531904Y-91812380D02*
X159531904Y-90812380D01*
X159770000Y-90812380D01*
X159912857Y-90860000D01*
X160008095Y-90955238D01*
X160055714Y-91050476D01*
X160103333Y-91240952D01*
X160103333Y-91383809D01*
X160055714Y-91574285D01*
X160008095Y-91669523D01*
X159912857Y-91764761D01*
X159770000Y-91812380D01*
X159531904Y-91812380D01*
X161055714Y-91812380D02*
X160484285Y-91812380D01*
X160770000Y-91812380D02*
X160770000Y-90812380D01*
X160674761Y-90955238D01*
X160579523Y-91050476D01*
X160484285Y-91098095D01*
M02*
