G04 #@! TF.GenerationSoftware,KiCad,Pcbnew,5.1.5-52549c5~86~ubuntu18.04.1*
G04 #@! TF.CreationDate,2020-05-03T19:03:43+02:00*
G04 #@! TF.ProjectId,OpenC64MegaDrivePadAdapter,4f70656e-4336-4344-9d65-676144726976,5*
G04 #@! TF.SameCoordinates,Original*
G04 #@! TF.FileFunction,Copper,L2,Bot*
G04 #@! TF.FilePolarity,Positive*
%FSLAX46Y46*%
G04 Gerber Fmt 4.6, Leading zero omitted, Abs format (unit mm)*
G04 Created by KiCad (PCBNEW 5.1.5-52549c5~86~ubuntu18.04.1) date 2020-05-03 19:03:43*
%MOMM*%
%LPD*%
G04 APERTURE LIST*
%ADD10O,1.998980X1.501140*%
%ADD11C,5.001260*%
%ADD12C,1.400000*%
%ADD13R,1.400000X1.400000*%
%ADD14O,1.400000X1.400000*%
%ADD15R,1.800000X1.100000*%
%ADD16C,0.100000*%
%ADD17O,1.600000X1.600000*%
%ADD18R,1.600000X1.600000*%
%ADD19C,1.000000*%
%ADD20C,0.250000*%
%ADD21C,0.500000*%
%ADD22C,0.025400*%
G04 APERTURE END LIST*
D10*
X142405080Y-107993180D03*
X142405080Y-105222040D03*
X142405080Y-102453440D03*
X142405080Y-99682300D03*
X145442920Y-98298000D03*
X145442920Y-101066600D03*
X145442920Y-109377480D03*
X145442920Y-106608880D03*
X145442920Y-103837740D03*
D11*
X143924000Y-116332000D03*
X179154000Y-116330560D03*
D10*
X180672920Y-99680860D03*
X180672920Y-102452000D03*
X180672920Y-105220600D03*
X180672920Y-107991740D03*
X177635080Y-109376040D03*
X177635080Y-106607440D03*
X177635080Y-98296560D03*
X177635080Y-101065160D03*
X177635080Y-103836300D03*
D11*
X179154000Y-91342040D03*
D12*
X149200000Y-116252000D03*
X149200000Y-113752000D03*
X149200000Y-111252000D03*
X152500000Y-116252000D03*
X152500000Y-113752000D03*
D13*
X152500000Y-111252000D03*
D12*
X167742000Y-116252000D03*
X167742000Y-113752000D03*
X167742000Y-111252000D03*
X171042000Y-116252000D03*
X171042000Y-113752000D03*
D13*
X171042000Y-111252000D03*
D12*
X159868000Y-116252000D03*
X159868000Y-113752000D03*
X159868000Y-111252000D03*
X163168000Y-116252000D03*
X163168000Y-113752000D03*
D13*
X163168000Y-111252000D03*
D14*
X166674000Y-95919600D03*
D12*
X174294000Y-95919600D03*
D14*
X166674000Y-98219600D03*
D12*
X174294000Y-98219600D03*
D14*
X166674000Y-100519600D03*
D12*
X174294000Y-100519600D03*
D14*
X166674000Y-102819600D03*
D12*
X174294000Y-102819600D03*
D14*
X174294000Y-105119600D03*
D12*
X166674000Y-105119600D03*
D15*
X168828696Y-93283609D03*
G04 #@! TA.AperFunction,ComponentPad*
D16*
G36*
X169480651Y-90194933D02*
G01*
X169507346Y-90198893D01*
X169533524Y-90205450D01*
X169558934Y-90214542D01*
X169583330Y-90226081D01*
X169606478Y-90239955D01*
X169628154Y-90256031D01*
X169648150Y-90274155D01*
X169666274Y-90294151D01*
X169682350Y-90315827D01*
X169696224Y-90338975D01*
X169707763Y-90363371D01*
X169716855Y-90388781D01*
X169723412Y-90414959D01*
X169727372Y-90441654D01*
X169728696Y-90468609D01*
X169728696Y-91018609D01*
X169727372Y-91045564D01*
X169723412Y-91072259D01*
X169716855Y-91098437D01*
X169707763Y-91123847D01*
X169696224Y-91148243D01*
X169682350Y-91171391D01*
X169666274Y-91193067D01*
X169648150Y-91213063D01*
X169628154Y-91231187D01*
X169606478Y-91247263D01*
X169583330Y-91261137D01*
X169558934Y-91272676D01*
X169533524Y-91281768D01*
X169507346Y-91288325D01*
X169480651Y-91292285D01*
X169453696Y-91293609D01*
X168203696Y-91293609D01*
X168176741Y-91292285D01*
X168150046Y-91288325D01*
X168123868Y-91281768D01*
X168098458Y-91272676D01*
X168074062Y-91261137D01*
X168050914Y-91247263D01*
X168029238Y-91231187D01*
X168009242Y-91213063D01*
X167991118Y-91193067D01*
X167975042Y-91171391D01*
X167961168Y-91148243D01*
X167949629Y-91123847D01*
X167940537Y-91098437D01*
X167933980Y-91072259D01*
X167930020Y-91045564D01*
X167928696Y-91018609D01*
X167928696Y-90468609D01*
X167930020Y-90441654D01*
X167933980Y-90414959D01*
X167940537Y-90388781D01*
X167949629Y-90363371D01*
X167961168Y-90338975D01*
X167975042Y-90315827D01*
X167991118Y-90294151D01*
X168009242Y-90274155D01*
X168029238Y-90256031D01*
X168050914Y-90239955D01*
X168074062Y-90226081D01*
X168098458Y-90214542D01*
X168123868Y-90205450D01*
X168150046Y-90198893D01*
X168176741Y-90194933D01*
X168203696Y-90193609D01*
X169453696Y-90193609D01*
X169480651Y-90194933D01*
G37*
G04 #@! TD.AperFunction*
G04 #@! TA.AperFunction,ComponentPad*
G36*
X167410651Y-91464933D02*
G01*
X167437346Y-91468893D01*
X167463524Y-91475450D01*
X167488934Y-91484542D01*
X167513330Y-91496081D01*
X167536478Y-91509955D01*
X167558154Y-91526031D01*
X167578150Y-91544155D01*
X167596274Y-91564151D01*
X167612350Y-91585827D01*
X167626224Y-91608975D01*
X167637763Y-91633371D01*
X167646855Y-91658781D01*
X167653412Y-91684959D01*
X167657372Y-91711654D01*
X167658696Y-91738609D01*
X167658696Y-92288609D01*
X167657372Y-92315564D01*
X167653412Y-92342259D01*
X167646855Y-92368437D01*
X167637763Y-92393847D01*
X167626224Y-92418243D01*
X167612350Y-92441391D01*
X167596274Y-92463067D01*
X167578150Y-92483063D01*
X167558154Y-92501187D01*
X167536478Y-92517263D01*
X167513330Y-92531137D01*
X167488934Y-92542676D01*
X167463524Y-92551768D01*
X167437346Y-92558325D01*
X167410651Y-92562285D01*
X167383696Y-92563609D01*
X166133696Y-92563609D01*
X166106741Y-92562285D01*
X166080046Y-92558325D01*
X166053868Y-92551768D01*
X166028458Y-92542676D01*
X166004062Y-92531137D01*
X165980914Y-92517263D01*
X165959238Y-92501187D01*
X165939242Y-92483063D01*
X165921118Y-92463067D01*
X165905042Y-92441391D01*
X165891168Y-92418243D01*
X165879629Y-92393847D01*
X165870537Y-92368437D01*
X165863980Y-92342259D01*
X165860020Y-92315564D01*
X165858696Y-92288609D01*
X165858696Y-91738609D01*
X165860020Y-91711654D01*
X165863980Y-91684959D01*
X165870537Y-91658781D01*
X165879629Y-91633371D01*
X165891168Y-91608975D01*
X165905042Y-91585827D01*
X165921118Y-91564151D01*
X165939242Y-91544155D01*
X165959238Y-91526031D01*
X165980914Y-91509955D01*
X166004062Y-91496081D01*
X166028458Y-91484542D01*
X166053868Y-91475450D01*
X166080046Y-91468893D01*
X166106741Y-91464933D01*
X166133696Y-91463609D01*
X167383696Y-91463609D01*
X167410651Y-91464933D01*
G37*
G04 #@! TD.AperFunction*
D15*
X172114407Y-90743609D03*
G04 #@! TA.AperFunction,ComponentPad*
D16*
G36*
X172766362Y-92734933D02*
G01*
X172793057Y-92738893D01*
X172819235Y-92745450D01*
X172844645Y-92754542D01*
X172869041Y-92766081D01*
X172892189Y-92779955D01*
X172913865Y-92796031D01*
X172933861Y-92814155D01*
X172951985Y-92834151D01*
X172968061Y-92855827D01*
X172981935Y-92878975D01*
X172993474Y-92903371D01*
X173002566Y-92928781D01*
X173009123Y-92954959D01*
X173013083Y-92981654D01*
X173014407Y-93008609D01*
X173014407Y-93558609D01*
X173013083Y-93585564D01*
X173009123Y-93612259D01*
X173002566Y-93638437D01*
X172993474Y-93663847D01*
X172981935Y-93688243D01*
X172968061Y-93711391D01*
X172951985Y-93733067D01*
X172933861Y-93753063D01*
X172913865Y-93771187D01*
X172892189Y-93787263D01*
X172869041Y-93801137D01*
X172844645Y-93812676D01*
X172819235Y-93821768D01*
X172793057Y-93828325D01*
X172766362Y-93832285D01*
X172739407Y-93833609D01*
X171489407Y-93833609D01*
X171462452Y-93832285D01*
X171435757Y-93828325D01*
X171409579Y-93821768D01*
X171384169Y-93812676D01*
X171359773Y-93801137D01*
X171336625Y-93787263D01*
X171314949Y-93771187D01*
X171294953Y-93753063D01*
X171276829Y-93733067D01*
X171260753Y-93711391D01*
X171246879Y-93688243D01*
X171235340Y-93663847D01*
X171226248Y-93638437D01*
X171219691Y-93612259D01*
X171215731Y-93585564D01*
X171214407Y-93558609D01*
X171214407Y-93008609D01*
X171215731Y-92981654D01*
X171219691Y-92954959D01*
X171226248Y-92928781D01*
X171235340Y-92903371D01*
X171246879Y-92878975D01*
X171260753Y-92855827D01*
X171276829Y-92834151D01*
X171294953Y-92814155D01*
X171314949Y-92796031D01*
X171336625Y-92779955D01*
X171359773Y-92766081D01*
X171384169Y-92754542D01*
X171409579Y-92745450D01*
X171435757Y-92738893D01*
X171462452Y-92734933D01*
X171489407Y-92733609D01*
X172739407Y-92733609D01*
X172766362Y-92734933D01*
G37*
G04 #@! TD.AperFunction*
G04 #@! TA.AperFunction,ComponentPad*
G36*
X174836362Y-91464933D02*
G01*
X174863057Y-91468893D01*
X174889235Y-91475450D01*
X174914645Y-91484542D01*
X174939041Y-91496081D01*
X174962189Y-91509955D01*
X174983865Y-91526031D01*
X175003861Y-91544155D01*
X175021985Y-91564151D01*
X175038061Y-91585827D01*
X175051935Y-91608975D01*
X175063474Y-91633371D01*
X175072566Y-91658781D01*
X175079123Y-91684959D01*
X175083083Y-91711654D01*
X175084407Y-91738609D01*
X175084407Y-92288609D01*
X175083083Y-92315564D01*
X175079123Y-92342259D01*
X175072566Y-92368437D01*
X175063474Y-92393847D01*
X175051935Y-92418243D01*
X175038061Y-92441391D01*
X175021985Y-92463067D01*
X175003861Y-92483063D01*
X174983865Y-92501187D01*
X174962189Y-92517263D01*
X174939041Y-92531137D01*
X174914645Y-92542676D01*
X174889235Y-92551768D01*
X174863057Y-92558325D01*
X174836362Y-92562285D01*
X174809407Y-92563609D01*
X173559407Y-92563609D01*
X173532452Y-92562285D01*
X173505757Y-92558325D01*
X173479579Y-92551768D01*
X173454169Y-92542676D01*
X173429773Y-92531137D01*
X173406625Y-92517263D01*
X173384949Y-92501187D01*
X173364953Y-92483063D01*
X173346829Y-92463067D01*
X173330753Y-92441391D01*
X173316879Y-92418243D01*
X173305340Y-92393847D01*
X173296248Y-92368437D01*
X173289691Y-92342259D01*
X173285731Y-92315564D01*
X173284407Y-92288609D01*
X173284407Y-91738609D01*
X173285731Y-91711654D01*
X173289691Y-91684959D01*
X173296248Y-91658781D01*
X173305340Y-91633371D01*
X173316879Y-91608975D01*
X173330753Y-91585827D01*
X173346829Y-91564151D01*
X173364953Y-91544155D01*
X173384949Y-91526031D01*
X173406625Y-91509955D01*
X173429773Y-91496081D01*
X173454169Y-91484542D01*
X173479579Y-91475450D01*
X173505757Y-91468893D01*
X173532452Y-91464933D01*
X173559407Y-91463609D01*
X174809407Y-91463609D01*
X174836362Y-91464933D01*
G37*
G04 #@! TD.AperFunction*
D17*
X156527200Y-105119600D03*
D18*
X164147200Y-105119600D03*
D17*
X156539200Y-102369600D03*
D18*
X164159200Y-102369600D03*
D17*
X156539200Y-99619600D03*
D18*
X164159200Y-99619600D03*
D17*
X156539200Y-96869600D03*
D18*
X164159200Y-96869600D03*
D17*
X156539200Y-94119600D03*
D18*
X164159200Y-94119600D03*
D17*
X156539200Y-91369600D03*
D18*
X164159200Y-91369600D03*
D19*
X139352000Y-104140000D03*
X139352000Y-106680000D03*
X139352000Y-109220000D03*
X139352000Y-111760000D03*
X139352000Y-114300000D03*
X139352000Y-116840000D03*
X156483974Y-111251668D03*
X156483974Y-113801668D03*
X184488000Y-116930000D03*
X184488000Y-114390000D03*
X184488000Y-111850000D03*
X184488000Y-109310000D03*
X184488000Y-106770000D03*
X184488000Y-104230000D03*
X184488000Y-101690000D03*
X184488000Y-99150000D03*
X184488000Y-96610000D03*
X184488000Y-94070000D03*
X184488000Y-91530000D03*
X139352000Y-96520000D03*
X139352000Y-99060000D03*
X139352000Y-101600000D03*
X156483974Y-116301668D03*
D20*
X198860000Y-93510000D02*
X198860000Y-93430000D01*
X156539200Y-105107600D02*
X156527200Y-105119600D01*
X156539200Y-102369600D02*
X156539200Y-105107600D01*
X148711920Y-109377480D02*
X145194000Y-109377480D01*
X152969800Y-105119600D02*
X148711920Y-109377480D01*
X156527200Y-105119600D02*
X152969800Y-105119600D01*
X146806920Y-106608880D02*
X145194000Y-106608880D01*
X156539200Y-96876600D02*
X146806920Y-106608880D01*
X156527600Y-94119600D02*
X146809460Y-103837740D01*
X146809460Y-103837740D02*
X145194000Y-103837740D01*
X161518600Y-114501400D02*
X159768000Y-116252000D01*
X161518600Y-112826800D02*
X161518600Y-114501400D01*
X163068000Y-111277400D02*
X161518600Y-112826800D01*
X163068000Y-109753400D02*
X163068000Y-111277400D01*
X164159200Y-99619600D02*
X164032400Y-99619600D01*
X164032400Y-99619600D02*
X161417000Y-102235000D01*
X161417000Y-102235000D02*
X161417000Y-108102400D01*
X161417000Y-108102400D02*
X163068000Y-109753400D01*
X146812000Y-101066600D02*
X145194000Y-101066600D01*
X156509000Y-91369600D02*
X146812000Y-101066600D01*
X164159200Y-102369600D02*
X163492200Y-102369600D01*
X163492200Y-102369600D02*
X162433000Y-103428800D01*
X162433000Y-103428800D02*
X162433000Y-105994200D01*
X162433000Y-105994200D02*
X167642000Y-111203200D01*
X147759420Y-107993180D02*
X142654000Y-107993180D01*
X156133000Y-99619600D02*
X147759420Y-107993180D01*
X156539200Y-99619600D02*
X156133000Y-99619600D01*
X165080000Y-104170000D02*
X164147200Y-105119600D01*
X165270000Y-103980000D02*
X165080000Y-104170000D01*
X177884000Y-109376040D02*
X174546040Y-109376040D01*
X169150000Y-103980000D02*
X165270000Y-103980000D01*
X174546040Y-109376040D02*
X169150000Y-103980000D01*
X158394400Y-115125600D02*
X159768000Y-113752000D01*
X158394400Y-117246400D02*
X158394400Y-115125600D01*
X182310860Y-99680860D02*
X182950000Y-100320000D01*
X180424000Y-99680860D02*
X182310860Y-99680860D01*
X182950000Y-100320000D02*
X182950000Y-108240000D01*
X182950000Y-108240000D02*
X172600000Y-118590000D01*
X159738000Y-118590000D02*
X158394400Y-117246400D01*
X172600000Y-118590000D02*
X159738000Y-118590000D01*
X180424000Y-108986000D02*
X180424000Y-107991740D01*
X171550000Y-117860000D02*
X180424000Y-108986000D01*
X163168000Y-113752000D02*
X167276000Y-117860000D01*
X167276000Y-117860000D02*
X171550000Y-117860000D01*
X140589000Y-101346000D02*
X142252700Y-99682300D01*
X142621000Y-111887000D02*
X140589000Y-109855000D01*
X142252700Y-99682300D02*
X142654000Y-99682300D01*
X140589000Y-109855000D02*
X140589000Y-101346000D01*
X149100000Y-113743200D02*
X147243800Y-111887000D01*
X147243800Y-111887000D02*
X142621000Y-111887000D01*
D21*
X139352000Y-104140000D02*
X139352000Y-106680000D01*
X139352000Y-109220000D02*
X139352000Y-111760000D01*
X139352000Y-114300000D02*
X139352000Y-116840000D01*
X184488000Y-114390000D02*
X184488000Y-116930000D01*
X184488000Y-109310000D02*
X184488000Y-111850000D01*
X184488000Y-104230000D02*
X184488000Y-106770000D01*
X184488000Y-99150000D02*
X184488000Y-101690000D01*
X184488000Y-94070000D02*
X184488000Y-96610000D01*
X139352000Y-99060000D02*
X139352000Y-101600000D01*
D16*
X156483974Y-116301668D02*
X156483974Y-113801668D01*
D20*
X149200000Y-111251600D02*
X149200000Y-111252000D01*
X172514407Y-90743609D02*
X172514407Y-90284407D01*
X153263600Y-107188000D02*
X149200000Y-111251600D01*
X157226000Y-107188000D02*
X153263600Y-107188000D01*
X172514407Y-90284407D02*
X171384000Y-89154000D01*
X171384000Y-89154000D02*
X160985200Y-89154000D01*
X160985200Y-89154000D02*
X158242000Y-91897200D01*
X158242000Y-106172000D02*
X157226000Y-107188000D01*
X158242000Y-91897200D02*
X158242000Y-106172000D01*
X175717700Y-101670000D02*
X177884000Y-103836300D01*
X172910000Y-101670000D02*
X175717700Y-101670000D01*
X170500000Y-99260000D02*
X172910000Y-101670000D01*
X170500000Y-97730000D02*
X170500000Y-99260000D01*
X164130000Y-94120000D02*
X166950000Y-94120000D01*
X166950000Y-94120000D02*
X170500000Y-97730000D01*
X165860000Y-89680000D02*
X165840000Y-89680000D01*
X164159200Y-91369600D02*
X164160400Y-91369600D01*
X165850000Y-89680000D02*
X165860000Y-89680000D01*
X164160400Y-91369600D02*
X165850000Y-89680000D01*
X169950000Y-89680000D02*
X165860000Y-89680000D01*
X176925962Y-101065160D02*
X175220802Y-99360000D01*
X175220802Y-99360000D02*
X173400000Y-99360000D01*
X170484800Y-90214800D02*
X169950000Y-89680000D01*
X177884000Y-101065160D02*
X176925962Y-101065160D01*
X173400000Y-99360000D02*
X170484800Y-96444800D01*
X170484800Y-96444800D02*
X170484800Y-90214800D01*
X173677440Y-106607440D02*
X177884000Y-106607440D01*
X168220000Y-98000000D02*
X168220000Y-101150000D01*
X168220000Y-101150000D02*
X173677440Y-106607440D01*
X167290000Y-97070000D02*
X168220000Y-98000000D01*
X164159200Y-96869600D02*
X164359600Y-97070000D01*
X164359600Y-97070000D02*
X167290000Y-97070000D01*
X151058000Y-118110000D02*
X156464000Y-118110000D01*
X149200000Y-116252000D02*
X151058000Y-118110000D01*
X157632400Y-116941600D02*
X157632400Y-110845600D01*
X157632400Y-110845600D02*
X160375600Y-108102400D01*
X156464000Y-118110000D02*
X157632400Y-116941600D01*
X161360400Y-98219600D02*
X160380000Y-99200000D01*
X166674000Y-98219600D02*
X161360400Y-98219600D01*
X160375600Y-108102400D02*
X160380000Y-99200000D01*
X159283400Y-107010200D02*
X159283400Y-95859600D01*
X159283400Y-95859600D02*
X162382200Y-92760800D01*
X162382200Y-92760800D02*
X166911505Y-92760800D01*
X166911505Y-92760800D02*
X167158696Y-92513609D01*
X152541600Y-113752000D02*
X159283400Y-107010200D01*
X168228000Y-116252000D02*
X167642000Y-116252000D01*
X169265600Y-115214400D02*
X168228000Y-116252000D01*
X166674000Y-105119600D02*
X166689200Y-105119600D01*
X169265600Y-107696000D02*
X169265600Y-115214400D01*
X169250400Y-107696000D02*
X166674000Y-105119600D01*
X169265600Y-107696000D02*
X169250400Y-107696000D01*
X166258400Y-95504000D02*
X166674000Y-95919600D01*
X167389600Y-95919600D02*
X166674000Y-95919600D01*
X176360600Y-105220600D02*
X175130000Y-103990000D01*
X175130000Y-103990000D02*
X172880000Y-103990000D01*
X180424000Y-105220600D02*
X176360600Y-105220600D01*
X169220000Y-100330000D02*
X169220000Y-97750000D01*
X172880000Y-103990000D02*
X169220000Y-100330000D01*
X169220000Y-97750000D02*
X167389600Y-95919600D01*
D22*
G36*
X177968790Y-88826551D02*
G01*
X177720915Y-88959043D01*
X177413105Y-89259895D01*
X179154000Y-91000790D01*
X180894895Y-89259895D01*
X180587085Y-88959043D01*
X180108233Y-88731700D01*
X187628300Y-88731700D01*
X187628301Y-119038300D01*
X179761922Y-119038300D01*
X179825689Y-119028937D01*
X180339210Y-118846049D01*
X180587085Y-118713557D01*
X180894895Y-118412705D01*
X179154000Y-116671810D01*
X177413105Y-118412705D01*
X177720915Y-118713557D01*
X178213351Y-118947349D01*
X178574193Y-119038300D01*
X144541729Y-119038300D01*
X144595689Y-119030377D01*
X145109210Y-118847489D01*
X145357085Y-118714997D01*
X145664895Y-118414145D01*
X143924000Y-116673250D01*
X142183105Y-118414145D01*
X142490915Y-118714997D01*
X142983351Y-118948789D01*
X143338480Y-119038300D01*
X135381700Y-119038300D01*
X135381700Y-116464356D01*
X141146432Y-116464356D01*
X141225623Y-117003689D01*
X141408511Y-117517210D01*
X141541003Y-117765085D01*
X141841855Y-118072895D01*
X143582750Y-116332000D01*
X144265250Y-116332000D01*
X146006145Y-118072895D01*
X146306997Y-117765085D01*
X146540789Y-117272649D01*
X146674020Y-116744064D01*
X146701568Y-116199644D01*
X146622377Y-115660311D01*
X146439489Y-115146790D01*
X146306997Y-114898915D01*
X146006145Y-114591105D01*
X144265250Y-116332000D01*
X143582750Y-116332000D01*
X141841855Y-114591105D01*
X141541003Y-114898915D01*
X141307211Y-115391351D01*
X141173980Y-115919936D01*
X141146432Y-116464356D01*
X135381700Y-116464356D01*
X135381700Y-114249855D01*
X142183105Y-114249855D01*
X143924000Y-115990750D01*
X145664895Y-114249855D01*
X145357085Y-113949003D01*
X144864649Y-113715211D01*
X144336064Y-113581980D01*
X143791644Y-113554432D01*
X143252311Y-113633623D01*
X142738790Y-113816511D01*
X142490915Y-113949003D01*
X142183105Y-114249855D01*
X135381700Y-114249855D01*
X135381700Y-101346000D01*
X140195405Y-101346000D01*
X140197301Y-101365250D01*
X140197300Y-109835760D01*
X140195405Y-109855000D01*
X140197300Y-109874239D01*
X140202968Y-109931786D01*
X140225366Y-110005621D01*
X140261738Y-110073669D01*
X140310686Y-110133314D01*
X140325642Y-110145588D01*
X142330417Y-112150364D01*
X142342686Y-112165314D01*
X142402330Y-112214262D01*
X142470378Y-112250634D01*
X142544213Y-112273032D01*
X142621000Y-112280595D01*
X142640240Y-112278700D01*
X147081554Y-112278700D01*
X148271161Y-113468308D01*
X148270450Y-113470024D01*
X148233300Y-113656788D01*
X148233300Y-113847212D01*
X148270450Y-114033976D01*
X148343322Y-114209904D01*
X148449115Y-114368235D01*
X148583765Y-114502885D01*
X148742096Y-114608678D01*
X148918024Y-114681550D01*
X149104788Y-114718700D01*
X149295212Y-114718700D01*
X149481976Y-114681550D01*
X149657904Y-114608678D01*
X149816235Y-114502885D01*
X149950885Y-114368235D01*
X150056678Y-114209904D01*
X150129550Y-114033976D01*
X150166700Y-113847212D01*
X150166700Y-113656788D01*
X150129550Y-113470024D01*
X150056678Y-113294096D01*
X149950885Y-113135765D01*
X149816235Y-113001115D01*
X149657904Y-112895322D01*
X149481976Y-112822450D01*
X149295212Y-112785300D01*
X149104788Y-112785300D01*
X148918024Y-112822450D01*
X148787332Y-112876585D01*
X147534387Y-111623641D01*
X147522114Y-111608686D01*
X147462470Y-111559738D01*
X147394422Y-111523366D01*
X147320587Y-111500968D01*
X147263040Y-111495300D01*
X147243800Y-111493405D01*
X147224560Y-111495300D01*
X142783247Y-111495300D01*
X142444735Y-111156788D01*
X148233300Y-111156788D01*
X148233300Y-111347212D01*
X148270450Y-111533976D01*
X148343322Y-111709904D01*
X148449115Y-111868235D01*
X148583765Y-112002885D01*
X148742096Y-112108678D01*
X148918024Y-112181550D01*
X149104788Y-112218700D01*
X149295212Y-112218700D01*
X149481976Y-112181550D01*
X149657904Y-112108678D01*
X149816235Y-112002885D01*
X149867120Y-111952000D01*
X151532010Y-111952000D01*
X151537159Y-112004282D01*
X151552410Y-112054555D01*
X151577174Y-112100887D01*
X151610502Y-112141498D01*
X151651113Y-112174826D01*
X151697445Y-112199590D01*
X151747718Y-112214841D01*
X151800000Y-112219990D01*
X152192025Y-112218700D01*
X152258700Y-112152025D01*
X152258700Y-111493300D01*
X152741300Y-111493300D01*
X152741300Y-112152025D01*
X152807975Y-112218700D01*
X153200000Y-112219990D01*
X153252282Y-112214841D01*
X153302555Y-112199590D01*
X153348887Y-112174826D01*
X153389498Y-112141498D01*
X153422826Y-112100887D01*
X153447590Y-112054555D01*
X153462841Y-112004282D01*
X153467990Y-111952000D01*
X153466700Y-111559975D01*
X153400025Y-111493300D01*
X152741300Y-111493300D01*
X152258700Y-111493300D01*
X151599975Y-111493300D01*
X151533300Y-111559975D01*
X151532010Y-111952000D01*
X149867120Y-111952000D01*
X149950885Y-111868235D01*
X150056678Y-111709904D01*
X150129550Y-111533976D01*
X150166700Y-111347212D01*
X150166700Y-111156788D01*
X150129550Y-110970024D01*
X150102010Y-110903536D01*
X150453546Y-110552000D01*
X151532010Y-110552000D01*
X151533300Y-110944025D01*
X151599975Y-111010700D01*
X152258700Y-111010700D01*
X152258700Y-110351975D01*
X152741300Y-110351975D01*
X152741300Y-111010700D01*
X153400025Y-111010700D01*
X153466700Y-110944025D01*
X153467990Y-110552000D01*
X153462841Y-110499718D01*
X153447590Y-110449445D01*
X153422826Y-110403113D01*
X153389498Y-110362502D01*
X153348887Y-110329174D01*
X153302555Y-110304410D01*
X153252282Y-110289159D01*
X153200000Y-110284010D01*
X152807975Y-110285300D01*
X152741300Y-110351975D01*
X152258700Y-110351975D01*
X152192025Y-110285300D01*
X151800000Y-110284010D01*
X151747718Y-110289159D01*
X151697445Y-110304410D01*
X151651113Y-110329174D01*
X151610502Y-110362502D01*
X151577174Y-110403113D01*
X151552410Y-110449445D01*
X151537159Y-110499718D01*
X151532010Y-110552000D01*
X150453546Y-110552000D01*
X153425848Y-107579700D01*
X157206760Y-107579700D01*
X157226000Y-107581595D01*
X157245240Y-107579700D01*
X157302787Y-107574032D01*
X157376622Y-107551634D01*
X157444670Y-107515262D01*
X157504314Y-107466314D01*
X157516587Y-107451359D01*
X158505364Y-106462583D01*
X158520314Y-106450314D01*
X158569262Y-106390670D01*
X158605634Y-106322622D01*
X158628032Y-106248787D01*
X158633700Y-106191240D01*
X158635595Y-106172000D01*
X158633700Y-106152760D01*
X158633700Y-92059446D01*
X161147447Y-89545700D01*
X165430352Y-89545700D01*
X164674443Y-90301610D01*
X163359200Y-90301610D01*
X163306918Y-90306759D01*
X163256645Y-90322010D01*
X163210313Y-90346774D01*
X163169702Y-90380102D01*
X163136374Y-90420713D01*
X163111610Y-90467045D01*
X163096359Y-90517318D01*
X163091210Y-90569600D01*
X163091210Y-92169600D01*
X163096359Y-92221882D01*
X163111610Y-92272155D01*
X163136374Y-92318487D01*
X163169702Y-92359098D01*
X163181890Y-92369100D01*
X162401440Y-92369100D01*
X162382200Y-92367205D01*
X162362960Y-92369100D01*
X162305413Y-92374768D01*
X162231578Y-92397166D01*
X162163530Y-92433538D01*
X162103886Y-92482486D01*
X162091617Y-92497436D01*
X159020037Y-95569017D01*
X159005087Y-95581286D01*
X158965912Y-95629022D01*
X158956138Y-95640931D01*
X158919767Y-95708978D01*
X158897368Y-95782814D01*
X158889805Y-95859600D01*
X158891701Y-95878850D01*
X158891700Y-106847953D01*
X152877596Y-112862057D01*
X152781976Y-112822450D01*
X152595212Y-112785300D01*
X152404788Y-112785300D01*
X152218024Y-112822450D01*
X152042096Y-112895322D01*
X151883765Y-113001115D01*
X151749115Y-113135765D01*
X151643322Y-113294096D01*
X151570450Y-113470024D01*
X151533300Y-113656788D01*
X151533300Y-113847212D01*
X151570450Y-114033976D01*
X151643322Y-114209904D01*
X151749115Y-114368235D01*
X151883765Y-114502885D01*
X152042096Y-114608678D01*
X152218024Y-114681550D01*
X152404788Y-114718700D01*
X152595212Y-114718700D01*
X152781976Y-114681550D01*
X152957904Y-114608678D01*
X153116235Y-114502885D01*
X153250885Y-114368235D01*
X153356678Y-114209904D01*
X153429550Y-114033976D01*
X153466700Y-113847212D01*
X153466700Y-113656788D01*
X153429550Y-113470024D01*
X153414311Y-113433235D01*
X159546765Y-107300782D01*
X159561714Y-107288514D01*
X159610662Y-107228870D01*
X159647034Y-107160822D01*
X159669432Y-107086987D01*
X159675100Y-107029440D01*
X159675100Y-107029439D01*
X159676995Y-107010200D01*
X159675100Y-106990960D01*
X159675100Y-96021846D01*
X162544447Y-93152500D01*
X163151321Y-93152500D01*
X163136374Y-93170713D01*
X163111610Y-93217045D01*
X163096359Y-93267318D01*
X163091210Y-93319600D01*
X163091210Y-94919600D01*
X163096359Y-94971882D01*
X163111610Y-95022155D01*
X163136374Y-95068487D01*
X163169702Y-95109098D01*
X163210313Y-95142426D01*
X163256645Y-95167190D01*
X163306918Y-95182441D01*
X163359200Y-95187590D01*
X164959200Y-95187590D01*
X165011482Y-95182441D01*
X165061755Y-95167190D01*
X165108087Y-95142426D01*
X165148698Y-95109098D01*
X165182026Y-95068487D01*
X165206790Y-95022155D01*
X165222041Y-94971882D01*
X165227190Y-94919600D01*
X165227190Y-94511700D01*
X166785827Y-94511700D01*
X170108300Y-97890328D01*
X170108301Y-99240750D01*
X170106405Y-99260000D01*
X170113968Y-99336786D01*
X170136367Y-99410622D01*
X170167559Y-99468978D01*
X170172739Y-99478670D01*
X170221687Y-99538314D01*
X170236637Y-99550583D01*
X172619417Y-101933364D01*
X172631686Y-101948314D01*
X172674644Y-101983568D01*
X172691330Y-101997262D01*
X172759377Y-102033634D01*
X172788071Y-102042338D01*
X172833213Y-102056032D01*
X172890760Y-102061700D01*
X172910000Y-102063595D01*
X172929240Y-102061700D01*
X173688264Y-102061700D01*
X173677765Y-102068715D01*
X173543115Y-102203365D01*
X173437322Y-102361696D01*
X173364450Y-102537624D01*
X173327300Y-102724388D01*
X173327300Y-102914812D01*
X173364450Y-103101576D01*
X173437322Y-103277504D01*
X173543115Y-103435835D01*
X173677765Y-103570485D01*
X173719393Y-103598300D01*
X173042247Y-103598300D01*
X169611700Y-100167754D01*
X169611700Y-97769240D01*
X169613595Y-97750000D01*
X169606032Y-97673214D01*
X169583634Y-97599378D01*
X169570711Y-97575201D01*
X169547262Y-97531330D01*
X169498314Y-97471686D01*
X169483364Y-97459417D01*
X167680188Y-95656242D01*
X167667914Y-95641286D01*
X167608270Y-95592338D01*
X167578116Y-95576220D01*
X167530678Y-95461696D01*
X167424885Y-95303365D01*
X167290235Y-95168715D01*
X167131904Y-95062922D01*
X166955976Y-94990050D01*
X166769212Y-94952900D01*
X166578788Y-94952900D01*
X166392024Y-94990050D01*
X166216096Y-95062922D01*
X166069855Y-95160637D01*
X166039731Y-95176738D01*
X165980087Y-95225687D01*
X165931138Y-95285331D01*
X165915037Y-95315455D01*
X165817322Y-95461696D01*
X165744450Y-95637624D01*
X165707300Y-95824388D01*
X165707300Y-96014812D01*
X165744450Y-96201576D01*
X165817322Y-96377504D01*
X165923115Y-96535835D01*
X166057765Y-96670485D01*
X166069461Y-96678300D01*
X165227190Y-96678300D01*
X165227190Y-96069600D01*
X165222041Y-96017318D01*
X165206790Y-95967045D01*
X165182026Y-95920713D01*
X165148698Y-95880102D01*
X165108087Y-95846774D01*
X165061755Y-95822010D01*
X165011482Y-95806759D01*
X164959200Y-95801610D01*
X163359200Y-95801610D01*
X163306918Y-95806759D01*
X163256645Y-95822010D01*
X163210313Y-95846774D01*
X163169702Y-95880102D01*
X163136374Y-95920713D01*
X163111610Y-95967045D01*
X163096359Y-96017318D01*
X163091210Y-96069600D01*
X163091210Y-97669600D01*
X163096359Y-97721882D01*
X163111610Y-97772155D01*
X163136374Y-97818487D01*
X163144099Y-97827900D01*
X161379640Y-97827900D01*
X161360400Y-97826005D01*
X161341160Y-97827900D01*
X161283613Y-97833568D01*
X161209778Y-97855966D01*
X161141730Y-97892338D01*
X161082086Y-97941286D01*
X161069817Y-97956236D01*
X160116705Y-98909349D01*
X160101824Y-98921549D01*
X160089487Y-98936567D01*
X160089422Y-98936632D01*
X160077548Y-98951101D01*
X160052847Y-98981169D01*
X160052802Y-98981253D01*
X160052738Y-98981331D01*
X160034340Y-99015752D01*
X160016441Y-99049199D01*
X160016412Y-99049293D01*
X160016367Y-99049378D01*
X160005292Y-99085884D01*
X159994006Y-99123023D01*
X159993996Y-99123121D01*
X159993968Y-99123214D01*
X159990135Y-99162133D01*
X159988310Y-99180567D01*
X159988310Y-99180659D01*
X159986405Y-99200000D01*
X159988291Y-99219148D01*
X159983981Y-107940072D01*
X157369037Y-110555017D01*
X157354087Y-110567286D01*
X157312425Y-110618052D01*
X157305138Y-110626931D01*
X157268767Y-110694978D01*
X157246368Y-110768814D01*
X157238805Y-110845600D01*
X157240701Y-110864850D01*
X157240700Y-116779352D01*
X156301754Y-117718300D01*
X151220247Y-117718300D01*
X150102127Y-116600181D01*
X150129550Y-116533976D01*
X150166700Y-116347212D01*
X150166700Y-116156788D01*
X151533300Y-116156788D01*
X151533300Y-116347212D01*
X151570450Y-116533976D01*
X151643322Y-116709904D01*
X151749115Y-116868235D01*
X151883765Y-117002885D01*
X152042096Y-117108678D01*
X152218024Y-117181550D01*
X152404788Y-117218700D01*
X152595212Y-117218700D01*
X152781976Y-117181550D01*
X152957904Y-117108678D01*
X153116235Y-117002885D01*
X153250885Y-116868235D01*
X153356678Y-116709904D01*
X153429550Y-116533976D01*
X153466700Y-116347212D01*
X153466700Y-116156788D01*
X153429550Y-115970024D01*
X153356678Y-115794096D01*
X153250885Y-115635765D01*
X153116235Y-115501115D01*
X152957904Y-115395322D01*
X152781976Y-115322450D01*
X152595212Y-115285300D01*
X152404788Y-115285300D01*
X152218024Y-115322450D01*
X152042096Y-115395322D01*
X151883765Y-115501115D01*
X151749115Y-115635765D01*
X151643322Y-115794096D01*
X151570450Y-115970024D01*
X151533300Y-116156788D01*
X150166700Y-116156788D01*
X150129550Y-115970024D01*
X150056678Y-115794096D01*
X149950885Y-115635765D01*
X149816235Y-115501115D01*
X149657904Y-115395322D01*
X149481976Y-115322450D01*
X149295212Y-115285300D01*
X149104788Y-115285300D01*
X148918024Y-115322450D01*
X148742096Y-115395322D01*
X148583765Y-115501115D01*
X148449115Y-115635765D01*
X148343322Y-115794096D01*
X148270450Y-115970024D01*
X148233300Y-116156788D01*
X148233300Y-116347212D01*
X148270450Y-116533976D01*
X148343322Y-116709904D01*
X148449115Y-116868235D01*
X148583765Y-117002885D01*
X148742096Y-117108678D01*
X148918024Y-117181550D01*
X149104788Y-117218700D01*
X149295212Y-117218700D01*
X149481976Y-117181550D01*
X149548181Y-117154127D01*
X150767417Y-118373364D01*
X150779686Y-118388314D01*
X150811162Y-118414145D01*
X150839330Y-118437262D01*
X150907377Y-118473634D01*
X150981213Y-118496032D01*
X151038760Y-118501700D01*
X151058000Y-118503595D01*
X151077240Y-118501700D01*
X156444760Y-118501700D01*
X156464000Y-118503595D01*
X156483240Y-118501700D01*
X156540787Y-118496032D01*
X156614622Y-118473634D01*
X156682670Y-118437262D01*
X156742314Y-118388314D01*
X156754587Y-118373359D01*
X157895770Y-117232178D01*
X157910714Y-117219914D01*
X157959662Y-117160270D01*
X157996034Y-117092222D01*
X158002700Y-117070247D01*
X158002700Y-117227160D01*
X158000805Y-117246400D01*
X158002700Y-117265639D01*
X158008368Y-117323186D01*
X158030766Y-117397021D01*
X158067138Y-117465069D01*
X158116086Y-117524714D01*
X158131041Y-117536987D01*
X159447421Y-118853369D01*
X159459686Y-118868314D01*
X159519330Y-118917262D01*
X159587378Y-118953634D01*
X159661213Y-118976032D01*
X159718760Y-118981700D01*
X159718762Y-118981700D01*
X159737999Y-118983595D01*
X159757236Y-118981700D01*
X172580760Y-118981700D01*
X172600000Y-118983595D01*
X172619240Y-118981700D01*
X172676787Y-118976032D01*
X172750622Y-118953634D01*
X172818670Y-118917262D01*
X172878314Y-118868314D01*
X172890588Y-118853358D01*
X176702786Y-115041161D01*
X176537211Y-115389911D01*
X176403980Y-115918496D01*
X176376432Y-116462916D01*
X176455623Y-117002249D01*
X176638511Y-117515770D01*
X176771003Y-117763645D01*
X177071855Y-118071455D01*
X178812750Y-116330560D01*
X179495250Y-116330560D01*
X181236145Y-118071455D01*
X181536997Y-117763645D01*
X181770789Y-117271209D01*
X181904020Y-116742624D01*
X181931568Y-116198204D01*
X181852377Y-115658871D01*
X181669489Y-115145350D01*
X181536997Y-114897475D01*
X181236145Y-114589665D01*
X179495250Y-116330560D01*
X178812750Y-116330560D01*
X178798608Y-116316418D01*
X179139858Y-115975168D01*
X179154000Y-115989310D01*
X180894895Y-114248415D01*
X180587085Y-113947563D01*
X180094649Y-113713771D01*
X179566064Y-113580540D01*
X179021644Y-113552992D01*
X178482311Y-113632183D01*
X177968790Y-113815071D01*
X177883043Y-113860903D01*
X183213370Y-108530578D01*
X183228314Y-108518314D01*
X183277262Y-108458670D01*
X183313634Y-108390622D01*
X183336032Y-108316787D01*
X183341700Y-108259240D01*
X183341700Y-108259238D01*
X183343595Y-108240001D01*
X183341700Y-108220764D01*
X183341700Y-100339236D01*
X183343595Y-100319999D01*
X183341584Y-100299581D01*
X183336032Y-100243213D01*
X183313634Y-100169378D01*
X183277262Y-100101330D01*
X183228314Y-100041686D01*
X183213370Y-100029422D01*
X182601447Y-99417501D01*
X182589174Y-99402546D01*
X182529530Y-99353598D01*
X182461482Y-99317226D01*
X182387647Y-99294828D01*
X182330100Y-99289160D01*
X182310860Y-99287265D01*
X182291620Y-99289160D01*
X181865942Y-99289160D01*
X181771762Y-99112961D01*
X181644639Y-98958061D01*
X181489739Y-98830938D01*
X181313016Y-98736478D01*
X181121260Y-98678309D01*
X180971814Y-98663590D01*
X180374026Y-98663590D01*
X180224580Y-98678309D01*
X180032824Y-98736478D01*
X179856101Y-98830938D01*
X179701201Y-98958061D01*
X179574078Y-99112961D01*
X179479618Y-99289684D01*
X179421449Y-99481440D01*
X179401808Y-99680860D01*
X179421449Y-99880280D01*
X179479618Y-100072036D01*
X179574078Y-100248759D01*
X179701201Y-100403659D01*
X179856101Y-100530782D01*
X180032824Y-100625242D01*
X180224580Y-100683411D01*
X180374026Y-100698130D01*
X180971814Y-100698130D01*
X181121260Y-100683411D01*
X181313016Y-100625242D01*
X181489739Y-100530782D01*
X181644639Y-100403659D01*
X181771762Y-100248759D01*
X181865942Y-100072560D01*
X182148614Y-100072560D01*
X182558300Y-100482248D01*
X182558301Y-108077751D01*
X172437754Y-118198300D01*
X171748019Y-118198300D01*
X171768670Y-118187262D01*
X171828314Y-118138314D01*
X171840588Y-118123358D01*
X180687371Y-109276577D01*
X180702314Y-109264314D01*
X180751262Y-109204670D01*
X180787634Y-109136622D01*
X180810032Y-109062787D01*
X180815329Y-109009010D01*
X180971814Y-109009010D01*
X181121260Y-108994291D01*
X181313016Y-108936122D01*
X181489739Y-108841662D01*
X181644639Y-108714539D01*
X181771762Y-108559639D01*
X181866222Y-108382916D01*
X181924391Y-108191160D01*
X181944032Y-107991740D01*
X181924391Y-107792320D01*
X181866222Y-107600564D01*
X181771762Y-107423841D01*
X181644639Y-107268941D01*
X181489739Y-107141818D01*
X181313016Y-107047358D01*
X181121260Y-106989189D01*
X180971814Y-106974470D01*
X180374026Y-106974470D01*
X180224580Y-106989189D01*
X180032824Y-107047358D01*
X179856101Y-107141818D01*
X179701201Y-107268941D01*
X179574078Y-107423841D01*
X179479618Y-107600564D01*
X179421449Y-107792320D01*
X179401808Y-107991740D01*
X179421449Y-108191160D01*
X179479618Y-108382916D01*
X179574078Y-108559639D01*
X179701201Y-108714539D01*
X179856101Y-108841662D01*
X179959254Y-108896798D01*
X171387754Y-117468300D01*
X167438248Y-117468300D01*
X164070127Y-114100181D01*
X164097550Y-114033976D01*
X164134700Y-113847212D01*
X164134700Y-113656788D01*
X166775300Y-113656788D01*
X166775300Y-113847212D01*
X166812450Y-114033976D01*
X166885322Y-114209904D01*
X166991115Y-114368235D01*
X167125765Y-114502885D01*
X167284096Y-114608678D01*
X167460024Y-114681550D01*
X167646788Y-114718700D01*
X167837212Y-114718700D01*
X168023976Y-114681550D01*
X168199904Y-114608678D01*
X168358235Y-114502885D01*
X168492885Y-114368235D01*
X168598678Y-114209904D01*
X168671550Y-114033976D01*
X168708700Y-113847212D01*
X168708700Y-113656788D01*
X168671550Y-113470024D01*
X168598678Y-113294096D01*
X168492885Y-113135765D01*
X168358235Y-113001115D01*
X168199904Y-112895322D01*
X168023976Y-112822450D01*
X167837212Y-112785300D01*
X167646788Y-112785300D01*
X167460024Y-112822450D01*
X167284096Y-112895322D01*
X167125765Y-113001115D01*
X166991115Y-113135765D01*
X166885322Y-113294096D01*
X166812450Y-113470024D01*
X166775300Y-113656788D01*
X164134700Y-113656788D01*
X164097550Y-113470024D01*
X164024678Y-113294096D01*
X163918885Y-113135765D01*
X163784235Y-113001115D01*
X163625904Y-112895322D01*
X163449976Y-112822450D01*
X163263212Y-112785300D01*
X163072788Y-112785300D01*
X162886024Y-112822450D01*
X162710096Y-112895322D01*
X162551765Y-113001115D01*
X162417115Y-113135765D01*
X162311322Y-113294096D01*
X162238450Y-113470024D01*
X162201300Y-113656788D01*
X162201300Y-113847212D01*
X162238450Y-114033976D01*
X162311322Y-114209904D01*
X162417115Y-114368235D01*
X162551765Y-114502885D01*
X162710096Y-114608678D01*
X162886024Y-114681550D01*
X163072788Y-114718700D01*
X163263212Y-114718700D01*
X163449976Y-114681550D01*
X163516181Y-114654127D01*
X166985421Y-118123369D01*
X166997686Y-118138314D01*
X167057330Y-118187262D01*
X167077981Y-118198300D01*
X159900248Y-118198300D01*
X158786100Y-117084154D01*
X158786100Y-115287846D01*
X159449109Y-114624838D01*
X159586024Y-114681550D01*
X159772788Y-114718700D01*
X159963212Y-114718700D01*
X160149976Y-114681550D01*
X160325904Y-114608678D01*
X160484235Y-114502885D01*
X160618885Y-114368235D01*
X160724678Y-114209904D01*
X160797550Y-114033976D01*
X160834700Y-113847212D01*
X160834700Y-113656788D01*
X160797550Y-113470024D01*
X160724678Y-113294096D01*
X160618885Y-113135765D01*
X160484235Y-113001115D01*
X160325904Y-112895322D01*
X160149976Y-112822450D01*
X159963212Y-112785300D01*
X159772788Y-112785300D01*
X159586024Y-112822450D01*
X159410096Y-112895322D01*
X159251765Y-113001115D01*
X159117115Y-113135765D01*
X159011322Y-113294096D01*
X158938450Y-113470024D01*
X158901300Y-113656788D01*
X158901300Y-113847212D01*
X158937393Y-114028661D01*
X158131037Y-114835017D01*
X158116087Y-114847286D01*
X158076934Y-114894995D01*
X158067138Y-114906931D01*
X158030767Y-114974978D01*
X158024100Y-114996955D01*
X158024100Y-111156788D01*
X158901300Y-111156788D01*
X158901300Y-111347212D01*
X158938450Y-111533976D01*
X159011322Y-111709904D01*
X159117115Y-111868235D01*
X159251765Y-112002885D01*
X159410096Y-112108678D01*
X159586024Y-112181550D01*
X159772788Y-112218700D01*
X159963212Y-112218700D01*
X160149976Y-112181550D01*
X160325904Y-112108678D01*
X160484235Y-112002885D01*
X160618885Y-111868235D01*
X160724678Y-111709904D01*
X160797550Y-111533976D01*
X160834700Y-111347212D01*
X160834700Y-111156788D01*
X160797550Y-110970024D01*
X160724678Y-110794096D01*
X160618885Y-110635765D01*
X160484235Y-110501115D01*
X160325904Y-110395322D01*
X160149976Y-110322450D01*
X159963212Y-110285300D01*
X159772788Y-110285300D01*
X159586024Y-110322450D01*
X159410096Y-110395322D01*
X159251765Y-110501115D01*
X159117115Y-110635765D01*
X159011322Y-110794096D01*
X158938450Y-110970024D01*
X158901300Y-111156788D01*
X158024100Y-111156788D01*
X158024100Y-111007846D01*
X160638899Y-108393048D01*
X160653776Y-108380851D01*
X160666109Y-108365838D01*
X160666178Y-108365769D01*
X160678612Y-108350618D01*
X160702753Y-108321231D01*
X160702798Y-108321147D01*
X160702862Y-108321069D01*
X160721687Y-108285849D01*
X160739159Y-108253201D01*
X160739186Y-108253111D01*
X160739234Y-108253022D01*
X160750587Y-108215598D01*
X160761594Y-108179377D01*
X160761604Y-108179279D01*
X160761632Y-108179186D01*
X160765465Y-108140267D01*
X160767290Y-108121833D01*
X160767290Y-108121741D01*
X160769195Y-108102400D01*
X160767309Y-108083252D01*
X160771619Y-99362327D01*
X161522647Y-98611300D01*
X163192613Y-98611300D01*
X163169702Y-98630102D01*
X163136374Y-98670713D01*
X163111610Y-98717045D01*
X163096359Y-98767318D01*
X163091210Y-98819600D01*
X163091210Y-100006843D01*
X161153641Y-101944412D01*
X161138686Y-101956686D01*
X161089738Y-102016331D01*
X161053366Y-102084379D01*
X161033178Y-102150930D01*
X161030968Y-102158214D01*
X161023405Y-102235000D01*
X161025300Y-102254240D01*
X161025301Y-108083150D01*
X161023405Y-108102400D01*
X161030968Y-108179186D01*
X161053367Y-108253022D01*
X161087450Y-108316787D01*
X161089739Y-108321070D01*
X161138687Y-108380714D01*
X161153637Y-108392983D01*
X162676300Y-109915647D01*
X162676300Y-110284010D01*
X162468000Y-110284010D01*
X162415718Y-110289159D01*
X162365445Y-110304410D01*
X162319113Y-110329174D01*
X162278502Y-110362502D01*
X162245174Y-110403113D01*
X162220410Y-110449445D01*
X162205159Y-110499718D01*
X162200010Y-110552000D01*
X162200010Y-111591443D01*
X161255241Y-112536213D01*
X161240286Y-112548486D01*
X161191338Y-112608131D01*
X161154966Y-112676179D01*
X161132568Y-112750013D01*
X161132568Y-112750014D01*
X161125005Y-112826800D01*
X161126900Y-112846040D01*
X161126901Y-114339151D01*
X160144661Y-115321393D01*
X159963212Y-115285300D01*
X159772788Y-115285300D01*
X159586024Y-115322450D01*
X159410096Y-115395322D01*
X159251765Y-115501115D01*
X159117115Y-115635765D01*
X159011322Y-115794096D01*
X158938450Y-115970024D01*
X158901300Y-116156788D01*
X158901300Y-116347212D01*
X158938450Y-116533976D01*
X159011322Y-116709904D01*
X159117115Y-116868235D01*
X159251765Y-117002885D01*
X159410096Y-117108678D01*
X159586024Y-117181550D01*
X159772788Y-117218700D01*
X159963212Y-117218700D01*
X160149976Y-117181550D01*
X160325904Y-117108678D01*
X160484235Y-117002885D01*
X160618885Y-116868235D01*
X160724678Y-116709904D01*
X160797550Y-116533976D01*
X160834700Y-116347212D01*
X160834700Y-116156788D01*
X162201300Y-116156788D01*
X162201300Y-116347212D01*
X162238450Y-116533976D01*
X162311322Y-116709904D01*
X162417115Y-116868235D01*
X162551765Y-117002885D01*
X162710096Y-117108678D01*
X162886024Y-117181550D01*
X163072788Y-117218700D01*
X163263212Y-117218700D01*
X163449976Y-117181550D01*
X163625904Y-117108678D01*
X163784235Y-117002885D01*
X163918885Y-116868235D01*
X164024678Y-116709904D01*
X164097550Y-116533976D01*
X164134700Y-116347212D01*
X164134700Y-116156788D01*
X164097550Y-115970024D01*
X164024678Y-115794096D01*
X163918885Y-115635765D01*
X163784235Y-115501115D01*
X163625904Y-115395322D01*
X163449976Y-115322450D01*
X163263212Y-115285300D01*
X163072788Y-115285300D01*
X162886024Y-115322450D01*
X162710096Y-115395322D01*
X162551765Y-115501115D01*
X162417115Y-115635765D01*
X162311322Y-115794096D01*
X162238450Y-115970024D01*
X162201300Y-116156788D01*
X160834700Y-116156788D01*
X160797550Y-115970024D01*
X160740838Y-115833109D01*
X161781969Y-114791979D01*
X161796914Y-114779714D01*
X161845862Y-114720070D01*
X161882234Y-114652022D01*
X161904632Y-114578187D01*
X161910300Y-114520640D01*
X161912195Y-114501401D01*
X161910300Y-114482161D01*
X161910300Y-112989046D01*
X162679357Y-112219990D01*
X163868000Y-112219990D01*
X163920282Y-112214841D01*
X163970555Y-112199590D01*
X164016887Y-112174826D01*
X164057498Y-112141498D01*
X164090826Y-112100887D01*
X164115590Y-112054555D01*
X164130841Y-112004282D01*
X164135990Y-111952000D01*
X164135990Y-110552000D01*
X164130841Y-110499718D01*
X164115590Y-110449445D01*
X164090826Y-110403113D01*
X164057498Y-110362502D01*
X164016887Y-110329174D01*
X163970555Y-110304410D01*
X163920282Y-110289159D01*
X163868000Y-110284010D01*
X163459700Y-110284010D01*
X163459700Y-109772640D01*
X163461595Y-109753400D01*
X163459700Y-109734160D01*
X163454032Y-109676613D01*
X163431634Y-109602778D01*
X163395262Y-109534730D01*
X163346314Y-109475086D01*
X163331365Y-109462818D01*
X161808700Y-107940154D01*
X161808700Y-103428800D01*
X162039405Y-103428800D01*
X162041300Y-103448040D01*
X162041301Y-105974950D01*
X162039405Y-105994200D01*
X162046968Y-106070986D01*
X162069367Y-106144822D01*
X162094178Y-106191240D01*
X162105739Y-106212870D01*
X162154687Y-106272514D01*
X162169637Y-106284783D01*
X166824876Y-110940024D01*
X166812450Y-110970024D01*
X166775300Y-111156788D01*
X166775300Y-111347212D01*
X166812450Y-111533976D01*
X166885322Y-111709904D01*
X166991115Y-111868235D01*
X167125765Y-112002885D01*
X167284096Y-112108678D01*
X167460024Y-112181550D01*
X167646788Y-112218700D01*
X167837212Y-112218700D01*
X168023976Y-112181550D01*
X168199904Y-112108678D01*
X168358235Y-112002885D01*
X168492885Y-111868235D01*
X168598678Y-111709904D01*
X168671550Y-111533976D01*
X168708700Y-111347212D01*
X168708700Y-111156788D01*
X168671550Y-110970024D01*
X168598678Y-110794096D01*
X168492885Y-110635765D01*
X168358235Y-110501115D01*
X168199904Y-110395322D01*
X168023976Y-110322450D01*
X167837212Y-110285300D01*
X167646788Y-110285300D01*
X167460024Y-110322450D01*
X167357616Y-110364869D01*
X162824700Y-105831954D01*
X162824700Y-104319600D01*
X163079210Y-104319600D01*
X163079210Y-105919600D01*
X163084359Y-105971882D01*
X163099610Y-106022155D01*
X163124374Y-106068487D01*
X163157702Y-106109098D01*
X163198313Y-106142426D01*
X163244645Y-106167190D01*
X163294918Y-106182441D01*
X163347200Y-106187590D01*
X164947200Y-106187590D01*
X164999482Y-106182441D01*
X165049755Y-106167190D01*
X165096087Y-106142426D01*
X165136698Y-106109098D01*
X165170026Y-106068487D01*
X165194790Y-106022155D01*
X165210041Y-105971882D01*
X165215190Y-105919600D01*
X165215190Y-104591333D01*
X165358313Y-104445633D01*
X165432246Y-104371700D01*
X166054780Y-104371700D01*
X165923115Y-104503365D01*
X165817322Y-104661696D01*
X165744450Y-104837624D01*
X165707300Y-105024388D01*
X165707300Y-105214812D01*
X165744450Y-105401576D01*
X165817322Y-105577504D01*
X165923115Y-105735835D01*
X166057765Y-105870485D01*
X166216096Y-105976278D01*
X166392024Y-106049150D01*
X166578788Y-106086300D01*
X166769212Y-106086300D01*
X166955976Y-106049150D01*
X167022181Y-106021727D01*
X168873900Y-107873447D01*
X168873901Y-115052152D01*
X168391587Y-115534467D01*
X168358235Y-115501115D01*
X168199904Y-115395322D01*
X168023976Y-115322450D01*
X167837212Y-115285300D01*
X167646788Y-115285300D01*
X167460024Y-115322450D01*
X167284096Y-115395322D01*
X167125765Y-115501115D01*
X166991115Y-115635765D01*
X166885322Y-115794096D01*
X166812450Y-115970024D01*
X166775300Y-116156788D01*
X166775300Y-116347212D01*
X166812450Y-116533976D01*
X166885322Y-116709904D01*
X166991115Y-116868235D01*
X167125765Y-117002885D01*
X167284096Y-117108678D01*
X167460024Y-117181550D01*
X167646788Y-117218700D01*
X167837212Y-117218700D01*
X168023976Y-117181550D01*
X168199904Y-117108678D01*
X168358235Y-117002885D01*
X168492885Y-116868235D01*
X168598678Y-116709904D01*
X168671550Y-116533976D01*
X168708700Y-116347212D01*
X168708700Y-116325246D01*
X168877158Y-116156788D01*
X170075300Y-116156788D01*
X170075300Y-116347212D01*
X170112450Y-116533976D01*
X170185322Y-116709904D01*
X170291115Y-116868235D01*
X170425765Y-117002885D01*
X170584096Y-117108678D01*
X170760024Y-117181550D01*
X170946788Y-117218700D01*
X171137212Y-117218700D01*
X171323976Y-117181550D01*
X171499904Y-117108678D01*
X171658235Y-117002885D01*
X171792885Y-116868235D01*
X171898678Y-116709904D01*
X171971550Y-116533976D01*
X172008700Y-116347212D01*
X172008700Y-116156788D01*
X171971550Y-115970024D01*
X171898678Y-115794096D01*
X171792885Y-115635765D01*
X171658235Y-115501115D01*
X171499904Y-115395322D01*
X171323976Y-115322450D01*
X171137212Y-115285300D01*
X170946788Y-115285300D01*
X170760024Y-115322450D01*
X170584096Y-115395322D01*
X170425765Y-115501115D01*
X170291115Y-115635765D01*
X170185322Y-115794096D01*
X170112450Y-115970024D01*
X170075300Y-116156788D01*
X168877158Y-116156788D01*
X169528964Y-115504983D01*
X169543914Y-115492714D01*
X169592862Y-115433070D01*
X169629234Y-115365022D01*
X169651632Y-115291187D01*
X169657300Y-115233640D01*
X169659195Y-115214400D01*
X169657300Y-115195160D01*
X169657300Y-113656788D01*
X170075300Y-113656788D01*
X170075300Y-113847212D01*
X170112450Y-114033976D01*
X170185322Y-114209904D01*
X170291115Y-114368235D01*
X170425765Y-114502885D01*
X170584096Y-114608678D01*
X170760024Y-114681550D01*
X170946788Y-114718700D01*
X171137212Y-114718700D01*
X171323976Y-114681550D01*
X171499904Y-114608678D01*
X171658235Y-114502885D01*
X171792885Y-114368235D01*
X171898678Y-114209904D01*
X171971550Y-114033976D01*
X172008700Y-113847212D01*
X172008700Y-113656788D01*
X171971550Y-113470024D01*
X171898678Y-113294096D01*
X171792885Y-113135765D01*
X171658235Y-113001115D01*
X171499904Y-112895322D01*
X171323976Y-112822450D01*
X171137212Y-112785300D01*
X170946788Y-112785300D01*
X170760024Y-112822450D01*
X170584096Y-112895322D01*
X170425765Y-113001115D01*
X170291115Y-113135765D01*
X170185322Y-113294096D01*
X170112450Y-113470024D01*
X170075300Y-113656788D01*
X169657300Y-113656788D01*
X169657300Y-110552000D01*
X170074010Y-110552000D01*
X170074010Y-111952000D01*
X170079159Y-112004282D01*
X170094410Y-112054555D01*
X170119174Y-112100887D01*
X170152502Y-112141498D01*
X170193113Y-112174826D01*
X170239445Y-112199590D01*
X170289718Y-112214841D01*
X170342000Y-112219990D01*
X171742000Y-112219990D01*
X171794282Y-112214841D01*
X171844555Y-112199590D01*
X171890887Y-112174826D01*
X171931498Y-112141498D01*
X171964826Y-112100887D01*
X171989590Y-112054555D01*
X172004841Y-112004282D01*
X172009990Y-111952000D01*
X172009990Y-110552000D01*
X172004841Y-110499718D01*
X171989590Y-110449445D01*
X171964826Y-110403113D01*
X171931498Y-110362502D01*
X171890887Y-110329174D01*
X171844555Y-110304410D01*
X171794282Y-110289159D01*
X171742000Y-110284010D01*
X170342000Y-110284010D01*
X170289718Y-110289159D01*
X170239445Y-110304410D01*
X170193113Y-110329174D01*
X170152502Y-110362502D01*
X170119174Y-110403113D01*
X170094410Y-110449445D01*
X170079159Y-110499718D01*
X170074010Y-110552000D01*
X169657300Y-110552000D01*
X169657300Y-107715240D01*
X169659195Y-107696000D01*
X169651632Y-107619213D01*
X169629234Y-107545378D01*
X169592862Y-107477330D01*
X169543914Y-107417686D01*
X169484270Y-107368738D01*
X169468835Y-107360488D01*
X167576127Y-105467781D01*
X167603550Y-105401576D01*
X167640700Y-105214812D01*
X167640700Y-105024388D01*
X167603550Y-104837624D01*
X167530678Y-104661696D01*
X167424885Y-104503365D01*
X167293220Y-104371700D01*
X168987754Y-104371700D01*
X174255457Y-109639404D01*
X174267726Y-109654354D01*
X174327370Y-109703302D01*
X174395418Y-109739674D01*
X174469253Y-109762072D01*
X174546040Y-109769635D01*
X174565280Y-109767740D01*
X176442058Y-109767740D01*
X176536238Y-109943939D01*
X176663361Y-110098839D01*
X176818261Y-110225962D01*
X176994984Y-110320422D01*
X177186740Y-110378591D01*
X177336186Y-110393310D01*
X177933974Y-110393310D01*
X178083420Y-110378591D01*
X178275176Y-110320422D01*
X178451899Y-110225962D01*
X178606799Y-110098839D01*
X178733922Y-109943939D01*
X178828382Y-109767216D01*
X178886551Y-109575460D01*
X178906192Y-109376040D01*
X178886551Y-109176620D01*
X178828382Y-108984864D01*
X178733922Y-108808141D01*
X178606799Y-108653241D01*
X178451899Y-108526118D01*
X178275176Y-108431658D01*
X178083420Y-108373489D01*
X177933974Y-108358770D01*
X177336186Y-108358770D01*
X177186740Y-108373489D01*
X176994984Y-108431658D01*
X176818261Y-108526118D01*
X176663361Y-108653241D01*
X176536238Y-108808141D01*
X176442058Y-108984340D01*
X174708287Y-108984340D01*
X169440588Y-103716642D01*
X169428314Y-103701686D01*
X169368670Y-103652738D01*
X169300622Y-103616366D01*
X169226787Y-103593968D01*
X169169240Y-103588300D01*
X169150000Y-103586405D01*
X169130760Y-103588300D01*
X167263573Y-103588300D01*
X167290235Y-103570485D01*
X167424885Y-103435835D01*
X167530678Y-103277504D01*
X167603550Y-103101576D01*
X167640700Y-102914812D01*
X167640700Y-102724388D01*
X167603550Y-102537624D01*
X167530678Y-102361696D01*
X167424885Y-102203365D01*
X167290235Y-102068715D01*
X167131904Y-101962922D01*
X166955976Y-101890050D01*
X166769212Y-101852900D01*
X166578788Y-101852900D01*
X166392024Y-101890050D01*
X166216096Y-101962922D01*
X166057765Y-102068715D01*
X165923115Y-102203365D01*
X165817322Y-102361696D01*
X165744450Y-102537624D01*
X165707300Y-102724388D01*
X165707300Y-102914812D01*
X165744450Y-103101576D01*
X165817322Y-103277504D01*
X165923115Y-103435835D01*
X166057765Y-103570485D01*
X166084427Y-103588300D01*
X165289240Y-103588300D01*
X165270000Y-103586405D01*
X165250760Y-103588300D01*
X165193213Y-103593968D01*
X165119378Y-103616366D01*
X165051330Y-103652738D01*
X164991686Y-103701686D01*
X164979412Y-103716642D01*
X164815400Y-103880654D01*
X164814048Y-103881784D01*
X164801722Y-103894332D01*
X164789422Y-103906632D01*
X164788317Y-103907978D01*
X164647227Y-104051610D01*
X163347200Y-104051610D01*
X163294918Y-104056759D01*
X163244645Y-104072010D01*
X163198313Y-104096774D01*
X163157702Y-104130102D01*
X163124374Y-104170713D01*
X163099610Y-104217045D01*
X163084359Y-104267318D01*
X163079210Y-104319600D01*
X162824700Y-104319600D01*
X162824700Y-103591046D01*
X163122750Y-103292997D01*
X163136374Y-103318487D01*
X163169702Y-103359098D01*
X163210313Y-103392426D01*
X163256645Y-103417190D01*
X163306918Y-103432441D01*
X163359200Y-103437590D01*
X164959200Y-103437590D01*
X165011482Y-103432441D01*
X165061755Y-103417190D01*
X165108087Y-103392426D01*
X165148698Y-103359098D01*
X165182026Y-103318487D01*
X165206790Y-103272155D01*
X165222041Y-103221882D01*
X165227190Y-103169600D01*
X165227190Y-101569600D01*
X165222041Y-101517318D01*
X165206790Y-101467045D01*
X165182026Y-101420713D01*
X165148698Y-101380102D01*
X165108087Y-101346774D01*
X165061755Y-101322010D01*
X165011482Y-101306759D01*
X164959200Y-101301610D01*
X163359200Y-101301610D01*
X163306918Y-101306759D01*
X163256645Y-101322010D01*
X163210313Y-101346774D01*
X163169702Y-101380102D01*
X163136374Y-101420713D01*
X163111610Y-101467045D01*
X163096359Y-101517318D01*
X163091210Y-101569600D01*
X163091210Y-102216643D01*
X162169641Y-103138213D01*
X162154686Y-103150486D01*
X162105738Y-103210131D01*
X162069366Y-103278179D01*
X162055431Y-103324117D01*
X162046968Y-103352014D01*
X162039405Y-103428800D01*
X161808700Y-103428800D01*
X161808700Y-102397246D01*
X163518357Y-100687590D01*
X164959200Y-100687590D01*
X165011482Y-100682441D01*
X165061755Y-100667190D01*
X165108087Y-100642426D01*
X165148698Y-100609098D01*
X165182026Y-100568487D01*
X165206790Y-100522155D01*
X165222041Y-100471882D01*
X165226718Y-100424388D01*
X165707300Y-100424388D01*
X165707300Y-100614812D01*
X165744450Y-100801576D01*
X165817322Y-100977504D01*
X165923115Y-101135835D01*
X166057765Y-101270485D01*
X166216096Y-101376278D01*
X166392024Y-101449150D01*
X166578788Y-101486300D01*
X166769212Y-101486300D01*
X166955976Y-101449150D01*
X167131904Y-101376278D01*
X167290235Y-101270485D01*
X167424885Y-101135835D01*
X167530678Y-100977504D01*
X167603550Y-100801576D01*
X167640700Y-100614812D01*
X167640700Y-100424388D01*
X167603550Y-100237624D01*
X167530678Y-100061696D01*
X167424885Y-99903365D01*
X167290235Y-99768715D01*
X167131904Y-99662922D01*
X166955976Y-99590050D01*
X166769212Y-99552900D01*
X166578788Y-99552900D01*
X166392024Y-99590050D01*
X166216096Y-99662922D01*
X166057765Y-99768715D01*
X165923115Y-99903365D01*
X165817322Y-100061696D01*
X165744450Y-100237624D01*
X165707300Y-100424388D01*
X165226718Y-100424388D01*
X165227190Y-100419600D01*
X165227190Y-98819600D01*
X165222041Y-98767318D01*
X165206790Y-98717045D01*
X165182026Y-98670713D01*
X165148698Y-98630102D01*
X165125787Y-98611300D01*
X165789899Y-98611300D01*
X165817322Y-98677504D01*
X165923115Y-98835835D01*
X166057765Y-98970485D01*
X166216096Y-99076278D01*
X166392024Y-99149150D01*
X166578788Y-99186300D01*
X166769212Y-99186300D01*
X166955976Y-99149150D01*
X167131904Y-99076278D01*
X167290235Y-98970485D01*
X167424885Y-98835835D01*
X167530678Y-98677504D01*
X167603550Y-98501576D01*
X167640700Y-98314812D01*
X167640700Y-98124388D01*
X167603550Y-97937624D01*
X167603460Y-97937407D01*
X167828300Y-98162247D01*
X167828301Y-101130750D01*
X167826405Y-101150000D01*
X167833968Y-101226786D01*
X167856367Y-101300622D01*
X167885827Y-101355738D01*
X167892739Y-101368670D01*
X167941687Y-101428314D01*
X167956637Y-101440583D01*
X173386857Y-106870804D01*
X173399126Y-106885754D01*
X173458770Y-106934702D01*
X173526818Y-106971074D01*
X173600653Y-106993472D01*
X173658200Y-106999140D01*
X173677440Y-107001035D01*
X173696680Y-106999140D01*
X176442058Y-106999140D01*
X176536238Y-107175339D01*
X176663361Y-107330239D01*
X176818261Y-107457362D01*
X176994984Y-107551822D01*
X177186740Y-107609991D01*
X177336186Y-107624710D01*
X177933974Y-107624710D01*
X178083420Y-107609991D01*
X178275176Y-107551822D01*
X178451899Y-107457362D01*
X178606799Y-107330239D01*
X178733922Y-107175339D01*
X178828382Y-106998616D01*
X178886551Y-106806860D01*
X178906192Y-106607440D01*
X178886551Y-106408020D01*
X178828382Y-106216264D01*
X178733922Y-106039541D01*
X178606799Y-105884641D01*
X178451899Y-105757518D01*
X178275176Y-105663058D01*
X178107851Y-105612300D01*
X179479898Y-105612300D01*
X179574078Y-105788499D01*
X179701201Y-105943399D01*
X179856101Y-106070522D01*
X180032824Y-106164982D01*
X180224580Y-106223151D01*
X180374026Y-106237870D01*
X180971814Y-106237870D01*
X181121260Y-106223151D01*
X181313016Y-106164982D01*
X181489739Y-106070522D01*
X181644639Y-105943399D01*
X181771762Y-105788499D01*
X181866222Y-105611776D01*
X181924391Y-105420020D01*
X181944032Y-105220600D01*
X181924391Y-105021180D01*
X181866222Y-104829424D01*
X181771762Y-104652701D01*
X181644639Y-104497801D01*
X181489739Y-104370678D01*
X181313016Y-104276218D01*
X181121260Y-104218049D01*
X180971814Y-104203330D01*
X180374026Y-104203330D01*
X180224580Y-104218049D01*
X180032824Y-104276218D01*
X179856101Y-104370678D01*
X179701201Y-104497801D01*
X179574078Y-104652701D01*
X179479898Y-104828900D01*
X178116224Y-104828900D01*
X178275176Y-104780682D01*
X178451899Y-104686222D01*
X178606799Y-104559099D01*
X178733922Y-104404199D01*
X178828382Y-104227476D01*
X178886551Y-104035720D01*
X178906192Y-103836300D01*
X178886551Y-103636880D01*
X178828382Y-103445124D01*
X178733922Y-103268401D01*
X178606799Y-103113501D01*
X178451899Y-102986378D01*
X178275176Y-102891918D01*
X178120259Y-102844924D01*
X179485677Y-102844924D01*
X179502544Y-102885188D01*
X179604760Y-103056632D01*
X179738459Y-103204840D01*
X179898503Y-103324117D01*
X180078742Y-103409879D01*
X180272249Y-103458830D01*
X180431620Y-103403498D01*
X180431620Y-102693300D01*
X180914220Y-102693300D01*
X180914220Y-103403498D01*
X181073591Y-103458830D01*
X181267098Y-103409879D01*
X181447337Y-103324117D01*
X181607381Y-103204840D01*
X181741080Y-103056632D01*
X181843296Y-102885188D01*
X181860163Y-102844924D01*
X181841299Y-102693300D01*
X180914220Y-102693300D01*
X180431620Y-102693300D01*
X179504541Y-102693300D01*
X179485677Y-102844924D01*
X178120259Y-102844924D01*
X178083420Y-102833749D01*
X177933974Y-102819030D01*
X177420677Y-102819030D01*
X176008288Y-101406642D01*
X175996014Y-101391686D01*
X175936370Y-101342738D01*
X175868322Y-101306366D01*
X175794487Y-101283968D01*
X175736940Y-101278300D01*
X175717700Y-101276405D01*
X175698460Y-101278300D01*
X174898539Y-101278300D01*
X174910235Y-101270485D01*
X175044885Y-101135835D01*
X175150678Y-100977504D01*
X175223550Y-100801576D01*
X175260700Y-100614812D01*
X175260700Y-100424388D01*
X175223550Y-100237624D01*
X175150678Y-100061696D01*
X175044885Y-99903365D01*
X174910235Y-99768715D01*
X174884770Y-99751700D01*
X175058556Y-99751700D01*
X176364689Y-101057835D01*
X176363968Y-101065160D01*
X176383609Y-101264580D01*
X176441778Y-101456336D01*
X176536238Y-101633059D01*
X176663361Y-101787959D01*
X176818261Y-101915082D01*
X176994984Y-102009542D01*
X177186740Y-102067711D01*
X177336186Y-102082430D01*
X177933974Y-102082430D01*
X178083420Y-102067711D01*
X178111885Y-102059076D01*
X179485677Y-102059076D01*
X179504541Y-102210700D01*
X180431620Y-102210700D01*
X180431620Y-101500502D01*
X180914220Y-101500502D01*
X180914220Y-102210700D01*
X181841299Y-102210700D01*
X181860163Y-102059076D01*
X181843296Y-102018812D01*
X181741080Y-101847368D01*
X181607381Y-101699160D01*
X181447337Y-101579883D01*
X181267098Y-101494121D01*
X181073591Y-101445170D01*
X180914220Y-101500502D01*
X180431620Y-101500502D01*
X180272249Y-101445170D01*
X180078742Y-101494121D01*
X179898503Y-101579883D01*
X179738459Y-101699160D01*
X179604760Y-101847368D01*
X179502544Y-102018812D01*
X179485677Y-102059076D01*
X178111885Y-102059076D01*
X178275176Y-102009542D01*
X178451899Y-101915082D01*
X178606799Y-101787959D01*
X178733922Y-101633059D01*
X178828382Y-101456336D01*
X178886551Y-101264580D01*
X178906192Y-101065160D01*
X178886551Y-100865740D01*
X178828382Y-100673984D01*
X178733922Y-100497261D01*
X178606799Y-100342361D01*
X178451899Y-100215238D01*
X178275176Y-100120778D01*
X178083420Y-100062609D01*
X177933974Y-100047890D01*
X177336186Y-100047890D01*
X177186740Y-100062609D01*
X176994984Y-100120778D01*
X176818261Y-100215238D01*
X176714852Y-100300103D01*
X175511389Y-99096641D01*
X175499116Y-99081686D01*
X175439472Y-99032738D01*
X175371424Y-98996366D01*
X175297589Y-98973968D01*
X175240042Y-98968300D01*
X175220802Y-98966405D01*
X175201562Y-98968300D01*
X174912420Y-98968300D01*
X175044885Y-98835835D01*
X175150678Y-98677504D01*
X175223550Y-98501576D01*
X175260700Y-98314812D01*
X175260700Y-98296560D01*
X176363968Y-98296560D01*
X176383609Y-98495980D01*
X176441778Y-98687736D01*
X176536238Y-98864459D01*
X176663361Y-99019359D01*
X176818261Y-99146482D01*
X176994984Y-99240942D01*
X177186740Y-99299111D01*
X177336186Y-99313830D01*
X177933974Y-99313830D01*
X178083420Y-99299111D01*
X178275176Y-99240942D01*
X178451899Y-99146482D01*
X178606799Y-99019359D01*
X178733922Y-98864459D01*
X178828382Y-98687736D01*
X178886551Y-98495980D01*
X178906192Y-98296560D01*
X178886551Y-98097140D01*
X178828382Y-97905384D01*
X178733922Y-97728661D01*
X178606799Y-97573761D01*
X178451899Y-97446638D01*
X178275176Y-97352178D01*
X178083420Y-97294009D01*
X177933974Y-97279290D01*
X177336186Y-97279290D01*
X177186740Y-97294009D01*
X176994984Y-97352178D01*
X176818261Y-97446638D01*
X176663361Y-97573761D01*
X176536238Y-97728661D01*
X176441778Y-97905384D01*
X176383609Y-98097140D01*
X176363968Y-98296560D01*
X175260700Y-98296560D01*
X175260700Y-98124388D01*
X175223550Y-97937624D01*
X175150678Y-97761696D01*
X175044885Y-97603365D01*
X174910235Y-97468715D01*
X174751904Y-97362922D01*
X174575976Y-97290050D01*
X174389212Y-97252900D01*
X174198788Y-97252900D01*
X174012024Y-97290050D01*
X173836096Y-97362922D01*
X173677765Y-97468715D01*
X173543115Y-97603365D01*
X173437322Y-97761696D01*
X173364450Y-97937624D01*
X173327300Y-98124388D01*
X173327300Y-98314812D01*
X173364450Y-98501576D01*
X173437322Y-98677504D01*
X173543115Y-98835835D01*
X173675580Y-98968300D01*
X173562248Y-98968300D01*
X170876500Y-96282554D01*
X170876500Y-95824388D01*
X173327300Y-95824388D01*
X173327300Y-96014812D01*
X173364450Y-96201576D01*
X173437322Y-96377504D01*
X173543115Y-96535835D01*
X173677765Y-96670485D01*
X173836096Y-96776278D01*
X174012024Y-96849150D01*
X174198788Y-96886300D01*
X174389212Y-96886300D01*
X174575976Y-96849150D01*
X174751904Y-96776278D01*
X174910235Y-96670485D01*
X175044885Y-96535835D01*
X175150678Y-96377504D01*
X175223550Y-96201576D01*
X175260700Y-96014812D01*
X175260700Y-95824388D01*
X175223550Y-95637624D01*
X175150678Y-95461696D01*
X175044885Y-95303365D01*
X174910235Y-95168715D01*
X174751904Y-95062922D01*
X174575976Y-94990050D01*
X174389212Y-94952900D01*
X174198788Y-94952900D01*
X174012024Y-94990050D01*
X173836096Y-95062922D01*
X173677765Y-95168715D01*
X173543115Y-95303365D01*
X173437322Y-95461696D01*
X173364450Y-95637624D01*
X173327300Y-95824388D01*
X170876500Y-95824388D01*
X170876500Y-93833609D01*
X170946417Y-93833609D01*
X170951566Y-93885891D01*
X170966817Y-93936164D01*
X170991581Y-93982496D01*
X171024909Y-94023107D01*
X171065520Y-94056435D01*
X171111852Y-94081199D01*
X171162125Y-94096450D01*
X171214407Y-94101599D01*
X171806432Y-94100309D01*
X171873107Y-94033634D01*
X171873107Y-93524909D01*
X172355707Y-93524909D01*
X172355707Y-94033634D01*
X172422382Y-94100309D01*
X173014407Y-94101599D01*
X173066689Y-94096450D01*
X173116962Y-94081199D01*
X173163294Y-94056435D01*
X173203905Y-94023107D01*
X173237233Y-93982496D01*
X173261997Y-93936164D01*
X173277248Y-93885891D01*
X173282397Y-93833609D01*
X173281107Y-93591584D01*
X173214432Y-93524909D01*
X172355707Y-93524909D01*
X171873107Y-93524909D01*
X171014382Y-93524909D01*
X170947707Y-93591584D01*
X170946417Y-93833609D01*
X170876500Y-93833609D01*
X170876500Y-93424185D01*
X177413105Y-93424185D01*
X177720915Y-93725037D01*
X178213351Y-93958829D01*
X178741936Y-94092060D01*
X179286356Y-94119608D01*
X179825689Y-94040417D01*
X180339210Y-93857529D01*
X180587085Y-93725037D01*
X180894895Y-93424185D01*
X179154000Y-91683290D01*
X177413105Y-93424185D01*
X170876500Y-93424185D01*
X170876500Y-92733609D01*
X170946417Y-92733609D01*
X170947707Y-92975634D01*
X171014382Y-93042309D01*
X171873107Y-93042309D01*
X171873107Y-92533584D01*
X171806432Y-92466909D01*
X171214407Y-92465619D01*
X171162125Y-92470768D01*
X171111852Y-92486019D01*
X171065520Y-92510783D01*
X171024909Y-92544111D01*
X170991581Y-92584722D01*
X170966817Y-92631054D01*
X170951566Y-92681327D01*
X170946417Y-92733609D01*
X170876500Y-92733609D01*
X170876500Y-90234036D01*
X170878395Y-90214799D01*
X170872685Y-90156830D01*
X170870832Y-90138013D01*
X170848434Y-90064178D01*
X170812062Y-89996130D01*
X170763114Y-89936486D01*
X170748169Y-89924221D01*
X170369647Y-89545700D01*
X171221754Y-89545700D01*
X171601673Y-89925619D01*
X171214407Y-89925619D01*
X171162125Y-89930768D01*
X171111852Y-89946019D01*
X171065520Y-89970783D01*
X171024909Y-90004111D01*
X170991581Y-90044722D01*
X170966817Y-90091054D01*
X170951566Y-90141327D01*
X170946417Y-90193609D01*
X170946417Y-91293609D01*
X170951566Y-91345891D01*
X170966817Y-91396164D01*
X170991581Y-91442496D01*
X171024909Y-91483107D01*
X171065520Y-91516435D01*
X171111852Y-91541199D01*
X171162125Y-91556450D01*
X171214407Y-91561599D01*
X173014407Y-91561599D01*
X173049459Y-91558147D01*
X173026850Y-91632677D01*
X173016417Y-91738609D01*
X173016417Y-92288609D01*
X173026850Y-92394541D01*
X173049459Y-92469071D01*
X173014407Y-92465619D01*
X172422382Y-92466909D01*
X172355707Y-92533584D01*
X172355707Y-93042309D01*
X173214432Y-93042309D01*
X173281107Y-92975634D01*
X173282293Y-92753213D01*
X173351614Y-92790266D01*
X173453475Y-92821166D01*
X173559407Y-92831599D01*
X174809407Y-92831599D01*
X174915339Y-92821166D01*
X175017200Y-92790266D01*
X175111076Y-92740089D01*
X175193359Y-92672561D01*
X175260887Y-92590278D01*
X175311064Y-92496402D01*
X175341964Y-92394541D01*
X175352397Y-92288609D01*
X175352397Y-91738609D01*
X175341964Y-91632677D01*
X175311064Y-91530816D01*
X175280908Y-91474396D01*
X176376432Y-91474396D01*
X176455623Y-92013729D01*
X176638511Y-92527250D01*
X176771003Y-92775125D01*
X177071855Y-93082935D01*
X178812750Y-91342040D01*
X179495250Y-91342040D01*
X181236145Y-93082935D01*
X181536997Y-92775125D01*
X181770789Y-92282689D01*
X181904020Y-91754104D01*
X181931568Y-91209684D01*
X181852377Y-90670351D01*
X181669489Y-90156830D01*
X181536997Y-89908955D01*
X181236145Y-89601145D01*
X179495250Y-91342040D01*
X178812750Y-91342040D01*
X177071855Y-89601145D01*
X176771003Y-89908955D01*
X176537211Y-90401391D01*
X176403980Y-90929976D01*
X176376432Y-91474396D01*
X175280908Y-91474396D01*
X175260887Y-91436940D01*
X175193359Y-91354657D01*
X175111076Y-91287129D01*
X175017200Y-91236952D01*
X174915339Y-91206052D01*
X174809407Y-91195619D01*
X173559407Y-91195619D01*
X173453475Y-91206052D01*
X173351614Y-91236952D01*
X173282397Y-91273949D01*
X173282397Y-90193609D01*
X173277248Y-90141327D01*
X173261997Y-90091054D01*
X173237233Y-90044722D01*
X173203905Y-90004111D01*
X173163294Y-89970783D01*
X173116962Y-89946019D01*
X173066689Y-89930768D01*
X173014407Y-89925619D01*
X172709566Y-89925619D01*
X171674588Y-88890641D01*
X171662314Y-88875686D01*
X171602670Y-88826738D01*
X171534622Y-88790366D01*
X171460787Y-88767968D01*
X171403240Y-88762300D01*
X171384000Y-88760405D01*
X171364760Y-88762300D01*
X161004440Y-88762300D01*
X160985200Y-88760405D01*
X160965960Y-88762300D01*
X160908413Y-88767968D01*
X160834578Y-88790366D01*
X160766530Y-88826738D01*
X160706886Y-88875686D01*
X160694617Y-88890636D01*
X157978642Y-91606612D01*
X157963686Y-91618886D01*
X157914738Y-91678531D01*
X157878366Y-91746579D01*
X157873326Y-91763195D01*
X157855968Y-91820414D01*
X157848405Y-91897200D01*
X157850300Y-91916440D01*
X157850301Y-106009752D01*
X157063754Y-106796300D01*
X153282839Y-106796300D01*
X153263599Y-106794405D01*
X153186813Y-106801968D01*
X153112978Y-106824366D01*
X153044930Y-106860738D01*
X152985286Y-106909686D01*
X152973021Y-106924631D01*
X149547898Y-110349756D01*
X149481976Y-110322450D01*
X149295212Y-110285300D01*
X149104788Y-110285300D01*
X148918024Y-110322450D01*
X148742096Y-110395322D01*
X148583765Y-110501115D01*
X148449115Y-110635765D01*
X148343322Y-110794096D01*
X148270450Y-110970024D01*
X148233300Y-111156788D01*
X142444735Y-111156788D01*
X140980700Y-109692754D01*
X140980700Y-107993180D01*
X141133968Y-107993180D01*
X141153609Y-108192600D01*
X141211778Y-108384356D01*
X141306238Y-108561079D01*
X141433361Y-108715979D01*
X141588261Y-108843102D01*
X141764984Y-108937562D01*
X141956740Y-108995731D01*
X142106186Y-109010450D01*
X142703974Y-109010450D01*
X142853420Y-108995731D01*
X143045176Y-108937562D01*
X143221899Y-108843102D01*
X143376799Y-108715979D01*
X143503922Y-108561079D01*
X143598102Y-108384880D01*
X144961776Y-108384880D01*
X144802824Y-108433098D01*
X144626101Y-108527558D01*
X144471201Y-108654681D01*
X144344078Y-108809581D01*
X144249618Y-108986304D01*
X144191449Y-109178060D01*
X144171808Y-109377480D01*
X144191449Y-109576900D01*
X144249618Y-109768656D01*
X144344078Y-109945379D01*
X144471201Y-110100279D01*
X144626101Y-110227402D01*
X144802824Y-110321862D01*
X144994580Y-110380031D01*
X145144026Y-110394750D01*
X145741814Y-110394750D01*
X145891260Y-110380031D01*
X146083016Y-110321862D01*
X146259739Y-110227402D01*
X146414639Y-110100279D01*
X146541762Y-109945379D01*
X146635942Y-109769180D01*
X148692680Y-109769180D01*
X148711920Y-109771075D01*
X148731160Y-109769180D01*
X148788707Y-109763512D01*
X148862542Y-109741114D01*
X148930590Y-109704742D01*
X148990234Y-109655794D01*
X149002508Y-109640838D01*
X153132047Y-105511300D01*
X155534860Y-105511300D01*
X155581903Y-105624872D01*
X155698640Y-105799581D01*
X155847219Y-105948160D01*
X156021928Y-106064897D01*
X156216055Y-106145307D01*
X156422139Y-106186300D01*
X156632261Y-106186300D01*
X156838345Y-106145307D01*
X157032472Y-106064897D01*
X157207181Y-105948160D01*
X157355760Y-105799581D01*
X157472497Y-105624872D01*
X157552907Y-105430745D01*
X157593900Y-105224661D01*
X157593900Y-105014539D01*
X157552907Y-104808455D01*
X157472497Y-104614328D01*
X157355760Y-104439619D01*
X157207181Y-104291040D01*
X157032472Y-104174303D01*
X156930900Y-104132231D01*
X156930900Y-103361940D01*
X157044472Y-103314897D01*
X157219181Y-103198160D01*
X157367760Y-103049581D01*
X157484497Y-102874872D01*
X157564907Y-102680745D01*
X157605900Y-102474661D01*
X157605900Y-102264539D01*
X157564907Y-102058455D01*
X157484497Y-101864328D01*
X157367760Y-101689619D01*
X157219181Y-101541040D01*
X157044472Y-101424303D01*
X156850345Y-101343893D01*
X156644261Y-101302900D01*
X156434139Y-101302900D01*
X156228055Y-101343893D01*
X156033928Y-101424303D01*
X155859219Y-101541040D01*
X155710640Y-101689619D01*
X155593903Y-101864328D01*
X155513493Y-102058455D01*
X155472500Y-102264539D01*
X155472500Y-102474661D01*
X155513493Y-102680745D01*
X155593903Y-102874872D01*
X155710640Y-103049581D01*
X155859219Y-103198160D01*
X156033928Y-103314897D01*
X156147500Y-103361940D01*
X156147501Y-104122289D01*
X156021928Y-104174303D01*
X155847219Y-104291040D01*
X155698640Y-104439619D01*
X155581903Y-104614328D01*
X155534860Y-104727900D01*
X152989040Y-104727900D01*
X152969800Y-104726005D01*
X152950560Y-104727900D01*
X152893013Y-104733568D01*
X152819178Y-104755966D01*
X152751130Y-104792338D01*
X152691486Y-104841286D01*
X152679217Y-104856236D01*
X148549674Y-108985780D01*
X146635942Y-108985780D01*
X146541762Y-108809581D01*
X146414639Y-108654681D01*
X146259739Y-108527558D01*
X146083016Y-108433098D01*
X145924064Y-108384880D01*
X147740180Y-108384880D01*
X147759420Y-108386775D01*
X147778660Y-108384880D01*
X147836207Y-108379212D01*
X147910042Y-108356814D01*
X147978090Y-108320442D01*
X148037734Y-108271494D01*
X148050008Y-108256538D01*
X155858803Y-100447744D01*
X155859219Y-100448160D01*
X156033928Y-100564897D01*
X156228055Y-100645307D01*
X156434139Y-100686300D01*
X156644261Y-100686300D01*
X156850345Y-100645307D01*
X157044472Y-100564897D01*
X157219181Y-100448160D01*
X157367760Y-100299581D01*
X157484497Y-100124872D01*
X157564907Y-99930745D01*
X157605900Y-99724661D01*
X157605900Y-99514539D01*
X157564907Y-99308455D01*
X157484497Y-99114328D01*
X157367760Y-98939619D01*
X157219181Y-98791040D01*
X157044472Y-98674303D01*
X156850345Y-98593893D01*
X156644261Y-98552900D01*
X156434139Y-98552900D01*
X156228055Y-98593893D01*
X156033928Y-98674303D01*
X155859219Y-98791040D01*
X155710640Y-98939619D01*
X155593903Y-99114328D01*
X155513493Y-99308455D01*
X155472500Y-99514539D01*
X155472500Y-99724661D01*
X155472747Y-99725905D01*
X147597174Y-107601480D01*
X145924064Y-107601480D01*
X146083016Y-107553262D01*
X146259739Y-107458802D01*
X146414639Y-107331679D01*
X146541762Y-107176779D01*
X146635942Y-107000580D01*
X146787680Y-107000580D01*
X146806920Y-107002475D01*
X146826160Y-107000580D01*
X146883707Y-106994912D01*
X146957542Y-106972514D01*
X147025590Y-106936142D01*
X147085234Y-106887194D01*
X147097508Y-106872238D01*
X156119433Y-97850314D01*
X156228055Y-97895307D01*
X156434139Y-97936300D01*
X156644261Y-97936300D01*
X156850345Y-97895307D01*
X157044472Y-97814897D01*
X157219181Y-97698160D01*
X157367760Y-97549581D01*
X157484497Y-97374872D01*
X157564907Y-97180745D01*
X157605900Y-96974661D01*
X157605900Y-96764539D01*
X157564907Y-96558455D01*
X157484497Y-96364328D01*
X157367760Y-96189619D01*
X157219181Y-96041040D01*
X157044472Y-95924303D01*
X156850345Y-95843893D01*
X156644261Y-95802900D01*
X156434139Y-95802900D01*
X156228055Y-95843893D01*
X156033928Y-95924303D01*
X155859219Y-96041040D01*
X155710640Y-96189619D01*
X155593903Y-96364328D01*
X155513493Y-96558455D01*
X155472500Y-96764539D01*
X155472500Y-96974661D01*
X155513493Y-97180745D01*
X155562586Y-97299266D01*
X146644674Y-106217180D01*
X146635942Y-106217180D01*
X146541762Y-106040981D01*
X146414639Y-105886081D01*
X146259739Y-105758958D01*
X146083016Y-105664498D01*
X145891260Y-105606329D01*
X145741814Y-105591610D01*
X145144026Y-105591610D01*
X144994580Y-105606329D01*
X144802824Y-105664498D01*
X144626101Y-105758958D01*
X144471201Y-105886081D01*
X144344078Y-106040981D01*
X144249618Y-106217704D01*
X144191449Y-106409460D01*
X144171808Y-106608880D01*
X144191449Y-106808300D01*
X144249618Y-107000056D01*
X144344078Y-107176779D01*
X144471201Y-107331679D01*
X144626101Y-107458802D01*
X144802824Y-107553262D01*
X144961776Y-107601480D01*
X143598102Y-107601480D01*
X143503922Y-107425281D01*
X143376799Y-107270381D01*
X143221899Y-107143258D01*
X143045176Y-107048798D01*
X142853420Y-106990629D01*
X142703974Y-106975910D01*
X142106186Y-106975910D01*
X141956740Y-106990629D01*
X141764984Y-107048798D01*
X141588261Y-107143258D01*
X141433361Y-107270381D01*
X141306238Y-107425281D01*
X141211778Y-107602004D01*
X141153609Y-107793760D01*
X141133968Y-107993180D01*
X140980700Y-107993180D01*
X140980700Y-105222040D01*
X141133968Y-105222040D01*
X141153609Y-105421460D01*
X141211778Y-105613216D01*
X141306238Y-105789939D01*
X141433361Y-105944839D01*
X141588261Y-106071962D01*
X141764984Y-106166422D01*
X141956740Y-106224591D01*
X142106186Y-106239310D01*
X142703974Y-106239310D01*
X142853420Y-106224591D01*
X143045176Y-106166422D01*
X143221899Y-106071962D01*
X143376799Y-105944839D01*
X143503922Y-105789939D01*
X143598382Y-105613216D01*
X143656551Y-105421460D01*
X143676192Y-105222040D01*
X143656551Y-105022620D01*
X143598382Y-104830864D01*
X143503922Y-104654141D01*
X143376799Y-104499241D01*
X143221899Y-104372118D01*
X143045176Y-104277658D01*
X142853420Y-104219489D01*
X142703974Y-104204770D01*
X142106186Y-104204770D01*
X141956740Y-104219489D01*
X141764984Y-104277658D01*
X141588261Y-104372118D01*
X141433361Y-104499241D01*
X141306238Y-104654141D01*
X141211778Y-104830864D01*
X141153609Y-105022620D01*
X141133968Y-105222040D01*
X140980700Y-105222040D01*
X140980700Y-103837740D01*
X144171808Y-103837740D01*
X144191449Y-104037160D01*
X144249618Y-104228916D01*
X144344078Y-104405639D01*
X144471201Y-104560539D01*
X144626101Y-104687662D01*
X144802824Y-104782122D01*
X144994580Y-104840291D01*
X145144026Y-104855010D01*
X145741814Y-104855010D01*
X145891260Y-104840291D01*
X146083016Y-104782122D01*
X146259739Y-104687662D01*
X146414639Y-104560539D01*
X146541762Y-104405639D01*
X146635942Y-104229440D01*
X146790220Y-104229440D01*
X146809460Y-104231335D01*
X146828700Y-104229440D01*
X146886247Y-104223772D01*
X146960082Y-104201374D01*
X147028130Y-104165002D01*
X147087774Y-104116054D01*
X147100048Y-104101098D01*
X156106281Y-95094867D01*
X156228055Y-95145307D01*
X156434139Y-95186300D01*
X156644261Y-95186300D01*
X156850345Y-95145307D01*
X157044472Y-95064897D01*
X157219181Y-94948160D01*
X157367760Y-94799581D01*
X157484497Y-94624872D01*
X157564907Y-94430745D01*
X157605900Y-94224661D01*
X157605900Y-94014539D01*
X157564907Y-93808455D01*
X157484497Y-93614328D01*
X157367760Y-93439619D01*
X157219181Y-93291040D01*
X157044472Y-93174303D01*
X156850345Y-93093893D01*
X156644261Y-93052900D01*
X156434139Y-93052900D01*
X156228055Y-93093893D01*
X156033928Y-93174303D01*
X155859219Y-93291040D01*
X155710640Y-93439619D01*
X155593903Y-93614328D01*
X155513493Y-93808455D01*
X155472500Y-94014539D01*
X155472500Y-94224661D01*
X155513493Y-94430745D01*
X155557138Y-94536114D01*
X146647214Y-103446040D01*
X146635942Y-103446040D01*
X146541762Y-103269841D01*
X146414639Y-103114941D01*
X146259739Y-102987818D01*
X146083016Y-102893358D01*
X145891260Y-102835189D01*
X145741814Y-102820470D01*
X145144026Y-102820470D01*
X144994580Y-102835189D01*
X144802824Y-102893358D01*
X144626101Y-102987818D01*
X144471201Y-103114941D01*
X144344078Y-103269841D01*
X144249618Y-103446564D01*
X144191449Y-103638320D01*
X144171808Y-103837740D01*
X140980700Y-103837740D01*
X140980700Y-102846364D01*
X141217837Y-102846364D01*
X141234704Y-102886628D01*
X141336920Y-103058072D01*
X141470619Y-103206280D01*
X141630663Y-103325557D01*
X141810902Y-103411319D01*
X142004409Y-103460270D01*
X142163780Y-103404938D01*
X142163780Y-102694740D01*
X142646380Y-102694740D01*
X142646380Y-103404938D01*
X142805751Y-103460270D01*
X142999258Y-103411319D01*
X143179497Y-103325557D01*
X143339541Y-103206280D01*
X143473240Y-103058072D01*
X143575456Y-102886628D01*
X143592323Y-102846364D01*
X143573459Y-102694740D01*
X142646380Y-102694740D01*
X142163780Y-102694740D01*
X141236701Y-102694740D01*
X141217837Y-102846364D01*
X140980700Y-102846364D01*
X140980700Y-102060516D01*
X141217837Y-102060516D01*
X141236701Y-102212140D01*
X142163780Y-102212140D01*
X142163780Y-101501942D01*
X142646380Y-101501942D01*
X142646380Y-102212140D01*
X143573459Y-102212140D01*
X143592323Y-102060516D01*
X143575456Y-102020252D01*
X143473240Y-101848808D01*
X143339541Y-101700600D01*
X143179497Y-101581323D01*
X142999258Y-101495561D01*
X142805751Y-101446610D01*
X142646380Y-101501942D01*
X142163780Y-101501942D01*
X142004409Y-101446610D01*
X141810902Y-101495561D01*
X141630663Y-101581323D01*
X141470619Y-101700600D01*
X141336920Y-101848808D01*
X141234704Y-102020252D01*
X141217837Y-102060516D01*
X140980700Y-102060516D01*
X140980700Y-101508246D01*
X141422346Y-101066600D01*
X144171808Y-101066600D01*
X144191449Y-101266020D01*
X144249618Y-101457776D01*
X144344078Y-101634499D01*
X144471201Y-101789399D01*
X144626101Y-101916522D01*
X144802824Y-102010982D01*
X144994580Y-102069151D01*
X145144026Y-102083870D01*
X145741814Y-102083870D01*
X145891260Y-102069151D01*
X146083016Y-102010982D01*
X146259739Y-101916522D01*
X146414639Y-101789399D01*
X146541762Y-101634499D01*
X146635942Y-101458300D01*
X146792760Y-101458300D01*
X146812000Y-101460195D01*
X146831240Y-101458300D01*
X146888787Y-101452632D01*
X146962622Y-101430234D01*
X147030670Y-101393862D01*
X147090314Y-101344914D01*
X147102588Y-101329958D01*
X156093128Y-92339419D01*
X156228055Y-92395307D01*
X156434139Y-92436300D01*
X156644261Y-92436300D01*
X156850345Y-92395307D01*
X157044472Y-92314897D01*
X157219181Y-92198160D01*
X157367760Y-92049581D01*
X157484497Y-91874872D01*
X157564907Y-91680745D01*
X157605900Y-91474661D01*
X157605900Y-91264539D01*
X157564907Y-91058455D01*
X157484497Y-90864328D01*
X157367760Y-90689619D01*
X157219181Y-90541040D01*
X157044472Y-90424303D01*
X156850345Y-90343893D01*
X156644261Y-90302900D01*
X156434139Y-90302900D01*
X156228055Y-90343893D01*
X156033928Y-90424303D01*
X155859219Y-90541040D01*
X155710640Y-90689619D01*
X155593903Y-90864328D01*
X155513493Y-91058455D01*
X155472500Y-91264539D01*
X155472500Y-91474661D01*
X155513493Y-91680745D01*
X155551691Y-91772962D01*
X146649754Y-100674900D01*
X146635942Y-100674900D01*
X146541762Y-100498701D01*
X146414639Y-100343801D01*
X146259739Y-100216678D01*
X146083016Y-100122218D01*
X145891260Y-100064049D01*
X145741814Y-100049330D01*
X145144026Y-100049330D01*
X144994580Y-100064049D01*
X144802824Y-100122218D01*
X144626101Y-100216678D01*
X144471201Y-100343801D01*
X144344078Y-100498701D01*
X144249618Y-100675424D01*
X144191449Y-100867180D01*
X144171808Y-101066600D01*
X141422346Y-101066600D01*
X141839623Y-100649324D01*
X141956740Y-100684851D01*
X142106186Y-100699570D01*
X142703974Y-100699570D01*
X142853420Y-100684851D01*
X143045176Y-100626682D01*
X143221899Y-100532222D01*
X143376799Y-100405099D01*
X143503922Y-100250199D01*
X143598382Y-100073476D01*
X143656551Y-99881720D01*
X143676192Y-99682300D01*
X143656551Y-99482880D01*
X143598382Y-99291124D01*
X143503922Y-99114401D01*
X143376799Y-98959501D01*
X143221899Y-98832378D01*
X143045176Y-98737918D01*
X142853420Y-98679749D01*
X142703974Y-98665030D01*
X142106186Y-98665030D01*
X141956740Y-98679749D01*
X141764984Y-98737918D01*
X141588261Y-98832378D01*
X141433361Y-98959501D01*
X141306238Y-99114401D01*
X141211778Y-99291124D01*
X141153609Y-99482880D01*
X141133968Y-99682300D01*
X141153609Y-99881720D01*
X141211778Y-100073476D01*
X141245147Y-100135906D01*
X140325637Y-101055417D01*
X140310687Y-101067686D01*
X140269025Y-101118452D01*
X140261738Y-101127331D01*
X140225367Y-101195378D01*
X140202968Y-101269214D01*
X140195405Y-101346000D01*
X135381700Y-101346000D01*
X135381700Y-98298000D01*
X144171808Y-98298000D01*
X144191449Y-98497420D01*
X144249618Y-98689176D01*
X144344078Y-98865899D01*
X144471201Y-99020799D01*
X144626101Y-99147922D01*
X144802824Y-99242382D01*
X144994580Y-99300551D01*
X145144026Y-99315270D01*
X145741814Y-99315270D01*
X145891260Y-99300551D01*
X146083016Y-99242382D01*
X146259739Y-99147922D01*
X146414639Y-99020799D01*
X146541762Y-98865899D01*
X146636222Y-98689176D01*
X146694391Y-98497420D01*
X146714032Y-98298000D01*
X146694391Y-98098580D01*
X146636222Y-97906824D01*
X146541762Y-97730101D01*
X146414639Y-97575201D01*
X146259739Y-97448078D01*
X146083016Y-97353618D01*
X145891260Y-97295449D01*
X145741814Y-97280730D01*
X145144026Y-97280730D01*
X144994580Y-97295449D01*
X144802824Y-97353618D01*
X144626101Y-97448078D01*
X144471201Y-97575201D01*
X144344078Y-97730101D01*
X144249618Y-97906824D01*
X144191449Y-98098580D01*
X144171808Y-98298000D01*
X135381700Y-98298000D01*
X135381700Y-94581700D01*
X149976784Y-94581700D01*
X149991461Y-94580255D01*
X150548991Y-94531931D01*
X150576738Y-94526761D01*
X150604614Y-94522433D01*
X150609226Y-94521212D01*
X151258339Y-94344532D01*
X151287258Y-94333532D01*
X151316383Y-94322916D01*
X151320670Y-94320822D01*
X151923104Y-94021427D01*
X151949352Y-94005009D01*
X151975844Y-93988948D01*
X151979643Y-93986062D01*
X152486176Y-93595609D01*
X152495754Y-93590489D01*
X152534748Y-93558488D01*
X157361537Y-88731700D01*
X178235117Y-88731700D01*
X177968790Y-88826551D01*
G37*
X177968790Y-88826551D02*
X177720915Y-88959043D01*
X177413105Y-89259895D01*
X179154000Y-91000790D01*
X180894895Y-89259895D01*
X180587085Y-88959043D01*
X180108233Y-88731700D01*
X187628300Y-88731700D01*
X187628301Y-119038300D01*
X179761922Y-119038300D01*
X179825689Y-119028937D01*
X180339210Y-118846049D01*
X180587085Y-118713557D01*
X180894895Y-118412705D01*
X179154000Y-116671810D01*
X177413105Y-118412705D01*
X177720915Y-118713557D01*
X178213351Y-118947349D01*
X178574193Y-119038300D01*
X144541729Y-119038300D01*
X144595689Y-119030377D01*
X145109210Y-118847489D01*
X145357085Y-118714997D01*
X145664895Y-118414145D01*
X143924000Y-116673250D01*
X142183105Y-118414145D01*
X142490915Y-118714997D01*
X142983351Y-118948789D01*
X143338480Y-119038300D01*
X135381700Y-119038300D01*
X135381700Y-116464356D01*
X141146432Y-116464356D01*
X141225623Y-117003689D01*
X141408511Y-117517210D01*
X141541003Y-117765085D01*
X141841855Y-118072895D01*
X143582750Y-116332000D01*
X144265250Y-116332000D01*
X146006145Y-118072895D01*
X146306997Y-117765085D01*
X146540789Y-117272649D01*
X146674020Y-116744064D01*
X146701568Y-116199644D01*
X146622377Y-115660311D01*
X146439489Y-115146790D01*
X146306997Y-114898915D01*
X146006145Y-114591105D01*
X144265250Y-116332000D01*
X143582750Y-116332000D01*
X141841855Y-114591105D01*
X141541003Y-114898915D01*
X141307211Y-115391351D01*
X141173980Y-115919936D01*
X141146432Y-116464356D01*
X135381700Y-116464356D01*
X135381700Y-114249855D01*
X142183105Y-114249855D01*
X143924000Y-115990750D01*
X145664895Y-114249855D01*
X145357085Y-113949003D01*
X144864649Y-113715211D01*
X144336064Y-113581980D01*
X143791644Y-113554432D01*
X143252311Y-113633623D01*
X142738790Y-113816511D01*
X142490915Y-113949003D01*
X142183105Y-114249855D01*
X135381700Y-114249855D01*
X135381700Y-101346000D01*
X140195405Y-101346000D01*
X140197301Y-101365250D01*
X140197300Y-109835760D01*
X140195405Y-109855000D01*
X140197300Y-109874239D01*
X140202968Y-109931786D01*
X140225366Y-110005621D01*
X140261738Y-110073669D01*
X140310686Y-110133314D01*
X140325642Y-110145588D01*
X142330417Y-112150364D01*
X142342686Y-112165314D01*
X142402330Y-112214262D01*
X142470378Y-112250634D01*
X142544213Y-112273032D01*
X142621000Y-112280595D01*
X142640240Y-112278700D01*
X147081554Y-112278700D01*
X148271161Y-113468308D01*
X148270450Y-113470024D01*
X148233300Y-113656788D01*
X148233300Y-113847212D01*
X148270450Y-114033976D01*
X148343322Y-114209904D01*
X148449115Y-114368235D01*
X148583765Y-114502885D01*
X148742096Y-114608678D01*
X148918024Y-114681550D01*
X149104788Y-114718700D01*
X149295212Y-114718700D01*
X149481976Y-114681550D01*
X149657904Y-114608678D01*
X149816235Y-114502885D01*
X149950885Y-114368235D01*
X150056678Y-114209904D01*
X150129550Y-114033976D01*
X150166700Y-113847212D01*
X150166700Y-113656788D01*
X150129550Y-113470024D01*
X150056678Y-113294096D01*
X149950885Y-113135765D01*
X149816235Y-113001115D01*
X149657904Y-112895322D01*
X149481976Y-112822450D01*
X149295212Y-112785300D01*
X149104788Y-112785300D01*
X148918024Y-112822450D01*
X148787332Y-112876585D01*
X147534387Y-111623641D01*
X147522114Y-111608686D01*
X147462470Y-111559738D01*
X147394422Y-111523366D01*
X147320587Y-111500968D01*
X147263040Y-111495300D01*
X147243800Y-111493405D01*
X147224560Y-111495300D01*
X142783247Y-111495300D01*
X142444735Y-111156788D01*
X148233300Y-111156788D01*
X148233300Y-111347212D01*
X148270450Y-111533976D01*
X148343322Y-111709904D01*
X148449115Y-111868235D01*
X148583765Y-112002885D01*
X148742096Y-112108678D01*
X148918024Y-112181550D01*
X149104788Y-112218700D01*
X149295212Y-112218700D01*
X149481976Y-112181550D01*
X149657904Y-112108678D01*
X149816235Y-112002885D01*
X149867120Y-111952000D01*
X151532010Y-111952000D01*
X151537159Y-112004282D01*
X151552410Y-112054555D01*
X151577174Y-112100887D01*
X151610502Y-112141498D01*
X151651113Y-112174826D01*
X151697445Y-112199590D01*
X151747718Y-112214841D01*
X151800000Y-112219990D01*
X152192025Y-112218700D01*
X152258700Y-112152025D01*
X152258700Y-111493300D01*
X152741300Y-111493300D01*
X152741300Y-112152025D01*
X152807975Y-112218700D01*
X153200000Y-112219990D01*
X153252282Y-112214841D01*
X153302555Y-112199590D01*
X153348887Y-112174826D01*
X153389498Y-112141498D01*
X153422826Y-112100887D01*
X153447590Y-112054555D01*
X153462841Y-112004282D01*
X153467990Y-111952000D01*
X153466700Y-111559975D01*
X153400025Y-111493300D01*
X152741300Y-111493300D01*
X152258700Y-111493300D01*
X151599975Y-111493300D01*
X151533300Y-111559975D01*
X151532010Y-111952000D01*
X149867120Y-111952000D01*
X149950885Y-111868235D01*
X150056678Y-111709904D01*
X150129550Y-111533976D01*
X150166700Y-111347212D01*
X150166700Y-111156788D01*
X150129550Y-110970024D01*
X150102010Y-110903536D01*
X150453546Y-110552000D01*
X151532010Y-110552000D01*
X151533300Y-110944025D01*
X151599975Y-111010700D01*
X152258700Y-111010700D01*
X152258700Y-110351975D01*
X152741300Y-110351975D01*
X152741300Y-111010700D01*
X153400025Y-111010700D01*
X153466700Y-110944025D01*
X153467990Y-110552000D01*
X153462841Y-110499718D01*
X153447590Y-110449445D01*
X153422826Y-110403113D01*
X153389498Y-110362502D01*
X153348887Y-110329174D01*
X153302555Y-110304410D01*
X153252282Y-110289159D01*
X153200000Y-110284010D01*
X152807975Y-110285300D01*
X152741300Y-110351975D01*
X152258700Y-110351975D01*
X152192025Y-110285300D01*
X151800000Y-110284010D01*
X151747718Y-110289159D01*
X151697445Y-110304410D01*
X151651113Y-110329174D01*
X151610502Y-110362502D01*
X151577174Y-110403113D01*
X151552410Y-110449445D01*
X151537159Y-110499718D01*
X151532010Y-110552000D01*
X150453546Y-110552000D01*
X153425848Y-107579700D01*
X157206760Y-107579700D01*
X157226000Y-107581595D01*
X157245240Y-107579700D01*
X157302787Y-107574032D01*
X157376622Y-107551634D01*
X157444670Y-107515262D01*
X157504314Y-107466314D01*
X157516587Y-107451359D01*
X158505364Y-106462583D01*
X158520314Y-106450314D01*
X158569262Y-106390670D01*
X158605634Y-106322622D01*
X158628032Y-106248787D01*
X158633700Y-106191240D01*
X158635595Y-106172000D01*
X158633700Y-106152760D01*
X158633700Y-92059446D01*
X161147447Y-89545700D01*
X165430352Y-89545700D01*
X164674443Y-90301610D01*
X163359200Y-90301610D01*
X163306918Y-90306759D01*
X163256645Y-90322010D01*
X163210313Y-90346774D01*
X163169702Y-90380102D01*
X163136374Y-90420713D01*
X163111610Y-90467045D01*
X163096359Y-90517318D01*
X163091210Y-90569600D01*
X163091210Y-92169600D01*
X163096359Y-92221882D01*
X163111610Y-92272155D01*
X163136374Y-92318487D01*
X163169702Y-92359098D01*
X163181890Y-92369100D01*
X162401440Y-92369100D01*
X162382200Y-92367205D01*
X162362960Y-92369100D01*
X162305413Y-92374768D01*
X162231578Y-92397166D01*
X162163530Y-92433538D01*
X162103886Y-92482486D01*
X162091617Y-92497436D01*
X159020037Y-95569017D01*
X159005087Y-95581286D01*
X158965912Y-95629022D01*
X158956138Y-95640931D01*
X158919767Y-95708978D01*
X158897368Y-95782814D01*
X158889805Y-95859600D01*
X158891701Y-95878850D01*
X158891700Y-106847953D01*
X152877596Y-112862057D01*
X152781976Y-112822450D01*
X152595212Y-112785300D01*
X152404788Y-112785300D01*
X152218024Y-112822450D01*
X152042096Y-112895322D01*
X151883765Y-113001115D01*
X151749115Y-113135765D01*
X151643322Y-113294096D01*
X151570450Y-113470024D01*
X151533300Y-113656788D01*
X151533300Y-113847212D01*
X151570450Y-114033976D01*
X151643322Y-114209904D01*
X151749115Y-114368235D01*
X151883765Y-114502885D01*
X152042096Y-114608678D01*
X152218024Y-114681550D01*
X152404788Y-114718700D01*
X152595212Y-114718700D01*
X152781976Y-114681550D01*
X152957904Y-114608678D01*
X153116235Y-114502885D01*
X153250885Y-114368235D01*
X153356678Y-114209904D01*
X153429550Y-114033976D01*
X153466700Y-113847212D01*
X153466700Y-113656788D01*
X153429550Y-113470024D01*
X153414311Y-113433235D01*
X159546765Y-107300782D01*
X159561714Y-107288514D01*
X159610662Y-107228870D01*
X159647034Y-107160822D01*
X159669432Y-107086987D01*
X159675100Y-107029440D01*
X159675100Y-107029439D01*
X159676995Y-107010200D01*
X159675100Y-106990960D01*
X159675100Y-96021846D01*
X162544447Y-93152500D01*
X163151321Y-93152500D01*
X163136374Y-93170713D01*
X163111610Y-93217045D01*
X163096359Y-93267318D01*
X163091210Y-93319600D01*
X163091210Y-94919600D01*
X163096359Y-94971882D01*
X163111610Y-95022155D01*
X163136374Y-95068487D01*
X163169702Y-95109098D01*
X163210313Y-95142426D01*
X163256645Y-95167190D01*
X163306918Y-95182441D01*
X163359200Y-95187590D01*
X164959200Y-95187590D01*
X165011482Y-95182441D01*
X165061755Y-95167190D01*
X165108087Y-95142426D01*
X165148698Y-95109098D01*
X165182026Y-95068487D01*
X165206790Y-95022155D01*
X165222041Y-94971882D01*
X165227190Y-94919600D01*
X165227190Y-94511700D01*
X166785827Y-94511700D01*
X170108300Y-97890328D01*
X170108301Y-99240750D01*
X170106405Y-99260000D01*
X170113968Y-99336786D01*
X170136367Y-99410622D01*
X170167559Y-99468978D01*
X170172739Y-99478670D01*
X170221687Y-99538314D01*
X170236637Y-99550583D01*
X172619417Y-101933364D01*
X172631686Y-101948314D01*
X172674644Y-101983568D01*
X172691330Y-101997262D01*
X172759377Y-102033634D01*
X172788071Y-102042338D01*
X172833213Y-102056032D01*
X172890760Y-102061700D01*
X172910000Y-102063595D01*
X172929240Y-102061700D01*
X173688264Y-102061700D01*
X173677765Y-102068715D01*
X173543115Y-102203365D01*
X173437322Y-102361696D01*
X173364450Y-102537624D01*
X173327300Y-102724388D01*
X173327300Y-102914812D01*
X173364450Y-103101576D01*
X173437322Y-103277504D01*
X173543115Y-103435835D01*
X173677765Y-103570485D01*
X173719393Y-103598300D01*
X173042247Y-103598300D01*
X169611700Y-100167754D01*
X169611700Y-97769240D01*
X169613595Y-97750000D01*
X169606032Y-97673214D01*
X169583634Y-97599378D01*
X169570711Y-97575201D01*
X169547262Y-97531330D01*
X169498314Y-97471686D01*
X169483364Y-97459417D01*
X167680188Y-95656242D01*
X167667914Y-95641286D01*
X167608270Y-95592338D01*
X167578116Y-95576220D01*
X167530678Y-95461696D01*
X167424885Y-95303365D01*
X167290235Y-95168715D01*
X167131904Y-95062922D01*
X166955976Y-94990050D01*
X166769212Y-94952900D01*
X166578788Y-94952900D01*
X166392024Y-94990050D01*
X166216096Y-95062922D01*
X166069855Y-95160637D01*
X166039731Y-95176738D01*
X165980087Y-95225687D01*
X165931138Y-95285331D01*
X165915037Y-95315455D01*
X165817322Y-95461696D01*
X165744450Y-95637624D01*
X165707300Y-95824388D01*
X165707300Y-96014812D01*
X165744450Y-96201576D01*
X165817322Y-96377504D01*
X165923115Y-96535835D01*
X166057765Y-96670485D01*
X166069461Y-96678300D01*
X165227190Y-96678300D01*
X165227190Y-96069600D01*
X165222041Y-96017318D01*
X165206790Y-95967045D01*
X165182026Y-95920713D01*
X165148698Y-95880102D01*
X165108087Y-95846774D01*
X165061755Y-95822010D01*
X165011482Y-95806759D01*
X164959200Y-95801610D01*
X163359200Y-95801610D01*
X163306918Y-95806759D01*
X163256645Y-95822010D01*
X163210313Y-95846774D01*
X163169702Y-95880102D01*
X163136374Y-95920713D01*
X163111610Y-95967045D01*
X163096359Y-96017318D01*
X163091210Y-96069600D01*
X163091210Y-97669600D01*
X163096359Y-97721882D01*
X163111610Y-97772155D01*
X163136374Y-97818487D01*
X163144099Y-97827900D01*
X161379640Y-97827900D01*
X161360400Y-97826005D01*
X161341160Y-97827900D01*
X161283613Y-97833568D01*
X161209778Y-97855966D01*
X161141730Y-97892338D01*
X161082086Y-97941286D01*
X161069817Y-97956236D01*
X160116705Y-98909349D01*
X160101824Y-98921549D01*
X160089487Y-98936567D01*
X160089422Y-98936632D01*
X160077548Y-98951101D01*
X160052847Y-98981169D01*
X160052802Y-98981253D01*
X160052738Y-98981331D01*
X160034340Y-99015752D01*
X160016441Y-99049199D01*
X160016412Y-99049293D01*
X160016367Y-99049378D01*
X160005292Y-99085884D01*
X159994006Y-99123023D01*
X159993996Y-99123121D01*
X159993968Y-99123214D01*
X159990135Y-99162133D01*
X159988310Y-99180567D01*
X159988310Y-99180659D01*
X159986405Y-99200000D01*
X159988291Y-99219148D01*
X159983981Y-107940072D01*
X157369037Y-110555017D01*
X157354087Y-110567286D01*
X157312425Y-110618052D01*
X157305138Y-110626931D01*
X157268767Y-110694978D01*
X157246368Y-110768814D01*
X157238805Y-110845600D01*
X157240701Y-110864850D01*
X157240700Y-116779352D01*
X156301754Y-117718300D01*
X151220247Y-117718300D01*
X150102127Y-116600181D01*
X150129550Y-116533976D01*
X150166700Y-116347212D01*
X150166700Y-116156788D01*
X151533300Y-116156788D01*
X151533300Y-116347212D01*
X151570450Y-116533976D01*
X151643322Y-116709904D01*
X151749115Y-116868235D01*
X151883765Y-117002885D01*
X152042096Y-117108678D01*
X152218024Y-117181550D01*
X152404788Y-117218700D01*
X152595212Y-117218700D01*
X152781976Y-117181550D01*
X152957904Y-117108678D01*
X153116235Y-117002885D01*
X153250885Y-116868235D01*
X153356678Y-116709904D01*
X153429550Y-116533976D01*
X153466700Y-116347212D01*
X153466700Y-116156788D01*
X153429550Y-115970024D01*
X153356678Y-115794096D01*
X153250885Y-115635765D01*
X153116235Y-115501115D01*
X152957904Y-115395322D01*
X152781976Y-115322450D01*
X152595212Y-115285300D01*
X152404788Y-115285300D01*
X152218024Y-115322450D01*
X152042096Y-115395322D01*
X151883765Y-115501115D01*
X151749115Y-115635765D01*
X151643322Y-115794096D01*
X151570450Y-115970024D01*
X151533300Y-116156788D01*
X150166700Y-116156788D01*
X150129550Y-115970024D01*
X150056678Y-115794096D01*
X149950885Y-115635765D01*
X149816235Y-115501115D01*
X149657904Y-115395322D01*
X149481976Y-115322450D01*
X149295212Y-115285300D01*
X149104788Y-115285300D01*
X148918024Y-115322450D01*
X148742096Y-115395322D01*
X148583765Y-115501115D01*
X148449115Y-115635765D01*
X148343322Y-115794096D01*
X148270450Y-115970024D01*
X148233300Y-116156788D01*
X148233300Y-116347212D01*
X148270450Y-116533976D01*
X148343322Y-116709904D01*
X148449115Y-116868235D01*
X148583765Y-117002885D01*
X148742096Y-117108678D01*
X148918024Y-117181550D01*
X149104788Y-117218700D01*
X149295212Y-117218700D01*
X149481976Y-117181550D01*
X149548181Y-117154127D01*
X150767417Y-118373364D01*
X150779686Y-118388314D01*
X150811162Y-118414145D01*
X150839330Y-118437262D01*
X150907377Y-118473634D01*
X150981213Y-118496032D01*
X151038760Y-118501700D01*
X151058000Y-118503595D01*
X151077240Y-118501700D01*
X156444760Y-118501700D01*
X156464000Y-118503595D01*
X156483240Y-118501700D01*
X156540787Y-118496032D01*
X156614622Y-118473634D01*
X156682670Y-118437262D01*
X156742314Y-118388314D01*
X156754587Y-118373359D01*
X157895770Y-117232178D01*
X157910714Y-117219914D01*
X157959662Y-117160270D01*
X157996034Y-117092222D01*
X158002700Y-117070247D01*
X158002700Y-117227160D01*
X158000805Y-117246400D01*
X158002700Y-117265639D01*
X158008368Y-117323186D01*
X158030766Y-117397021D01*
X158067138Y-117465069D01*
X158116086Y-117524714D01*
X158131041Y-117536987D01*
X159447421Y-118853369D01*
X159459686Y-118868314D01*
X159519330Y-118917262D01*
X159587378Y-118953634D01*
X159661213Y-118976032D01*
X159718760Y-118981700D01*
X159718762Y-118981700D01*
X159737999Y-118983595D01*
X159757236Y-118981700D01*
X172580760Y-118981700D01*
X172600000Y-118983595D01*
X172619240Y-118981700D01*
X172676787Y-118976032D01*
X172750622Y-118953634D01*
X172818670Y-118917262D01*
X172878314Y-118868314D01*
X172890588Y-118853358D01*
X176702786Y-115041161D01*
X176537211Y-115389911D01*
X176403980Y-115918496D01*
X176376432Y-116462916D01*
X176455623Y-117002249D01*
X176638511Y-117515770D01*
X176771003Y-117763645D01*
X177071855Y-118071455D01*
X178812750Y-116330560D01*
X179495250Y-116330560D01*
X181236145Y-118071455D01*
X181536997Y-117763645D01*
X181770789Y-117271209D01*
X181904020Y-116742624D01*
X181931568Y-116198204D01*
X181852377Y-115658871D01*
X181669489Y-115145350D01*
X181536997Y-114897475D01*
X181236145Y-114589665D01*
X179495250Y-116330560D01*
X178812750Y-116330560D01*
X178798608Y-116316418D01*
X179139858Y-115975168D01*
X179154000Y-115989310D01*
X180894895Y-114248415D01*
X180587085Y-113947563D01*
X180094649Y-113713771D01*
X179566064Y-113580540D01*
X179021644Y-113552992D01*
X178482311Y-113632183D01*
X177968790Y-113815071D01*
X177883043Y-113860903D01*
X183213370Y-108530578D01*
X183228314Y-108518314D01*
X183277262Y-108458670D01*
X183313634Y-108390622D01*
X183336032Y-108316787D01*
X183341700Y-108259240D01*
X183341700Y-108259238D01*
X183343595Y-108240001D01*
X183341700Y-108220764D01*
X183341700Y-100339236D01*
X183343595Y-100319999D01*
X183341584Y-100299581D01*
X183336032Y-100243213D01*
X183313634Y-100169378D01*
X183277262Y-100101330D01*
X183228314Y-100041686D01*
X183213370Y-100029422D01*
X182601447Y-99417501D01*
X182589174Y-99402546D01*
X182529530Y-99353598D01*
X182461482Y-99317226D01*
X182387647Y-99294828D01*
X182330100Y-99289160D01*
X182310860Y-99287265D01*
X182291620Y-99289160D01*
X181865942Y-99289160D01*
X181771762Y-99112961D01*
X181644639Y-98958061D01*
X181489739Y-98830938D01*
X181313016Y-98736478D01*
X181121260Y-98678309D01*
X180971814Y-98663590D01*
X180374026Y-98663590D01*
X180224580Y-98678309D01*
X180032824Y-98736478D01*
X179856101Y-98830938D01*
X179701201Y-98958061D01*
X179574078Y-99112961D01*
X179479618Y-99289684D01*
X179421449Y-99481440D01*
X179401808Y-99680860D01*
X179421449Y-99880280D01*
X179479618Y-100072036D01*
X179574078Y-100248759D01*
X179701201Y-100403659D01*
X179856101Y-100530782D01*
X180032824Y-100625242D01*
X180224580Y-100683411D01*
X180374026Y-100698130D01*
X180971814Y-100698130D01*
X181121260Y-100683411D01*
X181313016Y-100625242D01*
X181489739Y-100530782D01*
X181644639Y-100403659D01*
X181771762Y-100248759D01*
X181865942Y-100072560D01*
X182148614Y-100072560D01*
X182558300Y-100482248D01*
X182558301Y-108077751D01*
X172437754Y-118198300D01*
X171748019Y-118198300D01*
X171768670Y-118187262D01*
X171828314Y-118138314D01*
X171840588Y-118123358D01*
X180687371Y-109276577D01*
X180702314Y-109264314D01*
X180751262Y-109204670D01*
X180787634Y-109136622D01*
X180810032Y-109062787D01*
X180815329Y-109009010D01*
X180971814Y-109009010D01*
X181121260Y-108994291D01*
X181313016Y-108936122D01*
X181489739Y-108841662D01*
X181644639Y-108714539D01*
X181771762Y-108559639D01*
X181866222Y-108382916D01*
X181924391Y-108191160D01*
X181944032Y-107991740D01*
X181924391Y-107792320D01*
X181866222Y-107600564D01*
X181771762Y-107423841D01*
X181644639Y-107268941D01*
X181489739Y-107141818D01*
X181313016Y-107047358D01*
X181121260Y-106989189D01*
X180971814Y-106974470D01*
X180374026Y-106974470D01*
X180224580Y-106989189D01*
X180032824Y-107047358D01*
X179856101Y-107141818D01*
X179701201Y-107268941D01*
X179574078Y-107423841D01*
X179479618Y-107600564D01*
X179421449Y-107792320D01*
X179401808Y-107991740D01*
X179421449Y-108191160D01*
X179479618Y-108382916D01*
X179574078Y-108559639D01*
X179701201Y-108714539D01*
X179856101Y-108841662D01*
X179959254Y-108896798D01*
X171387754Y-117468300D01*
X167438248Y-117468300D01*
X164070127Y-114100181D01*
X164097550Y-114033976D01*
X164134700Y-113847212D01*
X164134700Y-113656788D01*
X166775300Y-113656788D01*
X166775300Y-113847212D01*
X166812450Y-114033976D01*
X166885322Y-114209904D01*
X166991115Y-114368235D01*
X167125765Y-114502885D01*
X167284096Y-114608678D01*
X167460024Y-114681550D01*
X167646788Y-114718700D01*
X167837212Y-114718700D01*
X168023976Y-114681550D01*
X168199904Y-114608678D01*
X168358235Y-114502885D01*
X168492885Y-114368235D01*
X168598678Y-114209904D01*
X168671550Y-114033976D01*
X168708700Y-113847212D01*
X168708700Y-113656788D01*
X168671550Y-113470024D01*
X168598678Y-113294096D01*
X168492885Y-113135765D01*
X168358235Y-113001115D01*
X168199904Y-112895322D01*
X168023976Y-112822450D01*
X167837212Y-112785300D01*
X167646788Y-112785300D01*
X167460024Y-112822450D01*
X167284096Y-112895322D01*
X167125765Y-113001115D01*
X166991115Y-113135765D01*
X166885322Y-113294096D01*
X166812450Y-113470024D01*
X166775300Y-113656788D01*
X164134700Y-113656788D01*
X164097550Y-113470024D01*
X164024678Y-113294096D01*
X163918885Y-113135765D01*
X163784235Y-113001115D01*
X163625904Y-112895322D01*
X163449976Y-112822450D01*
X163263212Y-112785300D01*
X163072788Y-112785300D01*
X162886024Y-112822450D01*
X162710096Y-112895322D01*
X162551765Y-113001115D01*
X162417115Y-113135765D01*
X162311322Y-113294096D01*
X162238450Y-113470024D01*
X162201300Y-113656788D01*
X162201300Y-113847212D01*
X162238450Y-114033976D01*
X162311322Y-114209904D01*
X162417115Y-114368235D01*
X162551765Y-114502885D01*
X162710096Y-114608678D01*
X162886024Y-114681550D01*
X163072788Y-114718700D01*
X163263212Y-114718700D01*
X163449976Y-114681550D01*
X163516181Y-114654127D01*
X166985421Y-118123369D01*
X166997686Y-118138314D01*
X167057330Y-118187262D01*
X167077981Y-118198300D01*
X159900248Y-118198300D01*
X158786100Y-117084154D01*
X158786100Y-115287846D01*
X159449109Y-114624838D01*
X159586024Y-114681550D01*
X159772788Y-114718700D01*
X159963212Y-114718700D01*
X160149976Y-114681550D01*
X160325904Y-114608678D01*
X160484235Y-114502885D01*
X160618885Y-114368235D01*
X160724678Y-114209904D01*
X160797550Y-114033976D01*
X160834700Y-113847212D01*
X160834700Y-113656788D01*
X160797550Y-113470024D01*
X160724678Y-113294096D01*
X160618885Y-113135765D01*
X160484235Y-113001115D01*
X160325904Y-112895322D01*
X160149976Y-112822450D01*
X159963212Y-112785300D01*
X159772788Y-112785300D01*
X159586024Y-112822450D01*
X159410096Y-112895322D01*
X159251765Y-113001115D01*
X159117115Y-113135765D01*
X159011322Y-113294096D01*
X158938450Y-113470024D01*
X158901300Y-113656788D01*
X158901300Y-113847212D01*
X158937393Y-114028661D01*
X158131037Y-114835017D01*
X158116087Y-114847286D01*
X158076934Y-114894995D01*
X158067138Y-114906931D01*
X158030767Y-114974978D01*
X158024100Y-114996955D01*
X158024100Y-111156788D01*
X158901300Y-111156788D01*
X158901300Y-111347212D01*
X158938450Y-111533976D01*
X159011322Y-111709904D01*
X159117115Y-111868235D01*
X159251765Y-112002885D01*
X159410096Y-112108678D01*
X159586024Y-112181550D01*
X159772788Y-112218700D01*
X159963212Y-112218700D01*
X160149976Y-112181550D01*
X160325904Y-112108678D01*
X160484235Y-112002885D01*
X160618885Y-111868235D01*
X160724678Y-111709904D01*
X160797550Y-111533976D01*
X160834700Y-111347212D01*
X160834700Y-111156788D01*
X160797550Y-110970024D01*
X160724678Y-110794096D01*
X160618885Y-110635765D01*
X160484235Y-110501115D01*
X160325904Y-110395322D01*
X160149976Y-110322450D01*
X159963212Y-110285300D01*
X159772788Y-110285300D01*
X159586024Y-110322450D01*
X159410096Y-110395322D01*
X159251765Y-110501115D01*
X159117115Y-110635765D01*
X159011322Y-110794096D01*
X158938450Y-110970024D01*
X158901300Y-111156788D01*
X158024100Y-111156788D01*
X158024100Y-111007846D01*
X160638899Y-108393048D01*
X160653776Y-108380851D01*
X160666109Y-108365838D01*
X160666178Y-108365769D01*
X160678612Y-108350618D01*
X160702753Y-108321231D01*
X160702798Y-108321147D01*
X160702862Y-108321069D01*
X160721687Y-108285849D01*
X160739159Y-108253201D01*
X160739186Y-108253111D01*
X160739234Y-108253022D01*
X160750587Y-108215598D01*
X160761594Y-108179377D01*
X160761604Y-108179279D01*
X160761632Y-108179186D01*
X160765465Y-108140267D01*
X160767290Y-108121833D01*
X160767290Y-108121741D01*
X160769195Y-108102400D01*
X160767309Y-108083252D01*
X160771619Y-99362327D01*
X161522647Y-98611300D01*
X163192613Y-98611300D01*
X163169702Y-98630102D01*
X163136374Y-98670713D01*
X163111610Y-98717045D01*
X163096359Y-98767318D01*
X163091210Y-98819600D01*
X163091210Y-100006843D01*
X161153641Y-101944412D01*
X161138686Y-101956686D01*
X161089738Y-102016331D01*
X161053366Y-102084379D01*
X161033178Y-102150930D01*
X161030968Y-102158214D01*
X161023405Y-102235000D01*
X161025300Y-102254240D01*
X161025301Y-108083150D01*
X161023405Y-108102400D01*
X161030968Y-108179186D01*
X161053367Y-108253022D01*
X161087450Y-108316787D01*
X161089739Y-108321070D01*
X161138687Y-108380714D01*
X161153637Y-108392983D01*
X162676300Y-109915647D01*
X162676300Y-110284010D01*
X162468000Y-110284010D01*
X162415718Y-110289159D01*
X162365445Y-110304410D01*
X162319113Y-110329174D01*
X162278502Y-110362502D01*
X162245174Y-110403113D01*
X162220410Y-110449445D01*
X162205159Y-110499718D01*
X162200010Y-110552000D01*
X162200010Y-111591443D01*
X161255241Y-112536213D01*
X161240286Y-112548486D01*
X161191338Y-112608131D01*
X161154966Y-112676179D01*
X161132568Y-112750013D01*
X161132568Y-112750014D01*
X161125005Y-112826800D01*
X161126900Y-112846040D01*
X161126901Y-114339151D01*
X160144661Y-115321393D01*
X159963212Y-115285300D01*
X159772788Y-115285300D01*
X159586024Y-115322450D01*
X159410096Y-115395322D01*
X159251765Y-115501115D01*
X159117115Y-115635765D01*
X159011322Y-115794096D01*
X158938450Y-115970024D01*
X158901300Y-116156788D01*
X158901300Y-116347212D01*
X158938450Y-116533976D01*
X159011322Y-116709904D01*
X159117115Y-116868235D01*
X159251765Y-117002885D01*
X159410096Y-117108678D01*
X159586024Y-117181550D01*
X159772788Y-117218700D01*
X159963212Y-117218700D01*
X160149976Y-117181550D01*
X160325904Y-117108678D01*
X160484235Y-117002885D01*
X160618885Y-116868235D01*
X160724678Y-116709904D01*
X160797550Y-116533976D01*
X160834700Y-116347212D01*
X160834700Y-116156788D01*
X162201300Y-116156788D01*
X162201300Y-116347212D01*
X162238450Y-116533976D01*
X162311322Y-116709904D01*
X162417115Y-116868235D01*
X162551765Y-117002885D01*
X162710096Y-117108678D01*
X162886024Y-117181550D01*
X163072788Y-117218700D01*
X163263212Y-117218700D01*
X163449976Y-117181550D01*
X163625904Y-117108678D01*
X163784235Y-117002885D01*
X163918885Y-116868235D01*
X164024678Y-116709904D01*
X164097550Y-116533976D01*
X164134700Y-116347212D01*
X164134700Y-116156788D01*
X164097550Y-115970024D01*
X164024678Y-115794096D01*
X163918885Y-115635765D01*
X163784235Y-115501115D01*
X163625904Y-115395322D01*
X163449976Y-115322450D01*
X163263212Y-115285300D01*
X163072788Y-115285300D01*
X162886024Y-115322450D01*
X162710096Y-115395322D01*
X162551765Y-115501115D01*
X162417115Y-115635765D01*
X162311322Y-115794096D01*
X162238450Y-115970024D01*
X162201300Y-116156788D01*
X160834700Y-116156788D01*
X160797550Y-115970024D01*
X160740838Y-115833109D01*
X161781969Y-114791979D01*
X161796914Y-114779714D01*
X161845862Y-114720070D01*
X161882234Y-114652022D01*
X161904632Y-114578187D01*
X161910300Y-114520640D01*
X161912195Y-114501401D01*
X161910300Y-114482161D01*
X161910300Y-112989046D01*
X162679357Y-112219990D01*
X163868000Y-112219990D01*
X163920282Y-112214841D01*
X163970555Y-112199590D01*
X164016887Y-112174826D01*
X164057498Y-112141498D01*
X164090826Y-112100887D01*
X164115590Y-112054555D01*
X164130841Y-112004282D01*
X164135990Y-111952000D01*
X164135990Y-110552000D01*
X164130841Y-110499718D01*
X164115590Y-110449445D01*
X164090826Y-110403113D01*
X164057498Y-110362502D01*
X164016887Y-110329174D01*
X163970555Y-110304410D01*
X163920282Y-110289159D01*
X163868000Y-110284010D01*
X163459700Y-110284010D01*
X163459700Y-109772640D01*
X163461595Y-109753400D01*
X163459700Y-109734160D01*
X163454032Y-109676613D01*
X163431634Y-109602778D01*
X163395262Y-109534730D01*
X163346314Y-109475086D01*
X163331365Y-109462818D01*
X161808700Y-107940154D01*
X161808700Y-103428800D01*
X162039405Y-103428800D01*
X162041300Y-103448040D01*
X162041301Y-105974950D01*
X162039405Y-105994200D01*
X162046968Y-106070986D01*
X162069367Y-106144822D01*
X162094178Y-106191240D01*
X162105739Y-106212870D01*
X162154687Y-106272514D01*
X162169637Y-106284783D01*
X166824876Y-110940024D01*
X166812450Y-110970024D01*
X166775300Y-111156788D01*
X166775300Y-111347212D01*
X166812450Y-111533976D01*
X166885322Y-111709904D01*
X166991115Y-111868235D01*
X167125765Y-112002885D01*
X167284096Y-112108678D01*
X167460024Y-112181550D01*
X167646788Y-112218700D01*
X167837212Y-112218700D01*
X168023976Y-112181550D01*
X168199904Y-112108678D01*
X168358235Y-112002885D01*
X168492885Y-111868235D01*
X168598678Y-111709904D01*
X168671550Y-111533976D01*
X168708700Y-111347212D01*
X168708700Y-111156788D01*
X168671550Y-110970024D01*
X168598678Y-110794096D01*
X168492885Y-110635765D01*
X168358235Y-110501115D01*
X168199904Y-110395322D01*
X168023976Y-110322450D01*
X167837212Y-110285300D01*
X167646788Y-110285300D01*
X167460024Y-110322450D01*
X167357616Y-110364869D01*
X162824700Y-105831954D01*
X162824700Y-104319600D01*
X163079210Y-104319600D01*
X163079210Y-105919600D01*
X163084359Y-105971882D01*
X163099610Y-106022155D01*
X163124374Y-106068487D01*
X163157702Y-106109098D01*
X163198313Y-106142426D01*
X163244645Y-106167190D01*
X163294918Y-106182441D01*
X163347200Y-106187590D01*
X164947200Y-106187590D01*
X164999482Y-106182441D01*
X165049755Y-106167190D01*
X165096087Y-106142426D01*
X165136698Y-106109098D01*
X165170026Y-106068487D01*
X165194790Y-106022155D01*
X165210041Y-105971882D01*
X165215190Y-105919600D01*
X165215190Y-104591333D01*
X165358313Y-104445633D01*
X165432246Y-104371700D01*
X166054780Y-104371700D01*
X165923115Y-104503365D01*
X165817322Y-104661696D01*
X165744450Y-104837624D01*
X165707300Y-105024388D01*
X165707300Y-105214812D01*
X165744450Y-105401576D01*
X165817322Y-105577504D01*
X165923115Y-105735835D01*
X166057765Y-105870485D01*
X166216096Y-105976278D01*
X166392024Y-106049150D01*
X166578788Y-106086300D01*
X166769212Y-106086300D01*
X166955976Y-106049150D01*
X167022181Y-106021727D01*
X168873900Y-107873447D01*
X168873901Y-115052152D01*
X168391587Y-115534467D01*
X168358235Y-115501115D01*
X168199904Y-115395322D01*
X168023976Y-115322450D01*
X167837212Y-115285300D01*
X167646788Y-115285300D01*
X167460024Y-115322450D01*
X167284096Y-115395322D01*
X167125765Y-115501115D01*
X166991115Y-115635765D01*
X166885322Y-115794096D01*
X166812450Y-115970024D01*
X166775300Y-116156788D01*
X166775300Y-116347212D01*
X166812450Y-116533976D01*
X166885322Y-116709904D01*
X166991115Y-116868235D01*
X167125765Y-117002885D01*
X167284096Y-117108678D01*
X167460024Y-117181550D01*
X167646788Y-117218700D01*
X167837212Y-117218700D01*
X168023976Y-117181550D01*
X168199904Y-117108678D01*
X168358235Y-117002885D01*
X168492885Y-116868235D01*
X168598678Y-116709904D01*
X168671550Y-116533976D01*
X168708700Y-116347212D01*
X168708700Y-116325246D01*
X168877158Y-116156788D01*
X170075300Y-116156788D01*
X170075300Y-116347212D01*
X170112450Y-116533976D01*
X170185322Y-116709904D01*
X170291115Y-116868235D01*
X170425765Y-117002885D01*
X170584096Y-117108678D01*
X170760024Y-117181550D01*
X170946788Y-117218700D01*
X171137212Y-117218700D01*
X171323976Y-117181550D01*
X171499904Y-117108678D01*
X171658235Y-117002885D01*
X171792885Y-116868235D01*
X171898678Y-116709904D01*
X171971550Y-116533976D01*
X172008700Y-116347212D01*
X172008700Y-116156788D01*
X171971550Y-115970024D01*
X171898678Y-115794096D01*
X171792885Y-115635765D01*
X171658235Y-115501115D01*
X171499904Y-115395322D01*
X171323976Y-115322450D01*
X171137212Y-115285300D01*
X170946788Y-115285300D01*
X170760024Y-115322450D01*
X170584096Y-115395322D01*
X170425765Y-115501115D01*
X170291115Y-115635765D01*
X170185322Y-115794096D01*
X170112450Y-115970024D01*
X170075300Y-116156788D01*
X168877158Y-116156788D01*
X169528964Y-115504983D01*
X169543914Y-115492714D01*
X169592862Y-115433070D01*
X169629234Y-115365022D01*
X169651632Y-115291187D01*
X169657300Y-115233640D01*
X169659195Y-115214400D01*
X169657300Y-115195160D01*
X169657300Y-113656788D01*
X170075300Y-113656788D01*
X170075300Y-113847212D01*
X170112450Y-114033976D01*
X170185322Y-114209904D01*
X170291115Y-114368235D01*
X170425765Y-114502885D01*
X170584096Y-114608678D01*
X170760024Y-114681550D01*
X170946788Y-114718700D01*
X171137212Y-114718700D01*
X171323976Y-114681550D01*
X171499904Y-114608678D01*
X171658235Y-114502885D01*
X171792885Y-114368235D01*
X171898678Y-114209904D01*
X171971550Y-114033976D01*
X172008700Y-113847212D01*
X172008700Y-113656788D01*
X171971550Y-113470024D01*
X171898678Y-113294096D01*
X171792885Y-113135765D01*
X171658235Y-113001115D01*
X171499904Y-112895322D01*
X171323976Y-112822450D01*
X171137212Y-112785300D01*
X170946788Y-112785300D01*
X170760024Y-112822450D01*
X170584096Y-112895322D01*
X170425765Y-113001115D01*
X170291115Y-113135765D01*
X170185322Y-113294096D01*
X170112450Y-113470024D01*
X170075300Y-113656788D01*
X169657300Y-113656788D01*
X169657300Y-110552000D01*
X170074010Y-110552000D01*
X170074010Y-111952000D01*
X170079159Y-112004282D01*
X170094410Y-112054555D01*
X170119174Y-112100887D01*
X170152502Y-112141498D01*
X170193113Y-112174826D01*
X170239445Y-112199590D01*
X170289718Y-112214841D01*
X170342000Y-112219990D01*
X171742000Y-112219990D01*
X171794282Y-112214841D01*
X171844555Y-112199590D01*
X171890887Y-112174826D01*
X171931498Y-112141498D01*
X171964826Y-112100887D01*
X171989590Y-112054555D01*
X172004841Y-112004282D01*
X172009990Y-111952000D01*
X172009990Y-110552000D01*
X172004841Y-110499718D01*
X171989590Y-110449445D01*
X171964826Y-110403113D01*
X171931498Y-110362502D01*
X171890887Y-110329174D01*
X171844555Y-110304410D01*
X171794282Y-110289159D01*
X171742000Y-110284010D01*
X170342000Y-110284010D01*
X170289718Y-110289159D01*
X170239445Y-110304410D01*
X170193113Y-110329174D01*
X170152502Y-110362502D01*
X170119174Y-110403113D01*
X170094410Y-110449445D01*
X170079159Y-110499718D01*
X170074010Y-110552000D01*
X169657300Y-110552000D01*
X169657300Y-107715240D01*
X169659195Y-107696000D01*
X169651632Y-107619213D01*
X169629234Y-107545378D01*
X169592862Y-107477330D01*
X169543914Y-107417686D01*
X169484270Y-107368738D01*
X169468835Y-107360488D01*
X167576127Y-105467781D01*
X167603550Y-105401576D01*
X167640700Y-105214812D01*
X167640700Y-105024388D01*
X167603550Y-104837624D01*
X167530678Y-104661696D01*
X167424885Y-104503365D01*
X167293220Y-104371700D01*
X168987754Y-104371700D01*
X174255457Y-109639404D01*
X174267726Y-109654354D01*
X174327370Y-109703302D01*
X174395418Y-109739674D01*
X174469253Y-109762072D01*
X174546040Y-109769635D01*
X174565280Y-109767740D01*
X176442058Y-109767740D01*
X176536238Y-109943939D01*
X176663361Y-110098839D01*
X176818261Y-110225962D01*
X176994984Y-110320422D01*
X177186740Y-110378591D01*
X177336186Y-110393310D01*
X177933974Y-110393310D01*
X178083420Y-110378591D01*
X178275176Y-110320422D01*
X178451899Y-110225962D01*
X178606799Y-110098839D01*
X178733922Y-109943939D01*
X178828382Y-109767216D01*
X178886551Y-109575460D01*
X178906192Y-109376040D01*
X178886551Y-109176620D01*
X178828382Y-108984864D01*
X178733922Y-108808141D01*
X178606799Y-108653241D01*
X178451899Y-108526118D01*
X178275176Y-108431658D01*
X178083420Y-108373489D01*
X177933974Y-108358770D01*
X177336186Y-108358770D01*
X177186740Y-108373489D01*
X176994984Y-108431658D01*
X176818261Y-108526118D01*
X176663361Y-108653241D01*
X176536238Y-108808141D01*
X176442058Y-108984340D01*
X174708287Y-108984340D01*
X169440588Y-103716642D01*
X169428314Y-103701686D01*
X169368670Y-103652738D01*
X169300622Y-103616366D01*
X169226787Y-103593968D01*
X169169240Y-103588300D01*
X169150000Y-103586405D01*
X169130760Y-103588300D01*
X167263573Y-103588300D01*
X167290235Y-103570485D01*
X167424885Y-103435835D01*
X167530678Y-103277504D01*
X167603550Y-103101576D01*
X167640700Y-102914812D01*
X167640700Y-102724388D01*
X167603550Y-102537624D01*
X167530678Y-102361696D01*
X167424885Y-102203365D01*
X167290235Y-102068715D01*
X167131904Y-101962922D01*
X166955976Y-101890050D01*
X166769212Y-101852900D01*
X166578788Y-101852900D01*
X166392024Y-101890050D01*
X166216096Y-101962922D01*
X166057765Y-102068715D01*
X165923115Y-102203365D01*
X165817322Y-102361696D01*
X165744450Y-102537624D01*
X165707300Y-102724388D01*
X165707300Y-102914812D01*
X165744450Y-103101576D01*
X165817322Y-103277504D01*
X165923115Y-103435835D01*
X166057765Y-103570485D01*
X166084427Y-103588300D01*
X165289240Y-103588300D01*
X165270000Y-103586405D01*
X165250760Y-103588300D01*
X165193213Y-103593968D01*
X165119378Y-103616366D01*
X165051330Y-103652738D01*
X164991686Y-103701686D01*
X164979412Y-103716642D01*
X164815400Y-103880654D01*
X164814048Y-103881784D01*
X164801722Y-103894332D01*
X164789422Y-103906632D01*
X164788317Y-103907978D01*
X164647227Y-104051610D01*
X163347200Y-104051610D01*
X163294918Y-104056759D01*
X163244645Y-104072010D01*
X163198313Y-104096774D01*
X163157702Y-104130102D01*
X163124374Y-104170713D01*
X163099610Y-104217045D01*
X163084359Y-104267318D01*
X163079210Y-104319600D01*
X162824700Y-104319600D01*
X162824700Y-103591046D01*
X163122750Y-103292997D01*
X163136374Y-103318487D01*
X163169702Y-103359098D01*
X163210313Y-103392426D01*
X163256645Y-103417190D01*
X163306918Y-103432441D01*
X163359200Y-103437590D01*
X164959200Y-103437590D01*
X165011482Y-103432441D01*
X165061755Y-103417190D01*
X165108087Y-103392426D01*
X165148698Y-103359098D01*
X165182026Y-103318487D01*
X165206790Y-103272155D01*
X165222041Y-103221882D01*
X165227190Y-103169600D01*
X165227190Y-101569600D01*
X165222041Y-101517318D01*
X165206790Y-101467045D01*
X165182026Y-101420713D01*
X165148698Y-101380102D01*
X165108087Y-101346774D01*
X165061755Y-101322010D01*
X165011482Y-101306759D01*
X164959200Y-101301610D01*
X163359200Y-101301610D01*
X163306918Y-101306759D01*
X163256645Y-101322010D01*
X163210313Y-101346774D01*
X163169702Y-101380102D01*
X163136374Y-101420713D01*
X163111610Y-101467045D01*
X163096359Y-101517318D01*
X163091210Y-101569600D01*
X163091210Y-102216643D01*
X162169641Y-103138213D01*
X162154686Y-103150486D01*
X162105738Y-103210131D01*
X162069366Y-103278179D01*
X162055431Y-103324117D01*
X162046968Y-103352014D01*
X162039405Y-103428800D01*
X161808700Y-103428800D01*
X161808700Y-102397246D01*
X163518357Y-100687590D01*
X164959200Y-100687590D01*
X165011482Y-100682441D01*
X165061755Y-100667190D01*
X165108087Y-100642426D01*
X165148698Y-100609098D01*
X165182026Y-100568487D01*
X165206790Y-100522155D01*
X165222041Y-100471882D01*
X165226718Y-100424388D01*
X165707300Y-100424388D01*
X165707300Y-100614812D01*
X165744450Y-100801576D01*
X165817322Y-100977504D01*
X165923115Y-101135835D01*
X166057765Y-101270485D01*
X166216096Y-101376278D01*
X166392024Y-101449150D01*
X166578788Y-101486300D01*
X166769212Y-101486300D01*
X166955976Y-101449150D01*
X167131904Y-101376278D01*
X167290235Y-101270485D01*
X167424885Y-101135835D01*
X167530678Y-100977504D01*
X167603550Y-100801576D01*
X167640700Y-100614812D01*
X167640700Y-100424388D01*
X167603550Y-100237624D01*
X167530678Y-100061696D01*
X167424885Y-99903365D01*
X167290235Y-99768715D01*
X167131904Y-99662922D01*
X166955976Y-99590050D01*
X166769212Y-99552900D01*
X166578788Y-99552900D01*
X166392024Y-99590050D01*
X166216096Y-99662922D01*
X166057765Y-99768715D01*
X165923115Y-99903365D01*
X165817322Y-100061696D01*
X165744450Y-100237624D01*
X165707300Y-100424388D01*
X165226718Y-100424388D01*
X165227190Y-100419600D01*
X165227190Y-98819600D01*
X165222041Y-98767318D01*
X165206790Y-98717045D01*
X165182026Y-98670713D01*
X165148698Y-98630102D01*
X165125787Y-98611300D01*
X165789899Y-98611300D01*
X165817322Y-98677504D01*
X165923115Y-98835835D01*
X166057765Y-98970485D01*
X166216096Y-99076278D01*
X166392024Y-99149150D01*
X166578788Y-99186300D01*
X166769212Y-99186300D01*
X166955976Y-99149150D01*
X167131904Y-99076278D01*
X167290235Y-98970485D01*
X167424885Y-98835835D01*
X167530678Y-98677504D01*
X167603550Y-98501576D01*
X167640700Y-98314812D01*
X167640700Y-98124388D01*
X167603550Y-97937624D01*
X167603460Y-97937407D01*
X167828300Y-98162247D01*
X167828301Y-101130750D01*
X167826405Y-101150000D01*
X167833968Y-101226786D01*
X167856367Y-101300622D01*
X167885827Y-101355738D01*
X167892739Y-101368670D01*
X167941687Y-101428314D01*
X167956637Y-101440583D01*
X173386857Y-106870804D01*
X173399126Y-106885754D01*
X173458770Y-106934702D01*
X173526818Y-106971074D01*
X173600653Y-106993472D01*
X173658200Y-106999140D01*
X173677440Y-107001035D01*
X173696680Y-106999140D01*
X176442058Y-106999140D01*
X176536238Y-107175339D01*
X176663361Y-107330239D01*
X176818261Y-107457362D01*
X176994984Y-107551822D01*
X177186740Y-107609991D01*
X177336186Y-107624710D01*
X177933974Y-107624710D01*
X178083420Y-107609991D01*
X178275176Y-107551822D01*
X178451899Y-107457362D01*
X178606799Y-107330239D01*
X178733922Y-107175339D01*
X178828382Y-106998616D01*
X178886551Y-106806860D01*
X178906192Y-106607440D01*
X178886551Y-106408020D01*
X178828382Y-106216264D01*
X178733922Y-106039541D01*
X178606799Y-105884641D01*
X178451899Y-105757518D01*
X178275176Y-105663058D01*
X178107851Y-105612300D01*
X179479898Y-105612300D01*
X179574078Y-105788499D01*
X179701201Y-105943399D01*
X179856101Y-106070522D01*
X180032824Y-106164982D01*
X180224580Y-106223151D01*
X180374026Y-106237870D01*
X180971814Y-106237870D01*
X181121260Y-106223151D01*
X181313016Y-106164982D01*
X181489739Y-106070522D01*
X181644639Y-105943399D01*
X181771762Y-105788499D01*
X181866222Y-105611776D01*
X181924391Y-105420020D01*
X181944032Y-105220600D01*
X181924391Y-105021180D01*
X181866222Y-104829424D01*
X181771762Y-104652701D01*
X181644639Y-104497801D01*
X181489739Y-104370678D01*
X181313016Y-104276218D01*
X181121260Y-104218049D01*
X180971814Y-104203330D01*
X180374026Y-104203330D01*
X180224580Y-104218049D01*
X180032824Y-104276218D01*
X179856101Y-104370678D01*
X179701201Y-104497801D01*
X179574078Y-104652701D01*
X179479898Y-104828900D01*
X178116224Y-104828900D01*
X178275176Y-104780682D01*
X178451899Y-104686222D01*
X178606799Y-104559099D01*
X178733922Y-104404199D01*
X178828382Y-104227476D01*
X178886551Y-104035720D01*
X178906192Y-103836300D01*
X178886551Y-103636880D01*
X178828382Y-103445124D01*
X178733922Y-103268401D01*
X178606799Y-103113501D01*
X178451899Y-102986378D01*
X178275176Y-102891918D01*
X178120259Y-102844924D01*
X179485677Y-102844924D01*
X179502544Y-102885188D01*
X179604760Y-103056632D01*
X179738459Y-103204840D01*
X179898503Y-103324117D01*
X180078742Y-103409879D01*
X180272249Y-103458830D01*
X180431620Y-103403498D01*
X180431620Y-102693300D01*
X180914220Y-102693300D01*
X180914220Y-103403498D01*
X181073591Y-103458830D01*
X181267098Y-103409879D01*
X181447337Y-103324117D01*
X181607381Y-103204840D01*
X181741080Y-103056632D01*
X181843296Y-102885188D01*
X181860163Y-102844924D01*
X181841299Y-102693300D01*
X180914220Y-102693300D01*
X180431620Y-102693300D01*
X179504541Y-102693300D01*
X179485677Y-102844924D01*
X178120259Y-102844924D01*
X178083420Y-102833749D01*
X177933974Y-102819030D01*
X177420677Y-102819030D01*
X176008288Y-101406642D01*
X175996014Y-101391686D01*
X175936370Y-101342738D01*
X175868322Y-101306366D01*
X175794487Y-101283968D01*
X175736940Y-101278300D01*
X175717700Y-101276405D01*
X175698460Y-101278300D01*
X174898539Y-101278300D01*
X174910235Y-101270485D01*
X175044885Y-101135835D01*
X175150678Y-100977504D01*
X175223550Y-100801576D01*
X175260700Y-100614812D01*
X175260700Y-100424388D01*
X175223550Y-100237624D01*
X175150678Y-100061696D01*
X175044885Y-99903365D01*
X174910235Y-99768715D01*
X174884770Y-99751700D01*
X175058556Y-99751700D01*
X176364689Y-101057835D01*
X176363968Y-101065160D01*
X176383609Y-101264580D01*
X176441778Y-101456336D01*
X176536238Y-101633059D01*
X176663361Y-101787959D01*
X176818261Y-101915082D01*
X176994984Y-102009542D01*
X177186740Y-102067711D01*
X177336186Y-102082430D01*
X177933974Y-102082430D01*
X178083420Y-102067711D01*
X178111885Y-102059076D01*
X179485677Y-102059076D01*
X179504541Y-102210700D01*
X180431620Y-102210700D01*
X180431620Y-101500502D01*
X180914220Y-101500502D01*
X180914220Y-102210700D01*
X181841299Y-102210700D01*
X181860163Y-102059076D01*
X181843296Y-102018812D01*
X181741080Y-101847368D01*
X181607381Y-101699160D01*
X181447337Y-101579883D01*
X181267098Y-101494121D01*
X181073591Y-101445170D01*
X180914220Y-101500502D01*
X180431620Y-101500502D01*
X180272249Y-101445170D01*
X180078742Y-101494121D01*
X179898503Y-101579883D01*
X179738459Y-101699160D01*
X179604760Y-101847368D01*
X179502544Y-102018812D01*
X179485677Y-102059076D01*
X178111885Y-102059076D01*
X178275176Y-102009542D01*
X178451899Y-101915082D01*
X178606799Y-101787959D01*
X178733922Y-101633059D01*
X178828382Y-101456336D01*
X178886551Y-101264580D01*
X178906192Y-101065160D01*
X178886551Y-100865740D01*
X178828382Y-100673984D01*
X178733922Y-100497261D01*
X178606799Y-100342361D01*
X178451899Y-100215238D01*
X178275176Y-100120778D01*
X178083420Y-100062609D01*
X177933974Y-100047890D01*
X177336186Y-100047890D01*
X177186740Y-100062609D01*
X176994984Y-100120778D01*
X176818261Y-100215238D01*
X176714852Y-100300103D01*
X175511389Y-99096641D01*
X175499116Y-99081686D01*
X175439472Y-99032738D01*
X175371424Y-98996366D01*
X175297589Y-98973968D01*
X175240042Y-98968300D01*
X175220802Y-98966405D01*
X175201562Y-98968300D01*
X174912420Y-98968300D01*
X175044885Y-98835835D01*
X175150678Y-98677504D01*
X175223550Y-98501576D01*
X175260700Y-98314812D01*
X175260700Y-98296560D01*
X176363968Y-98296560D01*
X176383609Y-98495980D01*
X176441778Y-98687736D01*
X176536238Y-98864459D01*
X176663361Y-99019359D01*
X176818261Y-99146482D01*
X176994984Y-99240942D01*
X177186740Y-99299111D01*
X177336186Y-99313830D01*
X177933974Y-99313830D01*
X178083420Y-99299111D01*
X178275176Y-99240942D01*
X178451899Y-99146482D01*
X178606799Y-99019359D01*
X178733922Y-98864459D01*
X178828382Y-98687736D01*
X178886551Y-98495980D01*
X178906192Y-98296560D01*
X178886551Y-98097140D01*
X178828382Y-97905384D01*
X178733922Y-97728661D01*
X178606799Y-97573761D01*
X178451899Y-97446638D01*
X178275176Y-97352178D01*
X178083420Y-97294009D01*
X177933974Y-97279290D01*
X177336186Y-97279290D01*
X177186740Y-97294009D01*
X176994984Y-97352178D01*
X176818261Y-97446638D01*
X176663361Y-97573761D01*
X176536238Y-97728661D01*
X176441778Y-97905384D01*
X176383609Y-98097140D01*
X176363968Y-98296560D01*
X175260700Y-98296560D01*
X175260700Y-98124388D01*
X175223550Y-97937624D01*
X175150678Y-97761696D01*
X175044885Y-97603365D01*
X174910235Y-97468715D01*
X174751904Y-97362922D01*
X174575976Y-97290050D01*
X174389212Y-97252900D01*
X174198788Y-97252900D01*
X174012024Y-97290050D01*
X173836096Y-97362922D01*
X173677765Y-97468715D01*
X173543115Y-97603365D01*
X173437322Y-97761696D01*
X173364450Y-97937624D01*
X173327300Y-98124388D01*
X173327300Y-98314812D01*
X173364450Y-98501576D01*
X173437322Y-98677504D01*
X173543115Y-98835835D01*
X173675580Y-98968300D01*
X173562248Y-98968300D01*
X170876500Y-96282554D01*
X170876500Y-95824388D01*
X173327300Y-95824388D01*
X173327300Y-96014812D01*
X173364450Y-96201576D01*
X173437322Y-96377504D01*
X173543115Y-96535835D01*
X173677765Y-96670485D01*
X173836096Y-96776278D01*
X174012024Y-96849150D01*
X174198788Y-96886300D01*
X174389212Y-96886300D01*
X174575976Y-96849150D01*
X174751904Y-96776278D01*
X174910235Y-96670485D01*
X175044885Y-96535835D01*
X175150678Y-96377504D01*
X175223550Y-96201576D01*
X175260700Y-96014812D01*
X175260700Y-95824388D01*
X175223550Y-95637624D01*
X175150678Y-95461696D01*
X175044885Y-95303365D01*
X174910235Y-95168715D01*
X174751904Y-95062922D01*
X174575976Y-94990050D01*
X174389212Y-94952900D01*
X174198788Y-94952900D01*
X174012024Y-94990050D01*
X173836096Y-95062922D01*
X173677765Y-95168715D01*
X173543115Y-95303365D01*
X173437322Y-95461696D01*
X173364450Y-95637624D01*
X173327300Y-95824388D01*
X170876500Y-95824388D01*
X170876500Y-93833609D01*
X170946417Y-93833609D01*
X170951566Y-93885891D01*
X170966817Y-93936164D01*
X170991581Y-93982496D01*
X171024909Y-94023107D01*
X171065520Y-94056435D01*
X171111852Y-94081199D01*
X171162125Y-94096450D01*
X171214407Y-94101599D01*
X171806432Y-94100309D01*
X171873107Y-94033634D01*
X171873107Y-93524909D01*
X172355707Y-93524909D01*
X172355707Y-94033634D01*
X172422382Y-94100309D01*
X173014407Y-94101599D01*
X173066689Y-94096450D01*
X173116962Y-94081199D01*
X173163294Y-94056435D01*
X173203905Y-94023107D01*
X173237233Y-93982496D01*
X173261997Y-93936164D01*
X173277248Y-93885891D01*
X173282397Y-93833609D01*
X173281107Y-93591584D01*
X173214432Y-93524909D01*
X172355707Y-93524909D01*
X171873107Y-93524909D01*
X171014382Y-93524909D01*
X170947707Y-93591584D01*
X170946417Y-93833609D01*
X170876500Y-93833609D01*
X170876500Y-93424185D01*
X177413105Y-93424185D01*
X177720915Y-93725037D01*
X178213351Y-93958829D01*
X178741936Y-94092060D01*
X179286356Y-94119608D01*
X179825689Y-94040417D01*
X180339210Y-93857529D01*
X180587085Y-93725037D01*
X180894895Y-93424185D01*
X179154000Y-91683290D01*
X177413105Y-93424185D01*
X170876500Y-93424185D01*
X170876500Y-92733609D01*
X170946417Y-92733609D01*
X170947707Y-92975634D01*
X171014382Y-93042309D01*
X171873107Y-93042309D01*
X171873107Y-92533584D01*
X171806432Y-92466909D01*
X171214407Y-92465619D01*
X171162125Y-92470768D01*
X171111852Y-92486019D01*
X171065520Y-92510783D01*
X171024909Y-92544111D01*
X170991581Y-92584722D01*
X170966817Y-92631054D01*
X170951566Y-92681327D01*
X170946417Y-92733609D01*
X170876500Y-92733609D01*
X170876500Y-90234036D01*
X170878395Y-90214799D01*
X170872685Y-90156830D01*
X170870832Y-90138013D01*
X170848434Y-90064178D01*
X170812062Y-89996130D01*
X170763114Y-89936486D01*
X170748169Y-89924221D01*
X170369647Y-89545700D01*
X171221754Y-89545700D01*
X171601673Y-89925619D01*
X171214407Y-89925619D01*
X171162125Y-89930768D01*
X171111852Y-89946019D01*
X171065520Y-89970783D01*
X171024909Y-90004111D01*
X170991581Y-90044722D01*
X170966817Y-90091054D01*
X170951566Y-90141327D01*
X170946417Y-90193609D01*
X170946417Y-91293609D01*
X170951566Y-91345891D01*
X170966817Y-91396164D01*
X170991581Y-91442496D01*
X171024909Y-91483107D01*
X171065520Y-91516435D01*
X171111852Y-91541199D01*
X171162125Y-91556450D01*
X171214407Y-91561599D01*
X173014407Y-91561599D01*
X173049459Y-91558147D01*
X173026850Y-91632677D01*
X173016417Y-91738609D01*
X173016417Y-92288609D01*
X173026850Y-92394541D01*
X173049459Y-92469071D01*
X173014407Y-92465619D01*
X172422382Y-92466909D01*
X172355707Y-92533584D01*
X172355707Y-93042309D01*
X173214432Y-93042309D01*
X173281107Y-92975634D01*
X173282293Y-92753213D01*
X173351614Y-92790266D01*
X173453475Y-92821166D01*
X173559407Y-92831599D01*
X174809407Y-92831599D01*
X174915339Y-92821166D01*
X175017200Y-92790266D01*
X175111076Y-92740089D01*
X175193359Y-92672561D01*
X175260887Y-92590278D01*
X175311064Y-92496402D01*
X175341964Y-92394541D01*
X175352397Y-92288609D01*
X175352397Y-91738609D01*
X175341964Y-91632677D01*
X175311064Y-91530816D01*
X175280908Y-91474396D01*
X176376432Y-91474396D01*
X176455623Y-92013729D01*
X176638511Y-92527250D01*
X176771003Y-92775125D01*
X177071855Y-93082935D01*
X178812750Y-91342040D01*
X179495250Y-91342040D01*
X181236145Y-93082935D01*
X181536997Y-92775125D01*
X181770789Y-92282689D01*
X181904020Y-91754104D01*
X181931568Y-91209684D01*
X181852377Y-90670351D01*
X181669489Y-90156830D01*
X181536997Y-89908955D01*
X181236145Y-89601145D01*
X179495250Y-91342040D01*
X178812750Y-91342040D01*
X177071855Y-89601145D01*
X176771003Y-89908955D01*
X176537211Y-90401391D01*
X176403980Y-90929976D01*
X176376432Y-91474396D01*
X175280908Y-91474396D01*
X175260887Y-91436940D01*
X175193359Y-91354657D01*
X175111076Y-91287129D01*
X175017200Y-91236952D01*
X174915339Y-91206052D01*
X174809407Y-91195619D01*
X173559407Y-91195619D01*
X173453475Y-91206052D01*
X173351614Y-91236952D01*
X173282397Y-91273949D01*
X173282397Y-90193609D01*
X173277248Y-90141327D01*
X173261997Y-90091054D01*
X173237233Y-90044722D01*
X173203905Y-90004111D01*
X173163294Y-89970783D01*
X173116962Y-89946019D01*
X173066689Y-89930768D01*
X173014407Y-89925619D01*
X172709566Y-89925619D01*
X171674588Y-88890641D01*
X171662314Y-88875686D01*
X171602670Y-88826738D01*
X171534622Y-88790366D01*
X171460787Y-88767968D01*
X171403240Y-88762300D01*
X171384000Y-88760405D01*
X171364760Y-88762300D01*
X161004440Y-88762300D01*
X160985200Y-88760405D01*
X160965960Y-88762300D01*
X160908413Y-88767968D01*
X160834578Y-88790366D01*
X160766530Y-88826738D01*
X160706886Y-88875686D01*
X160694617Y-88890636D01*
X157978642Y-91606612D01*
X157963686Y-91618886D01*
X157914738Y-91678531D01*
X157878366Y-91746579D01*
X157873326Y-91763195D01*
X157855968Y-91820414D01*
X157848405Y-91897200D01*
X157850300Y-91916440D01*
X157850301Y-106009752D01*
X157063754Y-106796300D01*
X153282839Y-106796300D01*
X153263599Y-106794405D01*
X153186813Y-106801968D01*
X153112978Y-106824366D01*
X153044930Y-106860738D01*
X152985286Y-106909686D01*
X152973021Y-106924631D01*
X149547898Y-110349756D01*
X149481976Y-110322450D01*
X149295212Y-110285300D01*
X149104788Y-110285300D01*
X148918024Y-110322450D01*
X148742096Y-110395322D01*
X148583765Y-110501115D01*
X148449115Y-110635765D01*
X148343322Y-110794096D01*
X148270450Y-110970024D01*
X148233300Y-111156788D01*
X142444735Y-111156788D01*
X140980700Y-109692754D01*
X140980700Y-107993180D01*
X141133968Y-107993180D01*
X141153609Y-108192600D01*
X141211778Y-108384356D01*
X141306238Y-108561079D01*
X141433361Y-108715979D01*
X141588261Y-108843102D01*
X141764984Y-108937562D01*
X141956740Y-108995731D01*
X142106186Y-109010450D01*
X142703974Y-109010450D01*
X142853420Y-108995731D01*
X143045176Y-108937562D01*
X143221899Y-108843102D01*
X143376799Y-108715979D01*
X143503922Y-108561079D01*
X143598102Y-108384880D01*
X144961776Y-108384880D01*
X144802824Y-108433098D01*
X144626101Y-108527558D01*
X144471201Y-108654681D01*
X144344078Y-108809581D01*
X144249618Y-108986304D01*
X144191449Y-109178060D01*
X144171808Y-109377480D01*
X144191449Y-109576900D01*
X144249618Y-109768656D01*
X144344078Y-109945379D01*
X144471201Y-110100279D01*
X144626101Y-110227402D01*
X144802824Y-110321862D01*
X144994580Y-110380031D01*
X145144026Y-110394750D01*
X145741814Y-110394750D01*
X145891260Y-110380031D01*
X146083016Y-110321862D01*
X146259739Y-110227402D01*
X146414639Y-110100279D01*
X146541762Y-109945379D01*
X146635942Y-109769180D01*
X148692680Y-109769180D01*
X148711920Y-109771075D01*
X148731160Y-109769180D01*
X148788707Y-109763512D01*
X148862542Y-109741114D01*
X148930590Y-109704742D01*
X148990234Y-109655794D01*
X149002508Y-109640838D01*
X153132047Y-105511300D01*
X155534860Y-105511300D01*
X155581903Y-105624872D01*
X155698640Y-105799581D01*
X155847219Y-105948160D01*
X156021928Y-106064897D01*
X156216055Y-106145307D01*
X156422139Y-106186300D01*
X156632261Y-106186300D01*
X156838345Y-106145307D01*
X157032472Y-106064897D01*
X157207181Y-105948160D01*
X157355760Y-105799581D01*
X157472497Y-105624872D01*
X157552907Y-105430745D01*
X157593900Y-105224661D01*
X157593900Y-105014539D01*
X157552907Y-104808455D01*
X157472497Y-104614328D01*
X157355760Y-104439619D01*
X157207181Y-104291040D01*
X157032472Y-104174303D01*
X156930900Y-104132231D01*
X156930900Y-103361940D01*
X157044472Y-103314897D01*
X157219181Y-103198160D01*
X157367760Y-103049581D01*
X157484497Y-102874872D01*
X157564907Y-102680745D01*
X157605900Y-102474661D01*
X157605900Y-102264539D01*
X157564907Y-102058455D01*
X157484497Y-101864328D01*
X157367760Y-101689619D01*
X157219181Y-101541040D01*
X157044472Y-101424303D01*
X156850345Y-101343893D01*
X156644261Y-101302900D01*
X156434139Y-101302900D01*
X156228055Y-101343893D01*
X156033928Y-101424303D01*
X155859219Y-101541040D01*
X155710640Y-101689619D01*
X155593903Y-101864328D01*
X155513493Y-102058455D01*
X155472500Y-102264539D01*
X155472500Y-102474661D01*
X155513493Y-102680745D01*
X155593903Y-102874872D01*
X155710640Y-103049581D01*
X155859219Y-103198160D01*
X156033928Y-103314897D01*
X156147500Y-103361940D01*
X156147501Y-104122289D01*
X156021928Y-104174303D01*
X155847219Y-104291040D01*
X155698640Y-104439619D01*
X155581903Y-104614328D01*
X155534860Y-104727900D01*
X152989040Y-104727900D01*
X152969800Y-104726005D01*
X152950560Y-104727900D01*
X152893013Y-104733568D01*
X152819178Y-104755966D01*
X152751130Y-104792338D01*
X152691486Y-104841286D01*
X152679217Y-104856236D01*
X148549674Y-108985780D01*
X146635942Y-108985780D01*
X146541762Y-108809581D01*
X146414639Y-108654681D01*
X146259739Y-108527558D01*
X146083016Y-108433098D01*
X145924064Y-108384880D01*
X147740180Y-108384880D01*
X147759420Y-108386775D01*
X147778660Y-108384880D01*
X147836207Y-108379212D01*
X147910042Y-108356814D01*
X147978090Y-108320442D01*
X148037734Y-108271494D01*
X148050008Y-108256538D01*
X155858803Y-100447744D01*
X155859219Y-100448160D01*
X156033928Y-100564897D01*
X156228055Y-100645307D01*
X156434139Y-100686300D01*
X156644261Y-100686300D01*
X156850345Y-100645307D01*
X157044472Y-100564897D01*
X157219181Y-100448160D01*
X157367760Y-100299581D01*
X157484497Y-100124872D01*
X157564907Y-99930745D01*
X157605900Y-99724661D01*
X157605900Y-99514539D01*
X157564907Y-99308455D01*
X157484497Y-99114328D01*
X157367760Y-98939619D01*
X157219181Y-98791040D01*
X157044472Y-98674303D01*
X156850345Y-98593893D01*
X156644261Y-98552900D01*
X156434139Y-98552900D01*
X156228055Y-98593893D01*
X156033928Y-98674303D01*
X155859219Y-98791040D01*
X155710640Y-98939619D01*
X155593903Y-99114328D01*
X155513493Y-99308455D01*
X155472500Y-99514539D01*
X155472500Y-99724661D01*
X155472747Y-99725905D01*
X147597174Y-107601480D01*
X145924064Y-107601480D01*
X146083016Y-107553262D01*
X146259739Y-107458802D01*
X146414639Y-107331679D01*
X146541762Y-107176779D01*
X146635942Y-107000580D01*
X146787680Y-107000580D01*
X146806920Y-107002475D01*
X146826160Y-107000580D01*
X146883707Y-106994912D01*
X146957542Y-106972514D01*
X147025590Y-106936142D01*
X147085234Y-106887194D01*
X147097508Y-106872238D01*
X156119433Y-97850314D01*
X156228055Y-97895307D01*
X156434139Y-97936300D01*
X156644261Y-97936300D01*
X156850345Y-97895307D01*
X157044472Y-97814897D01*
X157219181Y-97698160D01*
X157367760Y-97549581D01*
X157484497Y-97374872D01*
X157564907Y-97180745D01*
X157605900Y-96974661D01*
X157605900Y-96764539D01*
X157564907Y-96558455D01*
X157484497Y-96364328D01*
X157367760Y-96189619D01*
X157219181Y-96041040D01*
X157044472Y-95924303D01*
X156850345Y-95843893D01*
X156644261Y-95802900D01*
X156434139Y-95802900D01*
X156228055Y-95843893D01*
X156033928Y-95924303D01*
X155859219Y-96041040D01*
X155710640Y-96189619D01*
X155593903Y-96364328D01*
X155513493Y-96558455D01*
X155472500Y-96764539D01*
X155472500Y-96974661D01*
X155513493Y-97180745D01*
X155562586Y-97299266D01*
X146644674Y-106217180D01*
X146635942Y-106217180D01*
X146541762Y-106040981D01*
X146414639Y-105886081D01*
X146259739Y-105758958D01*
X146083016Y-105664498D01*
X145891260Y-105606329D01*
X145741814Y-105591610D01*
X145144026Y-105591610D01*
X144994580Y-105606329D01*
X144802824Y-105664498D01*
X144626101Y-105758958D01*
X144471201Y-105886081D01*
X144344078Y-106040981D01*
X144249618Y-106217704D01*
X144191449Y-106409460D01*
X144171808Y-106608880D01*
X144191449Y-106808300D01*
X144249618Y-107000056D01*
X144344078Y-107176779D01*
X144471201Y-107331679D01*
X144626101Y-107458802D01*
X144802824Y-107553262D01*
X144961776Y-107601480D01*
X143598102Y-107601480D01*
X143503922Y-107425281D01*
X143376799Y-107270381D01*
X143221899Y-107143258D01*
X143045176Y-107048798D01*
X142853420Y-106990629D01*
X142703974Y-106975910D01*
X142106186Y-106975910D01*
X141956740Y-106990629D01*
X141764984Y-107048798D01*
X141588261Y-107143258D01*
X141433361Y-107270381D01*
X141306238Y-107425281D01*
X141211778Y-107602004D01*
X141153609Y-107793760D01*
X141133968Y-107993180D01*
X140980700Y-107993180D01*
X140980700Y-105222040D01*
X141133968Y-105222040D01*
X141153609Y-105421460D01*
X141211778Y-105613216D01*
X141306238Y-105789939D01*
X141433361Y-105944839D01*
X141588261Y-106071962D01*
X141764984Y-106166422D01*
X141956740Y-106224591D01*
X142106186Y-106239310D01*
X142703974Y-106239310D01*
X142853420Y-106224591D01*
X143045176Y-106166422D01*
X143221899Y-106071962D01*
X143376799Y-105944839D01*
X143503922Y-105789939D01*
X143598382Y-105613216D01*
X143656551Y-105421460D01*
X143676192Y-105222040D01*
X143656551Y-105022620D01*
X143598382Y-104830864D01*
X143503922Y-104654141D01*
X143376799Y-104499241D01*
X143221899Y-104372118D01*
X143045176Y-104277658D01*
X142853420Y-104219489D01*
X142703974Y-104204770D01*
X142106186Y-104204770D01*
X141956740Y-104219489D01*
X141764984Y-104277658D01*
X141588261Y-104372118D01*
X141433361Y-104499241D01*
X141306238Y-104654141D01*
X141211778Y-104830864D01*
X141153609Y-105022620D01*
X141133968Y-105222040D01*
X140980700Y-105222040D01*
X140980700Y-103837740D01*
X144171808Y-103837740D01*
X144191449Y-104037160D01*
X144249618Y-104228916D01*
X144344078Y-104405639D01*
X144471201Y-104560539D01*
X144626101Y-104687662D01*
X144802824Y-104782122D01*
X144994580Y-104840291D01*
X145144026Y-104855010D01*
X145741814Y-104855010D01*
X145891260Y-104840291D01*
X146083016Y-104782122D01*
X146259739Y-104687662D01*
X146414639Y-104560539D01*
X146541762Y-104405639D01*
X146635942Y-104229440D01*
X146790220Y-104229440D01*
X146809460Y-104231335D01*
X146828700Y-104229440D01*
X146886247Y-104223772D01*
X146960082Y-104201374D01*
X147028130Y-104165002D01*
X147087774Y-104116054D01*
X147100048Y-104101098D01*
X156106281Y-95094867D01*
X156228055Y-95145307D01*
X156434139Y-95186300D01*
X156644261Y-95186300D01*
X156850345Y-95145307D01*
X157044472Y-95064897D01*
X157219181Y-94948160D01*
X157367760Y-94799581D01*
X157484497Y-94624872D01*
X157564907Y-94430745D01*
X157605900Y-94224661D01*
X157605900Y-94014539D01*
X157564907Y-93808455D01*
X157484497Y-93614328D01*
X157367760Y-93439619D01*
X157219181Y-93291040D01*
X157044472Y-93174303D01*
X156850345Y-93093893D01*
X156644261Y-93052900D01*
X156434139Y-93052900D01*
X156228055Y-93093893D01*
X156033928Y-93174303D01*
X155859219Y-93291040D01*
X155710640Y-93439619D01*
X155593903Y-93614328D01*
X155513493Y-93808455D01*
X155472500Y-94014539D01*
X155472500Y-94224661D01*
X155513493Y-94430745D01*
X155557138Y-94536114D01*
X146647214Y-103446040D01*
X146635942Y-103446040D01*
X146541762Y-103269841D01*
X146414639Y-103114941D01*
X146259739Y-102987818D01*
X146083016Y-102893358D01*
X145891260Y-102835189D01*
X145741814Y-102820470D01*
X145144026Y-102820470D01*
X144994580Y-102835189D01*
X144802824Y-102893358D01*
X144626101Y-102987818D01*
X144471201Y-103114941D01*
X144344078Y-103269841D01*
X144249618Y-103446564D01*
X144191449Y-103638320D01*
X144171808Y-103837740D01*
X140980700Y-103837740D01*
X140980700Y-102846364D01*
X141217837Y-102846364D01*
X141234704Y-102886628D01*
X141336920Y-103058072D01*
X141470619Y-103206280D01*
X141630663Y-103325557D01*
X141810902Y-103411319D01*
X142004409Y-103460270D01*
X142163780Y-103404938D01*
X142163780Y-102694740D01*
X142646380Y-102694740D01*
X142646380Y-103404938D01*
X142805751Y-103460270D01*
X142999258Y-103411319D01*
X143179497Y-103325557D01*
X143339541Y-103206280D01*
X143473240Y-103058072D01*
X143575456Y-102886628D01*
X143592323Y-102846364D01*
X143573459Y-102694740D01*
X142646380Y-102694740D01*
X142163780Y-102694740D01*
X141236701Y-102694740D01*
X141217837Y-102846364D01*
X140980700Y-102846364D01*
X140980700Y-102060516D01*
X141217837Y-102060516D01*
X141236701Y-102212140D01*
X142163780Y-102212140D01*
X142163780Y-101501942D01*
X142646380Y-101501942D01*
X142646380Y-102212140D01*
X143573459Y-102212140D01*
X143592323Y-102060516D01*
X143575456Y-102020252D01*
X143473240Y-101848808D01*
X143339541Y-101700600D01*
X143179497Y-101581323D01*
X142999258Y-101495561D01*
X142805751Y-101446610D01*
X142646380Y-101501942D01*
X142163780Y-101501942D01*
X142004409Y-101446610D01*
X141810902Y-101495561D01*
X141630663Y-101581323D01*
X141470619Y-101700600D01*
X141336920Y-101848808D01*
X141234704Y-102020252D01*
X141217837Y-102060516D01*
X140980700Y-102060516D01*
X140980700Y-101508246D01*
X141422346Y-101066600D01*
X144171808Y-101066600D01*
X144191449Y-101266020D01*
X144249618Y-101457776D01*
X144344078Y-101634499D01*
X144471201Y-101789399D01*
X144626101Y-101916522D01*
X144802824Y-102010982D01*
X144994580Y-102069151D01*
X145144026Y-102083870D01*
X145741814Y-102083870D01*
X145891260Y-102069151D01*
X146083016Y-102010982D01*
X146259739Y-101916522D01*
X146414639Y-101789399D01*
X146541762Y-101634499D01*
X146635942Y-101458300D01*
X146792760Y-101458300D01*
X146812000Y-101460195D01*
X146831240Y-101458300D01*
X146888787Y-101452632D01*
X146962622Y-101430234D01*
X147030670Y-101393862D01*
X147090314Y-101344914D01*
X147102588Y-101329958D01*
X156093128Y-92339419D01*
X156228055Y-92395307D01*
X156434139Y-92436300D01*
X156644261Y-92436300D01*
X156850345Y-92395307D01*
X157044472Y-92314897D01*
X157219181Y-92198160D01*
X157367760Y-92049581D01*
X157484497Y-91874872D01*
X157564907Y-91680745D01*
X157605900Y-91474661D01*
X157605900Y-91264539D01*
X157564907Y-91058455D01*
X157484497Y-90864328D01*
X157367760Y-90689619D01*
X157219181Y-90541040D01*
X157044472Y-90424303D01*
X156850345Y-90343893D01*
X156644261Y-90302900D01*
X156434139Y-90302900D01*
X156228055Y-90343893D01*
X156033928Y-90424303D01*
X155859219Y-90541040D01*
X155710640Y-90689619D01*
X155593903Y-90864328D01*
X155513493Y-91058455D01*
X155472500Y-91264539D01*
X155472500Y-91474661D01*
X155513493Y-91680745D01*
X155551691Y-91772962D01*
X146649754Y-100674900D01*
X146635942Y-100674900D01*
X146541762Y-100498701D01*
X146414639Y-100343801D01*
X146259739Y-100216678D01*
X146083016Y-100122218D01*
X145891260Y-100064049D01*
X145741814Y-100049330D01*
X145144026Y-100049330D01*
X144994580Y-100064049D01*
X144802824Y-100122218D01*
X144626101Y-100216678D01*
X144471201Y-100343801D01*
X144344078Y-100498701D01*
X144249618Y-100675424D01*
X144191449Y-100867180D01*
X144171808Y-101066600D01*
X141422346Y-101066600D01*
X141839623Y-100649324D01*
X141956740Y-100684851D01*
X142106186Y-100699570D01*
X142703974Y-100699570D01*
X142853420Y-100684851D01*
X143045176Y-100626682D01*
X143221899Y-100532222D01*
X143376799Y-100405099D01*
X143503922Y-100250199D01*
X143598382Y-100073476D01*
X143656551Y-99881720D01*
X143676192Y-99682300D01*
X143656551Y-99482880D01*
X143598382Y-99291124D01*
X143503922Y-99114401D01*
X143376799Y-98959501D01*
X143221899Y-98832378D01*
X143045176Y-98737918D01*
X142853420Y-98679749D01*
X142703974Y-98665030D01*
X142106186Y-98665030D01*
X141956740Y-98679749D01*
X141764984Y-98737918D01*
X141588261Y-98832378D01*
X141433361Y-98959501D01*
X141306238Y-99114401D01*
X141211778Y-99291124D01*
X141153609Y-99482880D01*
X141133968Y-99682300D01*
X141153609Y-99881720D01*
X141211778Y-100073476D01*
X141245147Y-100135906D01*
X140325637Y-101055417D01*
X140310687Y-101067686D01*
X140269025Y-101118452D01*
X140261738Y-101127331D01*
X140225367Y-101195378D01*
X140202968Y-101269214D01*
X140195405Y-101346000D01*
X135381700Y-101346000D01*
X135381700Y-98298000D01*
X144171808Y-98298000D01*
X144191449Y-98497420D01*
X144249618Y-98689176D01*
X144344078Y-98865899D01*
X144471201Y-99020799D01*
X144626101Y-99147922D01*
X144802824Y-99242382D01*
X144994580Y-99300551D01*
X145144026Y-99315270D01*
X145741814Y-99315270D01*
X145891260Y-99300551D01*
X146083016Y-99242382D01*
X146259739Y-99147922D01*
X146414639Y-99020799D01*
X146541762Y-98865899D01*
X146636222Y-98689176D01*
X146694391Y-98497420D01*
X146714032Y-98298000D01*
X146694391Y-98098580D01*
X146636222Y-97906824D01*
X146541762Y-97730101D01*
X146414639Y-97575201D01*
X146259739Y-97448078D01*
X146083016Y-97353618D01*
X145891260Y-97295449D01*
X145741814Y-97280730D01*
X145144026Y-97280730D01*
X144994580Y-97295449D01*
X144802824Y-97353618D01*
X144626101Y-97448078D01*
X144471201Y-97575201D01*
X144344078Y-97730101D01*
X144249618Y-97906824D01*
X144191449Y-98098580D01*
X144171808Y-98298000D01*
X135381700Y-98298000D01*
X135381700Y-94581700D01*
X149976784Y-94581700D01*
X149991461Y-94580255D01*
X150548991Y-94531931D01*
X150576738Y-94526761D01*
X150604614Y-94522433D01*
X150609226Y-94521212D01*
X151258339Y-94344532D01*
X151287258Y-94333532D01*
X151316383Y-94322916D01*
X151320670Y-94320822D01*
X151923104Y-94021427D01*
X151949352Y-94005009D01*
X151975844Y-93988948D01*
X151979643Y-93986062D01*
X152486176Y-93595609D01*
X152495754Y-93590489D01*
X152534748Y-93558488D01*
X157361537Y-88731700D01*
X178235117Y-88731700D01*
X177968790Y-88826551D01*
G36*
X167681106Y-90091054D02*
G01*
X167665855Y-90141327D01*
X167660706Y-90193609D01*
X167661996Y-90435634D01*
X167728671Y-90502309D01*
X168587396Y-90502309D01*
X168587396Y-90482309D01*
X169069996Y-90482309D01*
X169069996Y-90502309D01*
X169928721Y-90502309D01*
X169995396Y-90435634D01*
X169996225Y-90280172D01*
X170093101Y-90377049D01*
X170093100Y-96425560D01*
X170091205Y-96444800D01*
X170093100Y-96464039D01*
X170098768Y-96521586D01*
X170121166Y-96595421D01*
X170157538Y-96663469D01*
X170206486Y-96723114D01*
X170221442Y-96735388D01*
X173109420Y-99623368D01*
X173121686Y-99638314D01*
X173181330Y-99687262D01*
X173249378Y-99723634D01*
X173323213Y-99746032D01*
X173380760Y-99751700D01*
X173380762Y-99751700D01*
X173399999Y-99753595D01*
X173419236Y-99751700D01*
X173703230Y-99751700D01*
X173677765Y-99768715D01*
X173543115Y-99903365D01*
X173437322Y-100061696D01*
X173364450Y-100237624D01*
X173327300Y-100424388D01*
X173327300Y-100614812D01*
X173364450Y-100801576D01*
X173437322Y-100977504D01*
X173543115Y-101135835D01*
X173677765Y-101270485D01*
X173689461Y-101278300D01*
X173072247Y-101278300D01*
X170891700Y-99097754D01*
X170891700Y-97750883D01*
X170893581Y-97733297D01*
X170891700Y-97712409D01*
X170891700Y-97710760D01*
X170889968Y-97693176D01*
X170886661Y-97656451D01*
X170886195Y-97654867D01*
X170886032Y-97653213D01*
X170875293Y-97617811D01*
X170864883Y-97582429D01*
X170864114Y-97580962D01*
X170863634Y-97579378D01*
X170846234Y-97546825D01*
X170829083Y-97514080D01*
X170828043Y-97512790D01*
X170827262Y-97511330D01*
X170803805Y-97482748D01*
X170792774Y-97469074D01*
X170791624Y-97467905D01*
X170778314Y-97451686D01*
X170764639Y-97440464D01*
X167241629Y-93857911D01*
X167228314Y-93841686D01*
X167199659Y-93818170D01*
X167171403Y-93794582D01*
X167169954Y-93793792D01*
X167168670Y-93792738D01*
X167135998Y-93775275D01*
X167103664Y-93757642D01*
X167102087Y-93757149D01*
X167100622Y-93756366D01*
X167065204Y-93745622D01*
X167030018Y-93734625D01*
X167028373Y-93734449D01*
X167026787Y-93733968D01*
X166990007Y-93730345D01*
X166953298Y-93726419D01*
X166932407Y-93728300D01*
X165227190Y-93728300D01*
X165227190Y-93319600D01*
X165222041Y-93267318D01*
X165206790Y-93217045D01*
X165182026Y-93170713D01*
X165167079Y-93152500D01*
X166892265Y-93152500D01*
X166911505Y-93154395D01*
X166930745Y-93152500D01*
X166988292Y-93146832D01*
X167062127Y-93124434D01*
X167130175Y-93088062D01*
X167189819Y-93039114D01*
X167202093Y-93024158D01*
X167395849Y-92830402D01*
X167489628Y-92821166D01*
X167591489Y-92790266D01*
X167660706Y-92753269D01*
X167660706Y-93833609D01*
X167665855Y-93885891D01*
X167681106Y-93936164D01*
X167705870Y-93982496D01*
X167739198Y-94023107D01*
X167779809Y-94056435D01*
X167826141Y-94081199D01*
X167876414Y-94096450D01*
X167928696Y-94101599D01*
X169728696Y-94101599D01*
X169780978Y-94096450D01*
X169831251Y-94081199D01*
X169877583Y-94056435D01*
X169918194Y-94023107D01*
X169951522Y-93982496D01*
X169976286Y-93936164D01*
X169991537Y-93885891D01*
X169996686Y-93833609D01*
X169996686Y-92733609D01*
X169991537Y-92681327D01*
X169976286Y-92631054D01*
X169951522Y-92584722D01*
X169918194Y-92544111D01*
X169877583Y-92510783D01*
X169831251Y-92486019D01*
X169780978Y-92470768D01*
X169728696Y-92465619D01*
X167928696Y-92465619D01*
X167893644Y-92469071D01*
X167916253Y-92394541D01*
X167926686Y-92288609D01*
X167926686Y-91738609D01*
X167916253Y-91632677D01*
X167893644Y-91558147D01*
X167928696Y-91561599D01*
X168520721Y-91560309D01*
X168587396Y-91493634D01*
X168587396Y-90984909D01*
X169069996Y-90984909D01*
X169069996Y-91493634D01*
X169136671Y-91560309D01*
X169728696Y-91561599D01*
X169780978Y-91556450D01*
X169831251Y-91541199D01*
X169877583Y-91516435D01*
X169918194Y-91483107D01*
X169951522Y-91442496D01*
X169976286Y-91396164D01*
X169991537Y-91345891D01*
X169996686Y-91293609D01*
X169995396Y-91051584D01*
X169928721Y-90984909D01*
X169069996Y-90984909D01*
X168587396Y-90984909D01*
X167728671Y-90984909D01*
X167661996Y-91051584D01*
X167660810Y-91274005D01*
X167591489Y-91236952D01*
X167489628Y-91206052D01*
X167383696Y-91195619D01*
X166133696Y-91195619D01*
X166027764Y-91206052D01*
X165925903Y-91236952D01*
X165832027Y-91287129D01*
X165749744Y-91354657D01*
X165682216Y-91436940D01*
X165632039Y-91530816D01*
X165601139Y-91632677D01*
X165590706Y-91738609D01*
X165590706Y-92288609D01*
X165598633Y-92369100D01*
X165136510Y-92369100D01*
X165148698Y-92359098D01*
X165182026Y-92318487D01*
X165206790Y-92272155D01*
X165222041Y-92221882D01*
X165227190Y-92169600D01*
X165227190Y-90856757D01*
X166012248Y-90071700D01*
X167691451Y-90071700D01*
X167681106Y-90091054D01*
G37*
X167681106Y-90091054D02*
X167665855Y-90141327D01*
X167660706Y-90193609D01*
X167661996Y-90435634D01*
X167728671Y-90502309D01*
X168587396Y-90502309D01*
X168587396Y-90482309D01*
X169069996Y-90482309D01*
X169069996Y-90502309D01*
X169928721Y-90502309D01*
X169995396Y-90435634D01*
X169996225Y-90280172D01*
X170093101Y-90377049D01*
X170093100Y-96425560D01*
X170091205Y-96444800D01*
X170093100Y-96464039D01*
X170098768Y-96521586D01*
X170121166Y-96595421D01*
X170157538Y-96663469D01*
X170206486Y-96723114D01*
X170221442Y-96735388D01*
X173109420Y-99623368D01*
X173121686Y-99638314D01*
X173181330Y-99687262D01*
X173249378Y-99723634D01*
X173323213Y-99746032D01*
X173380760Y-99751700D01*
X173380762Y-99751700D01*
X173399999Y-99753595D01*
X173419236Y-99751700D01*
X173703230Y-99751700D01*
X173677765Y-99768715D01*
X173543115Y-99903365D01*
X173437322Y-100061696D01*
X173364450Y-100237624D01*
X173327300Y-100424388D01*
X173327300Y-100614812D01*
X173364450Y-100801576D01*
X173437322Y-100977504D01*
X173543115Y-101135835D01*
X173677765Y-101270485D01*
X173689461Y-101278300D01*
X173072247Y-101278300D01*
X170891700Y-99097754D01*
X170891700Y-97750883D01*
X170893581Y-97733297D01*
X170891700Y-97712409D01*
X170891700Y-97710760D01*
X170889968Y-97693176D01*
X170886661Y-97656451D01*
X170886195Y-97654867D01*
X170886032Y-97653213D01*
X170875293Y-97617811D01*
X170864883Y-97582429D01*
X170864114Y-97580962D01*
X170863634Y-97579378D01*
X170846234Y-97546825D01*
X170829083Y-97514080D01*
X170828043Y-97512790D01*
X170827262Y-97511330D01*
X170803805Y-97482748D01*
X170792774Y-97469074D01*
X170791624Y-97467905D01*
X170778314Y-97451686D01*
X170764639Y-97440464D01*
X167241629Y-93857911D01*
X167228314Y-93841686D01*
X167199659Y-93818170D01*
X167171403Y-93794582D01*
X167169954Y-93793792D01*
X167168670Y-93792738D01*
X167135998Y-93775275D01*
X167103664Y-93757642D01*
X167102087Y-93757149D01*
X167100622Y-93756366D01*
X167065204Y-93745622D01*
X167030018Y-93734625D01*
X167028373Y-93734449D01*
X167026787Y-93733968D01*
X166990007Y-93730345D01*
X166953298Y-93726419D01*
X166932407Y-93728300D01*
X165227190Y-93728300D01*
X165227190Y-93319600D01*
X165222041Y-93267318D01*
X165206790Y-93217045D01*
X165182026Y-93170713D01*
X165167079Y-93152500D01*
X166892265Y-93152500D01*
X166911505Y-93154395D01*
X166930745Y-93152500D01*
X166988292Y-93146832D01*
X167062127Y-93124434D01*
X167130175Y-93088062D01*
X167189819Y-93039114D01*
X167202093Y-93024158D01*
X167395849Y-92830402D01*
X167489628Y-92821166D01*
X167591489Y-92790266D01*
X167660706Y-92753269D01*
X167660706Y-93833609D01*
X167665855Y-93885891D01*
X167681106Y-93936164D01*
X167705870Y-93982496D01*
X167739198Y-94023107D01*
X167779809Y-94056435D01*
X167826141Y-94081199D01*
X167876414Y-94096450D01*
X167928696Y-94101599D01*
X169728696Y-94101599D01*
X169780978Y-94096450D01*
X169831251Y-94081199D01*
X169877583Y-94056435D01*
X169918194Y-94023107D01*
X169951522Y-93982496D01*
X169976286Y-93936164D01*
X169991537Y-93885891D01*
X169996686Y-93833609D01*
X169996686Y-92733609D01*
X169991537Y-92681327D01*
X169976286Y-92631054D01*
X169951522Y-92584722D01*
X169918194Y-92544111D01*
X169877583Y-92510783D01*
X169831251Y-92486019D01*
X169780978Y-92470768D01*
X169728696Y-92465619D01*
X167928696Y-92465619D01*
X167893644Y-92469071D01*
X167916253Y-92394541D01*
X167926686Y-92288609D01*
X167926686Y-91738609D01*
X167916253Y-91632677D01*
X167893644Y-91558147D01*
X167928696Y-91561599D01*
X168520721Y-91560309D01*
X168587396Y-91493634D01*
X168587396Y-90984909D01*
X169069996Y-90984909D01*
X169069996Y-91493634D01*
X169136671Y-91560309D01*
X169728696Y-91561599D01*
X169780978Y-91556450D01*
X169831251Y-91541199D01*
X169877583Y-91516435D01*
X169918194Y-91483107D01*
X169951522Y-91442496D01*
X169976286Y-91396164D01*
X169991537Y-91345891D01*
X169996686Y-91293609D01*
X169995396Y-91051584D01*
X169928721Y-90984909D01*
X169069996Y-90984909D01*
X168587396Y-90984909D01*
X167728671Y-90984909D01*
X167661996Y-91051584D01*
X167660810Y-91274005D01*
X167591489Y-91236952D01*
X167489628Y-91206052D01*
X167383696Y-91195619D01*
X166133696Y-91195619D01*
X166027764Y-91206052D01*
X165925903Y-91236952D01*
X165832027Y-91287129D01*
X165749744Y-91354657D01*
X165682216Y-91436940D01*
X165632039Y-91530816D01*
X165601139Y-91632677D01*
X165590706Y-91738609D01*
X165590706Y-92288609D01*
X165598633Y-92369100D01*
X165136510Y-92369100D01*
X165148698Y-92359098D01*
X165182026Y-92318487D01*
X165206790Y-92272155D01*
X165222041Y-92221882D01*
X165227190Y-92169600D01*
X165227190Y-90856757D01*
X166012248Y-90071700D01*
X167691451Y-90071700D01*
X167681106Y-90091054D01*
M02*
