G04 #@! TF.GenerationSoftware,KiCad,Pcbnew,5.1.5-52549c5~86~ubuntu18.04.1*
G04 #@! TF.CreationDate,2020-05-03T19:03:43+02:00*
G04 #@! TF.ProjectId,OpenC64MegaDrivePadAdapter,4f70656e-4336-4344-9d65-676144726976,5*
G04 #@! TF.SameCoordinates,Original*
G04 #@! TF.FileFunction,Soldermask,Top*
G04 #@! TF.FilePolarity,Negative*
%FSLAX46Y46*%
G04 Gerber Fmt 4.6, Leading zero omitted, Abs format (unit mm)*
G04 Created by KiCad (PCBNEW 5.1.5-52549c5~86~ubuntu18.04.1) date 2020-05-03 19:03:43*
%MOMM*%
%LPD*%
G04 APERTURE LIST*
%ADD10C,0.100000*%
G04 APERTURE END LIST*
D10*
G36*
X144411849Y-113879419D02*
G01*
X144653407Y-113927468D01*
X144722728Y-113956182D01*
X145108491Y-114115970D01*
X145518058Y-114389634D01*
X145866366Y-114737942D01*
X146140030Y-115147509D01*
X146250452Y-115414091D01*
X146327936Y-115601153D01*
X146328532Y-115602594D01*
X146424630Y-116085708D01*
X146424630Y-116578292D01*
X146423579Y-116583574D01*
X146328819Y-117059966D01*
X146328532Y-117061406D01*
X146140030Y-117516491D01*
X145866366Y-117926058D01*
X145518058Y-118274366D01*
X145108491Y-118548030D01*
X144841909Y-118658452D01*
X144653407Y-118736532D01*
X144411849Y-118784581D01*
X144170292Y-118832630D01*
X143677708Y-118832630D01*
X143436151Y-118784581D01*
X143194593Y-118736532D01*
X143006091Y-118658452D01*
X142739509Y-118548030D01*
X142329942Y-118274366D01*
X141981634Y-117926058D01*
X141707970Y-117516491D01*
X141519468Y-117061406D01*
X141519182Y-117059966D01*
X141424421Y-116583574D01*
X141423370Y-116578292D01*
X141423370Y-116085708D01*
X141519468Y-115602594D01*
X141520065Y-115601153D01*
X141597548Y-115414091D01*
X141707970Y-115147509D01*
X141981634Y-114737942D01*
X142329942Y-114389634D01*
X142739509Y-114115970D01*
X143125272Y-113956182D01*
X143194593Y-113927468D01*
X143436151Y-113879419D01*
X143677708Y-113831370D01*
X144170292Y-113831370D01*
X144411849Y-113879419D01*
G37*
G36*
X179641849Y-113877979D02*
G01*
X179883407Y-113926028D01*
X180071909Y-114004108D01*
X180338491Y-114114530D01*
X180748058Y-114388194D01*
X181096366Y-114736502D01*
X181370030Y-115146069D01*
X181370626Y-115147509D01*
X181558532Y-115601153D01*
X181579840Y-115708274D01*
X181654630Y-116084268D01*
X181654630Y-116576852D01*
X181653293Y-116583573D01*
X181558532Y-117059967D01*
X181480452Y-117248469D01*
X181370030Y-117515051D01*
X181096366Y-117924618D01*
X180748058Y-118272926D01*
X180338491Y-118546590D01*
X180071909Y-118657012D01*
X179883407Y-118735092D01*
X179641849Y-118783141D01*
X179400292Y-118831190D01*
X178907708Y-118831190D01*
X178666151Y-118783141D01*
X178424593Y-118735092D01*
X178236091Y-118657012D01*
X177969509Y-118546590D01*
X177559942Y-118272926D01*
X177211634Y-117924618D01*
X176937970Y-117515051D01*
X176827548Y-117248469D01*
X176749468Y-117059967D01*
X176654707Y-116583573D01*
X176653370Y-116576852D01*
X176653370Y-116084268D01*
X176728160Y-115708274D01*
X176749468Y-115601153D01*
X176937374Y-115147509D01*
X176937970Y-115146069D01*
X177211634Y-114736502D01*
X177559942Y-114388194D01*
X177969509Y-114114530D01*
X178236091Y-114004108D01*
X178424593Y-113926028D01*
X178666151Y-113877979D01*
X178907708Y-113829930D01*
X179400292Y-113829930D01*
X179641849Y-113877979D01*
G37*
G36*
X171246182Y-115578900D02*
G01*
X171373573Y-115631667D01*
X171373574Y-115631668D01*
X171488224Y-115708274D01*
X171585726Y-115805776D01*
X171585727Y-115805778D01*
X171662333Y-115920427D01*
X171715100Y-116047818D01*
X171742000Y-116183055D01*
X171742000Y-116320945D01*
X171715100Y-116456182D01*
X171662333Y-116583573D01*
X171662332Y-116583574D01*
X171585726Y-116698224D01*
X171488224Y-116795726D01*
X171430510Y-116834289D01*
X171373573Y-116872333D01*
X171246182Y-116925100D01*
X171110945Y-116952000D01*
X170973055Y-116952000D01*
X170837818Y-116925100D01*
X170710427Y-116872333D01*
X170653490Y-116834289D01*
X170595776Y-116795726D01*
X170498274Y-116698224D01*
X170421668Y-116583574D01*
X170421667Y-116583573D01*
X170368900Y-116456182D01*
X170342000Y-116320945D01*
X170342000Y-116183055D01*
X170368900Y-116047818D01*
X170421667Y-115920427D01*
X170498273Y-115805778D01*
X170498274Y-115805776D01*
X170595776Y-115708274D01*
X170710426Y-115631668D01*
X170710427Y-115631667D01*
X170837818Y-115578900D01*
X170973055Y-115552000D01*
X171110945Y-115552000D01*
X171246182Y-115578900D01*
G37*
G36*
X167946182Y-115578900D02*
G01*
X168073573Y-115631667D01*
X168073574Y-115631668D01*
X168188224Y-115708274D01*
X168285726Y-115805776D01*
X168285727Y-115805778D01*
X168362333Y-115920427D01*
X168415100Y-116047818D01*
X168442000Y-116183055D01*
X168442000Y-116320945D01*
X168415100Y-116456182D01*
X168362333Y-116583573D01*
X168362332Y-116583574D01*
X168285726Y-116698224D01*
X168188224Y-116795726D01*
X168130510Y-116834289D01*
X168073573Y-116872333D01*
X167946182Y-116925100D01*
X167810945Y-116952000D01*
X167673055Y-116952000D01*
X167537818Y-116925100D01*
X167410427Y-116872333D01*
X167353490Y-116834289D01*
X167295776Y-116795726D01*
X167198274Y-116698224D01*
X167121668Y-116583574D01*
X167121667Y-116583573D01*
X167068900Y-116456182D01*
X167042000Y-116320945D01*
X167042000Y-116183055D01*
X167068900Y-116047818D01*
X167121667Y-115920427D01*
X167198273Y-115805778D01*
X167198274Y-115805776D01*
X167295776Y-115708274D01*
X167410426Y-115631668D01*
X167410427Y-115631667D01*
X167537818Y-115578900D01*
X167673055Y-115552000D01*
X167810945Y-115552000D01*
X167946182Y-115578900D01*
G37*
G36*
X149404182Y-115578900D02*
G01*
X149531573Y-115631667D01*
X149531574Y-115631668D01*
X149646224Y-115708274D01*
X149743726Y-115805776D01*
X149743727Y-115805778D01*
X149820333Y-115920427D01*
X149873100Y-116047818D01*
X149900000Y-116183055D01*
X149900000Y-116320945D01*
X149873100Y-116456182D01*
X149820333Y-116583573D01*
X149820332Y-116583574D01*
X149743726Y-116698224D01*
X149646224Y-116795726D01*
X149588510Y-116834289D01*
X149531573Y-116872333D01*
X149404182Y-116925100D01*
X149268945Y-116952000D01*
X149131055Y-116952000D01*
X148995818Y-116925100D01*
X148868427Y-116872333D01*
X148811490Y-116834289D01*
X148753776Y-116795726D01*
X148656274Y-116698224D01*
X148579668Y-116583574D01*
X148579667Y-116583573D01*
X148526900Y-116456182D01*
X148500000Y-116320945D01*
X148500000Y-116183055D01*
X148526900Y-116047818D01*
X148579667Y-115920427D01*
X148656273Y-115805778D01*
X148656274Y-115805776D01*
X148753776Y-115708274D01*
X148868426Y-115631668D01*
X148868427Y-115631667D01*
X148995818Y-115578900D01*
X149131055Y-115552000D01*
X149268945Y-115552000D01*
X149404182Y-115578900D01*
G37*
G36*
X152704182Y-115578900D02*
G01*
X152831573Y-115631667D01*
X152831574Y-115631668D01*
X152946224Y-115708274D01*
X153043726Y-115805776D01*
X153043727Y-115805778D01*
X153120333Y-115920427D01*
X153173100Y-116047818D01*
X153200000Y-116183055D01*
X153200000Y-116320945D01*
X153173100Y-116456182D01*
X153120333Y-116583573D01*
X153120332Y-116583574D01*
X153043726Y-116698224D01*
X152946224Y-116795726D01*
X152888510Y-116834289D01*
X152831573Y-116872333D01*
X152704182Y-116925100D01*
X152568945Y-116952000D01*
X152431055Y-116952000D01*
X152295818Y-116925100D01*
X152168427Y-116872333D01*
X152111490Y-116834289D01*
X152053776Y-116795726D01*
X151956274Y-116698224D01*
X151879668Y-116583574D01*
X151879667Y-116583573D01*
X151826900Y-116456182D01*
X151800000Y-116320945D01*
X151800000Y-116183055D01*
X151826900Y-116047818D01*
X151879667Y-115920427D01*
X151956273Y-115805778D01*
X151956274Y-115805776D01*
X152053776Y-115708274D01*
X152168426Y-115631668D01*
X152168427Y-115631667D01*
X152295818Y-115578900D01*
X152431055Y-115552000D01*
X152568945Y-115552000D01*
X152704182Y-115578900D01*
G37*
G36*
X163372182Y-115578900D02*
G01*
X163499573Y-115631667D01*
X163499574Y-115631668D01*
X163614224Y-115708274D01*
X163711726Y-115805776D01*
X163711727Y-115805778D01*
X163788333Y-115920427D01*
X163841100Y-116047818D01*
X163868000Y-116183055D01*
X163868000Y-116320945D01*
X163841100Y-116456182D01*
X163788333Y-116583573D01*
X163788332Y-116583574D01*
X163711726Y-116698224D01*
X163614224Y-116795726D01*
X163556510Y-116834289D01*
X163499573Y-116872333D01*
X163372182Y-116925100D01*
X163236945Y-116952000D01*
X163099055Y-116952000D01*
X162963818Y-116925100D01*
X162836427Y-116872333D01*
X162779490Y-116834289D01*
X162721776Y-116795726D01*
X162624274Y-116698224D01*
X162547668Y-116583574D01*
X162547667Y-116583573D01*
X162494900Y-116456182D01*
X162468000Y-116320945D01*
X162468000Y-116183055D01*
X162494900Y-116047818D01*
X162547667Y-115920427D01*
X162624273Y-115805778D01*
X162624274Y-115805776D01*
X162721776Y-115708274D01*
X162836426Y-115631668D01*
X162836427Y-115631667D01*
X162963818Y-115578900D01*
X163099055Y-115552000D01*
X163236945Y-115552000D01*
X163372182Y-115578900D01*
G37*
G36*
X160072182Y-115578900D02*
G01*
X160199573Y-115631667D01*
X160199574Y-115631668D01*
X160314224Y-115708274D01*
X160411726Y-115805776D01*
X160411727Y-115805778D01*
X160488333Y-115920427D01*
X160541100Y-116047818D01*
X160568000Y-116183055D01*
X160568000Y-116320945D01*
X160541100Y-116456182D01*
X160488333Y-116583573D01*
X160488332Y-116583574D01*
X160411726Y-116698224D01*
X160314224Y-116795726D01*
X160256510Y-116834289D01*
X160199573Y-116872333D01*
X160072182Y-116925100D01*
X159936945Y-116952000D01*
X159799055Y-116952000D01*
X159663818Y-116925100D01*
X159536427Y-116872333D01*
X159479490Y-116834289D01*
X159421776Y-116795726D01*
X159324274Y-116698224D01*
X159247668Y-116583574D01*
X159247667Y-116583573D01*
X159194900Y-116456182D01*
X159168000Y-116320945D01*
X159168000Y-116183055D01*
X159194900Y-116047818D01*
X159247667Y-115920427D01*
X159324273Y-115805778D01*
X159324274Y-115805776D01*
X159421776Y-115708274D01*
X159536426Y-115631668D01*
X159536427Y-115631667D01*
X159663818Y-115578900D01*
X159799055Y-115552000D01*
X159936945Y-115552000D01*
X160072182Y-115578900D01*
G37*
G36*
X149404182Y-113078900D02*
G01*
X149531573Y-113131667D01*
X149531574Y-113131668D01*
X149646224Y-113208274D01*
X149743726Y-113305776D01*
X149743727Y-113305778D01*
X149820333Y-113420427D01*
X149873100Y-113547818D01*
X149900000Y-113683055D01*
X149900000Y-113820945D01*
X149873100Y-113956182D01*
X149820333Y-114083573D01*
X149798686Y-114115970D01*
X149743726Y-114198224D01*
X149646224Y-114295726D01*
X149588510Y-114334289D01*
X149531573Y-114372333D01*
X149404182Y-114425100D01*
X149268945Y-114452000D01*
X149131055Y-114452000D01*
X148995818Y-114425100D01*
X148868427Y-114372333D01*
X148811490Y-114334289D01*
X148753776Y-114295726D01*
X148656274Y-114198224D01*
X148601314Y-114115970D01*
X148579667Y-114083573D01*
X148526900Y-113956182D01*
X148500000Y-113820945D01*
X148500000Y-113683055D01*
X148526900Y-113547818D01*
X148579667Y-113420427D01*
X148656273Y-113305778D01*
X148656274Y-113305776D01*
X148753776Y-113208274D01*
X148868426Y-113131668D01*
X148868427Y-113131667D01*
X148995818Y-113078900D01*
X149131055Y-113052000D01*
X149268945Y-113052000D01*
X149404182Y-113078900D01*
G37*
G36*
X163372182Y-113078900D02*
G01*
X163499573Y-113131667D01*
X163499574Y-113131668D01*
X163614224Y-113208274D01*
X163711726Y-113305776D01*
X163711727Y-113305778D01*
X163788333Y-113420427D01*
X163841100Y-113547818D01*
X163868000Y-113683055D01*
X163868000Y-113820945D01*
X163841100Y-113956182D01*
X163788333Y-114083573D01*
X163766686Y-114115970D01*
X163711726Y-114198224D01*
X163614224Y-114295726D01*
X163556510Y-114334289D01*
X163499573Y-114372333D01*
X163372182Y-114425100D01*
X163236945Y-114452000D01*
X163099055Y-114452000D01*
X162963818Y-114425100D01*
X162836427Y-114372333D01*
X162779490Y-114334289D01*
X162721776Y-114295726D01*
X162624274Y-114198224D01*
X162569314Y-114115970D01*
X162547667Y-114083573D01*
X162494900Y-113956182D01*
X162468000Y-113820945D01*
X162468000Y-113683055D01*
X162494900Y-113547818D01*
X162547667Y-113420427D01*
X162624273Y-113305778D01*
X162624274Y-113305776D01*
X162721776Y-113208274D01*
X162836426Y-113131668D01*
X162836427Y-113131667D01*
X162963818Y-113078900D01*
X163099055Y-113052000D01*
X163236945Y-113052000D01*
X163372182Y-113078900D01*
G37*
G36*
X171246182Y-113078900D02*
G01*
X171373573Y-113131667D01*
X171373574Y-113131668D01*
X171488224Y-113208274D01*
X171585726Y-113305776D01*
X171585727Y-113305778D01*
X171662333Y-113420427D01*
X171715100Y-113547818D01*
X171742000Y-113683055D01*
X171742000Y-113820945D01*
X171715100Y-113956182D01*
X171662333Y-114083573D01*
X171640686Y-114115970D01*
X171585726Y-114198224D01*
X171488224Y-114295726D01*
X171430510Y-114334289D01*
X171373573Y-114372333D01*
X171246182Y-114425100D01*
X171110945Y-114452000D01*
X170973055Y-114452000D01*
X170837818Y-114425100D01*
X170710427Y-114372333D01*
X170653490Y-114334289D01*
X170595776Y-114295726D01*
X170498274Y-114198224D01*
X170443314Y-114115970D01*
X170421667Y-114083573D01*
X170368900Y-113956182D01*
X170342000Y-113820945D01*
X170342000Y-113683055D01*
X170368900Y-113547818D01*
X170421667Y-113420427D01*
X170498273Y-113305778D01*
X170498274Y-113305776D01*
X170595776Y-113208274D01*
X170710426Y-113131668D01*
X170710427Y-113131667D01*
X170837818Y-113078900D01*
X170973055Y-113052000D01*
X171110945Y-113052000D01*
X171246182Y-113078900D01*
G37*
G36*
X167946182Y-113078900D02*
G01*
X168073573Y-113131667D01*
X168073574Y-113131668D01*
X168188224Y-113208274D01*
X168285726Y-113305776D01*
X168285727Y-113305778D01*
X168362333Y-113420427D01*
X168415100Y-113547818D01*
X168442000Y-113683055D01*
X168442000Y-113820945D01*
X168415100Y-113956182D01*
X168362333Y-114083573D01*
X168340686Y-114115970D01*
X168285726Y-114198224D01*
X168188224Y-114295726D01*
X168130510Y-114334289D01*
X168073573Y-114372333D01*
X167946182Y-114425100D01*
X167810945Y-114452000D01*
X167673055Y-114452000D01*
X167537818Y-114425100D01*
X167410427Y-114372333D01*
X167353490Y-114334289D01*
X167295776Y-114295726D01*
X167198274Y-114198224D01*
X167143314Y-114115970D01*
X167121667Y-114083573D01*
X167068900Y-113956182D01*
X167042000Y-113820945D01*
X167042000Y-113683055D01*
X167068900Y-113547818D01*
X167121667Y-113420427D01*
X167198273Y-113305778D01*
X167198274Y-113305776D01*
X167295776Y-113208274D01*
X167410426Y-113131668D01*
X167410427Y-113131667D01*
X167537818Y-113078900D01*
X167673055Y-113052000D01*
X167810945Y-113052000D01*
X167946182Y-113078900D01*
G37*
G36*
X160072182Y-113078900D02*
G01*
X160199573Y-113131667D01*
X160199574Y-113131668D01*
X160314224Y-113208274D01*
X160411726Y-113305776D01*
X160411727Y-113305778D01*
X160488333Y-113420427D01*
X160541100Y-113547818D01*
X160568000Y-113683055D01*
X160568000Y-113820945D01*
X160541100Y-113956182D01*
X160488333Y-114083573D01*
X160466686Y-114115970D01*
X160411726Y-114198224D01*
X160314224Y-114295726D01*
X160256510Y-114334289D01*
X160199573Y-114372333D01*
X160072182Y-114425100D01*
X159936945Y-114452000D01*
X159799055Y-114452000D01*
X159663818Y-114425100D01*
X159536427Y-114372333D01*
X159479490Y-114334289D01*
X159421776Y-114295726D01*
X159324274Y-114198224D01*
X159269314Y-114115970D01*
X159247667Y-114083573D01*
X159194900Y-113956182D01*
X159168000Y-113820945D01*
X159168000Y-113683055D01*
X159194900Y-113547818D01*
X159247667Y-113420427D01*
X159324273Y-113305778D01*
X159324274Y-113305776D01*
X159421776Y-113208274D01*
X159536426Y-113131668D01*
X159536427Y-113131667D01*
X159663818Y-113078900D01*
X159799055Y-113052000D01*
X159936945Y-113052000D01*
X160072182Y-113078900D01*
G37*
G36*
X152704182Y-113078900D02*
G01*
X152831573Y-113131667D01*
X152831574Y-113131668D01*
X152946224Y-113208274D01*
X153043726Y-113305776D01*
X153043727Y-113305778D01*
X153120333Y-113420427D01*
X153173100Y-113547818D01*
X153200000Y-113683055D01*
X153200000Y-113820945D01*
X153173100Y-113956182D01*
X153120333Y-114083573D01*
X153098686Y-114115970D01*
X153043726Y-114198224D01*
X152946224Y-114295726D01*
X152888510Y-114334289D01*
X152831573Y-114372333D01*
X152704182Y-114425100D01*
X152568945Y-114452000D01*
X152431055Y-114452000D01*
X152295818Y-114425100D01*
X152168427Y-114372333D01*
X152111490Y-114334289D01*
X152053776Y-114295726D01*
X151956274Y-114198224D01*
X151901314Y-114115970D01*
X151879667Y-114083573D01*
X151826900Y-113956182D01*
X151800000Y-113820945D01*
X151800000Y-113683055D01*
X151826900Y-113547818D01*
X151879667Y-113420427D01*
X151956273Y-113305778D01*
X151956274Y-113305776D01*
X152053776Y-113208274D01*
X152168426Y-113131668D01*
X152168427Y-113131667D01*
X152295818Y-113078900D01*
X152431055Y-113052000D01*
X152568945Y-113052000D01*
X152704182Y-113078900D01*
G37*
G36*
X160072182Y-110578900D02*
G01*
X160199573Y-110631667D01*
X160199574Y-110631668D01*
X160314224Y-110708274D01*
X160411726Y-110805776D01*
X160411727Y-110805778D01*
X160488333Y-110920427D01*
X160541100Y-111047818D01*
X160568000Y-111183055D01*
X160568000Y-111320945D01*
X160541100Y-111456182D01*
X160488333Y-111583573D01*
X160488332Y-111583574D01*
X160411726Y-111698224D01*
X160314224Y-111795726D01*
X160256510Y-111834289D01*
X160199573Y-111872333D01*
X160072182Y-111925100D01*
X159936945Y-111952000D01*
X159799055Y-111952000D01*
X159663818Y-111925100D01*
X159536427Y-111872333D01*
X159479490Y-111834289D01*
X159421776Y-111795726D01*
X159324274Y-111698224D01*
X159247668Y-111583574D01*
X159247667Y-111583573D01*
X159194900Y-111456182D01*
X159168000Y-111320945D01*
X159168000Y-111183055D01*
X159194900Y-111047818D01*
X159247667Y-110920427D01*
X159324273Y-110805778D01*
X159324274Y-110805776D01*
X159421776Y-110708274D01*
X159536426Y-110631668D01*
X159536427Y-110631667D01*
X159663818Y-110578900D01*
X159799055Y-110552000D01*
X159936945Y-110552000D01*
X160072182Y-110578900D01*
G37*
G36*
X163868000Y-111952000D02*
G01*
X162468000Y-111952000D01*
X162468000Y-110552000D01*
X163868000Y-110552000D01*
X163868000Y-111952000D01*
G37*
G36*
X167946182Y-110578900D02*
G01*
X168073573Y-110631667D01*
X168073574Y-110631668D01*
X168188224Y-110708274D01*
X168285726Y-110805776D01*
X168285727Y-110805778D01*
X168362333Y-110920427D01*
X168415100Y-111047818D01*
X168442000Y-111183055D01*
X168442000Y-111320945D01*
X168415100Y-111456182D01*
X168362333Y-111583573D01*
X168362332Y-111583574D01*
X168285726Y-111698224D01*
X168188224Y-111795726D01*
X168130510Y-111834289D01*
X168073573Y-111872333D01*
X167946182Y-111925100D01*
X167810945Y-111952000D01*
X167673055Y-111952000D01*
X167537818Y-111925100D01*
X167410427Y-111872333D01*
X167353490Y-111834289D01*
X167295776Y-111795726D01*
X167198274Y-111698224D01*
X167121668Y-111583574D01*
X167121667Y-111583573D01*
X167068900Y-111456182D01*
X167042000Y-111320945D01*
X167042000Y-111183055D01*
X167068900Y-111047818D01*
X167121667Y-110920427D01*
X167198273Y-110805778D01*
X167198274Y-110805776D01*
X167295776Y-110708274D01*
X167410426Y-110631668D01*
X167410427Y-110631667D01*
X167537818Y-110578900D01*
X167673055Y-110552000D01*
X167810945Y-110552000D01*
X167946182Y-110578900D01*
G37*
G36*
X149404182Y-110578900D02*
G01*
X149531573Y-110631667D01*
X149531574Y-110631668D01*
X149646224Y-110708274D01*
X149743726Y-110805776D01*
X149743727Y-110805778D01*
X149820333Y-110920427D01*
X149873100Y-111047818D01*
X149900000Y-111183055D01*
X149900000Y-111320945D01*
X149873100Y-111456182D01*
X149820333Y-111583573D01*
X149820332Y-111583574D01*
X149743726Y-111698224D01*
X149646224Y-111795726D01*
X149588510Y-111834289D01*
X149531573Y-111872333D01*
X149404182Y-111925100D01*
X149268945Y-111952000D01*
X149131055Y-111952000D01*
X148995818Y-111925100D01*
X148868427Y-111872333D01*
X148811490Y-111834289D01*
X148753776Y-111795726D01*
X148656274Y-111698224D01*
X148579668Y-111583574D01*
X148579667Y-111583573D01*
X148526900Y-111456182D01*
X148500000Y-111320945D01*
X148500000Y-111183055D01*
X148526900Y-111047818D01*
X148579667Y-110920427D01*
X148656273Y-110805778D01*
X148656274Y-110805776D01*
X148753776Y-110708274D01*
X148868426Y-110631668D01*
X148868427Y-110631667D01*
X148995818Y-110578900D01*
X149131055Y-110552000D01*
X149268945Y-110552000D01*
X149404182Y-110578900D01*
G37*
G36*
X153200000Y-111952000D02*
G01*
X151800000Y-111952000D01*
X151800000Y-110552000D01*
X153200000Y-110552000D01*
X153200000Y-111952000D01*
G37*
G36*
X171742000Y-111952000D02*
G01*
X170342000Y-111952000D01*
X170342000Y-110552000D01*
X171742000Y-110552000D01*
X171742000Y-111952000D01*
G37*
G36*
X145838975Y-108637770D02*
G01*
X145980463Y-108680690D01*
X146075425Y-108731449D01*
X146110852Y-108750385D01*
X146225141Y-108844179D01*
X146318935Y-108958468D01*
X146318936Y-108958470D01*
X146388630Y-109088857D01*
X146431550Y-109230345D01*
X146446041Y-109377480D01*
X146431550Y-109524615D01*
X146388630Y-109666103D01*
X146326089Y-109783109D01*
X146318935Y-109796492D01*
X146225141Y-109910781D01*
X146110852Y-110004575D01*
X146110850Y-110004576D01*
X145980463Y-110074270D01*
X145838975Y-110117190D01*
X145728709Y-110128050D01*
X145157131Y-110128050D01*
X145046865Y-110117190D01*
X144905377Y-110074270D01*
X144774990Y-110004576D01*
X144774988Y-110004575D01*
X144660699Y-109910781D01*
X144566905Y-109796492D01*
X144559751Y-109783109D01*
X144497210Y-109666103D01*
X144454290Y-109524615D01*
X144439799Y-109377480D01*
X144454290Y-109230345D01*
X144497210Y-109088857D01*
X144566904Y-108958470D01*
X144566905Y-108958468D01*
X144660699Y-108844179D01*
X144774988Y-108750385D01*
X144810415Y-108731449D01*
X144905377Y-108680690D01*
X145046865Y-108637770D01*
X145157131Y-108626910D01*
X145728709Y-108626910D01*
X145838975Y-108637770D01*
G37*
G36*
X178031135Y-108636330D02*
G01*
X178172623Y-108679250D01*
X178272975Y-108732890D01*
X178303012Y-108748945D01*
X178417301Y-108842739D01*
X178511095Y-108957028D01*
X178511096Y-108957030D01*
X178580790Y-109087417D01*
X178623710Y-109228905D01*
X178638201Y-109376040D01*
X178623710Y-109523175D01*
X178580790Y-109664663D01*
X178580020Y-109666103D01*
X178511095Y-109795052D01*
X178417301Y-109909341D01*
X178303012Y-110003135D01*
X178303010Y-110003136D01*
X178172623Y-110072830D01*
X178031135Y-110115750D01*
X177920869Y-110126610D01*
X177349291Y-110126610D01*
X177239025Y-110115750D01*
X177097537Y-110072830D01*
X176967150Y-110003136D01*
X176967148Y-110003135D01*
X176852859Y-109909341D01*
X176759065Y-109795052D01*
X176690140Y-109666103D01*
X176689370Y-109664663D01*
X176646450Y-109523175D01*
X176631959Y-109376040D01*
X176646450Y-109228905D01*
X176689370Y-109087417D01*
X176759064Y-108957030D01*
X176759065Y-108957028D01*
X176852859Y-108842739D01*
X176967148Y-108748945D01*
X176997185Y-108732890D01*
X177097537Y-108679250D01*
X177239025Y-108636330D01*
X177349291Y-108625470D01*
X177920869Y-108625470D01*
X178031135Y-108636330D01*
G37*
G36*
X142801135Y-107253470D02*
G01*
X142942623Y-107296390D01*
X143037585Y-107347149D01*
X143073012Y-107366085D01*
X143187301Y-107459879D01*
X143281095Y-107574168D01*
X143281096Y-107574170D01*
X143350790Y-107704557D01*
X143393710Y-107846045D01*
X143408201Y-107993180D01*
X143393710Y-108140315D01*
X143350790Y-108281803D01*
X143288249Y-108398809D01*
X143281095Y-108412192D01*
X143187301Y-108526481D01*
X143073012Y-108620275D01*
X143073010Y-108620276D01*
X142942623Y-108689970D01*
X142801135Y-108732890D01*
X142690869Y-108743750D01*
X142119291Y-108743750D01*
X142009025Y-108732890D01*
X141867537Y-108689970D01*
X141737150Y-108620276D01*
X141737148Y-108620275D01*
X141622859Y-108526481D01*
X141529065Y-108412192D01*
X141521911Y-108398809D01*
X141459370Y-108281803D01*
X141416450Y-108140315D01*
X141401959Y-107993180D01*
X141416450Y-107846045D01*
X141459370Y-107704557D01*
X141529064Y-107574170D01*
X141529065Y-107574168D01*
X141622859Y-107459879D01*
X141737148Y-107366085D01*
X141772575Y-107347149D01*
X141867537Y-107296390D01*
X142009025Y-107253470D01*
X142119291Y-107242610D01*
X142690869Y-107242610D01*
X142801135Y-107253470D01*
G37*
G36*
X181068975Y-107252030D02*
G01*
X181210463Y-107294950D01*
X181310815Y-107348590D01*
X181340852Y-107364645D01*
X181455141Y-107458439D01*
X181548935Y-107572728D01*
X181548936Y-107572730D01*
X181618630Y-107703117D01*
X181661550Y-107844605D01*
X181676041Y-107991740D01*
X181661550Y-108138875D01*
X181618630Y-108280363D01*
X181617860Y-108281803D01*
X181548935Y-108410752D01*
X181455141Y-108525041D01*
X181340852Y-108618835D01*
X181340850Y-108618836D01*
X181210463Y-108688530D01*
X181068975Y-108731450D01*
X180958709Y-108742310D01*
X180387131Y-108742310D01*
X180276865Y-108731450D01*
X180135377Y-108688530D01*
X180004990Y-108618836D01*
X180004988Y-108618835D01*
X179890699Y-108525041D01*
X179796905Y-108410752D01*
X179727980Y-108281803D01*
X179727210Y-108280363D01*
X179684290Y-108138875D01*
X179669799Y-107991740D01*
X179684290Y-107844605D01*
X179727210Y-107703117D01*
X179796904Y-107572730D01*
X179796905Y-107572728D01*
X179890699Y-107458439D01*
X180004988Y-107364645D01*
X180035025Y-107348590D01*
X180135377Y-107294950D01*
X180276865Y-107252030D01*
X180387131Y-107241170D01*
X180958709Y-107241170D01*
X181068975Y-107252030D01*
G37*
G36*
X145838975Y-105869170D02*
G01*
X145980463Y-105912090D01*
X146073369Y-105961750D01*
X146110852Y-105981785D01*
X146225141Y-106075579D01*
X146318935Y-106189868D01*
X146318936Y-106189870D01*
X146388630Y-106320257D01*
X146431550Y-106461745D01*
X146446041Y-106608880D01*
X146431550Y-106756015D01*
X146388630Y-106897503D01*
X146326089Y-107014509D01*
X146318935Y-107027892D01*
X146225141Y-107142181D01*
X146110852Y-107235975D01*
X146110850Y-107235976D01*
X145980463Y-107305670D01*
X145838975Y-107348590D01*
X145728709Y-107359450D01*
X145157131Y-107359450D01*
X145046865Y-107348590D01*
X144905377Y-107305670D01*
X144774990Y-107235976D01*
X144774988Y-107235975D01*
X144660699Y-107142181D01*
X144566905Y-107027892D01*
X144559751Y-107014509D01*
X144497210Y-106897503D01*
X144454290Y-106756015D01*
X144439799Y-106608880D01*
X144454290Y-106461745D01*
X144497210Y-106320257D01*
X144566904Y-106189870D01*
X144566905Y-106189868D01*
X144660699Y-106075579D01*
X144774988Y-105981785D01*
X144812471Y-105961750D01*
X144905377Y-105912090D01*
X145046865Y-105869170D01*
X145157131Y-105858310D01*
X145728709Y-105858310D01*
X145838975Y-105869170D01*
G37*
G36*
X178031135Y-105867730D02*
G01*
X178172623Y-105910650D01*
X178268223Y-105961750D01*
X178303012Y-105980345D01*
X178417301Y-106074139D01*
X178511095Y-106188428D01*
X178511096Y-106188430D01*
X178580790Y-106318817D01*
X178623710Y-106460305D01*
X178638201Y-106607440D01*
X178623710Y-106754575D01*
X178580790Y-106896063D01*
X178580020Y-106897503D01*
X178511095Y-107026452D01*
X178417301Y-107140741D01*
X178303012Y-107234535D01*
X178303010Y-107234536D01*
X178172623Y-107304230D01*
X178031135Y-107347150D01*
X177920869Y-107358010D01*
X177349291Y-107358010D01*
X177239025Y-107347150D01*
X177097537Y-107304230D01*
X176967150Y-107234536D01*
X176967148Y-107234535D01*
X176852859Y-107140741D01*
X176759065Y-107026452D01*
X176690140Y-106897503D01*
X176689370Y-106896063D01*
X176646450Y-106754575D01*
X176631959Y-106607440D01*
X176646450Y-106460305D01*
X176689370Y-106318817D01*
X176759064Y-106188430D01*
X176759065Y-106188428D01*
X176852859Y-106074139D01*
X176967148Y-105980345D01*
X177001937Y-105961750D01*
X177097537Y-105910650D01*
X177239025Y-105867730D01*
X177349291Y-105856870D01*
X177920869Y-105856870D01*
X178031135Y-105867730D01*
G37*
G36*
X142801135Y-104482330D02*
G01*
X142942623Y-104525250D01*
X143037331Y-104575873D01*
X143073012Y-104594945D01*
X143187301Y-104688739D01*
X143281095Y-104803028D01*
X143281096Y-104803030D01*
X143350790Y-104933417D01*
X143393710Y-105074905D01*
X143408201Y-105222040D01*
X143393710Y-105369175D01*
X143350790Y-105510663D01*
X143288249Y-105627669D01*
X143281095Y-105641052D01*
X143187301Y-105755341D01*
X143073012Y-105849135D01*
X143073010Y-105849136D01*
X142942623Y-105918830D01*
X142801135Y-105961750D01*
X142690869Y-105972610D01*
X142119291Y-105972610D01*
X142009025Y-105961750D01*
X141867537Y-105918830D01*
X141737150Y-105849136D01*
X141737148Y-105849135D01*
X141622859Y-105755341D01*
X141529065Y-105641052D01*
X141521911Y-105627669D01*
X141459370Y-105510663D01*
X141416450Y-105369175D01*
X141401959Y-105222040D01*
X141416450Y-105074905D01*
X141459370Y-104933417D01*
X141529064Y-104803030D01*
X141529065Y-104803028D01*
X141622859Y-104688739D01*
X141737148Y-104594945D01*
X141772829Y-104575873D01*
X141867537Y-104525250D01*
X142009025Y-104482330D01*
X142119291Y-104471470D01*
X142690869Y-104471470D01*
X142801135Y-104482330D01*
G37*
G36*
X181068975Y-104480890D02*
G01*
X181210463Y-104523810D01*
X181310815Y-104577450D01*
X181340852Y-104593505D01*
X181455141Y-104687299D01*
X181548935Y-104801588D01*
X181548936Y-104801590D01*
X181618630Y-104931977D01*
X181661550Y-105073465D01*
X181676041Y-105220600D01*
X181661550Y-105367735D01*
X181618630Y-105509223D01*
X181617860Y-105510663D01*
X181548935Y-105639612D01*
X181455141Y-105753901D01*
X181340852Y-105847695D01*
X181340850Y-105847696D01*
X181210463Y-105917390D01*
X181068975Y-105960310D01*
X180958709Y-105971170D01*
X180387131Y-105971170D01*
X180276865Y-105960310D01*
X180135377Y-105917390D01*
X180004990Y-105847696D01*
X180004988Y-105847695D01*
X179890699Y-105753901D01*
X179796905Y-105639612D01*
X179727980Y-105510663D01*
X179727210Y-105509223D01*
X179684290Y-105367735D01*
X179669799Y-105220600D01*
X179684290Y-105073465D01*
X179727210Y-104931977D01*
X179796904Y-104801590D01*
X179796905Y-104801588D01*
X179890699Y-104687299D01*
X180004988Y-104593505D01*
X180035025Y-104577450D01*
X180135377Y-104523810D01*
X180276865Y-104480890D01*
X180387131Y-104470030D01*
X180958709Y-104470030D01*
X181068975Y-104480890D01*
G37*
G36*
X164947200Y-105919600D02*
G01*
X163347200Y-105919600D01*
X163347200Y-104319600D01*
X164947200Y-104319600D01*
X164947200Y-105919600D01*
G37*
G36*
X156760551Y-104350343D02*
G01*
X156906141Y-104410648D01*
X157037170Y-104498199D01*
X157148601Y-104609630D01*
X157236152Y-104740659D01*
X157296457Y-104886249D01*
X157327200Y-105040806D01*
X157327200Y-105198394D01*
X157296457Y-105352951D01*
X157236152Y-105498541D01*
X157148601Y-105629570D01*
X157037170Y-105741001D01*
X156906141Y-105828552D01*
X156760551Y-105888857D01*
X156605994Y-105919600D01*
X156448406Y-105919600D01*
X156293849Y-105888857D01*
X156148259Y-105828552D01*
X156017230Y-105741001D01*
X155905799Y-105629570D01*
X155818248Y-105498541D01*
X155757943Y-105352951D01*
X155727200Y-105198394D01*
X155727200Y-105040806D01*
X155757943Y-104886249D01*
X155818248Y-104740659D01*
X155905799Y-104609630D01*
X156017230Y-104498199D01*
X156148259Y-104410648D01*
X156293849Y-104350343D01*
X156448406Y-104319600D01*
X156605994Y-104319600D01*
X156760551Y-104350343D01*
G37*
G36*
X166878182Y-104446500D02*
G01*
X167005573Y-104499267D01*
X167005574Y-104499268D01*
X167120224Y-104575874D01*
X167217726Y-104673376D01*
X167217727Y-104673378D01*
X167294333Y-104788027D01*
X167347100Y-104915418D01*
X167374000Y-105050655D01*
X167374000Y-105188545D01*
X167347100Y-105323782D01*
X167294333Y-105451173D01*
X167294332Y-105451174D01*
X167217726Y-105565824D01*
X167120224Y-105663326D01*
X167062510Y-105701889D01*
X167005573Y-105739933D01*
X166878182Y-105792700D01*
X166742945Y-105819600D01*
X166605055Y-105819600D01*
X166469818Y-105792700D01*
X166342427Y-105739933D01*
X166285490Y-105701889D01*
X166227776Y-105663326D01*
X166130274Y-105565824D01*
X166053668Y-105451174D01*
X166053667Y-105451173D01*
X166000900Y-105323782D01*
X165974000Y-105188545D01*
X165974000Y-105050655D01*
X166000900Y-104915418D01*
X166053667Y-104788027D01*
X166130273Y-104673378D01*
X166130274Y-104673376D01*
X166227776Y-104575874D01*
X166342426Y-104499268D01*
X166342427Y-104499267D01*
X166469818Y-104446500D01*
X166605055Y-104419600D01*
X166742945Y-104419600D01*
X166878182Y-104446500D01*
G37*
G36*
X174498182Y-104446500D02*
G01*
X174625573Y-104499267D01*
X174625574Y-104499268D01*
X174740224Y-104575874D01*
X174837726Y-104673376D01*
X174837727Y-104673378D01*
X174914333Y-104788027D01*
X174967100Y-104915418D01*
X174994000Y-105050655D01*
X174994000Y-105188545D01*
X174967100Y-105323782D01*
X174914333Y-105451173D01*
X174914332Y-105451174D01*
X174837726Y-105565824D01*
X174740224Y-105663326D01*
X174682510Y-105701889D01*
X174625573Y-105739933D01*
X174498182Y-105792700D01*
X174362945Y-105819600D01*
X174225055Y-105819600D01*
X174089818Y-105792700D01*
X173962427Y-105739933D01*
X173905490Y-105701889D01*
X173847776Y-105663326D01*
X173750274Y-105565824D01*
X173673668Y-105451174D01*
X173673667Y-105451173D01*
X173620900Y-105323782D01*
X173594000Y-105188545D01*
X173594000Y-105050655D01*
X173620900Y-104915418D01*
X173673667Y-104788027D01*
X173750273Y-104673378D01*
X173750274Y-104673376D01*
X173847776Y-104575874D01*
X173962426Y-104499268D01*
X173962427Y-104499267D01*
X174089818Y-104446500D01*
X174225055Y-104419600D01*
X174362945Y-104419600D01*
X174498182Y-104446500D01*
G37*
G36*
X145838975Y-103098030D02*
G01*
X145954123Y-103132960D01*
X145973564Y-103138857D01*
X145980463Y-103140950D01*
X146075425Y-103191709D01*
X146110852Y-103210645D01*
X146225141Y-103304439D01*
X146318935Y-103418728D01*
X146318936Y-103418730D01*
X146388630Y-103549117D01*
X146431550Y-103690605D01*
X146446041Y-103837740D01*
X146431550Y-103984875D01*
X146388630Y-104126363D01*
X146326089Y-104243369D01*
X146318935Y-104256752D01*
X146225141Y-104371041D01*
X146110852Y-104464835D01*
X146110850Y-104464836D01*
X145980463Y-104534530D01*
X145838975Y-104577450D01*
X145728709Y-104588310D01*
X145157131Y-104588310D01*
X145046865Y-104577450D01*
X144905377Y-104534530D01*
X144774990Y-104464836D01*
X144774988Y-104464835D01*
X144660699Y-104371041D01*
X144566905Y-104256752D01*
X144559751Y-104243369D01*
X144497210Y-104126363D01*
X144454290Y-103984875D01*
X144439799Y-103837740D01*
X144454290Y-103690605D01*
X144497210Y-103549117D01*
X144566904Y-103418730D01*
X144566905Y-103418728D01*
X144660699Y-103304439D01*
X144774988Y-103210645D01*
X144810415Y-103191709D01*
X144905377Y-103140950D01*
X144912277Y-103138857D01*
X144931717Y-103132960D01*
X145046865Y-103098030D01*
X145157131Y-103087170D01*
X145728709Y-103087170D01*
X145838975Y-103098030D01*
G37*
G36*
X178031135Y-103096590D02*
G01*
X178146283Y-103131520D01*
X178170471Y-103138857D01*
X178172623Y-103139510D01*
X178272975Y-103193150D01*
X178303012Y-103209205D01*
X178417301Y-103302999D01*
X178511095Y-103417288D01*
X178511096Y-103417290D01*
X178580790Y-103547677D01*
X178623710Y-103689165D01*
X178638201Y-103836300D01*
X178623710Y-103983435D01*
X178580790Y-104124923D01*
X178580020Y-104126363D01*
X178511095Y-104255312D01*
X178417301Y-104369601D01*
X178303012Y-104463395D01*
X178303010Y-104463396D01*
X178172623Y-104533090D01*
X178031135Y-104576010D01*
X177920869Y-104586870D01*
X177349291Y-104586870D01*
X177239025Y-104576010D01*
X177097537Y-104533090D01*
X176967150Y-104463396D01*
X176967148Y-104463395D01*
X176852859Y-104369601D01*
X176759065Y-104255312D01*
X176690140Y-104126363D01*
X176689370Y-104124923D01*
X176646450Y-103983435D01*
X176631959Y-103836300D01*
X176646450Y-103689165D01*
X176689370Y-103547677D01*
X176759064Y-103417290D01*
X176759065Y-103417288D01*
X176852859Y-103302999D01*
X176967148Y-103209205D01*
X176997185Y-103193150D01*
X177097537Y-103139510D01*
X177099690Y-103138857D01*
X177123877Y-103131520D01*
X177239025Y-103096590D01*
X177349291Y-103085730D01*
X177920869Y-103085730D01*
X178031135Y-103096590D01*
G37*
G36*
X166878182Y-102146500D02*
G01*
X167005573Y-102199267D01*
X167005574Y-102199268D01*
X167120224Y-102275874D01*
X167217726Y-102373376D01*
X167217727Y-102373378D01*
X167294333Y-102488027D01*
X167347100Y-102615418D01*
X167374000Y-102750655D01*
X167374000Y-102888545D01*
X167347100Y-103023782D01*
X167294333Y-103151173D01*
X167266285Y-103193150D01*
X167217726Y-103265824D01*
X167120224Y-103363326D01*
X167062510Y-103401889D01*
X167005573Y-103439933D01*
X166878182Y-103492700D01*
X166742945Y-103519600D01*
X166605055Y-103519600D01*
X166469818Y-103492700D01*
X166342427Y-103439933D01*
X166285490Y-103401889D01*
X166227776Y-103363326D01*
X166130274Y-103265824D01*
X166081715Y-103193150D01*
X166053667Y-103151173D01*
X166000900Y-103023782D01*
X165974000Y-102888545D01*
X165974000Y-102750655D01*
X166000900Y-102615418D01*
X166053667Y-102488027D01*
X166130273Y-102373378D01*
X166130274Y-102373376D01*
X166227776Y-102275874D01*
X166342426Y-102199268D01*
X166342427Y-102199267D01*
X166469818Y-102146500D01*
X166605055Y-102119600D01*
X166742945Y-102119600D01*
X166878182Y-102146500D01*
G37*
G36*
X174498182Y-102146500D02*
G01*
X174625573Y-102199267D01*
X174625574Y-102199268D01*
X174740224Y-102275874D01*
X174837726Y-102373376D01*
X174837727Y-102373378D01*
X174914333Y-102488027D01*
X174967100Y-102615418D01*
X174994000Y-102750655D01*
X174994000Y-102888545D01*
X174967100Y-103023782D01*
X174914333Y-103151173D01*
X174886285Y-103193150D01*
X174837726Y-103265824D01*
X174740224Y-103363326D01*
X174682510Y-103401889D01*
X174625573Y-103439933D01*
X174498182Y-103492700D01*
X174362945Y-103519600D01*
X174225055Y-103519600D01*
X174089818Y-103492700D01*
X173962427Y-103439933D01*
X173905490Y-103401889D01*
X173847776Y-103363326D01*
X173750274Y-103265824D01*
X173701715Y-103193150D01*
X173673667Y-103151173D01*
X173620900Y-103023782D01*
X173594000Y-102888545D01*
X173594000Y-102750655D01*
X173620900Y-102615418D01*
X173673667Y-102488027D01*
X173750273Y-102373378D01*
X173750274Y-102373376D01*
X173847776Y-102275874D01*
X173962426Y-102199268D01*
X173962427Y-102199267D01*
X174089818Y-102146500D01*
X174225055Y-102119600D01*
X174362945Y-102119600D01*
X174498182Y-102146500D01*
G37*
G36*
X142801135Y-101713730D02*
G01*
X142942623Y-101756650D01*
X143035529Y-101806310D01*
X143073012Y-101826345D01*
X143187301Y-101920139D01*
X143281095Y-102034428D01*
X143281096Y-102034430D01*
X143350790Y-102164817D01*
X143393710Y-102306305D01*
X143408201Y-102453440D01*
X143393710Y-102600575D01*
X143350790Y-102742063D01*
X143288249Y-102859069D01*
X143281095Y-102872452D01*
X143187301Y-102986741D01*
X143073012Y-103080535D01*
X143073010Y-103080536D01*
X142942623Y-103150230D01*
X142942620Y-103150231D01*
X142939511Y-103151174D01*
X142801135Y-103193150D01*
X142690869Y-103204010D01*
X142119291Y-103204010D01*
X142009025Y-103193150D01*
X141870649Y-103151174D01*
X141867540Y-103150231D01*
X141867537Y-103150230D01*
X141737150Y-103080536D01*
X141737148Y-103080535D01*
X141622859Y-102986741D01*
X141529065Y-102872452D01*
X141521911Y-102859069D01*
X141459370Y-102742063D01*
X141416450Y-102600575D01*
X141401959Y-102453440D01*
X141416450Y-102306305D01*
X141459370Y-102164817D01*
X141529064Y-102034430D01*
X141529065Y-102034428D01*
X141622859Y-101920139D01*
X141737148Y-101826345D01*
X141774631Y-101806310D01*
X141867537Y-101756650D01*
X142009025Y-101713730D01*
X142119291Y-101702870D01*
X142690869Y-101702870D01*
X142801135Y-101713730D01*
G37*
G36*
X181068975Y-101712290D02*
G01*
X181210463Y-101755210D01*
X181306063Y-101806310D01*
X181340852Y-101824905D01*
X181455141Y-101918699D01*
X181548935Y-102032988D01*
X181548936Y-102032990D01*
X181618630Y-102163377D01*
X181661550Y-102304865D01*
X181676041Y-102452000D01*
X181661550Y-102599135D01*
X181618630Y-102740623D01*
X181613267Y-102750656D01*
X181548935Y-102871012D01*
X181455141Y-102985301D01*
X181340852Y-103079095D01*
X181340850Y-103079096D01*
X181210463Y-103148790D01*
X181210460Y-103148791D01*
X181202604Y-103151174D01*
X181068975Y-103191710D01*
X180958709Y-103202570D01*
X180387131Y-103202570D01*
X180276865Y-103191710D01*
X180143236Y-103151174D01*
X180135380Y-103148791D01*
X180135377Y-103148790D01*
X180004990Y-103079096D01*
X180004988Y-103079095D01*
X179890699Y-102985301D01*
X179796905Y-102871012D01*
X179732573Y-102750656D01*
X179727210Y-102740623D01*
X179684290Y-102599135D01*
X179669799Y-102452000D01*
X179684290Y-102304865D01*
X179727210Y-102163377D01*
X179796904Y-102032990D01*
X179796905Y-102032988D01*
X179890699Y-101918699D01*
X180004988Y-101824905D01*
X180039777Y-101806310D01*
X180135377Y-101755210D01*
X180276865Y-101712290D01*
X180387131Y-101701430D01*
X180958709Y-101701430D01*
X181068975Y-101712290D01*
G37*
G36*
X164959200Y-103169600D02*
G01*
X163359200Y-103169600D01*
X163359200Y-101569600D01*
X164959200Y-101569600D01*
X164959200Y-103169600D01*
G37*
G36*
X156772551Y-101600343D02*
G01*
X156918141Y-101660648D01*
X157049170Y-101748199D01*
X157160601Y-101859630D01*
X157248152Y-101990659D01*
X157308457Y-102136249D01*
X157339200Y-102290806D01*
X157339200Y-102448394D01*
X157308457Y-102602951D01*
X157248152Y-102748541D01*
X157160601Y-102879570D01*
X157049170Y-102991001D01*
X156918141Y-103078552D01*
X156772551Y-103138857D01*
X156617994Y-103169600D01*
X156460406Y-103169600D01*
X156305849Y-103138857D01*
X156160259Y-103078552D01*
X156029230Y-102991001D01*
X155917799Y-102879570D01*
X155830248Y-102748541D01*
X155769943Y-102602951D01*
X155739200Y-102448394D01*
X155739200Y-102290806D01*
X155769943Y-102136249D01*
X155830248Y-101990659D01*
X155917799Y-101859630D01*
X156029230Y-101748199D01*
X156160259Y-101660648D01*
X156305849Y-101600343D01*
X156460406Y-101569600D01*
X156617994Y-101569600D01*
X156772551Y-101600343D01*
G37*
G36*
X145838975Y-100326890D02*
G01*
X145980463Y-100369810D01*
X146075425Y-100420569D01*
X146110852Y-100439505D01*
X146225141Y-100533299D01*
X146318935Y-100647588D01*
X146318936Y-100647590D01*
X146388630Y-100777977D01*
X146431550Y-100919465D01*
X146446041Y-101066600D01*
X146431550Y-101213735D01*
X146388630Y-101355223D01*
X146326089Y-101472229D01*
X146318935Y-101485612D01*
X146225141Y-101599901D01*
X146110852Y-101693695D01*
X146110850Y-101693696D01*
X145980463Y-101763390D01*
X145838975Y-101806310D01*
X145728709Y-101817170D01*
X145157131Y-101817170D01*
X145046865Y-101806310D01*
X144905377Y-101763390D01*
X144774990Y-101693696D01*
X144774988Y-101693695D01*
X144660699Y-101599901D01*
X144566905Y-101485612D01*
X144559751Y-101472229D01*
X144497210Y-101355223D01*
X144454290Y-101213735D01*
X144439799Y-101066600D01*
X144454290Y-100919465D01*
X144497210Y-100777977D01*
X144566904Y-100647590D01*
X144566905Y-100647588D01*
X144660699Y-100533299D01*
X144774988Y-100439505D01*
X144810415Y-100420569D01*
X144905377Y-100369810D01*
X145046865Y-100326890D01*
X145157131Y-100316030D01*
X145728709Y-100316030D01*
X145838975Y-100326890D01*
G37*
G36*
X178031135Y-100325450D02*
G01*
X178172623Y-100368370D01*
X178272975Y-100422010D01*
X178303012Y-100438065D01*
X178417301Y-100531859D01*
X178511095Y-100646148D01*
X178511096Y-100646150D01*
X178580790Y-100776537D01*
X178623710Y-100918025D01*
X178638201Y-101065160D01*
X178623710Y-101212295D01*
X178580790Y-101353783D01*
X178580020Y-101355223D01*
X178511095Y-101484172D01*
X178417301Y-101598461D01*
X178303012Y-101692255D01*
X178303010Y-101692256D01*
X178172623Y-101761950D01*
X178031135Y-101804870D01*
X177920869Y-101815730D01*
X177349291Y-101815730D01*
X177239025Y-101804870D01*
X177097537Y-101761950D01*
X176967150Y-101692256D01*
X176967148Y-101692255D01*
X176852859Y-101598461D01*
X176759065Y-101484172D01*
X176690140Y-101355223D01*
X176689370Y-101353783D01*
X176646450Y-101212295D01*
X176631959Y-101065160D01*
X176646450Y-100918025D01*
X176689370Y-100776537D01*
X176759064Y-100646150D01*
X176759065Y-100646148D01*
X176852859Y-100531859D01*
X176967148Y-100438065D01*
X176997185Y-100422010D01*
X177097537Y-100368370D01*
X177239025Y-100325450D01*
X177349291Y-100314590D01*
X177920869Y-100314590D01*
X178031135Y-100325450D01*
G37*
G36*
X166878182Y-99846500D02*
G01*
X167005573Y-99899267D01*
X167005574Y-99899268D01*
X167120224Y-99975874D01*
X167217726Y-100073376D01*
X167235430Y-100099872D01*
X167294333Y-100188027D01*
X167347100Y-100315418D01*
X167374000Y-100450655D01*
X167374000Y-100588545D01*
X167347100Y-100723782D01*
X167294333Y-100851173D01*
X167294332Y-100851174D01*
X167217726Y-100965824D01*
X167120224Y-101063326D01*
X167117479Y-101065160D01*
X167005573Y-101139933D01*
X166878182Y-101192700D01*
X166742945Y-101219600D01*
X166605055Y-101219600D01*
X166469818Y-101192700D01*
X166342427Y-101139933D01*
X166230521Y-101065160D01*
X166227776Y-101063326D01*
X166130274Y-100965824D01*
X166053668Y-100851174D01*
X166053667Y-100851173D01*
X166000900Y-100723782D01*
X165974000Y-100588545D01*
X165974000Y-100450655D01*
X166000900Y-100315418D01*
X166053667Y-100188027D01*
X166112570Y-100099872D01*
X166130274Y-100073376D01*
X166227776Y-99975874D01*
X166342426Y-99899268D01*
X166342427Y-99899267D01*
X166469818Y-99846500D01*
X166605055Y-99819600D01*
X166742945Y-99819600D01*
X166878182Y-99846500D01*
G37*
G36*
X174498182Y-99846500D02*
G01*
X174625573Y-99899267D01*
X174625574Y-99899268D01*
X174740224Y-99975874D01*
X174837726Y-100073376D01*
X174855430Y-100099872D01*
X174914333Y-100188027D01*
X174967100Y-100315418D01*
X174994000Y-100450655D01*
X174994000Y-100588545D01*
X174967100Y-100723782D01*
X174914333Y-100851173D01*
X174914332Y-100851174D01*
X174837726Y-100965824D01*
X174740224Y-101063326D01*
X174737479Y-101065160D01*
X174625573Y-101139933D01*
X174498182Y-101192700D01*
X174362945Y-101219600D01*
X174225055Y-101219600D01*
X174089818Y-101192700D01*
X173962427Y-101139933D01*
X173850521Y-101065160D01*
X173847776Y-101063326D01*
X173750274Y-100965824D01*
X173673668Y-100851174D01*
X173673667Y-100851173D01*
X173620900Y-100723782D01*
X173594000Y-100588545D01*
X173594000Y-100450655D01*
X173620900Y-100315418D01*
X173673667Y-100188027D01*
X173732570Y-100099872D01*
X173750274Y-100073376D01*
X173847776Y-99975874D01*
X173962426Y-99899268D01*
X173962427Y-99899267D01*
X174089818Y-99846500D01*
X174225055Y-99819600D01*
X174362945Y-99819600D01*
X174498182Y-99846500D01*
G37*
G36*
X142801135Y-98942590D02*
G01*
X142942623Y-98985510D01*
X143037585Y-99036269D01*
X143073012Y-99055205D01*
X143187301Y-99148999D01*
X143281095Y-99263288D01*
X143281096Y-99263290D01*
X143350790Y-99393677D01*
X143393710Y-99535165D01*
X143408201Y-99682300D01*
X143393710Y-99829435D01*
X143350790Y-99970923D01*
X143336027Y-99998542D01*
X143281095Y-100101312D01*
X143187301Y-100215601D01*
X143073012Y-100309395D01*
X143073010Y-100309396D01*
X142942623Y-100379090D01*
X142801135Y-100422010D01*
X142690869Y-100432870D01*
X142119291Y-100432870D01*
X142009025Y-100422010D01*
X141867537Y-100379090D01*
X141737150Y-100309396D01*
X141737148Y-100309395D01*
X141622859Y-100215601D01*
X141529065Y-100101312D01*
X141474133Y-99998542D01*
X141459370Y-99970923D01*
X141416450Y-99829435D01*
X141401959Y-99682300D01*
X141416450Y-99535165D01*
X141459370Y-99393677D01*
X141529064Y-99263290D01*
X141529065Y-99263288D01*
X141622859Y-99148999D01*
X141737148Y-99055205D01*
X141772575Y-99036269D01*
X141867537Y-98985510D01*
X142009025Y-98942590D01*
X142119291Y-98931730D01*
X142690869Y-98931730D01*
X142801135Y-98942590D01*
G37*
G36*
X181068975Y-98941150D02*
G01*
X181210463Y-98984070D01*
X181310815Y-99037710D01*
X181340852Y-99053765D01*
X181455141Y-99147559D01*
X181548935Y-99261848D01*
X181548936Y-99261850D01*
X181618630Y-99392237D01*
X181661550Y-99533725D01*
X181676041Y-99680860D01*
X181661550Y-99827995D01*
X181618630Y-99969483D01*
X181603098Y-99998541D01*
X181548935Y-100099872D01*
X181455141Y-100214161D01*
X181340852Y-100307955D01*
X181340850Y-100307956D01*
X181210463Y-100377650D01*
X181068975Y-100420570D01*
X180958709Y-100431430D01*
X180387131Y-100431430D01*
X180276865Y-100420570D01*
X180135377Y-100377650D01*
X180004990Y-100307956D01*
X180004988Y-100307955D01*
X179890699Y-100214161D01*
X179796905Y-100099872D01*
X179742742Y-99998541D01*
X179727210Y-99969483D01*
X179684290Y-99827995D01*
X179669799Y-99680860D01*
X179684290Y-99533725D01*
X179727210Y-99392237D01*
X179796904Y-99261850D01*
X179796905Y-99261848D01*
X179890699Y-99147559D01*
X180004988Y-99053765D01*
X180035025Y-99037710D01*
X180135377Y-98984070D01*
X180276865Y-98941150D01*
X180387131Y-98930290D01*
X180958709Y-98930290D01*
X181068975Y-98941150D01*
G37*
G36*
X164959200Y-100419600D02*
G01*
X163359200Y-100419600D01*
X163359200Y-98819600D01*
X164959200Y-98819600D01*
X164959200Y-100419600D01*
G37*
G36*
X156772551Y-98850343D02*
G01*
X156918141Y-98910648D01*
X157049170Y-98998199D01*
X157160601Y-99109630D01*
X157248152Y-99240659D01*
X157308457Y-99386249D01*
X157339200Y-99540806D01*
X157339200Y-99698394D01*
X157308457Y-99852951D01*
X157248152Y-99998541D01*
X157160601Y-100129570D01*
X157049170Y-100241001D01*
X156918141Y-100328552D01*
X156772551Y-100388857D01*
X156617994Y-100419600D01*
X156460406Y-100419600D01*
X156305849Y-100388857D01*
X156160259Y-100328552D01*
X156029230Y-100241001D01*
X155917799Y-100129570D01*
X155830248Y-99998541D01*
X155769943Y-99852951D01*
X155739200Y-99698394D01*
X155739200Y-99540806D01*
X155769943Y-99386249D01*
X155830248Y-99240659D01*
X155917799Y-99109630D01*
X156029230Y-98998199D01*
X156160259Y-98910648D01*
X156305849Y-98850343D01*
X156460406Y-98819600D01*
X156617994Y-98819600D01*
X156772551Y-98850343D01*
G37*
G36*
X145838975Y-97558290D02*
G01*
X145980463Y-97601210D01*
X146097469Y-97663751D01*
X146110852Y-97670905D01*
X146225141Y-97764699D01*
X146318935Y-97878988D01*
X146318936Y-97878990D01*
X146388630Y-98009377D01*
X146431550Y-98150865D01*
X146446041Y-98298000D01*
X146431550Y-98445135D01*
X146388630Y-98586623D01*
X146346297Y-98665822D01*
X146318935Y-98717012D01*
X146225141Y-98831301D01*
X146110852Y-98925095D01*
X146110850Y-98925096D01*
X145980463Y-98994790D01*
X145838975Y-99037710D01*
X145728709Y-99048570D01*
X145157131Y-99048570D01*
X145046865Y-99037710D01*
X144905377Y-98994790D01*
X144774990Y-98925096D01*
X144774988Y-98925095D01*
X144660699Y-98831301D01*
X144566905Y-98717012D01*
X144539543Y-98665822D01*
X144497210Y-98586623D01*
X144454290Y-98445135D01*
X144439799Y-98298000D01*
X144454290Y-98150865D01*
X144497210Y-98009377D01*
X144566904Y-97878990D01*
X144566905Y-97878988D01*
X144660699Y-97764699D01*
X144774988Y-97670905D01*
X144788371Y-97663751D01*
X144905377Y-97601210D01*
X145046865Y-97558290D01*
X145157131Y-97547430D01*
X145728709Y-97547430D01*
X145838975Y-97558290D01*
G37*
G36*
X178031135Y-97556850D02*
G01*
X178172623Y-97599770D01*
X178289629Y-97662311D01*
X178303012Y-97669465D01*
X178417301Y-97763259D01*
X178511095Y-97877548D01*
X178511096Y-97877550D01*
X178580790Y-98007937D01*
X178623710Y-98149425D01*
X178638201Y-98296560D01*
X178623710Y-98443695D01*
X178580790Y-98585183D01*
X178580020Y-98586623D01*
X178511095Y-98715572D01*
X178417301Y-98829861D01*
X178303012Y-98923655D01*
X178303010Y-98923656D01*
X178172623Y-98993350D01*
X178031135Y-99036270D01*
X177920869Y-99047130D01*
X177349291Y-99047130D01*
X177239025Y-99036270D01*
X177097537Y-98993350D01*
X176967150Y-98923656D01*
X176967148Y-98923655D01*
X176852859Y-98829861D01*
X176759065Y-98715572D01*
X176690140Y-98586623D01*
X176689370Y-98585183D01*
X176646450Y-98443695D01*
X176631959Y-98296560D01*
X176646450Y-98149425D01*
X176689370Y-98007937D01*
X176759064Y-97877550D01*
X176759065Y-97877548D01*
X176852859Y-97763259D01*
X176967148Y-97669465D01*
X176980531Y-97662311D01*
X177097537Y-97599770D01*
X177239025Y-97556850D01*
X177349291Y-97545990D01*
X177920869Y-97545990D01*
X178031135Y-97556850D01*
G37*
G36*
X174498182Y-97546500D02*
G01*
X174625573Y-97599267D01*
X174682510Y-97637311D01*
X174740224Y-97675874D01*
X174837726Y-97773376D01*
X174837727Y-97773378D01*
X174914333Y-97888027D01*
X174967100Y-98015418D01*
X174994000Y-98150655D01*
X174994000Y-98288545D01*
X174967100Y-98423782D01*
X174914333Y-98551173D01*
X174914332Y-98551174D01*
X174837726Y-98665824D01*
X174740224Y-98763326D01*
X174682510Y-98801889D01*
X174625573Y-98839933D01*
X174498182Y-98892700D01*
X174362945Y-98919600D01*
X174225055Y-98919600D01*
X174089818Y-98892700D01*
X173962427Y-98839933D01*
X173905490Y-98801889D01*
X173847776Y-98763326D01*
X173750274Y-98665824D01*
X173673668Y-98551174D01*
X173673667Y-98551173D01*
X173620900Y-98423782D01*
X173594000Y-98288545D01*
X173594000Y-98150655D01*
X173620900Y-98015418D01*
X173673667Y-97888027D01*
X173750273Y-97773378D01*
X173750274Y-97773376D01*
X173847776Y-97675874D01*
X173905490Y-97637311D01*
X173962427Y-97599267D01*
X174089818Y-97546500D01*
X174225055Y-97519600D01*
X174362945Y-97519600D01*
X174498182Y-97546500D01*
G37*
G36*
X166878182Y-97546500D02*
G01*
X167005573Y-97599267D01*
X167062510Y-97637311D01*
X167120224Y-97675874D01*
X167217726Y-97773376D01*
X167217727Y-97773378D01*
X167294333Y-97888027D01*
X167347100Y-98015418D01*
X167374000Y-98150655D01*
X167374000Y-98288545D01*
X167347100Y-98423782D01*
X167294333Y-98551173D01*
X167294332Y-98551174D01*
X167217726Y-98665824D01*
X167120224Y-98763326D01*
X167062510Y-98801889D01*
X167005573Y-98839933D01*
X166878182Y-98892700D01*
X166742945Y-98919600D01*
X166605055Y-98919600D01*
X166469818Y-98892700D01*
X166342427Y-98839933D01*
X166285490Y-98801889D01*
X166227776Y-98763326D01*
X166130274Y-98665824D01*
X166053668Y-98551174D01*
X166053667Y-98551173D01*
X166000900Y-98423782D01*
X165974000Y-98288545D01*
X165974000Y-98150655D01*
X166000900Y-98015418D01*
X166053667Y-97888027D01*
X166130273Y-97773378D01*
X166130274Y-97773376D01*
X166227776Y-97675874D01*
X166285490Y-97637311D01*
X166342427Y-97599267D01*
X166469818Y-97546500D01*
X166605055Y-97519600D01*
X166742945Y-97519600D01*
X166878182Y-97546500D01*
G37*
G36*
X164959200Y-97669600D02*
G01*
X163359200Y-97669600D01*
X163359200Y-96069600D01*
X164959200Y-96069600D01*
X164959200Y-97669600D01*
G37*
G36*
X156772551Y-96100343D02*
G01*
X156918141Y-96160648D01*
X157049170Y-96248199D01*
X157160601Y-96359630D01*
X157248152Y-96490659D01*
X157308457Y-96636249D01*
X157339200Y-96790806D01*
X157339200Y-96948394D01*
X157308457Y-97102951D01*
X157248152Y-97248541D01*
X157160601Y-97379570D01*
X157049170Y-97491001D01*
X156918141Y-97578552D01*
X156772551Y-97638857D01*
X156617994Y-97669600D01*
X156460406Y-97669600D01*
X156305849Y-97638857D01*
X156160259Y-97578552D01*
X156029230Y-97491001D01*
X155917799Y-97379570D01*
X155830248Y-97248541D01*
X155769943Y-97102951D01*
X155739200Y-96948394D01*
X155739200Y-96790806D01*
X155769943Y-96636249D01*
X155830248Y-96490659D01*
X155917799Y-96359630D01*
X156029230Y-96248199D01*
X156160259Y-96160648D01*
X156305849Y-96100343D01*
X156460406Y-96069600D01*
X156617994Y-96069600D01*
X156772551Y-96100343D01*
G37*
G36*
X174498182Y-95246500D02*
G01*
X174625573Y-95299267D01*
X174625574Y-95299268D01*
X174740224Y-95375874D01*
X174837726Y-95473376D01*
X174837727Y-95473378D01*
X174914333Y-95588027D01*
X174967100Y-95715418D01*
X174994000Y-95850655D01*
X174994000Y-95988545D01*
X174967100Y-96123782D01*
X174914333Y-96251173D01*
X174914332Y-96251174D01*
X174837726Y-96365824D01*
X174740224Y-96463326D01*
X174699318Y-96490658D01*
X174625573Y-96539933D01*
X174498182Y-96592700D01*
X174362945Y-96619600D01*
X174225055Y-96619600D01*
X174089818Y-96592700D01*
X173962427Y-96539933D01*
X173888682Y-96490658D01*
X173847776Y-96463326D01*
X173750274Y-96365824D01*
X173673668Y-96251174D01*
X173673667Y-96251173D01*
X173620900Y-96123782D01*
X173594000Y-95988545D01*
X173594000Y-95850655D01*
X173620900Y-95715418D01*
X173673667Y-95588027D01*
X173750273Y-95473378D01*
X173750274Y-95473376D01*
X173847776Y-95375874D01*
X173962426Y-95299268D01*
X173962427Y-95299267D01*
X174089818Y-95246500D01*
X174225055Y-95219600D01*
X174362945Y-95219600D01*
X174498182Y-95246500D01*
G37*
G36*
X166878182Y-95246500D02*
G01*
X167005573Y-95299267D01*
X167005574Y-95299268D01*
X167120224Y-95375874D01*
X167217726Y-95473376D01*
X167217727Y-95473378D01*
X167294333Y-95588027D01*
X167347100Y-95715418D01*
X167374000Y-95850655D01*
X167374000Y-95988545D01*
X167347100Y-96123782D01*
X167294333Y-96251173D01*
X167294332Y-96251174D01*
X167217726Y-96365824D01*
X167120224Y-96463326D01*
X167079318Y-96490658D01*
X167005573Y-96539933D01*
X166878182Y-96592700D01*
X166742945Y-96619600D01*
X166605055Y-96619600D01*
X166469818Y-96592700D01*
X166342427Y-96539933D01*
X166268682Y-96490658D01*
X166227776Y-96463326D01*
X166130274Y-96365824D01*
X166053668Y-96251174D01*
X166053667Y-96251173D01*
X166000900Y-96123782D01*
X165974000Y-95988545D01*
X165974000Y-95850655D01*
X166000900Y-95715418D01*
X166053667Y-95588027D01*
X166130273Y-95473378D01*
X166130274Y-95473376D01*
X166227776Y-95375874D01*
X166342426Y-95299268D01*
X166342427Y-95299267D01*
X166469818Y-95246500D01*
X166605055Y-95219600D01*
X166742945Y-95219600D01*
X166878182Y-95246500D01*
G37*
G36*
X156772551Y-93350343D02*
G01*
X156918141Y-93410648D01*
X157049170Y-93498199D01*
X157160601Y-93609630D01*
X157248152Y-93740659D01*
X157308457Y-93886249D01*
X157339200Y-94040806D01*
X157339200Y-94198394D01*
X157308457Y-94352951D01*
X157248152Y-94498541D01*
X157160601Y-94629570D01*
X157049170Y-94741001D01*
X156918141Y-94828552D01*
X156772551Y-94888857D01*
X156617994Y-94919600D01*
X156460406Y-94919600D01*
X156305849Y-94888857D01*
X156160259Y-94828552D01*
X156029230Y-94741001D01*
X155917799Y-94629570D01*
X155830248Y-94498541D01*
X155769943Y-94352951D01*
X155739200Y-94198394D01*
X155739200Y-94040806D01*
X155769943Y-93886249D01*
X155830248Y-93740659D01*
X155917799Y-93609630D01*
X156029230Y-93498199D01*
X156160259Y-93410648D01*
X156305849Y-93350343D01*
X156460406Y-93319600D01*
X156617994Y-93319600D01*
X156772551Y-93350343D01*
G37*
G36*
X164959200Y-94919600D02*
G01*
X163359200Y-94919600D01*
X163359200Y-93319600D01*
X164959200Y-93319600D01*
X164959200Y-94919600D01*
G37*
G36*
X179641849Y-88889459D02*
G01*
X179883407Y-88937508D01*
X180071909Y-89015588D01*
X180338491Y-89126010D01*
X180748058Y-89399674D01*
X181096366Y-89747982D01*
X181370030Y-90157549D01*
X181558532Y-90612634D01*
X181654630Y-91095748D01*
X181654630Y-91588332D01*
X181624738Y-91738609D01*
X181558532Y-92071447D01*
X181480452Y-92259949D01*
X181370030Y-92526531D01*
X181096366Y-92936098D01*
X180748058Y-93284406D01*
X180338491Y-93558070D01*
X180201124Y-93614969D01*
X179883407Y-93746572D01*
X179760891Y-93770942D01*
X179400292Y-93842670D01*
X178907708Y-93842670D01*
X178547109Y-93770942D01*
X178424593Y-93746572D01*
X178106876Y-93614969D01*
X177969509Y-93558070D01*
X177559942Y-93284406D01*
X177211634Y-92936098D01*
X176937970Y-92526531D01*
X176827548Y-92259949D01*
X176749468Y-92071447D01*
X176683262Y-91738609D01*
X176653370Y-91588332D01*
X176653370Y-91095748D01*
X176749468Y-90612634D01*
X176937970Y-90157549D01*
X177211634Y-89747982D01*
X177559942Y-89399674D01*
X177969509Y-89126010D01*
X178236091Y-89015588D01*
X178424593Y-88937508D01*
X178666151Y-88889459D01*
X178907708Y-88841410D01*
X179400292Y-88841410D01*
X179641849Y-88889459D01*
G37*
G36*
X172843247Y-92738285D02*
G01*
X172882995Y-92750343D01*
X172919629Y-92769924D01*
X172951740Y-92796276D01*
X172978092Y-92828387D01*
X172997673Y-92865021D01*
X173009731Y-92904769D01*
X173014407Y-92952249D01*
X173014407Y-93614969D01*
X173009731Y-93662449D01*
X172997673Y-93702197D01*
X172978092Y-93738831D01*
X172951740Y-93770942D01*
X172919629Y-93797294D01*
X172882995Y-93816875D01*
X172843247Y-93828933D01*
X172795767Y-93833609D01*
X171433047Y-93833609D01*
X171385567Y-93828933D01*
X171345819Y-93816875D01*
X171309185Y-93797294D01*
X171277074Y-93770942D01*
X171250722Y-93738831D01*
X171231141Y-93702197D01*
X171219083Y-93662449D01*
X171214407Y-93614969D01*
X171214407Y-92952249D01*
X171219083Y-92904769D01*
X171231141Y-92865021D01*
X171250722Y-92828387D01*
X171277074Y-92796276D01*
X171309185Y-92769924D01*
X171345819Y-92750343D01*
X171385567Y-92738285D01*
X171433047Y-92733609D01*
X172795767Y-92733609D01*
X172843247Y-92738285D01*
G37*
G36*
X169728696Y-93833609D02*
G01*
X167928696Y-93833609D01*
X167928696Y-92733609D01*
X169728696Y-92733609D01*
X169728696Y-93833609D01*
G37*
G36*
X174913247Y-91468285D02*
G01*
X174952995Y-91480343D01*
X174989629Y-91499924D01*
X175021740Y-91526276D01*
X175048092Y-91558387D01*
X175067673Y-91595021D01*
X175079731Y-91634769D01*
X175084407Y-91682249D01*
X175084407Y-92344969D01*
X175079731Y-92392449D01*
X175067673Y-92432197D01*
X175048092Y-92468831D01*
X175021740Y-92500942D01*
X174989629Y-92527294D01*
X174952995Y-92546875D01*
X174913247Y-92558933D01*
X174865767Y-92563609D01*
X173503047Y-92563609D01*
X173455567Y-92558933D01*
X173415819Y-92546875D01*
X173379185Y-92527294D01*
X173347074Y-92500942D01*
X173320722Y-92468831D01*
X173301141Y-92432197D01*
X173289083Y-92392449D01*
X173284407Y-92344969D01*
X173284407Y-91682249D01*
X173289083Y-91634769D01*
X173301141Y-91595021D01*
X173320722Y-91558387D01*
X173347074Y-91526276D01*
X173379185Y-91499924D01*
X173415819Y-91480343D01*
X173455567Y-91468285D01*
X173503047Y-91463609D01*
X174865767Y-91463609D01*
X174913247Y-91468285D01*
G37*
G36*
X167487536Y-91468285D02*
G01*
X167527284Y-91480343D01*
X167563918Y-91499924D01*
X167596029Y-91526276D01*
X167622381Y-91558387D01*
X167641962Y-91595021D01*
X167654020Y-91634769D01*
X167658696Y-91682249D01*
X167658696Y-92344969D01*
X167654020Y-92392449D01*
X167641962Y-92432197D01*
X167622381Y-92468831D01*
X167596029Y-92500942D01*
X167563918Y-92527294D01*
X167527284Y-92546875D01*
X167487536Y-92558933D01*
X167440056Y-92563609D01*
X166077336Y-92563609D01*
X166029856Y-92558933D01*
X165990108Y-92546875D01*
X165953474Y-92527294D01*
X165921363Y-92500942D01*
X165895011Y-92468831D01*
X165875430Y-92432197D01*
X165863372Y-92392449D01*
X165858696Y-92344969D01*
X165858696Y-91682249D01*
X165863372Y-91634769D01*
X165875430Y-91595021D01*
X165895011Y-91558387D01*
X165921363Y-91526276D01*
X165953474Y-91499924D01*
X165990108Y-91480343D01*
X166029856Y-91468285D01*
X166077336Y-91463609D01*
X167440056Y-91463609D01*
X167487536Y-91468285D01*
G37*
G36*
X164959200Y-92169600D02*
G01*
X163359200Y-92169600D01*
X163359200Y-90569600D01*
X164959200Y-90569600D01*
X164959200Y-92169600D01*
G37*
G36*
X156772551Y-90600343D02*
G01*
X156918141Y-90660648D01*
X157049170Y-90748199D01*
X157160601Y-90859630D01*
X157248152Y-90990659D01*
X157308457Y-91136249D01*
X157339200Y-91290806D01*
X157339200Y-91448394D01*
X157308457Y-91602951D01*
X157248152Y-91748541D01*
X157160601Y-91879570D01*
X157049170Y-91991001D01*
X156918141Y-92078552D01*
X156772551Y-92138857D01*
X156617994Y-92169600D01*
X156460406Y-92169600D01*
X156305849Y-92138857D01*
X156160259Y-92078552D01*
X156029230Y-91991001D01*
X155917799Y-91879570D01*
X155830248Y-91748541D01*
X155769943Y-91602951D01*
X155739200Y-91448394D01*
X155739200Y-91290806D01*
X155769943Y-91136249D01*
X155830248Y-90990659D01*
X155917799Y-90859630D01*
X156029230Y-90748199D01*
X156160259Y-90660648D01*
X156305849Y-90600343D01*
X156460406Y-90569600D01*
X156617994Y-90569600D01*
X156772551Y-90600343D01*
G37*
G36*
X173014407Y-91293609D02*
G01*
X171214407Y-91293609D01*
X171214407Y-90193609D01*
X173014407Y-90193609D01*
X173014407Y-91293609D01*
G37*
G36*
X169557536Y-90198285D02*
G01*
X169597284Y-90210343D01*
X169633918Y-90229924D01*
X169666029Y-90256276D01*
X169692381Y-90288387D01*
X169711962Y-90325021D01*
X169724020Y-90364769D01*
X169728696Y-90412249D01*
X169728696Y-91074969D01*
X169724020Y-91122449D01*
X169711962Y-91162197D01*
X169692381Y-91198831D01*
X169666029Y-91230942D01*
X169633918Y-91257294D01*
X169597284Y-91276875D01*
X169557536Y-91288933D01*
X169510056Y-91293609D01*
X168147336Y-91293609D01*
X168099856Y-91288933D01*
X168060108Y-91276875D01*
X168023474Y-91257294D01*
X167991363Y-91230942D01*
X167965011Y-91198831D01*
X167945430Y-91162197D01*
X167933372Y-91122449D01*
X167928696Y-91074969D01*
X167928696Y-90412249D01*
X167933372Y-90364769D01*
X167945430Y-90325021D01*
X167965011Y-90288387D01*
X167991363Y-90256276D01*
X168023474Y-90229924D01*
X168060108Y-90210343D01*
X168099856Y-90198285D01*
X168147336Y-90193609D01*
X169510056Y-90193609D01*
X169557536Y-90198285D01*
G37*
M02*
